<svg xmlns="http://www.w3.org/2000/svg" xmlns:xlink="http://www.w3.org/1999/xlink" viewBox="0 0 223.23 300.13"><defs><style>.cls-1{fill:#fff;}.cls-2{fill:url(#Degradado_sin_nombre);}.cls-3{fill:url(#Degradado_sin_nombre_2);}.cls-4{fill:url(#Degradado_sin_nombre_3);}.cls-5{fill:url(#Degradado_sin_nombre_4);}.cls-6{fill:#50e6ff;}.cls-7{fill:url(#Degradado_sin_nombre_5);}.cls-8{fill:#e6e6e6;}.cls-9{fill:#86d633;}.cls-10{fill:#ffca00;}.cls-11{fill:#b31b1b;}.cls-12{fill:#231f20;}.cls-13{fill:url(#Degradado_sin_nombre_6);}.cls-14{fill:#0072c6;}.cls-14,.cls-18{opacity:0.25;}.cls-14,.cls-15,.cls-16,.cls-17,.cls-18{isolation:isolate;}.cls-15{fill:#37c2b1;opacity:0.4;}.cls-16,.cls-18{fill:#3c3c41;}.cls-16{opacity:0.02;}.cls-17,.cls-19{fill:none;}.cls-17{stroke:#75757a;stroke-miterlimit:10;stroke-width:0.5px;opacity:0.5;}.cls-19{stroke:#231f20;}</style><linearGradient id="Degradado_sin_nombre" x1="27.5" y1="197.8" x2="27.5" y2="191.8" gradientTransform="matrix(1, 0, 0, -1, 0, 302)" gradientUnits="userSpaceOnUse"><stop offset="0" stop-color="#5ea0ef"/><stop offset="0.18" stop-color="#559cec"/><stop offset="0.47" stop-color="#3c91e5"/><stop offset="0.84" stop-color="#1380da"/><stop offset="1" stop-color="#0078d4"/></linearGradient><linearGradient id="Degradado_sin_nombre_2" x1="27.5" y1="205.8" x2="27.5" y2="199.8" xlink:href="#Degradado_sin_nombre"/><linearGradient id="Degradado_sin_nombre_3" x1="27.5" y1="213.8" x2="27.5" y2="207.8" xlink:href="#Degradado_sin_nombre"/><linearGradient id="Degradado_sin_nombre_4" x1="27.5" y1="221.8" x2="27.5" y2="215.8" xlink:href="#Degradado_sin_nombre"/><linearGradient id="Degradado_sin_nombre_5" x1="90.83" y1="284.78" x2="90.83" y2="267.78" gradientTransform="matrix(1, 0, 0, -1, 0, 302)" gradientUnits="userSpaceOnUse"><stop offset="0" stop-color="#b3b3b3"/><stop offset="0.47" stop-color="#a2a2a2"/><stop offset="1" stop-color="#949494"/></linearGradient><linearGradient id="Degradado_sin_nombre_6" x1="180.83" y1="284.78" x2="180.83" y2="267.78" xlink:href="#Degradado_sin_nombre_5"/></defs><title>OJ105266024</title><g id="Capa_1" data-name="Capa 1"><g id="Shapes"><rect class="cls-1" width="223.23" height="300.13"/><path class="cls-1" d="M11.5,104.2h32v6h-32Zm14,3a1.5,1.5,0,1,1-1.5-1.5,1.5,1.5,0,0,1,1.5,1.5Z"/><path class="cls-2" d="M11.5,104.2h32v6h-32Zm14,3a1.5,1.5,0,1,1-1.5-1.5,1.5,1.5,0,0,1,1.5,1.5Z"/><path class="cls-1" d="M11.5,96.2h32v6h-32Zm14,3A1.5,1.5,0,1,1,24,97.7a1.5,1.5,0,0,1,1.5,1.5Z"/><path class="cls-3" d="M11.5,96.2h32v6h-32Zm14,3A1.5,1.5,0,1,1,24,97.7a1.5,1.5,0,0,1,1.5,1.5Z"/><path class="cls-1" d="M11.5,88.2h32v6h-32Zm14,3A1.5,1.5,0,1,1,24,89.7a1.5,1.5,0,0,1,1.5,1.5Z"/><path class="cls-4" d="M11.5,88.2h32v6h-32Zm14,3A1.5,1.5,0,1,1,24,89.7a1.5,1.5,0,0,1,1.5,1.5Z"/><path class="cls-1" d="M11.5,80.2h32v6h-32Zm14,3A1.5,1.5,0,1,1,24,81.7a1.5,1.5,0,0,1,1.5,1.5Z"/><path class="cls-5" d="M11.5,80.2h32v6h-32Zm14,3A1.5,1.5,0,1,1,24,81.7a1.5,1.5,0,0,1,1.5,1.5Z"/><path class="cls-6" d="M15,108.7a1.5,1.5,0,1,0-1.5-1.5A1.5,1.5,0,0,0,15,108.7Z"/><path class="cls-6" d="M19.5,108.7a1.5,1.5,0,1,0-1.5-1.5A1.5,1.5,0,0,0,19.5,108.7Z"/><path class="cls-6" d="M15,100.7a1.5,1.5,0,1,0-1.5-1.5A1.5,1.5,0,0,0,15,100.7Z"/><path class="cls-6" d="M19.5,100.7A1.5,1.5,0,1,0,18,99.2,1.5,1.5,0,0,0,19.5,100.7Z"/><path class="cls-6" d="M15,92.7a1.5,1.5,0,1,0-1.5-1.5A1.5,1.5,0,0,0,15,92.7Z"/><path class="cls-6" d="M19.5,92.7A1.5,1.5,0,1,0,18,91.2,1.5,1.5,0,0,0,19.5,92.7Z"/><path class="cls-6" d="M15,84.7a1.5,1.5,0,1,0-1.5-1.5A1.5,1.5,0,0,0,15,84.7Z"/><path class="cls-6" d="M19.5,84.7A1.5,1.5,0,1,0,18,83.2,1.5,1.5,0,0,0,19.5,84.7Z"/><path class="cls-1" d="M23.87,84.7a1.5,1.5,0,1,0-1.5-1.5A1.5,1.5,0,0,0,23.87,84.7Z"/><path class="cls-1" d="M23.87,92.7a1.5,1.5,0,1,0-1.5-1.5A1.5,1.5,0,0,0,23.87,92.7Z"/><path class="cls-1" d="M23.87,100.7a1.5,1.5,0,1,0-1.5-1.5A1.5,1.5,0,0,0,23.87,100.7Z"/><path class="cls-1" d="M23.87,108.7a1.5,1.5,0,1,0-1.5-1.5A1.5,1.5,0,0,0,23.87,108.7Z"/><rect class="cls-1" x="49.43" y="17.22" width="82.8" height="17" rx="2"/><rect class="cls-7" x="49.43" y="17.22" width="82.8" height="17" rx="2"/><path class="cls-8" d="M130.23,18.22a1,1,0,0,1,1,1v13a1,1,0,0,1-1,1H51.43a1,1,0,0,1-1-1v-13a1,1,0,0,1,1-1h78.8m0-2H51.43a3,3,0,0,0-3,3v13a3,3,0,0,0,3,3h78.8a3,3,0,0,0,3-3v-13A3,3,0,0,0,130.23,16.22Z"/><circle class="cls-9" cx="111.32" cy="21.95" r="1.09"/><circle class="cls-10" cx="117.73" cy="21.95" r="1.09"/><circle class="cls-11" cx="124.13" cy="21.95" r="1.09"/><rect class="cls-8" x="110.23" y="24.7" width="15" height="6.02"/><polygon class="cls-12" points="60.63 22.14 60.63 20.85 56.44 20.85 56.44 22.14 55.03 22.14 55.03 24.7 62.03 24.7 62.03 22.14 60.63 22.14"/><polygon class="cls-12" points="71.1 22.14 71.1 20.85 66.91 20.85 66.91 22.14 65.5 22.14 65.5 24.7 72.5 24.7 72.5 22.14 71.1 22.14"/><polygon class="cls-12" points="81.57 22.14 81.57 20.85 77.38 20.85 77.38 22.14 75.97 22.14 75.97 24.7 82.97 24.7 82.97 22.14 81.57 22.14"/><polygon class="cls-12" points="92.04 22.14 92.04 20.85 87.85 20.85 87.85 22.14 86.44 22.14 86.44 24.7 93.44 24.7 93.44 22.14 92.04 22.14"/><polygon class="cls-12" points="102.5 22.14 102.5 20.85 98.31 20.85 98.31 22.14 96.91 22.14 96.91 24.7 103.91 24.7 103.91 22.14 102.5 22.14"/><polygon class="cls-12" points="60.63 28 60.63 26.72 56.44 26.72 56.44 28 55.03 28 55.03 30.57 62.03 30.57 62.03 28 60.63 28"/><polygon class="cls-12" points="71.1 28 71.1 26.72 66.91 26.72 66.91 28 65.5 28 65.5 30.57 72.5 30.57 72.5 28 71.1 28"/><polygon class="cls-12" points="81.57 28 81.57 26.72 77.38 26.72 77.38 28 75.97 28 75.97 30.57 82.97 30.57 82.97 28 81.57 28"/><polygon class="cls-12" points="92.04 28 92.04 26.72 87.85 26.72 87.85 28 86.44 28 86.44 30.57 93.44 30.57 93.44 28 92.04 28"/><polygon class="cls-12" points="102.5 28 102.5 26.72 98.31 26.72 98.31 28 96.91 28 96.91 30.57 103.91 30.57 103.91 28 102.5 28"/><rect class="cls-1" x="139.43" y="17.22" width="82.8" height="17" rx="2"/><rect class="cls-13" x="139.43" y="17.22" width="82.8" height="17" rx="2"/><path class="cls-8" d="M220.23,18.22a1,1,0,0,1,1,1v13a1,1,0,0,1-1,1h-78.8a1,1,0,0,1-1-1v-13a1,1,0,0,1,1-1h78.8m0-2h-78.8a3,3,0,0,0-3,3v13a3,3,0,0,0,3,3h78.8a3,3,0,0,0,3-3v-13A3,3,0,0,0,220.23,16.22Z"/><circle class="cls-9" cx="201.32" cy="21.95" r="1.09"/><circle class="cls-10" cx="207.73" cy="21.95" r="1.09"/><circle class="cls-11" cx="214.14" cy="21.95" r="1.09"/><rect class="cls-8" x="200.23" y="24.7" width="15" height="6.02"/><polygon class="cls-12" points="150.63 22.14 150.63 20.85 146.44 20.85 146.44 22.14 145.03 22.14 145.03 24.7 152.03 24.7 152.03 22.14 150.63 22.14"/><polygon class="cls-12" points="161.1 22.14 161.1 20.85 156.91 20.85 156.91 22.14 155.5 22.14 155.5 24.7 162.5 24.7 162.5 22.14 161.1 22.14"/><polygon class="cls-12" points="171.57 22.14 171.57 20.85 167.38 20.85 167.38 22.14 165.97 22.14 165.97 24.7 172.97 24.7 172.97 22.14 171.57 22.14"/><polygon class="cls-12" points="182.04 22.14 182.04 20.85 177.85 20.85 177.85 22.14 176.44 22.14 176.44 24.7 183.44 24.7 183.44 22.14 182.04 22.14"/><polygon class="cls-12" points="192.5 22.14 192.5 20.85 188.31 20.85 188.31 22.14 186.91 22.14 186.91 24.7 193.91 24.7 193.91 22.14 192.5 22.14"/><polygon class="cls-12" points="150.63 28 150.63 26.72 146.44 26.72 146.44 28 145.03 28 145.03 30.57 152.03 30.57 152.03 28 150.63 28"/><polygon class="cls-12" points="161.1 28 161.1 26.72 156.91 26.72 156.91 28 155.5 28 155.5 30.57 162.5 30.57 162.5 28 161.1 28"/><polygon class="cls-12" points="171.57 28 171.57 26.72 167.38 26.72 167.38 28 165.97 28 165.97 30.57 172.97 30.57 172.97 28 171.57 28"/><polygon class="cls-12" points="182.04 28 182.04 26.72 177.85 26.72 177.85 28 176.44 28 176.44 30.57 183.44 30.57 183.44 28 182.04 28"/><polygon class="cls-12" points="192.5 28 192.5 26.72 188.31 26.72 188.31 28 186.91 28 186.91 30.57 193.91 30.57 193.91 28 192.5 28"/><rect class="cls-1" x="58.33" y="80.2" width="155" height="20"/><rect class="cls-14" x="58.33" y="80.2" width="155" height="20"/><rect class="cls-1" x="58.33" y="255.2" width="155" height="24.86"/><rect class="cls-15" x="58.33" y="255.2" width="155" height="24.86"/><rect class="cls-1" x="58.33" y="105.2" width="155" height="20"/><rect class="cls-14" x="58.33" y="105.2" width="155" height="20"/><rect class="cls-1" x="58.33" y="130.2" width="155" height="20"/><rect class="cls-16" x="58.33" y="130.2" width="155" height="20"/><rect class="cls-17" x="58.33" y="130.2" width="155" height="20"/><rect class="cls-1" x="58.33" y="155.2" width="155" height="20"/><rect class="cls-18" x="58.33" y="155.2" width="155" height="20"/><rect class="cls-1" x="58.33" y="180.2" width="155" height="20"/><rect class="cls-18" x="58.33" y="180.2" width="155" height="20"/><rect class="cls-1" x="58.33" y="205.2" width="155" height="20"/><rect class="cls-18" x="58.33" y="205.2" width="155" height="20"/><rect class="cls-1" x="58.33" y="230.2" width="155" height="20"/><rect class="cls-18" x="58.33" y="230.2" width="155" height="20"/><line class="cls-19" x1="63.99" y1="35.15" x2="63.99" y2="105.2"/><line class="cls-19" x1="208.3" y1="35.15" x2="208.3" y2="105.2"/><line class="cls-19" x1="73.99" y1="35.15" x2="73.99" y2="80.2"/><line class="cls-19" x1="198.77" y1="35.15" x2="198.77" y2="80.2"/></g></g><g id="Capa_2" data-name="Capa 2"><path d="M79.4,10.2V1.8h2.33q4.44,0,4.44,4.09A4.11,4.11,0,0,1,84.93,9a4.55,4.55,0,0,1-3.3,1.18Zm1-7.51V9.31h1.25a3.59,3.59,0,0,0,2.58-.89,3.31,3.31,0,0,0,.92-2.5c0-2.16-1.15-3.23-3.44-3.23Z"/><path d="M88.18,2.68a.6.6,0,0,1-.44-.18.59.59,0,0,1-.18-.44.61.61,0,0,1,.18-.45.6.6,0,0,1,.44-.18.62.62,0,0,1,.63.63.62.62,0,0,1-.18.44A.61.61,0,0,1,88.18,2.68Zm.47,7.52h-1v-6h1Z"/><path d="M90.23,10V9A2.84,2.84,0,0,0,92,9.53c.85,0,1.27-.28,1.27-.84a.76.76,0,0,0-.11-.41A1,1,0,0,0,92.83,8a2.28,2.28,0,0,0-.44-.24l-.53-.21a6.76,6.76,0,0,1-.7-.32,2.29,2.29,0,0,1-.51-.36,1.52,1.52,0,0,1-.3-.46,1.62,1.62,0,0,1-.11-.61,1.39,1.39,0,0,1,.2-.74A1.78,1.78,0,0,1,91,4.5a2.77,2.77,0,0,1,.74-.33,3.41,3.41,0,0,1,.85-.11,3.46,3.46,0,0,1,1.4.27v1a2.74,2.74,0,0,0-1.53-.43,1.75,1.75,0,0,0-.48.06,1.33,1.33,0,0,0-.38.17,1,1,0,0,0-.24.27.77.77,0,0,0-.08.34.87.87,0,0,0,.08.39,1,1,0,0,0,.25.29,2.48,2.48,0,0,0,.4.22l.53.22a6.21,6.21,0,0,1,.72.31,2.82,2.82,0,0,1,.54.36,1.41,1.41,0,0,1,.34.47,1.46,1.46,0,0,1,.12.62,1.5,1.5,0,0,1-.19.78,1.71,1.71,0,0,1-.53.54,2.28,2.28,0,0,1-.76.33,3.68,3.68,0,0,1-.89.1A3.41,3.41,0,0,1,90.23,10Z"/><path d="M96.67,9.33h0V13h-1V4.2h1v1h0a2.3,2.3,0,0,1,2.08-1.19,2.2,2.2,0,0,1,1.81.81A3.32,3.32,0,0,1,101.21,7a3.79,3.79,0,0,1-.73,2.42,2.46,2.46,0,0,1-2,.9A2,2,0,0,1,96.67,9.33Zm0-2.42v.84A1.77,1.77,0,0,0,97.13,9a1.59,1.59,0,0,0,1.23.52,1.6,1.6,0,0,0,1.37-.67A3,3,0,0,0,100.22,7a2.41,2.41,0,0,0-.46-1.57,1.53,1.53,0,0,0-1.25-.57,1.7,1.7,0,0,0-1.35.58A2.15,2.15,0,0,0,96.65,6.91Z"/><path d="M105.25,10.34a2.77,2.77,0,0,1-2.12-.84,3.11,3.11,0,0,1-.8-2.23,3.25,3.25,0,0,1,.83-2.36,3,3,0,0,1,2.23-.85,2.68,2.68,0,0,1,2.1.83,3.27,3.27,0,0,1,.75,2.29,3.25,3.25,0,0,1-.81,2.3A2.87,2.87,0,0,1,105.25,10.34Zm.07-5.47a1.81,1.81,0,0,0-1.46.63,2.59,2.59,0,0,0-.54,1.74,2.46,2.46,0,0,0,.54,1.68,1.86,1.86,0,0,0,1.46.61,1.75,1.75,0,0,0,1.43-.6,2.59,2.59,0,0,0,.5-1.72,2.61,2.61,0,0,0-.5-1.73A1.73,1.73,0,0,0,105.32,4.87Z"/><path d="M109.41,10V9a2.82,2.82,0,0,0,1.73.58q1.26,0,1.26-.84a.76.76,0,0,0-.1-.41A1,1,0,0,0,112,8a1.94,1.94,0,0,0-.43-.24L111,7.54c-.26-.11-.5-.21-.7-.32a2.22,2.22,0,0,1-.5-.36,1.38,1.38,0,0,1-.31-.46,1.85,1.85,0,0,1-.1-.61,1.39,1.39,0,0,1,.2-.74,1.67,1.67,0,0,1,.51-.55,2.77,2.77,0,0,1,.74-.33,3.56,3.56,0,0,1,2.24.16v1a2.7,2.7,0,0,0-1.52-.43,1.88,1.88,0,0,0-.49.06,1.4,1.4,0,0,0-.37.17,1,1,0,0,0-.24.27.77.77,0,0,0-.08.34.87.87,0,0,0,.08.39,1,1,0,0,0,.25.29,2.11,2.11,0,0,0,.4.22l.53.22a6.21,6.21,0,0,1,.72.31,2.82,2.82,0,0,1,.54.36,1.41,1.41,0,0,1,.34.47,1.46,1.46,0,0,1,.12.62,1.51,1.51,0,0,1-.2.78,1.58,1.58,0,0,1-.52.54,2.28,2.28,0,0,1-.76.33,3.68,3.68,0,0,1-.89.1A3.39,3.39,0,0,1,109.41,10Z"/><path d="M115.36,2.68a.6.6,0,0,1-.44-.18.59.59,0,0,1-.18-.44.61.61,0,0,1,.18-.45.6.6,0,0,1,.44-.18.64.64,0,0,1,.45.18.61.61,0,0,1,.18.45.62.62,0,0,1-.18.44A.64.64,0,0,1,115.36,2.68Zm.47,7.52h-1v-6h1Z"/><path d="M120.56,10.14a1.82,1.82,0,0,1-.9.19c-1,0-1.58-.59-1.58-1.76V5h-1V4.2h1V2.74l1-.32V4.2h1.52V5H119V8.4a1.37,1.37,0,0,0,.21.86.83.83,0,0,0,.68.26,1.05,1.05,0,0,0,.63-.2Z"/><path d="M122.33,2.68a.6.6,0,0,1-.44-.18.59.59,0,0,1-.18-.44.61.61,0,0,1,.18-.45.6.6,0,0,1,.44-.18.62.62,0,0,1,.63.63.62.62,0,0,1-.18.44A.61.61,0,0,1,122.33,2.68Zm.47,7.52h-1v-6h1Z"/><path d="M129.46,4.2l-2.39,6h-.94l-2.28-6h1.06l1.52,4.36a3.21,3.21,0,0,1,.21.84h0a4.72,4.72,0,0,1,.18-.82l1.6-4.38Z"/><path d="M133,10.34a2.77,2.77,0,0,1-2.12-.84,3.11,3.11,0,0,1-.8-2.23,3.25,3.25,0,0,1,.83-2.36,3,3,0,0,1,2.23-.85,2.68,2.68,0,0,1,2.1.83A3.27,3.27,0,0,1,136,7.18a3.25,3.25,0,0,1-.81,2.3A2.87,2.87,0,0,1,133,10.34Zm.07-5.47a1.81,1.81,0,0,0-1.46.63,2.59,2.59,0,0,0-.54,1.74,2.46,2.46,0,0,0,.54,1.68,1.86,1.86,0,0,0,1.46.61,1.75,1.75,0,0,0,1.43-.6,2.59,2.59,0,0,0,.5-1.72,2.61,2.61,0,0,0-.5-1.73A1.73,1.73,0,0,0,133.07,4.87Z"/><path d="M137.16,10V9a2.82,2.82,0,0,0,1.73.58c.84,0,1.27-.28,1.27-.84a.76.76,0,0,0-.11-.41,1,1,0,0,0-.3-.29,1.94,1.94,0,0,0-.43-.24l-.54-.21c-.26-.11-.49-.21-.7-.32a2.22,2.22,0,0,1-.5-.36,1.35,1.35,0,0,1-.3-.46,1.62,1.62,0,0,1-.11-.61,1.39,1.39,0,0,1,.2-.74,1.78,1.78,0,0,1,.51-.55,2.77,2.77,0,0,1,.74-.33,3.56,3.56,0,0,1,2.24.16v1a2.68,2.68,0,0,0-1.52-.43,1.88,1.88,0,0,0-.49.06,1.4,1.4,0,0,0-.37.17,1,1,0,0,0-.24.27.77.77,0,0,0-.08.34.87.87,0,0,0,.08.39,1,1,0,0,0,.25.29,2.11,2.11,0,0,0,.4.22l.53.22a6.21,6.21,0,0,1,.72.31,2.82,2.82,0,0,1,.54.36A1.41,1.41,0,0,1,141,8a1.46,1.46,0,0,1,.12.62,1.51,1.51,0,0,1-.2.78,1.58,1.58,0,0,1-.52.54,2.28,2.28,0,0,1-.76.33,3.68,3.68,0,0,1-.89.1A3.39,3.39,0,0,1,137.16,10Z"/><path d="M151,10.2h-1v-1h0A2.23,2.23,0,0,1,148,10.34a2.25,2.25,0,0,1-1.81-.8,3.33,3.33,0,0,1-.68-2.2A3.57,3.57,0,0,1,146.24,5a2.48,2.48,0,0,1,2-.9A1.91,1.91,0,0,1,150,5h0V1.32h1Zm-1-2.71V6.6a1.73,1.73,0,0,0-.48-1.23,1.62,1.62,0,0,0-1.22-.5,1.66,1.66,0,0,0-1.38.64,2.87,2.87,0,0,0-.5,1.78A2.54,2.54,0,0,0,147,8.93a1.59,1.59,0,0,0,1.3.6,1.63,1.63,0,0,0,1.3-.58A2.11,2.11,0,0,0,150.06,7.49Z"/><path d="M157.79,7.44h-4.23A2.25,2.25,0,0,0,154.09,9a1.88,1.88,0,0,0,1.42.54,2.94,2.94,0,0,0,1.87-.67v.91a3.53,3.53,0,0,1-2.1.57,2.51,2.51,0,0,1-2-.82,3.31,3.31,0,0,1-.73-2.3,3.28,3.28,0,0,1,.79-2.28,2.55,2.55,0,0,1,2-.88,2.25,2.25,0,0,1,1.82.76,3.18,3.18,0,0,1,.64,2.12Zm-1-.81a2,2,0,0,0-.4-1.3,1.37,1.37,0,0,0-1.1-.46,1.57,1.57,0,0,0-1.16.48,2.24,2.24,0,0,0-.58,1.28Z"/><path d="M163.52,9.33h0v.87h-1V1.32h1V5.25h0a2.27,2.27,0,0,1,2.07-1.19,2.2,2.2,0,0,1,1.81.81A3.32,3.32,0,0,1,168.05,7a3.73,3.73,0,0,1-.73,2.42,2.45,2.45,0,0,1-2,.9A2,2,0,0,1,163.52,9.33Zm0-2.42v.84A1.73,1.73,0,0,0,164,9a1.71,1.71,0,0,0,2.59-.15,3,3,0,0,0,.5-1.85,2.41,2.41,0,0,0-.47-1.57,1.51,1.51,0,0,0-1.25-.57,1.7,1.7,0,0,0-1.35.58A2.15,2.15,0,0,0,163.49,6.91Z"/><path d="M172.09,10.34A2.79,2.79,0,0,1,170,9.5a3.1,3.1,0,0,1-.79-2.23A3.24,3.24,0,0,1,170,4.91a3,3,0,0,1,2.24-.85,2.66,2.66,0,0,1,2.09.83,3.27,3.27,0,0,1,.75,2.29,3.25,3.25,0,0,1-.81,2.3A2.87,2.87,0,0,1,172.09,10.34Zm.08-5.47a1.84,1.84,0,0,0-1.47.63,2.59,2.59,0,0,0-.54,1.74,2.41,2.41,0,0,0,.55,1.68,1.85,1.85,0,0,0,1.46.61,1.77,1.77,0,0,0,1.43-.6,2.65,2.65,0,0,0,.5-1.72,2.66,2.66,0,0,0-.5-1.73A1.74,1.74,0,0,0,172.17,4.87Z"/><path d="M179.75,5.17A1.18,1.18,0,0,0,179,5a1.23,1.23,0,0,0-1,.58,2.72,2.72,0,0,0-.41,1.58V10.2h-1v-6h1V5.44h0a2.12,2.12,0,0,1,.63-1,1.42,1.42,0,0,1,.94-.36,1.5,1.5,0,0,1,.58.09Z"/><path d="M185.91,10.2h-1v-1h0a2.43,2.43,0,0,1-3.87.36,3.33,3.33,0,0,1-.68-2.2A3.57,3.57,0,0,1,181.13,5a2.48,2.48,0,0,1,2-.9,1.93,1.93,0,0,1,1.8,1h0V1.32h1Zm-1-2.71V6.6a1.73,1.73,0,0,0-.48-1.23,1.78,1.78,0,0,0-2.6.14,2.81,2.81,0,0,0-.51,1.78,2.54,2.54,0,0,0,.49,1.64,1.57,1.57,0,0,0,1.3.6,1.63,1.63,0,0,0,1.3-.58A2.16,2.16,0,0,0,185,7.49Z"/><path d="M192.68,7.44h-4.24A2.3,2.3,0,0,0,189,9a1.88,1.88,0,0,0,1.42.54,2.89,2.89,0,0,0,1.86-.67v.91a3.47,3.47,0,0,1-2.09.57,2.53,2.53,0,0,1-2-.82,3.35,3.35,0,0,1-.72-2.3,3.28,3.28,0,0,1,.79-2.28,2.54,2.54,0,0,1,2-.88,2.24,2.24,0,0,1,1.82.76,3.18,3.18,0,0,1,.65,2.12Zm-1-.81a1.91,1.91,0,0,0-.4-1.3,1.36,1.36,0,0,0-1.1-.46,1.56,1.56,0,0,0-1.15.48,2.25,2.25,0,0,0-.59,1.28Z"/><path d="M124,55.2h-1.21l-4.32-6.7a2.86,2.86,0,0,1-.27-.52h0a7,7,0,0,1,0,1.15V55.2h-1V46.8h1.27l4.21,6.59a5.88,5.88,0,0,1,.34.56h0a11.05,11.05,0,0,1,0-1.23V46.8h1Z"/><path d="M126.59,47.68a.61.61,0,0,1-.62-.62.61.61,0,0,1,.18-.45.6.6,0,0,1,.44-.18.64.64,0,0,1,.45.18.61.61,0,0,1,.18.45.58.58,0,0,1-.18.43A.61.61,0,0,1,126.59,47.68Zm.47,7.52h-1v-6h1Z"/><path d="M133.72,49.2l-2.39,6h-1l-2.27-6h1.06l1.52,4.36a4.27,4.27,0,0,1,.21.84h0a3.8,3.8,0,0,1,.19-.82l1.59-4.38Z"/><path d="M139.57,52.44h-4.24a2.3,2.3,0,0,0,.54,1.55,1.88,1.88,0,0,0,1.42.54,2.94,2.94,0,0,0,1.87-.67v.91a3.53,3.53,0,0,1-2.1.57,2.51,2.51,0,0,1-2-.82,3.83,3.83,0,0,1,.06-4.58,2.54,2.54,0,0,1,2-.88,2.26,2.26,0,0,1,1.83.76,3.18,3.18,0,0,1,.64,2.12Zm-1-.81a2,2,0,0,0-.4-1.3,1.37,1.37,0,0,0-1.1-.46,1.57,1.57,0,0,0-1.16.48,2.24,2.24,0,0,0-.58,1.28Z"/><path d="M142,55.2h-1V46.32h1Z"/><path d="M151.83,52.82a2.46,2.46,0,0,1-.21,1,2.31,2.31,0,0,1-.61.8,2.79,2.79,0,0,1-.93.51,3.59,3.59,0,0,1-1.2.19,3.53,3.53,0,0,1-1.91-.46v-1a3.07,3.07,0,0,0,1.94.67,2.53,2.53,0,0,0,.8-.12,1.73,1.73,0,0,0,.6-.32,1.42,1.42,0,0,0,.4-.51,1.6,1.6,0,0,0,.13-.67q0-1.65-2.34-1.65h-.7v-.81h.67c1.38,0,2.07-.52,2.07-1.55S150,47.47,149,47.47a2.68,2.68,0,0,0-1.67.6v-.93a3.64,3.64,0,0,1,1.91-.48,3.11,3.11,0,0,1,1,.14,2.4,2.4,0,0,1,.74.41,1.87,1.87,0,0,1,.47.64,1.92,1.92,0,0,1,.16.81,2,2,0,0,1-1.67,2.13v0a2.86,2.86,0,0,1,.79.2,2.31,2.31,0,0,1,.63.42,2.11,2.11,0,0,1,.41.61A1.92,1.92,0,0,1,151.83,52.82Z"/><path d="M154,50.37a.65.65,0,0,1-.65-.65.6.6,0,0,1,.19-.46.62.62,0,0,1,.46-.19.64.64,0,0,1,.47.19.6.6,0,0,1,.19.46.62.62,0,0,1-.19.46A.64.64,0,0,1,154,50.37Zm0,5a.66.66,0,0,1-.46-.19.64.64,0,0,1-.19-.47.62.62,0,0,1,.19-.46A.63.63,0,0,1,154,54a.65.65,0,0,1,.47.2.62.62,0,0,1,.19.46.64.64,0,0,1-.19.47A.68.68,0,0,1,154,55.33Z"/><path d="M91.34,68.42H90.17l-1.41-2.35a3.88,3.88,0,0,0-.37-.56,2.24,2.24,0,0,0-.37-.38,1.49,1.49,0,0,0-.41-.22,1.9,1.9,0,0,0-.5-.06H86.3v3.57h-1V60h2.51a3.29,3.29,0,0,1,1,.14,2.23,2.23,0,0,1,.81.42,1.88,1.88,0,0,1,.54.7,2.37,2.37,0,0,1-.31,2.44,2.57,2.57,0,0,1-.59.49,3.54,3.54,0,0,1-.77.31v0a2.06,2.06,0,0,1,.66.5,4,4,0,0,1,.28.37l.31.49Zm-5-7.51V64h1.34a1.87,1.87,0,0,0,.68-.12,1.59,1.59,0,0,0,.54-.31,1.32,1.32,0,0,0,.36-.51,1.68,1.68,0,0,0,.13-.68,1.28,1.28,0,0,0-.44-1.05,1.88,1.88,0,0,0-1.26-.38Z"/><path d="M97.22,68.42h-1v-1h0a2,2,0,0,1-1.86,1.09c-1.43,0-2.14-.85-2.14-2.55V62.42h1v3.43c0,1.27.49,1.9,1.46,1.9a1.44,1.44,0,0,0,1.15-.52,1.92,1.92,0,0,0,.46-1.35V62.42h1Z"/><path d="M101.94,68.36a1.76,1.76,0,0,1-.89.19c-1,0-1.58-.59-1.58-1.76V63.24h-1v-.82h1V61l1-.31v1.77h1.51v.82h-1.51v3.38a1.37,1.37,0,0,0,.21.86.78.78,0,0,0,.68.26,1,1,0,0,0,.62-.2Z"/><path d="M107.52,68.42h-1v-.94h0a2,2,0,0,1-1.85,1.08,2,2,0,0,1-1.4-.47,1.65,1.65,0,0,1-.51-1.26c0-1.12.66-1.78,2-2l1.8-.25c0-1-.41-1.53-1.24-1.53a2.9,2.9,0,0,0-1.95.74v-1a3.76,3.76,0,0,1,2-.56c1.41,0,2.11.75,2.11,2.24Zm-1-3-1.45.19a2.48,2.48,0,0,0-1,.34,1,1,0,0,0-.34.84.9.9,0,0,0,.32.71,1.19,1.19,0,0,0,.83.28,1.51,1.51,0,0,0,1.18-.5,1.78,1.78,0,0,0,.47-1.27Z"/><path d="M117.44,65.66H113.2a2.3,2.3,0,0,0,.54,1.55,1.88,1.88,0,0,0,1.42.54,2.89,2.89,0,0,0,1.86-.67V68a3.47,3.47,0,0,1-2.09.57,2.53,2.53,0,0,1-2-.82,3.35,3.35,0,0,1-.72-2.3,3.28,3.28,0,0,1,.79-2.28,2.54,2.54,0,0,1,2-.88,2.26,2.26,0,0,1,1.83.76,3.18,3.18,0,0,1,.64,2.12Zm-1-.81a2,2,0,0,0-.41-1.3,1.35,1.35,0,0,0-1.09-.46,1.54,1.54,0,0,0-1.16.49,2.18,2.18,0,0,0-.58,1.27Z"/><path d="M118.53,68.2v-1a2.82,2.82,0,0,0,1.73.58q1.26,0,1.26-.84a.76.76,0,0,0-.1-.41,1,1,0,0,0-.3-.29,1.94,1.94,0,0,0-.43-.24l-.54-.21a5.79,5.79,0,0,1-.7-.32,2.22,2.22,0,0,1-.5-.36,1.38,1.38,0,0,1-.31-.46,1.81,1.81,0,0,1-.1-.61,1.39,1.39,0,0,1,.2-.74,1.67,1.67,0,0,1,.51-.55,2.77,2.77,0,0,1,.74-.33,3.56,3.56,0,0,1,2.24.16v1a2.7,2.7,0,0,0-1.52-.43,1.88,1.88,0,0,0-.49.06,1.4,1.4,0,0,0-.37.17,1,1,0,0,0-.24.27.66.66,0,0,0-.08.34.82.82,0,0,0,.08.4,1.07,1.07,0,0,0,.25.28,2.11,2.11,0,0,0,.4.22l.53.22a6.21,6.21,0,0,1,.72.31,2.82,2.82,0,0,1,.54.36,1.57,1.57,0,0,1,.34.47,1.48,1.48,0,0,1,.12.63,1.5,1.5,0,0,1-.2.77,1.58,1.58,0,0,1-.52.54,2.28,2.28,0,0,1-.76.33,3.68,3.68,0,0,1-.89.1A3.39,3.39,0,0,1,118.53,68.2Z"/><path d="M126.77,68.36a1.82,1.82,0,0,1-.9.19c-1.05,0-1.57-.59-1.57-1.76V63.24h-1v-.82h1V61l1-.31v1.77h1.51v.82h-1.51v3.38a1.45,1.45,0,0,0,.2.86.81.81,0,0,0,.68.26,1.05,1.05,0,0,0,.63-.2Z"/><path d="M132.35,68.42h-1v-.94h0a2.2,2.2,0,0,1-3.25.61,1.68,1.68,0,0,1-.5-1.26c0-1.12.66-1.78,2-2l1.8-.25c0-1-.42-1.53-1.24-1.53a2.92,2.92,0,0,0-2,.74v-1a3.76,3.76,0,0,1,2-.56c1.41,0,2.12.75,2.12,2.24Zm-1-3-1.45.19a2.43,2.43,0,0,0-1,.34,1.08,1.08,0,0,0,0,1.55,1.2,1.2,0,0,0,.84.28,1.51,1.51,0,0,0,1.18-.5,1.78,1.78,0,0,0,.47-1.27Zm.12-6L130,61.28h-.74l1.3-1.92Z"/><path d="M136.94,68.36a1.8,1.8,0,0,1-.9.19c-1,0-1.57-.59-1.57-1.76V63.24h-1v-.82h1V61l1-.31v1.77h1.51v.82h-1.51v3.38a1.45,1.45,0,0,0,.2.86.81.81,0,0,0,.68.26,1,1,0,0,0,.63-.2Z"/><path d="M138.72,60.9a.59.59,0,0,1-.44-.18.6.6,0,0,1-.19-.44.62.62,0,0,1,.19-.45.59.59,0,0,1,.44-.18.6.6,0,0,1,.44.18.58.58,0,0,1,.19.45.59.59,0,0,1-.19.44A.6.6,0,0,1,138.72,60.9Zm.46,7.52h-1v-6h1Z"/><path d="M145.22,68.15a3.19,3.19,0,0,1-1.64.41,2.72,2.72,0,0,1-2.07-.83,3,3,0,0,1-.79-2.17,3.3,3.3,0,0,1,.85-2.38,3,3,0,0,1,2.27-.9,3.23,3.23,0,0,1,1.39.29v1a2.45,2.45,0,0,0-1.43-.47,2,2,0,0,0-1.51.66,2.5,2.5,0,0,0-.59,1.73,2.36,2.36,0,0,0,.56,1.66,1.89,1.89,0,0,0,1.48.61,2.39,2.39,0,0,0,1.48-.52Z"/><path d="M151,68.42h-1v-.94h0a2.2,2.2,0,0,1-3.25.61,1.68,1.68,0,0,1-.5-1.26c0-1.12.66-1.78,2-2l1.8-.25c0-1-.42-1.53-1.24-1.53a2.94,2.94,0,0,0-2,.74v-1a3.76,3.76,0,0,1,2-.56c1.41,0,2.12.75,2.12,2.24Zm-1-3-1.45.19a2.43,2.43,0,0,0-1,.34,1,1,0,0,0-.34.84.9.9,0,0,0,.32.71,1.16,1.16,0,0,0,.83.28,1.51,1.51,0,0,0,1.18-.5A1.78,1.78,0,0,0,150,66Z"/><path d="M158.57,68.56a2.79,2.79,0,0,1-2.12-.84,3.1,3.1,0,0,1-.79-2.23,3.24,3.24,0,0,1,.82-2.36,3,3,0,0,1,2.23-.85,2.7,2.7,0,0,1,2.1.83,3.77,3.77,0,0,1-.06,4.59A2.87,2.87,0,0,1,158.57,68.56Zm.07-5.47a1.83,1.83,0,0,0-1.46.63,2.59,2.59,0,0,0-.54,1.74,2.46,2.46,0,0,0,.54,1.68,1.86,1.86,0,0,0,1.46.61,1.79,1.79,0,0,0,1.44-.6,3.23,3.23,0,0,0,0-3.45A1.76,1.76,0,0,0,158.64,63.09Z"/><path d="M166.51,68.42V60h2.39a2.63,2.63,0,0,1,1.73.53,1.72,1.72,0,0,1,.64,1.39,2,2,0,0,1-.39,1.24,2.07,2.07,0,0,1-1.06.75v0a2.13,2.13,0,0,1,1.36.64,2,2,0,0,1,.51,1.41,2.17,2.17,0,0,1-.78,1.74,2.84,2.84,0,0,1-1.95.67Zm1-7.51v2.71h1a1.94,1.94,0,0,0,1.28-.39,1.37,1.37,0,0,0,.46-1.1c0-.81-.54-1.22-1.61-1.22Zm0,3.6v3h1.33a2,2,0,0,0,1.35-.41,1.4,1.4,0,0,0,.48-1.12c0-1-.68-1.49-2-1.49Z"/><path d="M179.67,67.85a5.67,5.67,0,0,1-2.81.71A3.86,3.86,0,0,1,174,67.4a4.26,4.26,0,0,1-1.11-3.07,4.37,4.37,0,0,1,1.23-3.2,4.2,4.2,0,0,1,3.13-1.25,5.42,5.42,0,0,1,2.3.44v1.09a4.4,4.4,0,0,0-2.41-.64,3,3,0,0,0-2.32,1,4.07,4.07,0,0,0-.06,5,3,3,0,0,0,2.27.91,3.43,3.43,0,0,0,1.71-.4V64.93h-1.84V64h2.82Z"/><path d="M182.61,65.25v3.17h-1V60h2.31a3.08,3.08,0,0,1,2.09.65,2.34,2.34,0,0,1,.74,1.86,2.52,2.52,0,0,1-.82,2,3.14,3.14,0,0,1-2.22.77Zm0-4.34v3.44h1a2.32,2.32,0,0,0,1.56-.46,1.67,1.67,0,0,0,.53-1.32c0-1.11-.65-1.66-2-1.66Z"/><path d="M81.39,94.85a4.92,4.92,0,0,1-2.32.49,3.73,3.73,0,0,1-2.87-1.15,4.26,4.26,0,0,1-1.08-3,4.45,4.45,0,0,1,1.21-3.26,4.12,4.12,0,0,1,3.08-1.24,5,5,0,0,1,2,.34v1a4.08,4.08,0,0,0-2-.5,3.07,3.07,0,0,0-2.35,1,3.66,3.66,0,0,0-.9,2.59A3.44,3.44,0,0,0,77,93.54a2.87,2.87,0,0,0,2.21.92,4.11,4.11,0,0,0,2.19-.57Z"/><path d="M85.48,95.34a2.79,2.79,0,0,1-2.13-.84,3.1,3.1,0,0,1-.79-2.23,3.21,3.21,0,0,1,.83-2.36,3,3,0,0,1,2.23-.85,2.66,2.66,0,0,1,2.09.83,3.28,3.28,0,0,1,.76,2.29,3.21,3.21,0,0,1-.82,2.3A2.85,2.85,0,0,1,85.48,95.34Zm.07-5.47a1.84,1.84,0,0,0-1.47.63,2.58,2.58,0,0,0-.54,1.73,2.47,2.47,0,0,0,.55,1.69,1.85,1.85,0,0,0,1.46.61,1.75,1.75,0,0,0,1.43-.6,3.23,3.23,0,0,0,0-3.45A1.73,1.73,0,0,0,85.55,89.87Z"/><path d="M95,95.2H94V91.78c0-1.28-.46-1.91-1.39-1.91a1.54,1.54,0,0,0-1.2.54A2,2,0,0,0,91,91.78V95.2H90v-6h1v1h0a2.15,2.15,0,0,1,2-1.14,1.85,1.85,0,0,1,1.51.63A2.84,2.84,0,0,1,95,91.53Z"/><path d="M105.31,95.2h-1V91.75a2.57,2.57,0,0,0-.31-1.44,1.17,1.17,0,0,0-1-.44,1.3,1.3,0,0,0-1.05.56,2.2,2.2,0,0,0-.43,1.35V95.2h-1V91.64c0-1.18-.45-1.77-1.36-1.77a1.26,1.26,0,0,0-1,.53,2.2,2.2,0,0,0-.41,1.38V95.2h-1v-6h1v1h0a2,2,0,0,1,1.86-1.09,1.73,1.73,0,0,1,1.7,1.24,2.13,2.13,0,0,1,2-1.24c1.32,0,2,.81,2,2.44Z"/><path d="M112,95.2h-1v-1h0a2,2,0,0,1-1.86,1.09c-1.43,0-2.14-.85-2.14-2.55V89.2h1v3.43c0,1.27.49,1.9,1.46,1.9a1.44,1.44,0,0,0,1.15-.52,1.92,1.92,0,0,0,.46-1.35V89.2h1Z"/><path d="M116.7,95.14a1.76,1.76,0,0,1-.89.19c-1.06,0-1.58-.59-1.58-1.76V90h-1V89.2h1V87.73l1-.31V89.2h1.51V90h-1.51V93.4a1.37,1.37,0,0,0,.21.86.81.81,0,0,0,.68.26,1,1,0,0,0,.62-.2Z"/><path d="M122.28,95.2h-1v-.94h0a2,2,0,0,1-1.85,1.08,2,2,0,0,1-1.4-.47,1.65,1.65,0,0,1-.51-1.26c0-1.13.66-1.78,2-2l1.8-.25c0-1-.41-1.53-1.24-1.53a2.9,2.9,0,0,0-2,.74v-1a3.76,3.76,0,0,1,2-.56c1.41,0,2.11.75,2.11,2.24Zm-1-3-1.45.2a2.65,2.65,0,0,0-1,.33,1,1,0,0,0-.34.85.9.9,0,0,0,.32.71,1.19,1.19,0,0,0,.83.28,1.55,1.55,0,0,0,1.18-.5,1.8,1.8,0,0,0,.47-1.27Z"/><path d="M129.21,95.2h-1v-1h0a2.42,2.42,0,0,1-3.87.35,3.28,3.28,0,0,1-.68-2.19,3.57,3.57,0,0,1,.75-2.38,2.48,2.48,0,0,1,2-.9,1.93,1.93,0,0,1,1.8,1h0V86.32h1Zm-1-2.71V91.6a1.73,1.73,0,0,0-.48-1.23,1.78,1.78,0,0,0-2.6.14,2.81,2.81,0,0,0-.5,1.78,2.56,2.56,0,0,0,.48,1.64,1.57,1.57,0,0,0,1.3.6,1.63,1.63,0,0,0,1.3-.58A2.17,2.17,0,0,0,128.25,92.49Z"/><path d="M133.67,95.34a2.79,2.79,0,0,1-2.13-.84,3.1,3.1,0,0,1-.79-2.23,3.24,3.24,0,0,1,.82-2.36,3,3,0,0,1,2.24-.85,2.66,2.66,0,0,1,2.09.83,3.77,3.77,0,0,1-.06,4.59A2.85,2.85,0,0,1,133.67,95.34Zm.07-5.47a1.84,1.84,0,0,0-1.47.63,2.58,2.58,0,0,0-.54,1.73,2.42,2.42,0,0,0,.55,1.69,1.85,1.85,0,0,0,1.46.61,1.77,1.77,0,0,0,1.43-.6,3.23,3.23,0,0,0,0-3.45A1.74,1.74,0,0,0,133.74,89.87Z"/><path d="M141.32,90.17a1.18,1.18,0,0,0-.73-.19,1.23,1.23,0,0,0-1,.58,2.72,2.72,0,0,0-.41,1.58V95.2h-1v-6h1v1.24h0a2.12,2.12,0,0,1,.63-1,1.42,1.42,0,0,1,.94-.36,1.5,1.5,0,0,1,.58.09Z"/><path d="M150.77,95.2h-1v-1h0a2.21,2.21,0,0,1-2.06,1.16,2.26,2.26,0,0,1-1.81-.81,3.28,3.28,0,0,1-.67-2.19A3.57,3.57,0,0,1,146,90a2.46,2.46,0,0,1,2-.9,1.9,1.9,0,0,1,1.79,1h0V86.32h1Zm-1-2.71V91.6a1.73,1.73,0,0,0-.48-1.23,1.78,1.78,0,0,0-2.6.14,2.81,2.81,0,0,0-.51,1.78,2.51,2.51,0,0,0,.49,1.64,1.57,1.57,0,0,0,1.29.6,1.65,1.65,0,0,0,1.31-.58A2.17,2.17,0,0,0,149.81,92.49Z"/><path d="M157.54,92.44H153.3a2.3,2.3,0,0,0,.54,1.55,1.87,1.87,0,0,0,1.42.54,2.93,2.93,0,0,0,1.86-.67v.91a3.5,3.5,0,0,1-2.09.57,2.52,2.52,0,0,1-2-.82,3.36,3.36,0,0,1-.73-2.3,3.29,3.29,0,0,1,.8-2.28,2.53,2.53,0,0,1,2-.88,2.25,2.25,0,0,1,1.82.76,3.18,3.18,0,0,1,.65,2.12Zm-1-.81a2,2,0,0,0-.4-1.3,1.36,1.36,0,0,0-1.1-.46,1.55,1.55,0,0,0-1.15.48,2.25,2.25,0,0,0-.59,1.28Z"/><path d="M166.57,95.2h-1v-.94h0a2,2,0,0,1-1.85,1.08,2,2,0,0,1-1.4-.47,1.65,1.65,0,0,1-.51-1.26c0-1.13.66-1.78,2-2l1.8-.25c0-1-.41-1.53-1.24-1.53a2.9,2.9,0,0,0-2,.74v-1a3.76,3.76,0,0,1,2-.56c1.41,0,2.11.75,2.11,2.24Zm-1-3-1.45.2a2.54,2.54,0,0,0-1,.33,1,1,0,0,0-.34.85.89.89,0,0,0,.31.71,1.19,1.19,0,0,0,.83.28,1.55,1.55,0,0,0,1.18-.5,1.75,1.75,0,0,0,.47-1.27Z"/><path d="M172.47,94.92a3.1,3.1,0,0,1-1.64.42,2.75,2.75,0,0,1-2.07-.83,3,3,0,0,1-.79-2.17,3.3,3.3,0,0,1,.85-2.38,3,3,0,0,1,2.27-.9,3.2,3.2,0,0,1,1.39.29v1a2.38,2.38,0,0,0-1.43-.47,2,2,0,0,0-1.51.66,2.5,2.5,0,0,0-.58,1.73,2.36,2.36,0,0,0,.55,1.66,1.89,1.89,0,0,0,1.49.61,2.38,2.38,0,0,0,1.47-.52Z"/><path d="M178,94.92a3.08,3.08,0,0,1-1.64.42,2.75,2.75,0,0,1-2.07-.83,3.06,3.06,0,0,1-.79-2.17,3.35,3.35,0,0,1,.85-2.38,3,3,0,0,1,2.27-.9,3.27,3.27,0,0,1,1.4.29v1a2.42,2.42,0,0,0-1.43-.47,1.92,1.92,0,0,0-1.51.66,2.5,2.5,0,0,0-.59,1.73,2.36,2.36,0,0,0,.55,1.66,1.91,1.91,0,0,0,1.49.61A2.38,2.38,0,0,0,178,94Z"/><path d="M184.29,92.44h-4.24a2.3,2.3,0,0,0,.54,1.55,1.88,1.88,0,0,0,1.42.54,2.89,2.89,0,0,0,1.86-.67v.91a3.47,3.47,0,0,1-2.09.57,2.53,2.53,0,0,1-2-.82,3.35,3.35,0,0,1-.72-2.3,3.28,3.28,0,0,1,.79-2.28,2.54,2.54,0,0,1,2-.88,2.26,2.26,0,0,1,1.83.76,3.18,3.18,0,0,1,.64,2.12Zm-1-.81a2,2,0,0,0-.41-1.3,1.35,1.35,0,0,0-1.09-.46,1.57,1.57,0,0,0-1.16.48,2.18,2.18,0,0,0-.58,1.28Z"/><path d="M185.38,95V94a2.82,2.82,0,0,0,1.73.58q1.26,0,1.26-.84a.76.76,0,0,0-.1-.41,1.22,1.22,0,0,0-.3-.3,2.44,2.44,0,0,0-.43-.23l-.54-.21c-.26-.11-.5-.21-.7-.32a2.22,2.22,0,0,1-.5-.36,1.38,1.38,0,0,1-.31-.46,1.85,1.85,0,0,1-.1-.61,1.48,1.48,0,0,1,.19-.74,1.82,1.82,0,0,1,.52-.55,2.26,2.26,0,0,1,.74-.33,3.56,3.56,0,0,1,2.24.16v1a2.7,2.7,0,0,0-1.52-.43,1.88,1.88,0,0,0-.49.06,1.26,1.26,0,0,0-.37.17,1,1,0,0,0-.24.27.66.66,0,0,0-.08.34.75.75,0,0,0,.08.39,1,1,0,0,0,.25.29,2.11,2.11,0,0,0,.4.22l.53.21c.27.11.51.21.72.32a2.82,2.82,0,0,1,.54.36,1.57,1.57,0,0,1,.34.47,1.46,1.46,0,0,1,.12.62,1.51,1.51,0,0,1-.2.78,1.58,1.58,0,0,1-.52.54,2.26,2.26,0,0,1-.76.32,3.24,3.24,0,0,1-.89.11A3.39,3.39,0,0,1,185.38,95Z"/><path d="M193.34,95.34a2.79,2.79,0,0,1-2.12-.84,3.11,3.11,0,0,1-.8-2.23,3.25,3.25,0,0,1,.83-2.36,3,3,0,0,1,2.23-.85,2.66,2.66,0,0,1,2.1.83,3.77,3.77,0,0,1-.06,4.59A2.87,2.87,0,0,1,193.34,95.34Zm.07-5.47a1.83,1.83,0,0,0-1.46.63,2.58,2.58,0,0,0-.54,1.73,2.47,2.47,0,0,0,.54,1.69,1.86,1.86,0,0,0,1.46.61,1.79,1.79,0,0,0,1.44-.6,3.23,3.23,0,0,0,0-3.45A1.76,1.76,0,0,0,193.41,89.87Z"/><path d="M81.39,119.65a4.92,4.92,0,0,1-2.32.49A3.73,3.73,0,0,1,76.2,119a4.26,4.26,0,0,1-1.08-3,4.45,4.45,0,0,1,1.21-3.26,4.12,4.12,0,0,1,3.08-1.24,5,5,0,0,1,2,.34v1a4.08,4.08,0,0,0-2-.5,3.07,3.07,0,0,0-2.35,1,3.66,3.66,0,0,0-.9,2.59,3.44,3.44,0,0,0,.84,2.44,2.87,2.87,0,0,0,2.21.92,4.11,4.11,0,0,0,2.19-.57Z"/><path d="M85.48,120.14a2.79,2.79,0,0,1-2.13-.84,3.1,3.1,0,0,1-.79-2.23,3.21,3.21,0,0,1,.83-2.36,3,3,0,0,1,2.23-.85,2.66,2.66,0,0,1,2.09.83,3.28,3.28,0,0,1,.76,2.29,3.21,3.21,0,0,1-.82,2.3A2.85,2.85,0,0,1,85.48,120.14Zm.07-5.47a1.84,1.84,0,0,0-1.47.63,2.59,2.59,0,0,0-.54,1.74,2.46,2.46,0,0,0,.55,1.68,1.85,1.85,0,0,0,1.46.61,1.75,1.75,0,0,0,1.43-.6,3.23,3.23,0,0,0,0-3.45A1.73,1.73,0,0,0,85.55,114.67Z"/><path d="M95,120H94v-3.42c0-1.28-.46-1.91-1.39-1.91a1.54,1.54,0,0,0-1.2.54,2,2,0,0,0-.47,1.37V120H90v-6h1v1h0a2.15,2.15,0,0,1,2-1.14,1.83,1.83,0,0,1,1.51.64,2.79,2.79,0,0,1,.52,1.83Z"/><path d="M105.31,120h-1v-3.45a2.57,2.57,0,0,0-.31-1.44,1.17,1.17,0,0,0-1-.44,1.3,1.3,0,0,0-1.05.56,2.2,2.2,0,0,0-.43,1.35V120h-1v-3.56c0-1.18-.45-1.77-1.36-1.77a1.26,1.26,0,0,0-1,.53,2.2,2.2,0,0,0-.41,1.38V120h-1v-6h1v1h0a2,2,0,0,1,1.86-1.09,1.73,1.73,0,0,1,1.7,1.24,2.13,2.13,0,0,1,2-1.24c1.32,0,2,.81,2,2.44Z"/><path d="M112,120h-1v-1h0a2,2,0,0,1-1.86,1.09c-1.43,0-2.14-.85-2.14-2.55V114h1v3.43c0,1.27.49,1.9,1.46,1.9a1.44,1.44,0,0,0,1.15-.52,1.92,1.92,0,0,0,.46-1.35V114h1Z"/><path d="M116.7,119.94a1.76,1.76,0,0,1-.89.19c-1.06,0-1.58-.59-1.58-1.76v-3.55h-1V114h1v-1.46l1-.32V114h1.51v.82h-1.51v3.38a1.37,1.37,0,0,0,.21.86.81.81,0,0,0,.68.26,1,1,0,0,0,.62-.2Z"/><path d="M122.28,120h-1v-.94h0a2,2,0,0,1-1.85,1.08,2,2,0,0,1-1.4-.47,1.65,1.65,0,0,1-.51-1.26c0-1.12.66-1.78,2-2l1.8-.25c0-1-.41-1.53-1.24-1.53a2.9,2.9,0,0,0-2,.74v-1a3.76,3.76,0,0,1,2-.56c1.41,0,2.11.75,2.11,2.24Zm-1-3-1.45.2a2.48,2.48,0,0,0-1,.34,1,1,0,0,0-.34.84.9.9,0,0,0,.32.71,1.19,1.19,0,0,0,.83.28,1.51,1.51,0,0,0,1.18-.5,1.8,1.8,0,0,0,.47-1.27Z"/><path d="M129.21,120h-1v-1h0a2.42,2.42,0,0,1-3.87.35,3.28,3.28,0,0,1-.68-2.19,3.57,3.57,0,0,1,.75-2.38,2.48,2.48,0,0,1,2-.9,1.93,1.93,0,0,1,1.8,1h0v-3.71h1Zm-1-2.71v-.89a1.73,1.73,0,0,0-.48-1.23,1.78,1.78,0,0,0-2.6.14,2.81,2.81,0,0,0-.5,1.78,2.54,2.54,0,0,0,.48,1.64,1.57,1.57,0,0,0,1.3.6,1.63,1.63,0,0,0,1.3-.58A2.16,2.16,0,0,0,128.25,117.29Z"/><path d="M133.67,120.14a2.79,2.79,0,0,1-2.13-.84,3.1,3.1,0,0,1-.79-2.23,3.24,3.24,0,0,1,.82-2.36,3,3,0,0,1,2.24-.85,2.66,2.66,0,0,1,2.09.83,3.77,3.77,0,0,1-.06,4.59A2.85,2.85,0,0,1,133.67,120.14Zm.07-5.47a1.84,1.84,0,0,0-1.47.63,2.59,2.59,0,0,0-.54,1.74,2.41,2.41,0,0,0,.55,1.68,1.85,1.85,0,0,0,1.46.61,1.77,1.77,0,0,0,1.43-.6,3.23,3.23,0,0,0,0-3.45A1.74,1.74,0,0,0,133.74,114.67Z"/><path d="M141.32,115a1.18,1.18,0,0,0-.73-.19,1.23,1.23,0,0,0-1,.58,2.72,2.72,0,0,0-.41,1.58V120h-1v-6h1v1.24h0a2.12,2.12,0,0,1,.63-1,1.42,1.42,0,0,1,.94-.36,1.5,1.5,0,0,1,.58.09Z"/><path d="M150.77,120h-1v-1h0a2.21,2.21,0,0,1-2.06,1.16,2.26,2.26,0,0,1-1.81-.81,3.28,3.28,0,0,1-.67-2.19,3.57,3.57,0,0,1,.75-2.38,2.46,2.46,0,0,1,2-.9,1.9,1.9,0,0,1,1.79,1h0v-3.71h1Zm-1-2.71v-.89a1.73,1.73,0,0,0-.48-1.23,1.78,1.78,0,0,0-2.6.14,2.81,2.81,0,0,0-.51,1.78,2.49,2.49,0,0,0,.49,1.64,1.57,1.57,0,0,0,1.29.6,1.65,1.65,0,0,0,1.31-.58A2.16,2.16,0,0,0,149.81,117.29Z"/><path d="M157.54,117.24H153.3a2.3,2.3,0,0,0,.54,1.55,1.87,1.87,0,0,0,1.42.54,2.93,2.93,0,0,0,1.86-.67v.91a3.5,3.5,0,0,1-2.09.57,2.52,2.52,0,0,1-2-.82,3.36,3.36,0,0,1-.73-2.3,3.29,3.29,0,0,1,.8-2.28,2.53,2.53,0,0,1,2-.88,2.25,2.25,0,0,1,1.82.76,3.18,3.18,0,0,1,.65,2.12Zm-1-.81a2,2,0,0,0-.4-1.3,1.36,1.36,0,0,0-1.1-.46,1.55,1.55,0,0,0-1.15.48,2.25,2.25,0,0,0-.59,1.28Z"/><path d="M166.57,120h-1v-.94h0a2,2,0,0,1-1.85,1.08,2,2,0,0,1-1.4-.47,1.65,1.65,0,0,1-.51-1.26c0-1.12.66-1.78,2-2l1.8-.25c0-1-.41-1.53-1.24-1.53a2.9,2.9,0,0,0-2,.74v-1a3.76,3.76,0,0,1,2-.56c1.41,0,2.11.75,2.11,2.24Zm-1-3-1.45.2a2.37,2.37,0,0,0-1,.34.93.93,0,0,0-.34.84.89.89,0,0,0,.31.71,1.19,1.19,0,0,0,.83.28,1.51,1.51,0,0,0,1.18-.5,1.75,1.75,0,0,0,.47-1.27Z"/><path d="M172.47,119.72a3.1,3.1,0,0,1-1.64.42,2.75,2.75,0,0,1-2.07-.83,3,3,0,0,1-.79-2.17,3.3,3.3,0,0,1,.85-2.38,3,3,0,0,1,2.27-.9,3.2,3.2,0,0,1,1.39.29v1a2.38,2.38,0,0,0-1.43-.47,2,2,0,0,0-1.51.66,2.5,2.5,0,0,0-.58,1.73,2.36,2.36,0,0,0,.55,1.66,1.89,1.89,0,0,0,1.49.61,2.38,2.38,0,0,0,1.47-.52Z"/><path d="M178,119.72a3.08,3.08,0,0,1-1.64.42,2.75,2.75,0,0,1-2.07-.83,3.06,3.06,0,0,1-.79-2.17,3.35,3.35,0,0,1,.85-2.38,3,3,0,0,1,2.27-.9,3.27,3.27,0,0,1,1.4.29v1a2.42,2.42,0,0,0-1.43-.47,1.92,1.92,0,0,0-1.51.66,2.5,2.5,0,0,0-.59,1.73,2.36,2.36,0,0,0,.55,1.66,1.91,1.91,0,0,0,1.49.61,2.38,2.38,0,0,0,1.47-.52Z"/><path d="M184.29,117.24h-4.24a2.3,2.3,0,0,0,.54,1.55,1.88,1.88,0,0,0,1.42.54,2.89,2.89,0,0,0,1.86-.67v.91a3.47,3.47,0,0,1-2.09.57,2.53,2.53,0,0,1-2-.82,3.35,3.35,0,0,1-.72-2.3,3.28,3.28,0,0,1,.79-2.28,2.54,2.54,0,0,1,2-.88,2.26,2.26,0,0,1,1.83.76,3.18,3.18,0,0,1,.64,2.12Zm-1-.81a2,2,0,0,0-.41-1.3,1.35,1.35,0,0,0-1.09-.46,1.57,1.57,0,0,0-1.16.48,2.18,2.18,0,0,0-.58,1.28Z"/><path d="M185.38,119.78v-1a2.82,2.82,0,0,0,1.73.58q1.26,0,1.26-.84a.76.76,0,0,0-.1-.41,1,1,0,0,0-.3-.29,1.94,1.94,0,0,0-.43-.24l-.54-.21c-.26-.11-.5-.21-.7-.32a2.22,2.22,0,0,1-.5-.36,1.38,1.38,0,0,1-.31-.46,1.85,1.85,0,0,1-.1-.61,1.48,1.48,0,0,1,.19-.74,1.82,1.82,0,0,1,.52-.55,2.49,2.49,0,0,1,.74-.33,3.56,3.56,0,0,1,2.24.16v1a2.7,2.7,0,0,0-1.52-.43,1.88,1.88,0,0,0-.49.06,1.26,1.26,0,0,0-.37.17,1,1,0,0,0-.24.27.66.66,0,0,0-.08.34.75.75,0,0,0,.08.39,1,1,0,0,0,.25.29,2.11,2.11,0,0,0,.4.22l.53.22a6.21,6.21,0,0,1,.72.31,2.82,2.82,0,0,1,.54.36,1.57,1.57,0,0,1,.34.47,1.46,1.46,0,0,1,.12.62,1.51,1.51,0,0,1-.2.78,1.58,1.58,0,0,1-.52.54,2.5,2.5,0,0,1-.76.33,3.68,3.68,0,0,1-.89.1A3.39,3.39,0,0,1,185.38,119.78Z"/><path d="M193.34,120.14a2.79,2.79,0,0,1-2.12-.84,3.11,3.11,0,0,1-.8-2.23,3.25,3.25,0,0,1,.83-2.36,3,3,0,0,1,2.23-.85,2.66,2.66,0,0,1,2.1.83,3.77,3.77,0,0,1-.06,4.59A2.87,2.87,0,0,1,193.34,120.14Zm.07-5.47a1.83,1.83,0,0,0-1.46.63,2.59,2.59,0,0,0-.54,1.74,2.46,2.46,0,0,0,.54,1.68,1.86,1.86,0,0,0,1.46.61,1.79,1.79,0,0,0,1.44-.6,3.23,3.23,0,0,0,0-3.45A1.76,1.76,0,0,0,193.41,114.67Z"/><path d="M95,144.45a5,5,0,0,1-2.33.49,3.74,3.74,0,0,1-2.87-1.15,4.25,4.25,0,0,1-1.07-3,4.45,4.45,0,0,1,1.21-3.26A4.1,4.1,0,0,1,93,136.26a5,5,0,0,1,2,.34v1.05a4.12,4.12,0,0,0-2-.5,3.06,3.06,0,0,0-2.34,1,3.66,3.66,0,0,0-.9,2.59,3.49,3.49,0,0,0,.84,2.45,2.87,2.87,0,0,0,2.2.91,4.12,4.12,0,0,0,2.2-.57Z"/><path d="M99,144.94a2.79,2.79,0,0,1-2.12-.84,3.1,3.1,0,0,1-.79-2.23,3.24,3.24,0,0,1,.82-2.36,3,3,0,0,1,2.24-.85,2.69,2.69,0,0,1,2.09.83,3.77,3.77,0,0,1-.06,4.59A2.85,2.85,0,0,1,99,144.94Zm.08-5.47a1.84,1.84,0,0,0-1.47.63,2.59,2.59,0,0,0-.54,1.74,2.41,2.41,0,0,0,.55,1.68,1.85,1.85,0,0,0,1.46.61,1.77,1.77,0,0,0,1.43-.6,3.23,3.23,0,0,0,0-3.45A1.74,1.74,0,0,0,99.12,139.47Z"/><path d="M108.55,144.8h-1v-3.42c0-1.28-.47-1.91-1.4-1.91A1.52,1.52,0,0,0,105,140a2,2,0,0,0-.47,1.37v3.42h-1v-6h1v1h0a2.17,2.17,0,0,1,2-1.14,1.83,1.83,0,0,1,1.51.64,2.79,2.79,0,0,1,.52,1.83Z"/><path d="M118.88,144.8h-1v-3.45a2.57,2.57,0,0,0-.31-1.44,1.17,1.17,0,0,0-1-.44,1.3,1.3,0,0,0-1,.56,2.14,2.14,0,0,0-.43,1.35v3.42h-1v-3.56c0-1.18-.46-1.77-1.37-1.77a1.27,1.27,0,0,0-1,.53,2.2,2.2,0,0,0-.41,1.38v3.42h-1v-6h1v.95h0a2,2,0,0,1,1.87-1.09,1.73,1.73,0,0,1,1.07.34,1.81,1.81,0,0,1,.63.9,2.13,2.13,0,0,1,2-1.24c1.32,0,2,.81,2,2.44Z"/><path d="M125.55,144.8h-1v-1h0a2,2,0,0,1-1.85,1.09c-1.43,0-2.14-.85-2.14-2.55V138.8h1v3.43c0,1.27.49,1.9,1.45,1.9a1.46,1.46,0,0,0,1.16-.52,2,2,0,0,0,.46-1.35V138.8h1Z"/><path d="M130.27,144.74a1.82,1.82,0,0,1-.9.19c-1.05,0-1.57-.59-1.57-1.76v-3.55h-1v-.82h1v-1.46l1-.32v1.78h1.51v.82h-1.51V143a1.45,1.45,0,0,0,.2.86.84.84,0,0,0,.68.26,1.05,1.05,0,0,0,.63-.2Z"/><path d="M135.85,144.8h-1v-.94h0a2.2,2.2,0,0,1-3.25.61,1.68,1.68,0,0,1-.5-1.26c0-1.12.66-1.78,2-2l1.8-.25c0-1-.42-1.53-1.24-1.53a2.94,2.94,0,0,0-2,.74v-1a3.76,3.76,0,0,1,2-.56c1.41,0,2.12.75,2.12,2.24Zm-1-3-1.45.19a2.43,2.43,0,0,0-1,.34,1,1,0,0,0-.34.84.9.9,0,0,0,.32.71,1.16,1.16,0,0,0,.83.28,1.51,1.51,0,0,0,1.18-.5,1.8,1.8,0,0,0,.47-1.27Z"/><path d="M142.78,144.8h-1v-1h0a2.21,2.21,0,0,1-2.06,1.16,2.28,2.28,0,0,1-1.81-.8,3.32,3.32,0,0,1-.67-2.2,3.57,3.57,0,0,1,.75-2.38,2.46,2.46,0,0,1,2-.9,1.9,1.9,0,0,1,1.79,1h0v-3.71h1Zm-1-2.71v-.89a1.73,1.73,0,0,0-.48-1.23,1.78,1.78,0,0,0-2.6.14,2.81,2.81,0,0,0-.51,1.78,2.49,2.49,0,0,0,.49,1.64,1.57,1.57,0,0,0,1.29.6,1.65,1.65,0,0,0,1.31-.58A2.16,2.16,0,0,0,141.82,142.09Z"/><path d="M147.23,144.94a2.79,2.79,0,0,1-2.12-.84,3.11,3.11,0,0,1-.8-2.23,3.25,3.25,0,0,1,.83-2.36,3,3,0,0,1,2.23-.85,2.7,2.7,0,0,1,2.1.83,3.77,3.77,0,0,1-.06,4.59A2.87,2.87,0,0,1,147.23,144.94Zm.07-5.47a1.83,1.83,0,0,0-1.46.63,2.59,2.59,0,0,0-.54,1.74,2.46,2.46,0,0,0,.54,1.68,1.86,1.86,0,0,0,1.46.61,1.79,1.79,0,0,0,1.44-.6,3.23,3.23,0,0,0,0-3.45A1.76,1.76,0,0,0,147.3,139.47Z"/><path d="M154.88,139.77a1.14,1.14,0,0,0-.72-.19,1.23,1.23,0,0,0-1,.58,2.64,2.64,0,0,0-.41,1.58v3.06h-1v-6h1V140h0a2.12,2.12,0,0,1,.63-1,1.54,1.54,0,0,1,1.51-.27Z"/><path d="M159.34,144.8v-8.4h2.39a2.63,2.63,0,0,1,1.73.53,1.72,1.72,0,0,1,.64,1.39,2,2,0,0,1-.39,1.24,2.07,2.07,0,0,1-1.06.75v0A2.13,2.13,0,0,1,164,141a2,2,0,0,1,.51,1.41,2.18,2.18,0,0,1-.78,1.74,2.84,2.84,0,0,1-2,.67Zm1-7.51V140h1a1.91,1.91,0,0,0,1.27-.39,1.34,1.34,0,0,0,.46-1.1c0-.81-.54-1.22-1.61-1.22Zm0,3.6v3h1.33a2,2,0,0,0,1.35-.41,1.4,1.4,0,0,0,.48-1.13c0-1-.68-1.48-2-1.48Z"/><path d="M174.79,144.8h-1v-5.64c0-.44,0-1,.08-1.63h0a5.05,5.05,0,0,1-.25.81l-2.87,6.46h-.48l-2.87-6.41a4.68,4.68,0,0,1-.25-.86h0c0,.33,0,.88,0,1.65v5.62h-.95v-8.4h1.3l2.58,5.86a7.38,7.38,0,0,1,.39,1h0c.17-.47.31-.81.41-1l2.63-5.83h1.23Z"/><path d="M182.72,144.45a4.92,4.92,0,0,1-2.32.49,3.72,3.72,0,0,1-2.87-1.15,4.26,4.26,0,0,1-1.08-3,4.45,4.45,0,0,1,1.21-3.26,4.11,4.11,0,0,1,3.08-1.24,5,5,0,0,1,2,.34v1.05a4.09,4.09,0,0,0-2-.5,3.06,3.06,0,0,0-2.34,1,3.66,3.66,0,0,0-.9,2.59,3.49,3.49,0,0,0,.84,2.45,2.89,2.89,0,0,0,2.21.91,4.11,4.11,0,0,0,2.19-.57Z"/><path d="M114.57,169.26V168.1a2.42,2.42,0,0,0,.47.32,3.8,3.8,0,0,0,.59.23,3.3,3.3,0,0,0,.62.15,3.07,3.07,0,0,0,.57.06,2.29,2.29,0,0,0,1.36-.34,1.15,1.15,0,0,0,.45-1,1.13,1.13,0,0,0-.15-.59,1.64,1.64,0,0,0-.42-.46,3.91,3.91,0,0,0-.62-.4l-.78-.4-.82-.45a3.85,3.85,0,0,1-.66-.51,2.06,2.06,0,0,1-.44-.62,2.15,2.15,0,0,1,.09-1.82,2.32,2.32,0,0,1,.66-.7,3.19,3.19,0,0,1,.94-.41,4.24,4.24,0,0,1,1.07-.13,4.11,4.11,0,0,1,1.81.3v1.1a3.33,3.33,0,0,0-1.91-.51,3.57,3.57,0,0,0-.65.06,2,2,0,0,0-.57.22,1.31,1.31,0,0,0-.41.4,1,1,0,0,0-.16.58,1.22,1.22,0,0,0,.12.56,1.41,1.41,0,0,0,.35.43,3.42,3.42,0,0,0,.58.37c.22.12.48.26.77.4s.59.31.86.47a4.41,4.41,0,0,1,.71.54,2.42,2.42,0,0,1,.48.67,1.84,1.84,0,0,1,.18.83,2.14,2.14,0,0,1-.24,1.05,2.11,2.11,0,0,1-.66.7,2.88,2.88,0,0,1-1,.39,5.24,5.24,0,0,1-1.14.12l-.49,0a4.17,4.17,0,0,1-.6-.1,4.91,4.91,0,0,1-.58-.15A1.93,1.93,0,0,1,114.57,169.26Z"/><path d="M126,166.84h-4.24a2.3,2.3,0,0,0,.54,1.55,1.87,1.87,0,0,0,1.42.54,2.93,2.93,0,0,0,1.86-.67v.91a3.5,3.5,0,0,1-2.09.57,2.53,2.53,0,0,1-2-.82,3.36,3.36,0,0,1-.73-2.3,3.29,3.29,0,0,1,.8-2.28,2.54,2.54,0,0,1,2-.88,2.24,2.24,0,0,1,1.82.76,3.18,3.18,0,0,1,.65,2.12Zm-1-.81a1.91,1.91,0,0,0-.4-1.3,1.36,1.36,0,0,0-1.1-.46,1.56,1.56,0,0,0-1.15.48,2.25,2.25,0,0,0-.59,1.28Z"/><path d="M130.61,164.57a1.18,1.18,0,0,0-.73-.19,1.23,1.23,0,0,0-1,.58,2.72,2.72,0,0,0-.41,1.58v3.06h-1v-6h1v1.24h0a2.07,2.07,0,0,1,.63-1,1.43,1.43,0,0,1,.95-.36,1.41,1.41,0,0,1,.57.09Z"/><path d="M136.37,163.6l-2.39,6H133l-2.28-6h1.06l1.52,4.36a4.27,4.27,0,0,1,.21.84h0a4.5,4.5,0,0,1,.19-.82l1.6-4.38Z"/><path d="M137.89,162.08a.61.61,0,0,1-.62-.62.61.61,0,0,1,.18-.45.6.6,0,0,1,.44-.18.61.61,0,0,1,.45.18.62.62,0,0,1,.19.45.59.59,0,0,1-.19.43A.58.58,0,0,1,137.89,162.08Zm.47,7.52h-1v-6h1Z"/><path d="M145.43,169.6h-1v-1h0a2.21,2.21,0,0,1-2.06,1.16,2.24,2.24,0,0,1-1.81-.81,3.28,3.28,0,0,1-.67-2.19,3.57,3.57,0,0,1,.75-2.38,2.46,2.46,0,0,1,2-.9,1.91,1.91,0,0,1,1.8,1h0v-3.71h1Zm-1-2.71V166a1.73,1.73,0,0,0-.48-1.23,1.64,1.64,0,0,0-1.22-.5,1.67,1.67,0,0,0-1.39.64,2.87,2.87,0,0,0-.5,1.78,2.56,2.56,0,0,0,.48,1.64,1.6,1.6,0,0,0,1.3.6,1.65,1.65,0,0,0,1.31-.58A2.17,2.17,0,0,0,144.47,166.89Z"/><path d="M149.88,169.74a2.77,2.77,0,0,1-2.12-.84,3.11,3.11,0,0,1-.8-2.23,3.25,3.25,0,0,1,.83-2.36,3,3,0,0,1,2.23-.85,2.68,2.68,0,0,1,2.1.83,3.77,3.77,0,0,1-.06,4.59A2.87,2.87,0,0,1,149.88,169.74Zm.07-5.47a1.81,1.81,0,0,0-1.46.63,2.58,2.58,0,0,0-.54,1.73,2.47,2.47,0,0,0,.54,1.69,1.86,1.86,0,0,0,1.46.61,1.75,1.75,0,0,0,1.43-.6,3.23,3.23,0,0,0,0-3.45A1.73,1.73,0,0,0,150,164.27Z"/><path d="M157.53,164.57a1.14,1.14,0,0,0-.72-.19,1.21,1.21,0,0,0-1,.58,2.64,2.64,0,0,0-.41,1.58v3.06h-1v-6h1v1.24h0a2,2,0,0,1,.63-1,1.54,1.54,0,0,1,1.51-.27Z"/><path d="M114.57,194.06V192.9a2.42,2.42,0,0,0,.47.32,3.8,3.8,0,0,0,.59.23,3.3,3.3,0,0,0,.62.15,3.07,3.07,0,0,0,.57.06,2.29,2.29,0,0,0,1.36-.34,1.15,1.15,0,0,0,.45-1,1.13,1.13,0,0,0-.15-.59,1.64,1.64,0,0,0-.42-.46,3.91,3.91,0,0,0-.62-.4l-.78-.4-.82-.45a3.85,3.85,0,0,1-.66-.51,2.06,2.06,0,0,1-.44-.62,1.91,1.91,0,0,1-.16-.82,1.93,1.93,0,0,1,.25-1,2.32,2.32,0,0,1,.66-.7,3.19,3.19,0,0,1,.94-.41,4.24,4.24,0,0,1,1.07-.13,4.11,4.11,0,0,1,1.81.3v1.1a3.33,3.33,0,0,0-1.91-.51,2.88,2.88,0,0,0-.65.07,1.58,1.58,0,0,0-.57.22,1.18,1.18,0,0,0-.41.39,1,1,0,0,0-.16.58,1.22,1.22,0,0,0,.12.56,1.41,1.41,0,0,0,.35.43,3.42,3.42,0,0,0,.58.37c.22.12.48.26.77.4s.59.31.86.47a3.94,3.94,0,0,1,.71.55,2.38,2.38,0,0,1,.48.66,1.84,1.84,0,0,1,.18.83,2.14,2.14,0,0,1-.24,1.05,2.11,2.11,0,0,1-.66.7,2.88,2.88,0,0,1-1,.39,5.24,5.24,0,0,1-1.14.12l-.49,0q-.3,0-.6-.09c-.2,0-.4-.1-.58-.16A1.93,1.93,0,0,1,114.57,194.06Z"/><path d="M126,191.64h-4.24a2.3,2.3,0,0,0,.54,1.55,1.87,1.87,0,0,0,1.42.54,2.93,2.93,0,0,0,1.86-.67V194a3.5,3.5,0,0,1-2.09.57,2.53,2.53,0,0,1-2-.82,3.36,3.36,0,0,1-.73-2.3,3.29,3.29,0,0,1,.8-2.28,2.54,2.54,0,0,1,2-.88,2.24,2.24,0,0,1,1.82.76,3.18,3.18,0,0,1,.65,2.12Zm-1-.81a1.91,1.91,0,0,0-.4-1.3,1.36,1.36,0,0,0-1.1-.46,1.56,1.56,0,0,0-1.15.48,2.25,2.25,0,0,0-.59,1.28Z"/><path d="M130.61,189.37a1.18,1.18,0,0,0-.73-.19,1.23,1.23,0,0,0-1,.58,2.72,2.72,0,0,0-.41,1.58v3.06h-1v-6h1v1.24h0a2.12,2.12,0,0,1,.63-1,1.43,1.43,0,0,1,.95-.36,1.41,1.41,0,0,1,.57.09Z"/><path d="M136.37,188.4l-2.39,6H133l-2.28-6h1.06l1.52,4.36a4.27,4.27,0,0,1,.21.84h0a4.7,4.7,0,0,1,.19-.82l1.6-4.38Z"/><path d="M137.89,186.88a.6.6,0,0,1-.44-.18.59.59,0,0,1-.18-.44.61.61,0,0,1,.18-.45.6.6,0,0,1,.44-.18.61.61,0,0,1,.45.18.62.62,0,0,1,.19.45.63.63,0,0,1-.19.44A.61.61,0,0,1,137.89,186.88Zm.47,7.52h-1v-6h1Z"/><path d="M145.43,194.4h-1v-1h0a2.21,2.21,0,0,1-2.06,1.16,2.27,2.27,0,0,1-1.81-.8,3.32,3.32,0,0,1-.67-2.2,3.57,3.57,0,0,1,.75-2.38,2.46,2.46,0,0,1,2-.9,1.91,1.91,0,0,1,1.8,1h0v-3.71h1Zm-1-2.71v-.89a1.73,1.73,0,0,0-.48-1.23,1.64,1.64,0,0,0-1.22-.5,1.67,1.67,0,0,0-1.39.64,2.87,2.87,0,0,0-.5,1.78,2.54,2.54,0,0,0,.48,1.64,1.6,1.6,0,0,0,1.3.6,1.65,1.65,0,0,0,1.31-.58A2.16,2.16,0,0,0,144.47,191.69Z"/><path d="M149.88,194.54a2.77,2.77,0,0,1-2.12-.84,3.11,3.11,0,0,1-.8-2.23,3.25,3.25,0,0,1,.83-2.36,3,3,0,0,1,2.23-.85,2.71,2.71,0,0,1,2.1.83,3.77,3.77,0,0,1-.06,4.59A2.87,2.87,0,0,1,149.88,194.54Zm.07-5.47a1.81,1.81,0,0,0-1.46.63,2.59,2.59,0,0,0-.54,1.74,2.46,2.46,0,0,0,.54,1.68,1.86,1.86,0,0,0,1.46.61,1.75,1.75,0,0,0,1.43-.6,3.23,3.23,0,0,0,0-3.45A1.73,1.73,0,0,0,150,189.07Z"/><path d="M157.53,189.37a1.14,1.14,0,0,0-.72-.19,1.21,1.21,0,0,0-1,.58,2.64,2.64,0,0,0-.41,1.58v3.06h-1v-6h1v1.24h0a2,2,0,0,1,.63-1,1.54,1.54,0,0,1,1.51-.27Z"/><path d="M114.57,218.86V217.7a2.42,2.42,0,0,0,.47.32,3.8,3.8,0,0,0,.59.23,3.3,3.3,0,0,0,.62.15,3.07,3.07,0,0,0,.57.06,2.29,2.29,0,0,0,1.36-.34,1.15,1.15,0,0,0,.45-1,1.13,1.13,0,0,0-.15-.59,1.64,1.64,0,0,0-.42-.46,3.91,3.91,0,0,0-.62-.4l-.78-.4-.82-.45a3.85,3.85,0,0,1-.66-.51,2.06,2.06,0,0,1-.44-.62,1.91,1.91,0,0,1-.16-.82,1.93,1.93,0,0,1,.25-1,2.32,2.32,0,0,1,.66-.7,3.19,3.19,0,0,1,.94-.41,4.24,4.24,0,0,1,1.07-.13,4.11,4.11,0,0,1,1.81.3v1.1a3.33,3.33,0,0,0-1.91-.51,2.88,2.88,0,0,0-.65.07,1.77,1.77,0,0,0-.57.21,1.31,1.31,0,0,0-.41.4,1,1,0,0,0-.16.58,1.22,1.22,0,0,0,.12.56,1.41,1.41,0,0,0,.35.43,3.42,3.42,0,0,0,.58.37c.22.12.48.26.77.4s.59.31.86.47a4.41,4.41,0,0,1,.71.54,2.42,2.42,0,0,1,.48.67,1.84,1.84,0,0,1,.18.83,2.14,2.14,0,0,1-.24,1,2.11,2.11,0,0,1-.66.7,2.88,2.88,0,0,1-1,.39,5.24,5.24,0,0,1-1.14.12l-.49,0a4.17,4.17,0,0,1-.6-.1,4.91,4.91,0,0,1-.58-.15A1.93,1.93,0,0,1,114.57,218.86Z"/><path d="M126,216.44h-4.24a2.3,2.3,0,0,0,.54,1.55,1.87,1.87,0,0,0,1.42.54,2.93,2.93,0,0,0,1.86-.67v.91a3.5,3.5,0,0,1-2.09.57,2.53,2.53,0,0,1-2-.82,3.36,3.36,0,0,1-.73-2.3,3.29,3.29,0,0,1,.8-2.28,2.54,2.54,0,0,1,2-.88,2.24,2.24,0,0,1,1.82.76,3.18,3.18,0,0,1,.65,2.12Zm-1-.81a1.91,1.91,0,0,0-.4-1.3,1.36,1.36,0,0,0-1.1-.46,1.56,1.56,0,0,0-1.15.48,2.25,2.25,0,0,0-.59,1.28Z"/><path d="M130.61,214.17a1.18,1.18,0,0,0-.73-.19,1.23,1.23,0,0,0-1,.58,2.72,2.72,0,0,0-.41,1.58v3.06h-1v-6h1v1.24h0a2.12,2.12,0,0,1,.63-1,1.43,1.43,0,0,1,.95-.36,1.41,1.41,0,0,1,.57.09Z"/><path d="M136.37,213.2l-2.39,6H133l-2.28-6h1.06l1.52,4.36a4.27,4.27,0,0,1,.21.84h0a4.7,4.7,0,0,1,.19-.82l1.6-4.38Z"/><path d="M137.89,211.68a.6.6,0,0,1-.44-.18.59.59,0,0,1-.18-.44.61.61,0,0,1,.18-.45.6.6,0,0,1,.44-.18.61.61,0,0,1,.45.18.62.62,0,0,1,.19.45.63.63,0,0,1-.19.44A.61.61,0,0,1,137.89,211.68Zm.47,7.52h-1v-6h1Z"/><path d="M145.43,219.2h-1v-1h0a2.21,2.21,0,0,1-2.06,1.16,2.27,2.27,0,0,1-1.81-.8,3.32,3.32,0,0,1-.67-2.2,3.57,3.57,0,0,1,.75-2.38,2.46,2.46,0,0,1,2-.9,1.91,1.91,0,0,1,1.8,1h0v-3.71h1Zm-1-2.71v-.89a1.73,1.73,0,0,0-.48-1.23,1.64,1.64,0,0,0-1.22-.5,1.67,1.67,0,0,0-1.39.64,2.87,2.87,0,0,0-.5,1.78,2.54,2.54,0,0,0,.48,1.64,1.6,1.6,0,0,0,1.3.6A1.65,1.65,0,0,0,144,218,2.16,2.16,0,0,0,144.47,216.49Z"/><path d="M149.88,219.34a2.77,2.77,0,0,1-2.12-.84,3.11,3.11,0,0,1-.8-2.23,3.25,3.25,0,0,1,.83-2.36,3,3,0,0,1,2.23-.85,2.68,2.68,0,0,1,2.1.83,3.77,3.77,0,0,1-.06,4.59A2.87,2.87,0,0,1,149.88,219.34Zm.07-5.47a1.81,1.81,0,0,0-1.46.63,2.59,2.59,0,0,0-.54,1.74,2.46,2.46,0,0,0,.54,1.68,1.86,1.86,0,0,0,1.46.61,1.75,1.75,0,0,0,1.43-.6,3.23,3.23,0,0,0,0-3.45A1.73,1.73,0,0,0,150,213.87Z"/><path d="M157.53,214.17a1.14,1.14,0,0,0-.72-.19,1.21,1.21,0,0,0-1,.58,2.64,2.64,0,0,0-.41,1.58v3.06h-1v-6h1v1.24h0a2,2,0,0,1,.63-1,1.54,1.54,0,0,1,1.51-.27Z"/><path d="M114.57,243.66V242.5a2.42,2.42,0,0,0,.47.32,3.8,3.8,0,0,0,.59.23,3.3,3.3,0,0,0,.62.15,3.07,3.07,0,0,0,.57.06,2.29,2.29,0,0,0,1.36-.34,1.15,1.15,0,0,0,.45-1,1.13,1.13,0,0,0-.15-.59,1.64,1.64,0,0,0-.42-.46,3.91,3.91,0,0,0-.62-.4l-.78-.4-.82-.45a3.85,3.85,0,0,1-.66-.51,2.06,2.06,0,0,1-.44-.62,1.91,1.91,0,0,1-.16-.82,1.93,1.93,0,0,1,.25-1,2.32,2.32,0,0,1,.66-.7,3.19,3.19,0,0,1,.94-.41,4.24,4.24,0,0,1,1.07-.13,4.11,4.11,0,0,1,1.81.3v1.1a3.33,3.33,0,0,0-1.91-.51,2.88,2.88,0,0,0-.65.07,1.77,1.77,0,0,0-.57.21,1.31,1.31,0,0,0-.41.4,1,1,0,0,0-.16.58,1.22,1.22,0,0,0,.12.56,1.41,1.41,0,0,0,.35.43,3.42,3.42,0,0,0,.58.37c.22.12.48.26.77.4s.59.31.86.47a4.41,4.41,0,0,1,.71.54,2.42,2.42,0,0,1,.48.67,1.84,1.84,0,0,1,.18.83,2.14,2.14,0,0,1-.24,1.05,2.11,2.11,0,0,1-.66.7,2.88,2.88,0,0,1-1,.39,5.24,5.24,0,0,1-1.14.12l-.49,0a4.17,4.17,0,0,1-.6-.1,4.91,4.91,0,0,1-.58-.15A1.93,1.93,0,0,1,114.57,243.66Z"/><path d="M126,241.24h-4.24a2.3,2.3,0,0,0,.54,1.55,1.87,1.87,0,0,0,1.42.54,2.93,2.93,0,0,0,1.86-.67v.91a3.5,3.5,0,0,1-2.09.57,2.53,2.53,0,0,1-2-.82,3.36,3.36,0,0,1-.73-2.3,3.29,3.29,0,0,1,.8-2.28,2.54,2.54,0,0,1,2-.88,2.24,2.24,0,0,1,1.82.76,3.18,3.18,0,0,1,.65,2.12Zm-1-.81a1.91,1.91,0,0,0-.4-1.3,1.36,1.36,0,0,0-1.1-.46,1.56,1.56,0,0,0-1.15.48,2.25,2.25,0,0,0-.59,1.28Z"/><path d="M130.61,239a1.18,1.18,0,0,0-.73-.19,1.23,1.23,0,0,0-1,.58,2.72,2.72,0,0,0-.41,1.58V244h-1v-6h1v1.24h0a2.12,2.12,0,0,1,.63-1,1.43,1.43,0,0,1,.95-.36,1.41,1.41,0,0,1,.57.09Z"/><path d="M136.37,238,134,244H133l-2.28-6h1.06l1.52,4.36a4.27,4.27,0,0,1,.21.84h0a4.7,4.7,0,0,1,.19-.82l1.6-4.38Z"/><path d="M137.89,236.48a.6.6,0,0,1-.44-.18.59.59,0,0,1-.18-.44.61.61,0,0,1,.18-.45.6.6,0,0,1,.44-.18.61.61,0,0,1,.45.18.62.62,0,0,1,.19.45.59.59,0,0,1-.19.43A.58.58,0,0,1,137.89,236.48Zm.47,7.52h-1v-6h1Z"/><path d="M145.43,244h-1v-1h0a2.21,2.21,0,0,1-2.06,1.16,2.24,2.24,0,0,1-1.81-.81,3.28,3.28,0,0,1-.67-2.19,3.57,3.57,0,0,1,.75-2.38,2.46,2.46,0,0,1,2-.9,1.91,1.91,0,0,1,1.8,1h0v-3.71h1Zm-1-2.71v-.89a1.73,1.73,0,0,0-.48-1.23,1.64,1.64,0,0,0-1.22-.5,1.67,1.67,0,0,0-1.39.64,2.87,2.87,0,0,0-.5,1.78,2.54,2.54,0,0,0,.48,1.64,1.6,1.6,0,0,0,1.3.6,1.65,1.65,0,0,0,1.31-.58A2.16,2.16,0,0,0,144.47,241.29Z"/><path d="M149.88,244.14a2.77,2.77,0,0,1-2.12-.84,3.11,3.11,0,0,1-.8-2.23,3.25,3.25,0,0,1,.83-2.36,3,3,0,0,1,2.23-.85,2.68,2.68,0,0,1,2.1.83,3.77,3.77,0,0,1-.06,4.59A2.87,2.87,0,0,1,149.88,244.14Zm.07-5.47a1.81,1.81,0,0,0-1.46.63A2.59,2.59,0,0,0,148,241a2.46,2.46,0,0,0,.54,1.68,1.86,1.86,0,0,0,1.46.61,1.75,1.75,0,0,0,1.43-.6,3.23,3.23,0,0,0,0-3.45A1.73,1.73,0,0,0,150,238.67Z"/><path d="M157.53,239a1.14,1.14,0,0,0-.72-.19,1.21,1.21,0,0,0-1,.58,2.64,2.64,0,0,0-.41,1.58V244h-1v-6h1v1.24h0a2,2,0,0,1,.63-1,1.54,1.54,0,0,1,1.51-.27Z"/><path d="M88,265.8H87V262H82.67v3.83h-1v-8.4h1v3.68H87V257.4h1Z"/><path d="M92.58,265.94a2.79,2.79,0,0,1-2.12-.84,3.11,3.11,0,0,1-.8-2.23,3.25,3.25,0,0,1,.83-2.36,3,3,0,0,1,2.23-.85,2.66,2.66,0,0,1,2.1.83,3.77,3.77,0,0,1-.06,4.59A2.87,2.87,0,0,1,92.58,265.94Zm.07-5.47a1.83,1.83,0,0,0-1.46.63,2.58,2.58,0,0,0-.54,1.73,2.47,2.47,0,0,0,.54,1.69,1.86,1.86,0,0,0,1.46.61,1.75,1.75,0,0,0,1.43-.6,3.17,3.17,0,0,0,0-3.45A1.73,1.73,0,0,0,92.65,260.47Z"/><path d="M96.74,265.58v-1a2.84,2.84,0,0,0,1.73.58c.84,0,1.27-.28,1.27-.84a.76.76,0,0,0-.11-.41,1.07,1.07,0,0,0-.3-.3,2.44,2.44,0,0,0-.43-.23l-.53-.21a6.76,6.76,0,0,1-.7-.32,2.29,2.29,0,0,1-.51-.36,1.35,1.35,0,0,1-.3-.46,1.62,1.62,0,0,1-.11-.61,1.39,1.39,0,0,1,.2-.74,1.78,1.78,0,0,1,.51-.55,2.49,2.49,0,0,1,.74-.33,3.41,3.41,0,0,1,.85-.11,3.46,3.46,0,0,1,1.4.27v1a2.74,2.74,0,0,0-1.53-.43,1.75,1.75,0,0,0-.48.06,1.33,1.33,0,0,0-.38.17,1,1,0,0,0-.24.27.77.77,0,0,0-.08.34.87.87,0,0,0,.08.39,1,1,0,0,0,.25.29,2.11,2.11,0,0,0,.4.22l.53.21c.27.11.51.21.72.32a2.82,2.82,0,0,1,.54.36,1.41,1.41,0,0,1,.34.47,1.46,1.46,0,0,1,.12.62,1.42,1.42,0,0,1-.2.78,1.58,1.58,0,0,1-.52.54,2.26,2.26,0,0,1-.76.32,3.24,3.24,0,0,1-.89.11A3.41,3.41,0,0,1,96.74,265.58Z"/><path d="M105,265.74a1.8,1.8,0,0,1-.9.19c-1,0-1.57-.59-1.57-1.76v-3.55h-1v-.82h1v-1.47l1-.31v1.78H105v.82h-1.51V264a1.45,1.45,0,0,0,.2.86.84.84,0,0,0,.68.26,1,1,0,0,0,.63-.2Z"/><path d="M114.67,265.8h-1v-1h0a2.42,2.42,0,0,1-3.87.35,3.28,3.28,0,0,1-.68-2.19,3.57,3.57,0,0,1,.75-2.38,2.48,2.48,0,0,1,2-.9,1.93,1.93,0,0,1,1.8,1h0v-3.71h1Zm-1-2.71v-.89a1.73,1.73,0,0,0-.48-1.23,1.78,1.78,0,0,0-2.6.14,2.81,2.81,0,0,0-.5,1.78,2.56,2.56,0,0,0,.48,1.64,1.57,1.57,0,0,0,1.3.6,1.63,1.63,0,0,0,1.3-.58A2.16,2.16,0,0,0,113.71,263.09Z"/><path d="M121.44,263H117.2a2.3,2.3,0,0,0,.54,1.55,1.88,1.88,0,0,0,1.42.54,2.89,2.89,0,0,0,1.86-.67v.91a3.47,3.47,0,0,1-2.09.57,2.53,2.53,0,0,1-2-.82,3.35,3.35,0,0,1-.72-2.3,3.28,3.28,0,0,1,.79-2.28,2.54,2.54,0,0,1,2-.88,2.22,2.22,0,0,1,1.82.76,3.18,3.18,0,0,1,.65,2.12Zm-1-.81a2,2,0,0,0-.41-1.3,1.35,1.35,0,0,0-1.09-.46,1.57,1.57,0,0,0-1.16.48,2.25,2.25,0,0,0-.59,1.28Z"/><path d="M130.27,265.52a3.1,3.1,0,0,1-1.64.42,2.72,2.72,0,0,1-2.07-.83,3,3,0,0,1-.79-2.17,3.3,3.3,0,0,1,.85-2.38,3,3,0,0,1,2.27-.9,3.23,3.23,0,0,1,1.39.29v1a2.38,2.38,0,0,0-1.43-.47,2,2,0,0,0-1.51.66,2.5,2.5,0,0,0-.59,1.73,2.36,2.36,0,0,0,.56,1.66,1.89,1.89,0,0,0,1.48.61,2.39,2.39,0,0,0,1.48-.52Z"/><path d="M132.21,258.28a.63.63,0,0,1,0-1.25.61.61,0,0,1,.45.18.58.58,0,0,1,.19.45.56.56,0,0,1-.19.43A.58.58,0,0,1,132.21,258.28Zm.47,7.52h-1v-6h1Z"/><path d="M138.72,265.52a3.1,3.1,0,0,1-1.64.42,2.72,2.72,0,0,1-2.07-.83,3,3,0,0,1-.79-2.17,3.3,3.3,0,0,1,.85-2.38,3,3,0,0,1,2.27-.9,3.23,3.23,0,0,1,1.39.29v1a2.38,2.38,0,0,0-1.43-.47,1.93,1.93,0,0,0-1.51.66,2.5,2.5,0,0,0-.59,1.73,2.36,2.36,0,0,0,.56,1.66,1.89,1.89,0,0,0,1.48.61,2.39,2.39,0,0,0,1.48-.52Z"/><path d="M141.13,265.8h-1v-8.88h1Z"/><path d="M145.59,265.94a2.79,2.79,0,0,1-2.13-.84,3.1,3.1,0,0,1-.79-2.23,3.24,3.24,0,0,1,.82-2.36,3,3,0,0,1,2.24-.85,2.66,2.66,0,0,1,2.09.83,3.77,3.77,0,0,1-.06,4.59A2.85,2.85,0,0,1,145.59,265.94Zm.07-5.47a1.84,1.84,0,0,0-1.47.63,2.58,2.58,0,0,0-.54,1.73,2.42,2.42,0,0,0,.55,1.69,1.85,1.85,0,0,0,1.46.61,1.77,1.77,0,0,0,1.43-.6,3.23,3.23,0,0,0,0-3.45A1.74,1.74,0,0,0,145.66,260.47Z"/><path d="M158.52,265.8h-1v-1h0a2.21,2.21,0,0,1-2.06,1.16,2.24,2.24,0,0,1-1.81-.81,3.28,3.28,0,0,1-.67-2.19,3.57,3.57,0,0,1,.75-2.38,2.46,2.46,0,0,1,2-.9,1.91,1.91,0,0,1,1.8,1h0v-3.71h1Zm-1-2.71v-.89a1.73,1.73,0,0,0-.48-1.23,1.64,1.64,0,0,0-1.22-.5,1.67,1.67,0,0,0-1.39.64,2.87,2.87,0,0,0-.5,1.78,2.56,2.56,0,0,0,.48,1.64,1.6,1.6,0,0,0,1.3.6,1.65,1.65,0,0,0,1.31-.58A2.16,2.16,0,0,0,157.56,263.09Z"/><path d="M165.29,263h-4.24a2.21,2.21,0,0,0,.54,1.55,1.85,1.85,0,0,0,1.42.54,2.93,2.93,0,0,0,1.86-.67v.91a3.52,3.52,0,0,1-2.09.57,2.52,2.52,0,0,1-2-.82,3.81,3.81,0,0,1,.07-4.58,2.53,2.53,0,0,1,2-.88,2.25,2.25,0,0,1,1.82.76,3.18,3.18,0,0,1,.65,2.12Zm-1-.81a2,2,0,0,0-.4-1.3,1.36,1.36,0,0,0-1.1-.46,1.55,1.55,0,0,0-1.15.48,2.19,2.19,0,0,0-.59,1.28Z"/><path d="M174.74,259.8l-2.39,6h-.94l-2.28-6h1.06l1.52,4.36a3.21,3.21,0,0,1,.21.84h0a4.52,4.52,0,0,1,.18-.82l1.6-4.38Z"/><path d="M176.27,258.28a.59.59,0,0,1-.44-.18.62.62,0,0,1,0-.89.59.59,0,0,1,.44-.18.6.6,0,0,1,.44.18.58.58,0,0,1,.19.45.56.56,0,0,1-.19.43A.58.58,0,0,1,176.27,258.28Zm.46,7.52h-1v-6h1Z"/><path d="M183.8,265.8h-1v-1h0a2.42,2.42,0,0,1-3.87.35,3.28,3.28,0,0,1-.68-2.19,3.57,3.57,0,0,1,.75-2.38,2.48,2.48,0,0,1,2-.9,1.93,1.93,0,0,1,1.8,1h0v-3.71h1Zm-1-2.71v-.89a1.73,1.73,0,0,0-.48-1.23,1.78,1.78,0,0,0-2.6.14,2.81,2.81,0,0,0-.51,1.78,2.56,2.56,0,0,0,.49,1.64,1.57,1.57,0,0,0,1.3.6,1.64,1.64,0,0,0,1.3-.58A2.16,2.16,0,0,0,182.84,263.09Z"/><path d="M190,265.8h-1v-.94h0a2,2,0,0,1-1.85,1.08,2,2,0,0,1-1.4-.47,1.65,1.65,0,0,1-.51-1.26c0-1.13.66-1.78,2-2l1.8-.25c0-1-.41-1.53-1.24-1.53a2.9,2.9,0,0,0-2,.74v-1a3.76,3.76,0,0,1,2-.56c1.41,0,2.11.75,2.11,2.24Zm-1-3-1.45.2a2.54,2.54,0,0,0-1,.33,1,1,0,0,0-.34.85.89.89,0,0,0,.31.71,1.19,1.19,0,0,0,.83.28,1.55,1.55,0,0,0,1.18-.5,1.8,1.8,0,0,0,.47-1.27Z"/><path d="M108.83,277.8h-1v-1h0a2.42,2.42,0,0,1-3.87.35,3.23,3.23,0,0,1-.68-2.19,3.57,3.57,0,0,1,.75-2.38,2.46,2.46,0,0,1,2-.9,1.93,1.93,0,0,1,1.8,1h0v-3.71h1Zm-1-2.71v-.89a1.73,1.73,0,0,0-.48-1.23,1.78,1.78,0,0,0-2.6.14,2.81,2.81,0,0,0-.51,1.78,2.51,2.51,0,0,0,.49,1.64,1.57,1.57,0,0,0,1.29.6,1.65,1.65,0,0,0,1.31-.58A2.16,2.16,0,0,0,107.87,275.09Z"/><path d="M115.6,275h-4.24a2.3,2.3,0,0,0,.54,1.55,1.87,1.87,0,0,0,1.42.54,2.91,2.91,0,0,0,1.86-.67v.91a3.5,3.5,0,0,1-2.09.57,2.53,2.53,0,0,1-2-.82,3.35,3.35,0,0,1-.72-2.3,3.28,3.28,0,0,1,.79-2.28,2.54,2.54,0,0,1,2-.88,2.24,2.24,0,0,1,1.82.76,3.18,3.18,0,0,1,.65,2.12Zm-1-.81a1.91,1.91,0,0,0-.4-1.3,1.36,1.36,0,0,0-1.1-.46A1.56,1.56,0,0,0,112,273a2.25,2.25,0,0,0-.59,1.28Z"/><path d="M125.32,277.8h-1v-3.46c0-1.25-.47-1.87-1.4-1.87a1.51,1.51,0,0,0-1.18.54,2,2,0,0,0-.48,1.39v3.4h-1v-8.88h1v3.88h0a2.18,2.18,0,0,1,2-1.14c1.35,0,2,.81,2,2.44Z"/><path d="M131.42,277.8h-1v-.94h0a2.2,2.2,0,0,1-3.25.61,1.65,1.65,0,0,1-.51-1.26c0-1.13.66-1.78,2-2l1.8-.25q0-1.53-1.23-1.53a2.91,2.91,0,0,0-2,.74v-1a3.76,3.76,0,0,1,2-.56c1.41,0,2.11.75,2.11,2.24Zm-1-3L129,275a2.53,2.53,0,0,0-1,.33,1,1,0,0,0-.34.85.89.89,0,0,0,.31.71,1.2,1.2,0,0,0,.84.28,1.56,1.56,0,0,0,1.18-.5,1.79,1.79,0,0,0,.46-1.27Z"/><path d="M136.36,272.77a1.14,1.14,0,0,0-.72-.19,1.21,1.21,0,0,0-1,.58,2.64,2.64,0,0,0-.41,1.58v3.06h-1v-6h1V273h0a2,2,0,0,1,.63-1,1.54,1.54,0,0,1,1.51-.27Z"/><path d="M142.53,277.8h-1v-1h0a2.21,2.21,0,0,1-2.06,1.16,2.24,2.24,0,0,1-1.81-.81,3.28,3.28,0,0,1-.67-2.19,3.57,3.57,0,0,1,.75-2.38,2.46,2.46,0,0,1,2-.9,1.91,1.91,0,0,1,1.8,1h0v-3.71h1Zm-1-2.71v-.89a1.73,1.73,0,0,0-.48-1.23,1.64,1.64,0,0,0-1.22-.5,1.67,1.67,0,0,0-1.39.64,2.87,2.87,0,0,0-.5,1.78,2.56,2.56,0,0,0,.48,1.64,1.6,1.6,0,0,0,1.3.6,1.65,1.65,0,0,0,1.31-.58A2.16,2.16,0,0,0,141.57,275.09Z"/><path d="M152,271.8l-1.8,6h-1L148,273.5a2.18,2.18,0,0,1-.09-.55h0a2.44,2.44,0,0,1-.12.54l-1.34,4.31h-1l-1.82-6h1l1.24,4.51a2.38,2.38,0,0,1,.08.54H146a2.43,2.43,0,0,1,.11-.55l1.38-4.5h.88l1.24,4.52a3.36,3.36,0,0,1,.09.54h0a2.61,2.61,0,0,1,.1-.54l1.22-4.52Z"/><path d="M157.44,277.8h-1v-.94h0a2,2,0,0,1-1.85,1.08,2,2,0,0,1-1.4-.47,1.65,1.65,0,0,1-.51-1.26c0-1.13.66-1.78,2-2l1.8-.25c0-1-.41-1.53-1.24-1.53a2.9,2.9,0,0,0-2,.74v-1a3.73,3.73,0,0,1,2-.56c1.41,0,2.12.75,2.12,2.24Zm-1-3L155,275a2.65,2.65,0,0,0-1,.33,1,1,0,0,0-.34.85.9.9,0,0,0,.32.71,1.18,1.18,0,0,0,.83.28,1.55,1.55,0,0,0,1.18-.5,1.8,1.8,0,0,0,.47-1.27Z"/><path d="M162.38,272.77a1.18,1.18,0,0,0-.73-.19,1.23,1.23,0,0,0-1,.58,2.72,2.72,0,0,0-.41,1.58v3.06h-1v-6h1V273h0a2.12,2.12,0,0,1,.63-1,1.42,1.42,0,0,1,.94-.36,1.46,1.46,0,0,1,.58.09Z"/><path d="M168.24,275H164a2.21,2.21,0,0,0,.54,1.55,1.85,1.85,0,0,0,1.41.54,2.94,2.94,0,0,0,1.87-.67v.91a3.52,3.52,0,0,1-2.09.57,2.52,2.52,0,0,1-2-.82,3.81,3.81,0,0,1,.07-4.58,2.51,2.51,0,0,1,2-.88,2.25,2.25,0,0,1,1.82.76,3.18,3.18,0,0,1,.64,2.12Zm-1-.81a2,2,0,0,0-.4-1.3,1.37,1.37,0,0,0-1.1-.46,1.55,1.55,0,0,0-1.15.48,2.19,2.19,0,0,0-.59,1.28Z"/><path d="M90.87,291.8q0,3.54-3.2,3.54-3,0-3-3.4V286.8h1v5.07c0,1.72.73,2.59,2.18,2.59s2.1-.84,2.1-2.5V286.8h1Z"/><path d="M97.82,295.2h-1v-3.42c0-1.28-.47-1.91-1.4-1.91a1.5,1.5,0,0,0-1.19.54,2,2,0,0,0-.47,1.37v3.42h-1v-6h1v1h0a2.16,2.16,0,0,1,2-1.14,1.83,1.83,0,0,1,1.51.64,2.85,2.85,0,0,1,.52,1.83Z"/><path d="M100.12,287.68a.6.6,0,0,1-.44-.18.59.59,0,0,1-.18-.44.61.61,0,0,1,.18-.45.6.6,0,0,1,.44-.18.62.62,0,0,1,.63.63.62.62,0,0,1-.18.44A.61.61,0,0,1,100.12,287.68Zm.47,7.52h-1v-6h1Z"/><path d="M107.66,295.2h-1v-1h0a2.21,2.21,0,0,1-2.06,1.16,2.25,2.25,0,0,1-1.81-.8,3.33,3.33,0,0,1-.68-2.2,3.57,3.57,0,0,1,.75-2.38,2.48,2.48,0,0,1,2-.9,1.91,1.91,0,0,1,1.8,1h0v-3.71h1Zm-1-2.71v-.89a1.73,1.73,0,0,0-.48-1.23,1.61,1.61,0,0,0-1.21-.5,1.67,1.67,0,0,0-1.39.64,2.87,2.87,0,0,0-.5,1.78,2.54,2.54,0,0,0,.48,1.64,1.59,1.59,0,0,0,1.3.6,1.63,1.63,0,0,0,1.3-.58A2.11,2.11,0,0,0,106.69,292.49Z"/><path d="M113.9,295.2h-1v-.94h0a2.2,2.2,0,0,1-3.25.61,1.64,1.64,0,0,1-.5-1.26c0-1.12.66-1.78,2-2l1.79-.25q0-1.53-1.23-1.53a2.92,2.92,0,0,0-2,.74v-1a3.76,3.76,0,0,1,2-.56c1.41,0,2.12.75,2.12,2.24Zm-1-3-1.44.19a2.43,2.43,0,0,0-1,.34.93.93,0,0,0-.34.84.89.89,0,0,0,.31.71,1.2,1.2,0,0,0,.84.28,1.53,1.53,0,0,0,1.18-.5,1.79,1.79,0,0,0,.46-1.27Z"/><path d="M120.83,295.2h-1v-1h0a2.21,2.21,0,0,1-2.06,1.16,2.27,2.27,0,0,1-1.81-.8,3.32,3.32,0,0,1-.67-2.2,3.57,3.57,0,0,1,.75-2.38,2.46,2.46,0,0,1,2-.9,1.91,1.91,0,0,1,1.8,1h0v-3.71h1Zm-1-2.71v-.89a1.73,1.73,0,0,0-.48-1.23,1.64,1.64,0,0,0-1.22-.5,1.67,1.67,0,0,0-1.39.64,2.87,2.87,0,0,0-.5,1.78,2.54,2.54,0,0,0,.48,1.64,1.6,1.6,0,0,0,1.3.6,1.65,1.65,0,0,0,1.31-.58A2.16,2.16,0,0,0,119.87,292.49Z"/><path d="M131.18,295.2h-1v-1h0a2.43,2.43,0,0,1-3.87.36,3.33,3.33,0,0,1-.68-2.2,3.57,3.57,0,0,1,.75-2.38,2.48,2.48,0,0,1,2-.9,1.93,1.93,0,0,1,1.8,1h0v-3.71h1Zm-1-2.71v-.89a1.73,1.73,0,0,0-.48-1.23,1.78,1.78,0,0,0-2.6.14,2.81,2.81,0,0,0-.51,1.78,2.49,2.49,0,0,0,.49,1.64,1.57,1.57,0,0,0,1.3.6,1.64,1.64,0,0,0,1.3-.58A2.16,2.16,0,0,0,130.22,292.49Z"/><path d="M138,292.44h-4.24a2.3,2.3,0,0,0,.54,1.55,1.87,1.87,0,0,0,1.42.54,2.91,2.91,0,0,0,1.86-.67v.91a3.5,3.5,0,0,1-2.09.57,2.53,2.53,0,0,1-2-.82,3.35,3.35,0,0,1-.72-2.3,3.28,3.28,0,0,1,.79-2.28,2.54,2.54,0,0,1,2-.88,2.24,2.24,0,0,1,1.82.76,3.18,3.18,0,0,1,.65,2.12Zm-1-.81a1.91,1.91,0,0,0-.4-1.3,1.36,1.36,0,0,0-1.1-.46,1.56,1.56,0,0,0-1.15.48,2.25,2.25,0,0,0-.59,1.28Z"/><path d="M147.51,292.44h-4.24a2.3,2.3,0,0,0,.54,1.55,1.88,1.88,0,0,0,1.42.54,2.89,2.89,0,0,0,1.86-.67v.91a3.47,3.47,0,0,1-2.09.57,2.54,2.54,0,0,1-2-.82,3.35,3.35,0,0,1-.72-2.3,3.28,3.28,0,0,1,.79-2.28,2.54,2.54,0,0,1,2-.88,2.26,2.26,0,0,1,1.83.76,3.18,3.18,0,0,1,.64,2.12Zm-1-.81a2,2,0,0,0-.4-1.3,1.37,1.37,0,0,0-1.1-.46,1.57,1.57,0,0,0-1.16.48,2.24,2.24,0,0,0-.58,1.28Z"/><path d="M148.6,295v-1a2.82,2.82,0,0,0,1.73.58q1.26,0,1.26-.84a.76.76,0,0,0-.1-.41,1,1,0,0,0-.3-.29,1.94,1.94,0,0,0-.43-.24l-.54-.21c-.26-.11-.5-.21-.7-.32a2.22,2.22,0,0,1-.5-.36,1.38,1.38,0,0,1-.31-.46,1.85,1.85,0,0,1-.1-.61,1.39,1.39,0,0,1,.2-.74,1.67,1.67,0,0,1,.51-.55,2.77,2.77,0,0,1,.74-.33,3.56,3.56,0,0,1,2.24.16v1a2.7,2.7,0,0,0-1.52-.43,1.88,1.88,0,0,0-.49.06,1.4,1.4,0,0,0-.37.17,1,1,0,0,0-.24.27.77.77,0,0,0-.08.34.87.87,0,0,0,.08.39,1,1,0,0,0,.25.29,2.11,2.11,0,0,0,.4.22l.53.22a6.21,6.21,0,0,1,.72.31,2.82,2.82,0,0,1,.54.36,1.57,1.57,0,0,1,.34.47,1.46,1.46,0,0,1,.12.62,1.51,1.51,0,0,1-.2.78,1.58,1.58,0,0,1-.52.54,2.28,2.28,0,0,1-.76.33,3.68,3.68,0,0,1-.89.1A3.39,3.39,0,0,1,148.6,295Z"/><path d="M158.15,294.92a3.14,3.14,0,0,1-1.65.42,2.75,2.75,0,0,1-2.07-.83,3.06,3.06,0,0,1-.78-2.17,3.3,3.3,0,0,1,.85-2.38,3,3,0,0,1,2.26-.9,3.27,3.27,0,0,1,1.4.29v1a2.4,2.4,0,0,0-1.43-.47,1.92,1.92,0,0,0-1.51.66,2.5,2.5,0,0,0-.59,1.73,2.36,2.36,0,0,0,.55,1.66,1.91,1.91,0,0,0,1.49.61,2.43,2.43,0,0,0,1.48-.52Z"/><path d="M163.89,295.2h-1v-.94h0a2.2,2.2,0,0,1-3.25.61,1.65,1.65,0,0,1-.51-1.26c0-1.12.66-1.78,2-2l1.8-.25q0-1.53-1.23-1.53a2.91,2.91,0,0,0-2,.74v-1a3.76,3.76,0,0,1,2-.56c1.41,0,2.11.75,2.11,2.24Zm-1-3-1.44.19a2.37,2.37,0,0,0-1,.34.93.93,0,0,0-.34.84.89.89,0,0,0,.31.71,1.2,1.2,0,0,0,.84.28,1.53,1.53,0,0,0,1.18-.5,1.79,1.79,0,0,0,.46-1.27Z"/><path d="M166.67,295.2h-1v-8.88h1Z"/><path d="M172.91,295.2h-1v-.94h0a2.2,2.2,0,0,1-3.25.61,1.64,1.64,0,0,1-.5-1.26c0-1.12.66-1.78,2-2l1.79-.25q0-1.53-1.23-1.53a2.92,2.92,0,0,0-2,.74v-1a3.76,3.76,0,0,1,2-.56c1.41,0,2.12.75,2.12,2.24Zm-1-3-1.44.19a2.43,2.43,0,0,0-1,.34.93.93,0,0,0-.34.84.89.89,0,0,0,.31.71,1.2,1.2,0,0,0,.84.28,1.53,1.53,0,0,0,1.18-.5,1.79,1.79,0,0,0,.46-1.27Z"/><path d="M179.84,295.2h-1v-1h0a2.21,2.21,0,0,1-2.06,1.16,2.27,2.27,0,0,1-1.81-.8,3.32,3.32,0,0,1-.67-2.2,3.57,3.57,0,0,1,.75-2.38,2.46,2.46,0,0,1,2-.9,1.91,1.91,0,0,1,1.8,1h0v-3.71h1Zm-1-2.71v-.89a1.73,1.73,0,0,0-.48-1.23,1.64,1.64,0,0,0-1.22-.5,1.67,1.67,0,0,0-1.39.64,2.87,2.87,0,0,0-.5,1.78,2.54,2.54,0,0,0,.48,1.64,1.6,1.6,0,0,0,1.3.6,1.65,1.65,0,0,0,1.31-.58A2.16,2.16,0,0,0,178.88,292.49Z"/><path d="M184.29,295.34a2.77,2.77,0,0,1-2.12-.84,3.11,3.11,0,0,1-.8-2.23,3.25,3.25,0,0,1,.83-2.36,3,3,0,0,1,2.23-.85,2.68,2.68,0,0,1,2.1.83,3.77,3.77,0,0,1-.06,4.59A2.87,2.87,0,0,1,184.29,295.34Zm.07-5.47a1.8,1.8,0,0,0-1.46.63,2.59,2.59,0,0,0-.54,1.74,2.46,2.46,0,0,0,.54,1.68,1.85,1.85,0,0,0,1.46.61,1.75,1.75,0,0,0,1.43-.6,3.23,3.23,0,0,0,0-3.45A1.73,1.73,0,0,0,184.36,289.87Z"/><path d="M21,115.48V121h1.07v.88H21v2H20v-2H16.09v-.83c.36-.41.74-.86,1.11-1.33s.73-1,1.08-1.43.65-1,.95-1.45a13.45,13.45,0,0,0,.73-1.39ZM17.17,121H20v-4.11c-.3.51-.57,1-.84,1.37s-.51.77-.74,1.1-.46.62-.68.89Z"/><path d="M26.22,120.92H23v-.75h3.2Z"/><path d="M30.92,123.89H30v-7.26a2,2,0,0,1-.32.25,5.06,5.06,0,0,1-.48.29l-.56.26a3.56,3.56,0,0,1-.58.19v-1a6.12,6.12,0,0,0,.67-.24c.24-.1.47-.21.7-.33a5.73,5.73,0,0,0,.64-.39,5.23,5.23,0,0,0,.53-.39h.37Z"/><path d="M38.83,121.22a3.15,3.15,0,0,1-.2,1.13,2.78,2.78,0,0,1-.55.89,2.26,2.26,0,0,1-.84.58,2.59,2.59,0,0,1-1.05.21,2.52,2.52,0,0,1-1.14-.26,2.55,2.55,0,0,1-.85-.76,3.63,3.63,0,0,1-.53-1.21,6.61,6.61,0,0,1-.18-1.61,7.23,7.23,0,0,1,.25-2,4.68,4.68,0,0,1,.69-1.53,3.24,3.24,0,0,1,1.08-1,2.89,2.89,0,0,1,1.41-.35,3.37,3.37,0,0,1,1.39.24v.91a3,3,0,0,0-1.37-.33,2,2,0,0,0-1,.25,2.26,2.26,0,0,0-.77.71,3.54,3.54,0,0,0-.5,1.11,6,6,0,0,0-.17,1.45h0a2,2,0,0,1,1.92-1.05,2.43,2.43,0,0,1,1,.19,2,2,0,0,1,.76.53,2.31,2.31,0,0,1,.48.82A3.12,3.12,0,0,1,38.83,121.22Zm-1,.12a2.47,2.47,0,0,0-.12-.79,1.89,1.89,0,0,0-.31-.6,1.3,1.3,0,0,0-.52-.37,1.67,1.67,0,0,0-.69-.14,1.59,1.59,0,0,0-.66.14A1.64,1.64,0,0,0,35,120a1.75,1.75,0,0,0-.35.53,1.84,1.84,0,0,0-.12.66,2.64,2.64,0,0,0,.12.81,2.08,2.08,0,0,0,.35.66,1.51,1.51,0,0,0,.53.44,1.39,1.39,0,0,0,.68.16,1.45,1.45,0,0,0,.66-.14,1.48,1.48,0,0,0,.51-.38,1.77,1.77,0,0,0,.33-.59A2.29,2.29,0,0,0,37.85,121.34Z"/><path d="M2.7,135.67v-1a2.9,2.9,0,0,0,1.73.58c.84,0,1.27-.28,1.27-.85a.72.72,0,0,0-.11-.4,1.07,1.07,0,0,0-.3-.3,1.93,1.93,0,0,0-.43-.23l-.53-.21c-.27-.11-.5-.22-.7-.32a2,2,0,0,1-.51-.37,1.26,1.26,0,0,1-.3-.46,1.57,1.57,0,0,1-.11-.6,1.45,1.45,0,0,1,.2-.75,1.75,1.75,0,0,1,.51-.54,2.26,2.26,0,0,1,.74-.33,3,3,0,0,1,.85-.11,3.46,3.46,0,0,1,1.4.26v1a2.74,2.74,0,0,0-1.53-.44,1.43,1.43,0,0,0-.48.07,1.1,1.1,0,0,0-.38.17.85.85,0,0,0-.24.26.82.82,0,0,0-.08.35.93.93,0,0,0,.08.39.83.83,0,0,0,.25.28,1.67,1.67,0,0,0,.4.22l.53.22c.27.1.51.21.72.31a2.44,2.44,0,0,1,.54.37,1.38,1.38,0,0,1,.34.46,1.54,1.54,0,0,1,.12.63,1.38,1.38,0,0,1-.2.77,1.7,1.7,0,0,1-.52.55,2.49,2.49,0,0,1-.76.32,3.68,3.68,0,0,1-.89.11A3.41,3.41,0,0,1,2.7,135.67Z"/><path d="M12.68,133.13H8.44A2.27,2.27,0,0,0,9,134.67a1.85,1.85,0,0,0,1.42.55,2.89,2.89,0,0,0,1.86-.67v.9a3.48,3.48,0,0,1-2.09.58,2.56,2.56,0,0,1-2-.82,3.37,3.37,0,0,1-.72-2.3,3.26,3.26,0,0,1,.79-2.28,2.54,2.54,0,0,1,2-.88,2.26,2.26,0,0,1,1.83.76,3.2,3.2,0,0,1,.64,2.11Zm-1-.82a2,2,0,0,0-.41-1.29,1.36,1.36,0,0,0-1.09-.47A1.58,1.58,0,0,0,9,131a2.15,2.15,0,0,0-.58,1.27Z"/><path d="M17,130.86a1.18,1.18,0,0,0-.73-.19,1.2,1.2,0,0,0-1,.58,2.62,2.62,0,0,0-.42,1.58v3.06h-1v-6h1v1.23h0a2.08,2.08,0,0,1,.62-1,1.49,1.49,0,0,1,1-.35,1.65,1.65,0,0,1,.57.08Z"/><path d="M22.42,129.89l-2.39,6h-.94l-2.28-6h1.06l1.52,4.36a3.15,3.15,0,0,1,.21.83h0a4.41,4.41,0,0,1,.18-.81l1.6-4.38Z"/><path d="M23.64,128.36a.61.61,0,0,1-.43-.17.63.63,0,0,1,.43-1.08.61.61,0,0,1,.45.18.58.58,0,0,1,.19.45.58.58,0,0,1-.19.44A.61.61,0,0,1,23.64,128.36Zm.47,7.53h-1v-6h1Z"/><path d="M30.88,135.89h-1v-1h0a2.42,2.42,0,0,1-3.87.35,3.26,3.26,0,0,1-.68-2.19,3.6,3.6,0,0,1,.75-2.39,2.45,2.45,0,0,1,2-.89,1.93,1.93,0,0,1,1.8,1h0V127h1Zm-1-2.72v-.88a1.7,1.7,0,0,0-.48-1.23,1.61,1.61,0,0,0-1.22-.51,1.64,1.64,0,0,0-1.38.65,2.79,2.79,0,0,0-.51,1.78,2.51,2.51,0,0,0,.49,1.64,1.57,1.57,0,0,0,1.29.6,1.68,1.68,0,0,0,1.31-.58A2.2,2.2,0,0,0,29.92,133.17Z"/><path d="M35,136a2.79,2.79,0,0,1-2.12-.84,3.12,3.12,0,0,1-.79-2.23,3.27,3.27,0,0,1,.82-2.37,3,3,0,0,1,2.23-.84,2.69,2.69,0,0,1,2.1.82,3.29,3.29,0,0,1,.75,2.29,3.21,3.21,0,0,1-.81,2.3A2.84,2.84,0,0,1,35,136Zm.07-5.48a1.83,1.83,0,0,0-1.46.63,2.59,2.59,0,0,0-.54,1.74,2.46,2.46,0,0,0,.54,1.68,1.87,1.87,0,0,0,1.46.62,1.76,1.76,0,0,0,1.44-.61,2.62,2.62,0,0,0,.5-1.71,2.71,2.71,0,0,0-.5-1.74A1.79,1.79,0,0,0,35.1,130.55Z"/><path d="M42.39,130.86a1.18,1.18,0,0,0-.73-.19,1.23,1.23,0,0,0-1,.58,2.62,2.62,0,0,0-.41,1.58v3.06h-1v-6h1v1.23h0a2.17,2.17,0,0,1,.63-1,1.44,1.44,0,0,1,.94-.35,1.75,1.75,0,0,1,.58.08Z"/><path d="M48,133.13H43.71a2.27,2.27,0,0,0,.54,1.54,1.85,1.85,0,0,0,1.42.55,2.89,2.89,0,0,0,1.86-.67v.9a3.48,3.48,0,0,1-2.09.58,2.58,2.58,0,0,1-2-.82,3.37,3.37,0,0,1-.72-2.3,3.26,3.26,0,0,1,.79-2.28,2.54,2.54,0,0,1,2-.88,2.26,2.26,0,0,1,1.83.76,3.15,3.15,0,0,1,.64,2.11Zm-1-.82a2,2,0,0,0-.41-1.29,1.34,1.34,0,0,0-1.09-.47,1.58,1.58,0,0,0-1.16.49,2.21,2.21,0,0,0-.58,1.27Z"/><path d="M48.74,135.67v-1a2.88,2.88,0,0,0,1.73.58c.84,0,1.26-.28,1.26-.85a.72.72,0,0,0-.1-.4,1.22,1.22,0,0,0-.3-.3,1.93,1.93,0,0,0-.43-.23l-.54-.21-.7-.32a2,2,0,0,1-.5-.37,1.29,1.29,0,0,1-.31-.46,1.79,1.79,0,0,1-.1-.6,1.45,1.45,0,0,1,.2-.75,1.64,1.64,0,0,1,.51-.54,2.26,2.26,0,0,1,.74-.33,3,3,0,0,1,.85-.11,3.41,3.41,0,0,1,1.39.26v1a2.71,2.71,0,0,0-1.52-.44,1.53,1.53,0,0,0-.49.07,1.14,1.14,0,0,0-.37.17.85.85,0,0,0-.24.26.69.69,0,0,0-.08.35.8.8,0,0,0,.08.39.83.83,0,0,0,.25.28,1.67,1.67,0,0,0,.4.22l.53.22c.27.1.51.21.72.31a2.44,2.44,0,0,1,.54.37,1.36,1.36,0,0,1,.46,1.09,1.47,1.47,0,0,1-.2.77,1.7,1.7,0,0,1-.52.55,2.49,2.49,0,0,1-.76.32,3.68,3.68,0,0,1-.89.11A3.39,3.39,0,0,1,48.74,135.67Z"/></g></svg>