<svg xmlns="http://www.w3.org/2000/svg" xmlns:xlink="http://www.w3.org/1999/xlink" viewBox="0 0 374.67 220"><defs><style>.cls-1,.cls-5{fill:#fff;}.cls-2,.cls-3{fill:#0072c6;}.cls-2{opacity:0.08;}.cls-2,.cls-3,.cls-5{isolation:isolate;}.cls-3{opacity:0.15;}.cls-4{fill:url(#linear-gradient);}.cls-5{opacity:0.8;}.cls-6{fill:url(#linear-gradient-2);}.cls-7{fill:url(#linear-gradient-3);}.cls-8{fill:url(#linear-gradient-4);}.cls-9{fill:url(#linear-gradient-5);}.cls-10{fill:#f2f2f2;}.cls-11{fill:#50e6ff;}.cls-12{fill:url(#linear-gradient-6);}.cls-13{fill:#231f20;}.cls-14{fill:url(#linear-gradient-7);}.cls-15{fill:url(#linear-gradient-8);}.cls-16{fill:url(#linear-gradient-9);}.cls-17{fill:url(#linear-gradient-10);}.cls-18{fill:none;stroke:#3c3c41;stroke-miterlimit:10;}.cls-19{fill:#3c3c41;}.cls-20{fill:#1e1e1e;}.cls-21{fill:#4f4f4f;}</style><linearGradient id="linear-gradient" x1="81.99" y1="984.27" x2="81.99" y2="1006.88" gradientTransform="translate(0 -833)" gradientUnits="userSpaceOnUse"><stop offset="0.22" stop-color="#32d4f5"/><stop offset="0.47" stop-color="#31d1f3"/><stop offset="0.63" stop-color="#2ec9eb"/><stop offset="0.77" stop-color="#29bade"/><stop offset="0.89" stop-color="#22a5cb"/><stop offset="1" stop-color="#198ab3"/></linearGradient><linearGradient id="linear-gradient-2" x1="81.33" y1="972.13" x2="82.98" y2="992.67" xlink:href="#linear-gradient"/><linearGradient id="linear-gradient-3" x1="81.99" y1="904.47" x2="81.99" y2="927.08" gradientTransform="translate(0 -833)" gradientUnits="userSpaceOnUse"><stop offset="0.1" stop-color="#54aef0"/><stop offset="1" stop-color="#1988d9"/></linearGradient><linearGradient id="linear-gradient-4" x1="81.33" y1="892.33" x2="82.98" y2="912.87" xlink:href="#linear-gradient-3"/><linearGradient id="linear-gradient-5" x1="200.55" y1="992.8" x2="200.55" y2="1022.65" gradientTransform="translate(0 -833)" gradientUnits="userSpaceOnUse"><stop offset="0" stop-color="#5ea0ef"/><stop offset="0.18" stop-color="#559cec"/><stop offset="0.47" stop-color="#3c91e5"/><stop offset="0.84" stop-color="#1380da"/><stop offset="1" stop-color="#0078d4"/></linearGradient><linearGradient id="linear-gradient-6" x1="195.55" y1="1022.96" x2="195.55" y2="1008.5" gradientTransform="translate(0 -833)" gradientUnits="userSpaceOnUse"><stop offset="0" stop-color="#198ab3"/><stop offset="0.14" stop-color="#22a5cb"/><stop offset="0.3" stop-color="#29bade"/><stop offset="0.47" stop-color="#2ec9eb"/><stop offset="0.68" stop-color="#31d1f3"/><stop offset="1" stop-color="#32d4f5"/></linearGradient><linearGradient id="linear-gradient-7" x1="321.6" y1="1004.76" x2="321.6" y2="982.8" gradientTransform="translate(0 -833)" gradientUnits="userSpaceOnUse"><stop offset="0" stop-color="#773adc"/><stop offset="0.25" stop-color="#9255e6"/><stop offset="0.5" stop-color="#a669ee"/><stop offset="0.76" stop-color="#b376f2"/><stop offset="1" stop-color="#b77af4"/></linearGradient><linearGradient id="linear-gradient-8" x1="321.62" y1="989.2" x2="321.62" y2="969.21" xlink:href="#linear-gradient-7"/><linearGradient id="linear-gradient-9" x1="321.6" y1="923.79" x2="321.6" y2="902.04" gradientTransform="translate(0 -833)" gradientUnits="userSpaceOnUse"><stop offset="0" stop-color="#5e9624"/><stop offset="0.26" stop-color="#70a828"/><stop offset="0.79" stop-color="#9fd732"/><stop offset="1" stop-color="#b4ec36"/></linearGradient><linearGradient id="linear-gradient-10" x1="321.67" y1="908.37" x2="321.67" y2="888.55" xlink:href="#linear-gradient-9"/></defs><title>OJ105365104</title><g id="backgroud"><g id="Shapes"><rect class="cls-1" width="374.67" height="220"/><rect class="cls-2" x="29.48" y="55" width="345.19" height="70"/><rect class="cls-2" x="29.48" y="134.8" width="345.19" height="85.2"/><rect class="cls-3" x="29.48" width="105" height="220"/><rect class="cls-3" x="269.1" width="105.57" height="220"/><path class="cls-4" d="M93.18,169.8a2.42,2.42,0,0,0,2.42-2.42h0a.66.66,0,0,0,0-.28c-1-7.62-5.28-13.82-13.62-13.82s-12.76,5.25-13.61,13.84a2.43,2.43,0,0,0,2.15,2.68Z"/><path class="cls-5" d="M82,155.08a7.66,7.66,0,0,1-4.13-1.21L82,164.57l4.07-10.64A7.6,7.6,0,0,1,82,155.08Z"/><circle class="cls-6" cx="82" cy="147.43" r="7.63"/><path class="cls-7" d="M93.18,90a2.42,2.42,0,0,0,2.42-2.42h0a.66.66,0,0,0,0-.28c-1-7.62-5.28-13.82-13.62-13.82S69.22,78.73,68.37,87.32A2.43,2.43,0,0,0,70.52,90Z"/><path class="cls-5" d="M82,75.28a7.66,7.66,0,0,1-4.13-1.21L82,84.77l4.07-10.64A7.51,7.51,0,0,1,82,75.28Z"/><circle class="cls-8" cx="82" cy="67.63" r="7.63"/><g id="b1186d34-5ca3-4e43-992d-40ecef5e891b"><path class="cls-9" d="M208.31,159.8H192.79a1,1,0,0,0-1,1v22.1a18.94,18.94,0,0,1,2.51-1.77h2.94l1.63,2.16v3.28l-2.05,1.49-2.86-.35-2.17-2.06v3a1,1,0,0,0,1,1h15.52a1,1,0,0,0,1-1V160.79A1,1,0,0,0,208.31,159.8Z"/><path id="af47f827-8b1b-4acd-8974-8eafe35490c9" class="cls-10" d="M194.1,162.9H197a.25.25,0,0,1,.25.25h0v3.68a.25.25,0,0,1-.25.25h-2.9a.25.25,0,0,1-.25-.25h0v-3.68A.25.25,0,0,1,194.1,162.9Zm5,0H202a.25.25,0,0,1,.25.25h0v3.68a.25.25,0,0,1-.25.25h-2.85a.25.25,0,0,1-.25-.25h0v-3.68a.25.25,0,0,1,.25-.25Zm5,0H207a.26.26,0,0,1,.24.25h0v3.68a.26.26,0,0,1-.24.25h-2.86a.25.25,0,0,1-.25-.25h0v-3.68a.25.25,0,0,1,.25-.25Zm-10,6.66H197a.25.25,0,0,1,.25.25h0v3.72a.25.25,0,0,1-.25.25h-2.9a.25.25,0,0,1-.25-.25h0v-3.68a.25.25,0,0,1,.2-.29h0Zm5,0H202a.25.25,0,0,1,.25.25h0v3.72a.25.25,0,0,1-.25.25h-2.85a.25.25,0,0,1-.25-.25h0v-3.68a.26.26,0,0,1,.21-.29Zm5,0H207a.26.26,0,0,1,.24.25h0v3.72a.26.26,0,0,1-.24.25h-2.86a.25.25,0,0,1-.25-.25h0v-3.68a.27.27,0,0,1,.21-.29Zm-10,6.74H197a.26.26,0,0,1,.25.24h0v3.65a.25.25,0,0,1-.25.25h-2.9a.25.25,0,0,1-.25-.25v-3.65A.26.26,0,0,1,194.1,176.3Zm5,0H202a.26.26,0,0,1,.25.24h0v3.65a.25.25,0,0,1-.25.25h-2.85a.25.25,0,0,1-.25-.25h0v-3.65a.25.25,0,0,1,.21-.24Zm0,6.69H202a.25.25,0,0,1,.25.25h0v5.46a.25.25,0,0,1-.25.25h-2.85a.25.25,0,0,1-.25-.25v-5.46a.25.25,0,0,1,.25-.25Zm5-6.69H207a.24.24,0,0,1,.24.24h0v3.65a.26.26,0,0,1-.24.25h-2.86a.25.25,0,0,1-.25-.25h0v-3.65a.26.26,0,0,1,.25-.24Z"/><path class="cls-11" d="M195.58,182a2.28,2.28,0,0,0-2.19,1.77h-8a5,5,0,0,0-.14,1.15V185h8.12a2.28,2.28,0,1,0,2.19-3Z"/><path class="cls-12" d="M201.79,181a5.79,5.79,0,0,0-6-5.51,5.93,5.93,0,0,0-5.67,3.86,5.63,5.63,0,0,0-4.5,3.54H193a3,3,0,1,1-.06,2.61h-7.5a5.67,5.67,0,0,0,5.6,4.3h10.1a4.65,4.65,0,0,0,4.6-4.29A4.61,4.61,0,0,0,201.79,181Z"/><path class="cls-11" d="M195.58,182a2.28,2.28,0,0,0-2.19,1.77h-8a3.85,3.85,0,0,1-.83-.11,4,4,0,0,1,.44-7.94h.39l.13-.35a4.51,4.51,0,0,1,4.36-3,4.67,4.67,0,0,1,4,2.25,5.38,5.38,0,0,1,1.33-.16,5.89,5.89,0,0,0-5.32-3.35,5.8,5.8,0,0,0-5.48,3.46,5.21,5.21,0,0,0-.4,10.2h0a3.53,3.53,0,0,0,1.29.21h8a2.29,2.29,0,0,0,4.39-1.32,2.3,2.3,0,0,0-2.2-1.63Z"/></g><polygon class="cls-13" points="191.55 98.25 214.67 98.25 202.17 76.63 198.42 87.13 205.67 95.75 191.55 98.25"/><polygon class="cls-13" points="201.17 75 192.3 82.5 184.67 95.63 191.55 95.63 191.55 95.75 201.17 75"/><path class="cls-14" d="M332.45,169.8a2.36,2.36,0,0,0,2.37-2.34h0v-.28c-.93-7.39-5.14-13.41-13.19-13.41s-12.35,5.09-13.23,13.42a2.37,2.37,0,0,0,2.1,2.61Z"/><path class="cls-1" d="M321.62,155.52a7.47,7.47,0,0,1-4-1.17l4,10.33,3.86-10.28A7.21,7.21,0,0,1,321.62,155.52Z"/><circle class="cls-15" cx="321.62" cy="148.12" r="7.42"/><path class="cls-16" d="M332.34,88.85a2.29,2.29,0,0,0,2.33-2.25h0a1.31,1.31,0,0,0,0-.28C333.75,78.94,329.59,73,321.61,73s-12.21,5-13.07,13.31a2.35,2.35,0,0,0,2.1,2.57Z"/><path class="cls-1" d="M321.75,74.7a7.35,7.35,0,0,1-4-1.16l3.84,10.28,3.92-10.21A7.44,7.44,0,0,1,321.75,74.7Z"/><circle class="cls-17" cx="321.67" cy="67.36" r="7.36"/><line class="cls-18" x1="104.67" y1="85" x2="174.29" y2="85"/><polygon class="cls-19" points="173.2 88.74 179.67 85 173.2 81.26 173.2 88.74"/><line class="cls-18" x1="225.06" y1="85" x2="299.67" y2="85"/><polygon class="cls-19" points="226.15 88.74 219.67 85 226.15 81.26 226.15 88.74"/><line class="cls-18" x1="104.67" y1="167.07" x2="174.29" y2="167.07"/><polygon class="cls-19" points="173.2 170.81 179.67 167.06 173.2 163.33 173.2 170.81"/><line class="cls-18" x1="225.06" y1="167.07" x2="299.67" y2="167.07"/><polygon class="cls-19" points="226.15 170.81 219.67 167.06 226.15 163.33 226.15 170.81"/></g></g><g id="txt"><path class="cls-20" d="M301.41,16.65h-2l-.58-1.87H296l-.57,1.87h-2l2.94-8.4h2.16Zm-3-3.32-.87-2.82a4.71,4.71,0,0,1-.14-.76h0a3.62,3.62,0,0,1-.14.73l-.88,2.85Z"/><path class="cls-20" d="M306.19,12.32a1.54,1.54,0,0,0-.75-.18,1.08,1.08,0,0,0-.91.44,2,2,0,0,0-.33,1.21v2.86h-1.78v-6h1.78v1.12h0a1.55,1.55,0,0,1,1.53-1.22,1.1,1.1,0,0,1,.44.07Z"/><path class="cls-20" d="M312.72,19.41h-1.78V15.83h0a2,2,0,0,1-1.78,1,2.18,2.18,0,0,1-1.75-.79,3.33,3.33,0,0,1-.66-2.21,3.68,3.68,0,0,1,.73-2.4,2.31,2.31,0,0,1,1.89-.89,1.71,1.71,0,0,1,1.57.84h0v-.7h1.78ZM311,13.79v-.48a1.52,1.52,0,0,0-.33-1,1.11,1.11,0,0,0-1.77.09,2.27,2.27,0,0,0-.34,1.34,1.94,1.94,0,0,0,.33,1.2,1,1,0,0,0,.86.43,1.07,1.07,0,0,0,.9-.44A1.81,1.81,0,0,0,311,13.79Z"/><path class="cls-20" d="M319.88,16.65H318.1v-.91h0a2,2,0,0,1-1.77,1.06c-1.34,0-2-.84-2-2.53V10.65h1.78v3.46c0,.85.32,1.27,1,1.27a1,1,0,0,0,.77-.35,1.44,1.44,0,0,0,.28-.94V10.65h1.78Z"/><path class="cls-20" d="M322.45,9.7a1,1,0,0,1-.74-.28.9.9,0,0,1-.28-.68.88.88,0,0,1,.28-.68,1.09,1.09,0,0,1,.74-.26,1.06,1.06,0,0,1,.74.26.89.89,0,0,1,.29.68.91.91,0,0,1-.29.69A1,1,0,0,1,322.45,9.7Zm.88,7h-1.78v-6h1.78Z"/><path class="cls-20" d="M328.49,16.58a2.47,2.47,0,0,1-1.19.22c-1.25,0-1.88-.68-1.88-2V12h-.93V10.65h.93V9.36l1.78-.53v1.82h1.29V12H327.2v2.42c0,.63.24.94.71.94a1.2,1.2,0,0,0,.58-.17Z"/><path class="cls-20" d="M334.81,14.18H331c.06.87.59,1.31,1.59,1.31A3,3,0,0,0,334.3,15v1.33a4.19,4.19,0,0,1-2.08.45,2.87,2.87,0,0,1-2.17-.81,3.11,3.11,0,0,1-.77-2.24,3.27,3.27,0,0,1,.84-2.37,2.71,2.71,0,0,1,2.05-.87,2.47,2.47,0,0,1,1.95.78,3,3,0,0,1,.69,2.11ZM333.16,13c0-.86-.34-1.29-1-1.29a1,1,0,0,0-.75.37A1.86,1.86,0,0,0,331,13Z"/><path class="cls-20" d="M340.42,16.44a3.49,3.49,0,0,1-1.75.36,2.89,2.89,0,0,1-2.15-.84,3,3,0,0,1-.82-2.16,3.25,3.25,0,0,1,.88-2.41,3.19,3.19,0,0,1,2.36-.88,2.93,2.93,0,0,1,1.48.28v1.57a2,2,0,0,0-1.25-.44,1.59,1.59,0,0,0-1.21.47,1.78,1.78,0,0,0-.45,1.29,1.74,1.74,0,0,0,.43,1.25,1.52,1.52,0,0,0,1.17.45,2.3,2.3,0,0,0,1.31-.43Z"/><path class="cls-20" d="M345.24,16.58a2.47,2.47,0,0,1-1.19.22c-1.25,0-1.88-.68-1.88-2V12h-.93V10.65h.93V9.36L344,8.83v1.82h1.29V12H344v2.42c0,.63.24.94.71.94a1.2,1.2,0,0,0,.58-.17Z"/><path class="cls-20" d="M349.13,16.8a3,3,0,0,1-2.27-.84,3.12,3.12,0,0,1-.83-2.28,3.11,3.11,0,0,1,.86-2.33,3.16,3.16,0,0,1,2.32-.84,3,3,0,0,1,2.25.84,3.07,3.07,0,0,1,.82,2.22,3.21,3.21,0,0,1-.85,2.36A3.05,3.05,0,0,1,349.13,16.8Zm0-4.88a1.15,1.15,0,0,0-1,.46,2,2,0,0,0-.35,1.27c0,1.15.45,1.73,1.34,1.73s1.28-.59,1.28-1.77S350,11.92,349.17,11.92Z"/><path class="cls-20" d="M291.81,29.65H290v-.82h0a2,2,0,0,1-1.79,1,2.15,2.15,0,0,1-1.74-.8,3.33,3.33,0,0,1-.66-2.21,3.65,3.65,0,0,1,.73-2.39,2.31,2.31,0,0,1,1.9-.89,1.6,1.6,0,0,1,1.56.83h0V20.77h1.78Zm-1.75-2.92v-.45a1.44,1.44,0,0,0-.32-1,1.12,1.12,0,0,0-1.78.1,2.3,2.3,0,0,0-.33,1.32A2,2,0,0,0,288,28a1.11,1.11,0,0,0,1.77,0A1.92,1.92,0,0,0,290.06,26.73Z"/><path class="cls-20" d="M298.67,27.18H294.9c.06.87.59,1.31,1.59,1.31a3,3,0,0,0,1.67-.47v1.33a4.22,4.22,0,0,1-2.08.45,2.87,2.87,0,0,1-2.17-.81,3.11,3.11,0,0,1-.77-2.24,3.31,3.31,0,0,1,.83-2.37,2.74,2.74,0,0,1,2.06-.87,2.47,2.47,0,0,1,2,.78,3,3,0,0,1,.69,2.11ZM297,26c0-.86-.34-1.29-1-1.29a1,1,0,0,0-.74.37,1.77,1.77,0,0,0-.38.92Z"/><path class="cls-20" d="M302.88,29.49V28a3.48,3.48,0,0,0,.88.41,2.77,2.77,0,0,0,.82.14,1.7,1.7,0,0,0,.75-.14.43.43,0,0,0,.27-.41.4.4,0,0,0-.12-.29.92.92,0,0,0-.32-.2,2.61,2.61,0,0,0-.42-.16,4.72,4.72,0,0,1-.45-.16,5,5,0,0,1-.61-.29,1.53,1.53,0,0,1-.43-.36,1.64,1.64,0,0,1-.28-.48,2,2,0,0,1-.09-.63,1.7,1.7,0,0,1,.21-.87,1.81,1.81,0,0,1,.57-.6,2.76,2.76,0,0,1,.8-.34,4.19,4.19,0,0,1,1-.1,5.09,5.09,0,0,1,.77.06,4.92,4.92,0,0,1,.78.18v1.43a2.57,2.57,0,0,0-.72-.31,2.89,2.89,0,0,0-.76-.1,1.69,1.69,0,0,0-.33,0,1.07,1.07,0,0,0-.27.09.6.6,0,0,0-.19.16.41.41,0,0,0-.07.22.45.45,0,0,0,.1.28.79.79,0,0,0,.27.2,3,3,0,0,0,.36.16l.4.13a5.56,5.56,0,0,1,.64.28,2.37,2.37,0,0,1,.5.36,1.52,1.52,0,0,1,.31.48,1.66,1.66,0,0,1,.11.66,1.75,1.75,0,0,1-.22.91,1.81,1.81,0,0,1-.59.61,2.58,2.58,0,0,1-.85.35,4.71,4.71,0,0,1-1,.11A4.84,4.84,0,0,1,302.88,29.49Z"/><path class="cls-20" d="M311.26,29.8A3,3,0,0,1,309,29a3.11,3.11,0,0,1-.82-2.28,3.1,3.1,0,0,1,.85-2.33,3.18,3.18,0,0,1,2.32-.84,3,3,0,0,1,2.25.84,3,3,0,0,1,.82,2.22,3.24,3.24,0,0,1-.84,2.36A3.06,3.06,0,0,1,311.26,29.8Zm.05-4.88a1.14,1.14,0,0,0-1,.46,2,2,0,0,0-.35,1.27c0,1.15.44,1.73,1.34,1.73s1.28-.59,1.28-1.77S312.17,24.92,311.31,24.92Z"/><path class="cls-20" d="M317.52,29.65h-1.78V20.77h1.78Z"/><path class="cls-20" d="M324.68,29.65H322.9v-.91h0a2,2,0,0,1-1.76,1.06c-1.34,0-2-.84-2-2.53V23.65h1.78v3.46c0,.85.32,1.27,1,1.27a1,1,0,0,0,.77-.35,1.44,1.44,0,0,0,.28-.94V23.65h1.78Z"/><path class="cls-20" d="M330.72,29.44a3.42,3.42,0,0,1-1.74.36,2.89,2.89,0,0,1-2.15-.84A3,3,0,0,1,326,26.8a3.25,3.25,0,0,1,.88-2.41,3.18,3.18,0,0,1,2.36-.88,2.86,2.86,0,0,1,1.47.28v1.57a2,2,0,0,0-1.24-.44,1.63,1.63,0,0,0-1.22.47,2.09,2.09,0,0,0,0,2.54,1.56,1.56,0,0,0,1.18.45,2.25,2.25,0,0,0,1.3-.43Z"/><path class="cls-20" d="M333,22.7a1,1,0,0,1-.73-.28.91.91,0,0,1-.29-.68.89.89,0,0,1,.29-.68,1.05,1.05,0,0,1,.73-.26,1.09,1.09,0,0,1,.75.26.88.88,0,0,1,.28.68.9.9,0,0,1-.28.69A1,1,0,0,1,333,22.7Zm.88,7h-1.78v-6h1.78Z"/><path class="cls-20" d="M338.27,29.8A3,3,0,0,1,336,29a3.12,3.12,0,0,1-.83-2.28,3.11,3.11,0,0,1,.86-2.33,3.16,3.16,0,0,1,2.32-.84,3,3,0,0,1,2.25.84,3,3,0,0,1,.82,2.22,3.24,3.24,0,0,1-.84,2.36A3.09,3.09,0,0,1,338.27,29.8Zm0-4.88a1.15,1.15,0,0,0-1,.46,2,2,0,0,0-.35,1.27c0,1.15.45,1.73,1.34,1.73s1.28-.59,1.28-1.77S339.17,24.92,338.31,24.92Z"/><path class="cls-20" d="M348.32,29.65h-1.78V26.32c0-.93-.31-1.4-1-1.4a1,1,0,0,0-.76.37,1.45,1.45,0,0,0-.3.94v3.42h-1.78v-6h1.78v1h0a2,2,0,0,1,1.85-1.09c1.28,0,1.92.82,1.92,2.47Z"/><path class="cls-20" d="M355.09,27.18h-3.77c.06.87.59,1.31,1.59,1.31a3,3,0,0,0,1.67-.47v1.33a4.22,4.22,0,0,1-2.08.45,2.87,2.87,0,0,1-2.17-.81,3.11,3.11,0,0,1-.77-2.24,3.31,3.31,0,0,1,.83-2.37,2.74,2.74,0,0,1,2.05-.87,2.47,2.47,0,0,1,2,.78,3,3,0,0,1,.69,2.11ZM353.44,26c0-.86-.34-1.29-1-1.29a1,1,0,0,0-.74.37,1.77,1.77,0,0,0-.38.92Z"/><path class="cls-20" d="M355.94,29.49V28a3.65,3.65,0,0,0,.88.41,2.83,2.83,0,0,0,.83.14,1.68,1.68,0,0,0,.74-.14.44.44,0,0,0,.28-.41.41.41,0,0,0-.13-.29.92.92,0,0,0-.32-.2,2.61,2.61,0,0,0-.42-.16l-.45-.16a4.21,4.21,0,0,1-.6-.29,1.44,1.44,0,0,1-.44-.36,1.42,1.42,0,0,1-.27-.48,2,2,0,0,1,.11-1.5,1.92,1.92,0,0,1,.57-.6,2.76,2.76,0,0,1,.8-.34,4.25,4.25,0,0,1,1-.1,5.32,5.32,0,0,1,.78.06,5.06,5.06,0,0,1,.77.18v1.43a2.57,2.57,0,0,0-.72-.31,2.89,2.89,0,0,0-.76-.1,1.76,1.76,0,0,0-.33,0,1.07,1.07,0,0,0-.27.09.6.6,0,0,0-.19.16.4.4,0,0,0,0,.5.67.67,0,0,0,.26.2,2.57,2.57,0,0,0,.37.16l.39.13a5.56,5.56,0,0,1,.64.28,2.14,2.14,0,0,1,.5.36,1.52,1.52,0,0,1,.31.48,1.66,1.66,0,0,1,.11.66,1.75,1.75,0,0,1-.22.91,1.81,1.81,0,0,1-.59.61,2.58,2.58,0,0,1-.85.35,4.71,4.71,0,0,1-1,.11A4.84,4.84,0,0,1,355.94,29.49Z"/><path class="cls-20" d="M304.82,42.65H303v-.82h0a2,2,0,0,1-1.79,1,2.15,2.15,0,0,1-1.74-.8,3.33,3.33,0,0,1-.66-2.21,3.7,3.7,0,0,1,.73-2.39,2.32,2.32,0,0,1,1.91-.89,1.59,1.59,0,0,1,1.55.83h0V33.77h1.78Zm-1.74-2.92v-.45a1.44,1.44,0,0,0-.33-1,1.06,1.06,0,0,0-.85-.39,1,1,0,0,0-.92.49,2.23,2.23,0,0,0-.34,1.32A2,2,0,0,0,301,41a1,1,0,0,0,.89.43,1.08,1.08,0,0,0,.89-.45A2,2,0,0,0,303.08,39.73Z"/><path class="cls-20" d="M311.68,40.18h-3.76c.06.87.58,1.31,1.58,1.31a3,3,0,0,0,1.67-.47v1.33a4.19,4.19,0,0,1-2.08.45,2.87,2.87,0,0,1-2.17-.81,3.11,3.11,0,0,1-.77-2.24,3.27,3.27,0,0,1,.84-2.37,2.72,2.72,0,0,1,2.05-.87,2.47,2.47,0,0,1,1.95.78,3,3,0,0,1,.69,2.11ZM310,39c0-.86-.33-1.29-1-1.29a.94.94,0,0,0-.74.37,1.69,1.69,0,0,0-.38.92Z"/><path class="cls-20" d="M323.55,42.65h-2L321,40.78h-2.88l-.57,1.87h-2l2.94-8.4h2.16Zm-3-3.32-.87-2.82a3.86,3.86,0,0,1-.13-.76h-.05a3.62,3.62,0,0,1-.14.73l-.88,2.85Z"/><path class="cls-20" d="M329.13,42.65H324v-.77l2.9-3.86h-2.61V36.65h4.87v.92l-2.74,3.72h2.76Z"/><path class="cls-20" d="M335.75,42.65H334v-.91h0a2,2,0,0,1-1.76,1.06c-1.34,0-2-.84-2-2.53V36.65H332v3.46c0,.85.32,1.27,1,1.27a1,1,0,0,0,.77-.35,1.44,1.44,0,0,0,.28-.94V36.65h1.78Z"/><path class="cls-20" d="M341.19,38.32a1.54,1.54,0,0,0-.75-.18,1.08,1.08,0,0,0-.91.44,2,2,0,0,0-.33,1.21v2.86h-1.78v-6h1.78v1.12h0a1.55,1.55,0,0,1,1.53-1.22,1.1,1.1,0,0,1,.44.07Z"/><path class="cls-20" d="M347.33,40.18h-3.77c.06.87.59,1.31,1.59,1.31a3,3,0,0,0,1.67-.47v1.33a4.22,4.22,0,0,1-2.08.45,2.87,2.87,0,0,1-2.17-.81,3.11,3.11,0,0,1-.77-2.24,3.31,3.31,0,0,1,.83-2.37,2.74,2.74,0,0,1,2.05-.87,2.47,2.47,0,0,1,2,.78,3,3,0,0,1,.69,2.11ZM345.68,39c0-.86-.34-1.29-1-1.29a1,1,0,0,0-.74.37,1.77,1.77,0,0,0-.38.92Z"/><path d="M26.12,45h-1l-.82-2.16H21L20.27,45h-1l3-7.7h.93ZM24,42,22.8,38.75a3.15,3.15,0,0,1-.12-.52h0a3,3,0,0,1-.13.52L21.34,42Z"/><path d="M31.83,45H31v-.93h0a2.21,2.21,0,0,1-3.54.32,3,3,0,0,1-.62-2,3.3,3.3,0,0,1,.68-2.19,2.29,2.29,0,0,1,1.83-.82,1.76,1.76,0,0,1,1.65.89h0v-3.4h.88ZM31,42.51V41.7a1.57,1.57,0,0,0-.45-1.13,1.48,1.48,0,0,0-1.11-.46,1.53,1.53,0,0,0-1.27.59,2.6,2.6,0,0,0-.46,1.64,2.37,2.37,0,0,0,.44,1.5,1.47,1.47,0,0,0,1.19.55,1.53,1.53,0,0,0,1.2-.53A2,2,0,0,0,31,42.51Z"/><path d="M41.42,45h-.88V41.84a2.44,2.44,0,0,0-.28-1.32,1.09,1.09,0,0,0-.95-.41,1.16,1.16,0,0,0-1,.52,2,2,0,0,0-.4,1.23V45h-.88V41.73c0-1.08-.41-1.62-1.25-1.62a1.14,1.14,0,0,0-1,.49,2,2,0,0,0-.38,1.26V45h-.88V39.5h.88v.87h0a1.86,1.86,0,0,1,1.71-1,1.62,1.62,0,0,1,1.56,1.14,2,2,0,0,1,1.82-1.14c1.21,0,1.82.75,1.82,2.24Z"/><path d="M43.54,38.1a.56.56,0,0,1-.41-.16.54.54,0,0,1-.16-.41.55.55,0,0,1,.57-.57.57.57,0,0,1,.41.16.58.58,0,0,1,0,.82A.57.57,0,0,1,43.54,38.1ZM44,45h-.88V39.5H44Z"/><path d="M50.31,45h-.88V41.86c0-1.16-.42-1.75-1.28-1.75a1.39,1.39,0,0,0-1.09.5,1.83,1.83,0,0,0-.43,1.25V45h-.88V39.5h.88v.91h0a2,2,0,0,1,1.81-1,1.71,1.71,0,0,1,1.38.58,2.66,2.66,0,0,1,.47,1.69Z"/><path d="M52.42,38.1a.56.56,0,0,1-.57-.57.57.57,0,0,1,.17-.41.55.55,0,0,1,.4-.16.58.58,0,0,1,.42.16.61.61,0,0,1,0,.82A.58.58,0,0,1,52.42,38.1Zm.43,6.9H52V39.5h.88Z"/><path d="M54.3,44.8v-.94a2.64,2.64,0,0,0,1.59.53c.77,0,1.16-.26,1.16-.78a.64.64,0,0,0-.1-.37,1.15,1.15,0,0,0-.27-.27,1.66,1.66,0,0,0-.4-.21l-.49-.2a6.63,6.63,0,0,1-.64-.29,2.09,2.09,0,0,1-.46-.33,1.18,1.18,0,0,1-.28-.43,1.5,1.5,0,0,1-.1-.55,1.25,1.25,0,0,1,.18-.68,1.6,1.6,0,0,1,.47-.5,2.22,2.22,0,0,1,.68-.31,3.33,3.33,0,0,1,.78-.1,3.08,3.08,0,0,1,1.28.25v.89a2.47,2.47,0,0,0-1.4-.4,1.51,1.51,0,0,0-.44.06,1,1,0,0,0-.34.16.71.71,0,0,0-.22.24.59.59,0,0,0-.08.32.68.68,0,0,0,.08.36.74.74,0,0,0,.22.25,1.63,1.63,0,0,0,.37.21l.49.2c.24.09.46.19.65.28a2.09,2.09,0,0,1,.5.34,1.27,1.27,0,0,1,.31.42,1.46,1.46,0,0,1,.11.58,1.36,1.36,0,0,1-.18.71,1.63,1.63,0,0,1-.48.5,2.14,2.14,0,0,1-.69.29,3.18,3.18,0,0,1-.82.1A3.14,3.14,0,0,1,54.3,44.8Z"/><path d="M61.86,45a1.8,1.8,0,0,1-.83.17c-1,0-1.44-.54-1.44-1.61V40.25h-1V39.5h1V38.16l.88-.29V39.5h1.39v.75H60.47v3.1a1.26,1.26,0,0,0,.19.79.73.73,0,0,0,.62.24.92.92,0,0,0,.58-.19Z"/><path d="M65.9,40.39a1.07,1.07,0,0,0-.67-.18,1.12,1.12,0,0,0-.94.54,2.45,2.45,0,0,0-.38,1.45V45H63V39.5h.88v1.13h0a1.93,1.93,0,0,1,.58-.9,1.31,1.31,0,0,1,.86-.33,1.44,1.44,0,0,1,.53.08Z"/><path d="M70.79,45h-.88v-.86h0a1.84,1.84,0,0,1-1.69,1,1.82,1.82,0,0,1-1.29-.44,1.49,1.49,0,0,1-.46-1.15c0-1,.6-1.63,1.81-1.79l1.65-.24c0-.93-.38-1.4-1.13-1.4a2.7,2.7,0,0,0-1.79.68v-.9a3.34,3.34,0,0,1,1.86-.52c1.3,0,1.94.69,1.94,2.05Zm-.88-2.78-1.32.18a2.3,2.3,0,0,0-.93.3.88.88,0,0,0-.31.77.85.85,0,0,0,.29.66,1.09,1.09,0,0,0,.76.26,1.46,1.46,0,0,0,1.09-.46,1.67,1.67,0,0,0,.42-1.16Z"/><path d="M77.15,45h-.88v-.93h0a2.22,2.22,0,0,1-3.55.32,3,3,0,0,1-.62-2,3.35,3.35,0,0,1,.68-2.19,2.3,2.3,0,0,1,1.84-.82,1.78,1.78,0,0,1,1.65.89h0v-3.4h.88Zm-.88-2.49V41.7a1.6,1.6,0,0,0-.44-1.13,1.63,1.63,0,0,0-2.39.13A2.6,2.6,0,0,0,73,42.34a2.37,2.37,0,0,0,.44,1.5,1.47,1.47,0,0,0,1.19.55,1.53,1.53,0,0,0,1.2-.53A2,2,0,0,0,76.27,42.51Z"/><path d="M81.23,45.13a2.58,2.58,0,0,1-2-.77,2.9,2.9,0,0,1-.73-2,3,3,0,0,1,.76-2.16,2.74,2.74,0,0,1,2-.78,2.45,2.45,0,0,1,1.92.76,3,3,0,0,1,.69,2.1,2.94,2.94,0,0,1-.75,2.11A2.62,2.62,0,0,1,81.23,45.13Zm.06-5a1.66,1.66,0,0,0-1.34.58,2.36,2.36,0,0,0-.49,1.59,2.2,2.2,0,0,0,.5,1.54,1.68,1.68,0,0,0,1.33.57,1.63,1.63,0,0,0,1.32-.56,2.41,2.41,0,0,0,.46-1.57,2.47,2.47,0,0,0-.46-1.59A1.63,1.63,0,0,0,81.29,40.11Z"/><path d="M88.24,40.39a1,1,0,0,0-.66-.18,1.11,1.11,0,0,0-.94.54,2.38,2.38,0,0,0-.38,1.45V45h-.88V39.5h.88v1.13h0a1.92,1.92,0,0,1,.57-.9,1.31,1.31,0,0,1,.87-.33,1.38,1.38,0,0,1,.52.08Z"/><path d="M93.62,42.47H89.74a2.06,2.06,0,0,0,.49,1.42,1.72,1.72,0,0,0,1.3.5,2.75,2.75,0,0,0,1.71-.61v.82a3.19,3.19,0,0,1-1.92.53,2.31,2.31,0,0,1-1.83-.75,3.09,3.09,0,0,1-.67-2.11,3,3,0,0,1,.73-2.09,2.34,2.34,0,0,1,1.81-.81,2,2,0,0,1,1.67.7A2.92,2.92,0,0,1,93.62,42Zm-.9-.75a1.83,1.83,0,0,0-.37-1.18,1.24,1.24,0,0,0-1-.43,1.41,1.41,0,0,0-1,.45,2,2,0,0,0-.54,1.16Z"/><path d="M94.62,44.8v-.94a2.64,2.64,0,0,0,1.58.53c.78,0,1.16-.26,1.16-.78a.72.72,0,0,0-.09-.37A1.15,1.15,0,0,0,97,43a2.15,2.15,0,0,0-.4-.21l-.49-.2a5.68,5.68,0,0,1-.64-.29,2.17,2.17,0,0,1-.47-.33,1.3,1.3,0,0,1-.37-1,1.25,1.25,0,0,1,.18-.68,1.5,1.5,0,0,1,.47-.5,2.16,2.16,0,0,1,.67-.31,3.49,3.49,0,0,1,.79-.1,3,3,0,0,1,1.27.25v.89a2.44,2.44,0,0,0-1.39-.4,1.53,1.53,0,0,0-.45.06,1.19,1.19,0,0,0-.34.16.83.83,0,0,0-.22.24.69.69,0,0,0-.08.32.8.8,0,0,0,.08.36.77.77,0,0,0,.23.25,1.55,1.55,0,0,0,.36.21l.49.2c.25.09.46.19.66.28a2,2,0,0,1,.49.34,1.3,1.3,0,0,1,.32.42,1.46,1.46,0,0,1,.11.58,1.36,1.36,0,0,1-.18.71,1.63,1.63,0,0,1-.48.5,2.2,2.2,0,0,1-.7.29,3.43,3.43,0,0,1-2.29-.23Z"/><path d="M107.33,45h-.88v-.93h0a2.22,2.22,0,0,1-3.55.32,3,3,0,0,1-.62-2,3.35,3.35,0,0,1,.68-2.19,2.3,2.3,0,0,1,1.84-.82,1.78,1.78,0,0,1,1.65.89h0v-3.4h.88Zm-.88-2.49V41.7a1.6,1.6,0,0,0-.44-1.13,1.63,1.63,0,0,0-2.39.13,2.6,2.6,0,0,0-.46,1.64,2.37,2.37,0,0,0,.44,1.5,1.47,1.47,0,0,0,1.19.55,1.53,1.53,0,0,0,1.2-.53A2,2,0,0,0,106.45,42.51Z"/><path d="M113.53,42.47h-3.88a2.06,2.06,0,0,0,.49,1.42,1.72,1.72,0,0,0,1.3.5,2.75,2.75,0,0,0,1.71-.61v.82a3.19,3.19,0,0,1-1.92.53,2.32,2.32,0,0,1-1.83-.75,3.09,3.09,0,0,1-.67-2.11,3,3,0,0,1,.73-2.09,2.34,2.34,0,0,1,1.81-.81,2,2,0,0,1,1.67.7,2.92,2.92,0,0,1,.59,1.94Zm-.9-.75a1.77,1.77,0,0,0-.37-1.18,1.24,1.24,0,0,0-1-.43,1.41,1.41,0,0,0-1,.45,2,2,0,0,0-.54,1.16Z"/><path d="M124,45h-1l-.82-2.16h-3.26L118.11,45h-1l3-7.7H121Zm-2.11-3-1.21-3.28a3.15,3.15,0,0,1-.12-.52h0a3,3,0,0,1-.13.52L119.18,42Z"/><path d="M128.81,39.75l-3.26,4.5h3.22V45h-4.51v-.27l3.25-4.48h-3V39.5h4.25Z"/><path d="M134.39,45h-.88v-.87h0a1.8,1.8,0,0,1-1.7,1c-1.31,0-2-.78-2-2.34V39.5h.87v3.15c0,1.16.45,1.74,1.33,1.74a1.36,1.36,0,0,0,1.07-.48,1.84,1.84,0,0,0,.41-1.24V39.5h.88Z"/><path d="M139,40.39a1.09,1.09,0,0,0-.67-.18,1.12,1.12,0,0,0-.94.54,2.45,2.45,0,0,0-.38,1.45V45h-.88V39.5h.88v1.13h0a1.93,1.93,0,0,1,.58-.9,1.29,1.29,0,0,1,.86-.33,1.44,1.44,0,0,1,.53.08Z"/><path d="M144.42,42.47h-3.89a2.07,2.07,0,0,0,.5,1.42,1.69,1.69,0,0,0,1.3.5,2.73,2.73,0,0,0,1.7-.61v.82a3.18,3.18,0,0,1-1.91.53,2.35,2.35,0,0,1-1.84-.75,3.08,3.08,0,0,1-.66-2.11,3,3,0,0,1,.73-2.09,2.31,2.31,0,0,1,1.8-.81,2,2,0,0,1,1.67.7,2.87,2.87,0,0,1,.6,1.94Zm-.91-.75a1.77,1.77,0,0,0-.36-1.18,1.25,1.25,0,0,0-1-.43,1.41,1.41,0,0,0-1.06.45,2,2,0,0,0-.54,1.16Z"/><path class="cls-21" d="M116.64,76.87q0,3.24-2.93,3.24c-1.87,0-2.8-1-2.8-3.12V72.28h.9v4.65c0,1.58.66,2.37,2,2.37s1.92-.76,1.92-2.29V72.28h.91Z"/><path class="cls-21" d="M118.11,79.78v-.94a2.64,2.64,0,0,0,1.58.53c.78,0,1.16-.26,1.16-.77a.65.65,0,0,0-.1-.38,1,1,0,0,0-.26-.27,2.15,2.15,0,0,0-.4-.21l-.49-.2a5,5,0,0,1-.65-.29,2.36,2.36,0,0,1-.46-.33,1.62,1.62,0,0,1-.28-.42,1.6,1.6,0,0,1-.09-.56,1.3,1.3,0,0,1,.18-.68,1.4,1.4,0,0,1,.47-.5,1.94,1.94,0,0,1,.67-.3,3,3,0,0,1,.78-.11,3.21,3.21,0,0,1,1.28.25v.89a2.52,2.52,0,0,0-1.39-.4,1.53,1.53,0,0,0-.45.06,1.07,1.07,0,0,0-.34.16.71.71,0,0,0-.22.24.69.69,0,0,0-.08.32.8.8,0,0,0,.08.36.92.92,0,0,0,.23.26,2,2,0,0,0,.36.2l.49.2a5.91,5.91,0,0,1,.66.29,2.21,2.21,0,0,1,.49.33,1.24,1.24,0,0,1,.32.43,1.41,1.41,0,0,1,.11.57,1.36,1.36,0,0,1-.18.71,1.46,1.46,0,0,1-.49.5,2.14,2.14,0,0,1-.69.29,3.12,3.12,0,0,1-.82.1A3.07,3.07,0,0,1,118.11,79.78Z"/><path class="cls-21" d="M125.41,80.11a2.57,2.57,0,0,1-2-.77,2.86,2.86,0,0,1-.73-2,3,3,0,0,1,.76-2.17,2.74,2.74,0,0,1,2.05-.78,2.48,2.48,0,0,1,1.92.76,3,3,0,0,1,.69,2.1,2.94,2.94,0,0,1-.75,2.11A2.58,2.58,0,0,1,125.41,80.11Zm.06-5a1.7,1.7,0,0,0-1.34.58,2.38,2.38,0,0,0-.49,1.59,2.27,2.27,0,0,0,.49,1.55,1.73,1.73,0,0,0,1.34.56,1.62,1.62,0,0,0,1.32-.55,2.46,2.46,0,0,0,.45-1.58,2.51,2.51,0,0,0-.45-1.59A1.63,1.63,0,0,0,125.47,75.09Z"/><path class="cls-21" d="M229.06,73.1h-3v2.66h2.79v.81h-2.79V80h-.9v-7.7h3.91Z"/><path class="cls-21" d="M234.58,80h-.88v-.87h0a1.82,1.82,0,0,1-1.7,1c-1.31,0-2-.78-2-2.34V74.48h.88v3.15c0,1.16.44,1.74,1.33,1.74a1.34,1.34,0,0,0,1.06-.48,1.79,1.79,0,0,0,.42-1.24V74.48h.88Z"/><path class="cls-21" d="M240.65,80h-.88V76.85c0-1.17-.43-1.76-1.28-1.76a1.41,1.41,0,0,0-1.1.5,1.89,1.89,0,0,0-.43,1.26V80h-.88v-5.5H237v.92h0a2,2,0,0,1,1.81-1.05,1.69,1.69,0,0,1,1.38.59,2.57,2.57,0,0,1,.48,1.68Z"/><path class="cls-21" d="M245.78,79.73a2.88,2.88,0,0,1-1.5.38,2.48,2.48,0,0,1-1.9-.76,2.8,2.8,0,0,1-.73-2,3,3,0,0,1,.78-2.18,2.74,2.74,0,0,1,2.08-.83,2.87,2.87,0,0,1,1.28.27v.9a2.28,2.28,0,0,0-1.31-.43,1.78,1.78,0,0,0-1.38.61,2.29,2.29,0,0,0-.54,1.59,2.21,2.21,0,0,0,.5,1.52,1.78,1.78,0,0,0,1.37.56,2.19,2.19,0,0,0,1.35-.48Z"/><path class="cls-21" d="M247.29,73.09a.58.58,0,0,1-.41-.17.52.52,0,0,1-.16-.4.57.57,0,0,1,.16-.42.62.62,0,0,1,.41-.16.6.6,0,0,1,.41.16.57.57,0,0,1,.17.42.56.56,0,0,1-.17.4A.57.57,0,0,1,247.29,73.09Zm.43,6.89h-.88v-5.5h.88Z"/><path class="cls-21" d="M251.52,80.11a2.55,2.55,0,0,1-1.94-.77,2.82,2.82,0,0,1-.73-2,3,3,0,0,1,.76-2.17,2.7,2.7,0,0,1,2-.78,2.48,2.48,0,0,1,1.92.76,3,3,0,0,1,.69,2.1,2.94,2.94,0,0,1-.74,2.11A2.61,2.61,0,0,1,251.52,80.11Zm.07-5a1.68,1.68,0,0,0-1.34.58,2.38,2.38,0,0,0-.5,1.59,2.27,2.27,0,0,0,.5,1.55,1.71,1.71,0,0,0,1.34.56,1.59,1.59,0,0,0,1.31-.55,2.4,2.4,0,0,0,.46-1.58,2.45,2.45,0,0,0-.46-1.59A1.6,1.6,0,0,0,251.59,75.09Z"/><path class="cls-21" d="M260,80h-.88V76.85c0-1.17-.43-1.76-1.28-1.76a1.39,1.39,0,0,0-1.09.5,1.84,1.84,0,0,0-.43,1.26V80h-.88v-5.5h.88v.92h0a2,2,0,0,1,1.8-1.05,1.66,1.66,0,0,1,1.38.59,2.57,2.57,0,0,1,.48,1.68Z"/><path class="cls-21" d="M265.28,80h-.88v-.86h0a1.84,1.84,0,0,1-1.69,1,1.81,1.81,0,0,1-1.29-.43,1.51,1.51,0,0,1-.46-1.16c0-1,.6-1.62,1.81-1.79l1.65-.23c0-.94-.38-1.41-1.13-1.41a2.7,2.7,0,0,0-1.79.68v-.9a3.34,3.34,0,0,1,1.86-.52c1.3,0,1.94.69,1.94,2.05Zm-.88-2.78-1.32.18a2.15,2.15,0,0,0-.93.31.86.86,0,0,0-.31.77.83.83,0,0,0,.29.65,1.09,1.09,0,0,0,.76.26,1.42,1.42,0,0,0,1.09-.46,1.65,1.65,0,0,0,.42-1.16Z"/><path class="cls-21" d="M274.48,80h-.88V76.82a2.34,2.34,0,0,0-.29-1.32,1.06,1.06,0,0,0-.94-.41,1.18,1.18,0,0,0-1,.52,1.94,1.94,0,0,0-.4,1.24V80h-.88V76.72c0-1.09-.42-1.63-1.25-1.63a1.18,1.18,0,0,0-1,.49,2,2,0,0,0-.37,1.27V80h-.88v-5.5h.88v.87h0a1.88,1.88,0,0,1,1.71-1,1.62,1.62,0,0,1,1.56,1.14,2,2,0,0,1,1.82-1.14c1.21,0,1.82.75,1.82,2.24Z"/><path class="cls-21" d="M276.32,73.09a.54.54,0,0,1-.4-.17.5.5,0,0,1-.17-.4.54.54,0,0,1,.17-.42.58.58,0,0,1,.4-.16.6.6,0,0,1,.41.16.57.57,0,0,1,.17.42.56.56,0,0,1-.17.4A.57.57,0,0,1,276.32,73.09Zm.43,6.89h-.88v-5.5h.88Z"/><path class="cls-21" d="M282.68,77.45h-3.89a2.07,2.07,0,0,0,.5,1.42,1.71,1.71,0,0,0,1.3.5,2.7,2.7,0,0,0,1.71-.61v.82a3.16,3.16,0,0,1-1.92.53,2.31,2.31,0,0,1-1.83-.75,3,3,0,0,1-.67-2.11,3,3,0,0,1,.73-2.09,2.33,2.33,0,0,1,1.81-.81,2.09,2.09,0,0,1,1.67.7,2.94,2.94,0,0,1,.59,1.94Zm-.91-.74a1.78,1.78,0,0,0-.36-1.19,1.27,1.27,0,0,0-1-.43,1.41,1.41,0,0,0-1.06.45,2.06,2.06,0,0,0-.54,1.17Z"/><path class="cls-21" d="M288.3,80h-.88V76.85c0-1.17-.43-1.76-1.28-1.76a1.39,1.39,0,0,0-1.09.5,1.84,1.84,0,0,0-.43,1.26V80h-.89v-5.5h.89v.92h0a2,2,0,0,1,1.8-1.05,1.69,1.69,0,0,1,1.38.59,2.57,2.57,0,0,1,.48,1.68Z"/><path class="cls-21" d="M292.24,79.93a1.8,1.8,0,0,1-.83.17c-1,0-1.44-.54-1.44-1.61V75.23h-1v-.75h1V73.14l.88-.29v1.63h1.39v.75h-1.39v3.1a1.26,1.26,0,0,0,.19.79.73.73,0,0,0,.62.24,1,1,0,0,0,.58-.18Z"/><path class="cls-21" d="M295.44,80.11a2.55,2.55,0,0,1-1.95-.77,2.82,2.82,0,0,1-.73-2,3,3,0,0,1,.76-2.17,2.71,2.71,0,0,1,2-.78,2.48,2.48,0,0,1,1.92.76,3,3,0,0,1,.69,2.1,2.94,2.94,0,0,1-.74,2.11A2.6,2.6,0,0,1,295.44,80.11Zm.06-5a1.68,1.68,0,0,0-1.34.58,2.38,2.38,0,0,0-.5,1.59,2.27,2.27,0,0,0,.5,1.55,1.73,1.73,0,0,0,1.34.56,1.59,1.59,0,0,0,1.31-.55,2.4,2.4,0,0,0,.46-1.58,2.45,2.45,0,0,0-.46-1.59A1.6,1.6,0,0,0,295.5,75.09Z"/><path class="cls-21" d="M116.64,158.92q0,3.24-2.93,3.24c-1.87,0-2.8-1-2.8-3.12v-4.71h.9V159c0,1.58.66,2.37,2,2.37s1.92-.77,1.92-2.29v-4.73h.91Z"/><path class="cls-21" d="M118.11,161.83v-.94a2.64,2.64,0,0,0,1.58.53c.78,0,1.16-.26,1.16-.78a.64.64,0,0,0-.1-.37,1,1,0,0,0-.26-.27,2.15,2.15,0,0,0-.4-.21l-.49-.2a5,5,0,0,1-.65-.29,2.36,2.36,0,0,1-.46-.33,1.3,1.3,0,0,1-.37-1,1.25,1.25,0,0,1,.18-.68,1.4,1.4,0,0,1,.47-.5,2.16,2.16,0,0,1,.67-.31,3.47,3.47,0,0,1,.78-.1,3,3,0,0,1,1.28.25v.89a2.44,2.44,0,0,0-1.39-.4,1.53,1.53,0,0,0-.45.06,1.07,1.07,0,0,0-.34.16.63.63,0,0,0-.22.24.69.69,0,0,0-.08.32.8.8,0,0,0,.08.36.77.77,0,0,0,.23.25,1.55,1.55,0,0,0,.36.21l.49.2c.25.09.46.19.66.28a2.24,2.24,0,0,1,.49.34,1.3,1.3,0,0,1,.32.42,1.46,1.46,0,0,1,.11.58,1.36,1.36,0,0,1-.18.71,1.56,1.56,0,0,1-.49.5,2.14,2.14,0,0,1-.69.29,3.12,3.12,0,0,1-.82.1A3.07,3.07,0,0,1,118.11,161.83Z"/><path class="cls-21" d="M125.41,162.16a2.57,2.57,0,0,1-2-.77,2.9,2.9,0,0,1-.73-2,3,3,0,0,1,.76-2.16,2.74,2.74,0,0,1,2.05-.78,2.45,2.45,0,0,1,1.92.76,3,3,0,0,1,.69,2.1,2.94,2.94,0,0,1-.75,2.11A2.62,2.62,0,0,1,125.41,162.16Zm.06-5a1.66,1.66,0,0,0-1.34.58,2.36,2.36,0,0,0-.49,1.59,2.24,2.24,0,0,0,.49,1.54,1.7,1.7,0,0,0,1.34.57,1.63,1.63,0,0,0,1.32-.56,2.41,2.41,0,0,0,.45-1.57,2.47,2.47,0,0,0-.45-1.59A1.63,1.63,0,0,0,125.47,157.14Z"/><path class="cls-21" d="M229.06,155.14h-3v2.67h2.79v.81h-2.79V162h-.9v-7.7h3.91Z"/><path class="cls-21" d="M234.58,162h-.88v-.87h0a1.82,1.82,0,0,1-1.7,1c-1.31,0-2-.78-2-2.34v-3.29h.88v3.15c0,1.16.44,1.74,1.33,1.74a1.34,1.34,0,0,0,1.06-.48,1.79,1.79,0,0,0,.42-1.24v-3.17h.88Z"/><path class="cls-21" d="M240.65,162h-.88v-3.14c0-1.16-.43-1.75-1.28-1.75a1.41,1.41,0,0,0-1.1.5,1.88,1.88,0,0,0-.43,1.25V162h-.88v-5.5H237v.91h0a2,2,0,0,1,1.81-1,1.71,1.71,0,0,1,1.38.58,2.6,2.6,0,0,1,.48,1.69Z"/><path class="cls-21" d="M245.78,161.78a2.88,2.88,0,0,1-1.5.38,2.49,2.49,0,0,1-1.9-.77,2.78,2.78,0,0,1-.73-2,3,3,0,0,1,.78-2.18,2.74,2.74,0,0,1,2.08-.83,2.87,2.87,0,0,1,1.28.27v.9a2.28,2.28,0,0,0-1.31-.43,1.75,1.75,0,0,0-1.38.61,2.28,2.28,0,0,0-.54,1.58,2.22,2.22,0,0,0,.5,1.53,1.78,1.78,0,0,0,1.37.56,2.19,2.19,0,0,0,1.35-.48Z"/><path class="cls-21" d="M247.29,155.13a.57.57,0,0,1-.41-.16.53.53,0,0,1-.16-.41.56.56,0,0,1,.16-.41.57.57,0,0,1,.41-.16.56.56,0,0,1,.41.16.58.58,0,0,1,0,.82A.56.56,0,0,1,247.29,155.13Zm.43,6.9h-.88v-5.5h.88Z"/><path class="cls-21" d="M251.52,162.16a2.55,2.55,0,0,1-1.94-.77,2.86,2.86,0,0,1-.73-2,3,3,0,0,1,.76-2.16,2.7,2.7,0,0,1,2-.78,2.45,2.45,0,0,1,1.92.76,3,3,0,0,1,.69,2.1,2.94,2.94,0,0,1-.74,2.11A2.64,2.64,0,0,1,251.52,162.16Zm.07-5a1.65,1.65,0,0,0-1.34.58,2.37,2.37,0,0,0-.5,1.59,2.25,2.25,0,0,0,.5,1.54,1.69,1.69,0,0,0,1.34.57,1.6,1.6,0,0,0,1.31-.56,2.35,2.35,0,0,0,.46-1.57,2.41,2.41,0,0,0-.46-1.59A1.6,1.6,0,0,0,251.59,157.14Z"/><path class="cls-21" d="M260,162h-.88v-3.14c0-1.16-.43-1.75-1.28-1.75a1.39,1.39,0,0,0-1.09.5,1.83,1.83,0,0,0-.43,1.25V162h-.88v-5.5h.88v.91h0a2,2,0,0,1,1.8-1,1.68,1.68,0,0,1,1.38.58,2.6,2.6,0,0,1,.48,1.69Z"/><path class="cls-21" d="M265.28,162h-.88v-.86h0a1.84,1.84,0,0,1-1.69,1,1.82,1.82,0,0,1-1.29-.44,1.49,1.49,0,0,1-.46-1.15c0-1,.6-1.63,1.81-1.79l1.65-.24c0-.93-.38-1.4-1.13-1.4a2.7,2.7,0,0,0-1.79.68v-.9a3.34,3.34,0,0,1,1.86-.52c1.3,0,1.94.68,1.94,2Zm-.88-2.78-1.32.18a2.3,2.3,0,0,0-.93.3.88.88,0,0,0-.31.77.85.85,0,0,0,.29.66,1.09,1.09,0,0,0,.76.26A1.46,1.46,0,0,0,264,161a1.67,1.67,0,0,0,.42-1.16Z"/><path class="cls-21" d="M274.48,162h-.88v-3.16a2.34,2.34,0,0,0-.29-1.32,1.06,1.06,0,0,0-.94-.41,1.16,1.16,0,0,0-1,.52,1.91,1.91,0,0,0-.4,1.23V162h-.88v-3.27c0-1.08-.42-1.62-1.25-1.62a1.15,1.15,0,0,0-1,.49,2,2,0,0,0-.37,1.26V162h-.88v-5.5h.88v.87h0a1.86,1.86,0,0,1,1.71-1,1.6,1.6,0,0,1,1,.32,1.57,1.57,0,0,1,.58.82,2,2,0,0,1,1.82-1.14c1.21,0,1.82.75,1.82,2.24Z"/><path class="cls-21" d="M276.32,155.13a.54.54,0,0,1-.4-.16.5.5,0,0,1-.17-.41.53.53,0,0,1,.17-.41.54.54,0,0,1,.4-.16.56.56,0,0,1,.41.16.58.58,0,0,1,0,.82A.56.56,0,0,1,276.32,155.13Zm.43,6.9h-.88v-5.5h.88Z"/><path class="cls-21" d="M282.68,159.5h-3.89a2.09,2.09,0,0,0,.5,1.42,1.71,1.71,0,0,0,1.3.5,2.75,2.75,0,0,0,1.71-.61v.82a3.23,3.23,0,0,1-1.92.53,2.31,2.31,0,0,1-1.83-.75,3,3,0,0,1-.67-2.11,3,3,0,0,1,.73-2.09,2.33,2.33,0,0,1,1.81-.81,2.06,2.06,0,0,1,1.67.7,2.92,2.92,0,0,1,.59,1.94Zm-.91-.75a1.77,1.77,0,0,0-.36-1.18,1.24,1.24,0,0,0-1-.43,1.41,1.41,0,0,0-1.06.45,2,2,0,0,0-.54,1.16Z"/><path class="cls-21" d="M288.3,162h-.88v-3.14c0-1.16-.43-1.75-1.28-1.75a1.39,1.39,0,0,0-1.09.5,1.83,1.83,0,0,0-.43,1.25V162h-.89v-5.5h.89v.91h0a2,2,0,0,1,1.8-1,1.71,1.71,0,0,1,1.38.58,2.6,2.6,0,0,1,.48,1.69Z"/><path class="cls-21" d="M292.24,162a1.8,1.8,0,0,1-.83.17c-1,0-1.44-.54-1.44-1.61v-3.26h-1v-.75h1v-1.34l.88-.29v1.63h1.39v.75h-1.39v3.1a1.26,1.26,0,0,0,.19.79.73.73,0,0,0,.62.24.92.92,0,0,0,.58-.19Z"/><path class="cls-21" d="M295.44,162.16a2.55,2.55,0,0,1-1.95-.77,2.86,2.86,0,0,1-.73-2,3,3,0,0,1,.76-2.16,2.71,2.71,0,0,1,2-.78,2.45,2.45,0,0,1,1.92.76,3,3,0,0,1,.69,2.1,2.94,2.94,0,0,1-.74,2.11A2.64,2.64,0,0,1,295.44,162.16Zm.06-5a1.65,1.65,0,0,0-1.34.58,2.37,2.37,0,0,0-.5,1.59,2.25,2.25,0,0,0,.5,1.54,1.7,1.7,0,0,0,1.34.57,1.6,1.6,0,0,0,1.31-.56,2.35,2.35,0,0,0,.46-1.57,2.41,2.41,0,0,0-.46-1.59A1.6,1.6,0,0,0,295.5,157.14Z"/><path class="cls-20" d="M299.65,104.57h-.87v-7.7h.87Z"/><path class="cls-20" d="M306,104.57h-.84v-3.13c0-1.17-.41-1.76-1.23-1.76a1.3,1.3,0,0,0-1,.5,1.88,1.88,0,0,0-.42,1.26v3.13h-.85v-5.5h.85V100h0a1.9,1.9,0,0,1,1.74-1,1.58,1.58,0,0,1,1.32.59,2.63,2.63,0,0,1,.46,1.68Z"/><path class="cls-20" d="M312.3,104.13q0,3-2.79,3a3.6,3.6,0,0,1-1.71-.39v-.88a3.34,3.34,0,0,0,1.7.52c1.3,0,2-.72,2-2.16v-.6h0a2.09,2.09,0,0,1-3.4.32,3,3,0,0,1-.6-2,3.52,3.52,0,0,1,.64-2.23,2.16,2.16,0,0,1,1.78-.83,1.71,1.71,0,0,1,1.58.89h0v-.76h.84Zm-.84-2v-.82a1.63,1.63,0,0,0-.43-1.12,1.38,1.38,0,0,0-1.06-.47,1.43,1.43,0,0,0-1.23.6,2.69,2.69,0,0,0-.45,1.66,2.38,2.38,0,0,0,.43,1.47,1.34,1.34,0,0,0,1.13.55,1.47,1.47,0,0,0,1.16-.53A2,2,0,0,0,311.46,102.09Z"/><path class="cls-20" d="M318.43,102h-3.74a2.16,2.16,0,0,0,.48,1.42,1.61,1.61,0,0,0,1.25.5,2.53,2.53,0,0,0,1.64-.61v.82a2.91,2.91,0,0,1-1.84.53,2.18,2.18,0,0,1-1.76-.75,3.13,3.13,0,0,1-.64-2.11,3.07,3.07,0,0,1,.7-2.09,2.18,2.18,0,0,1,1.73-.81,2,2,0,0,1,1.61.7,3,3,0,0,1,.57,1.94Zm-.87-.74a1.83,1.83,0,0,0-.35-1.19,1.22,1.22,0,0,0-1-.43,1.34,1.34,0,0,0-1,.45,2.11,2.11,0,0,0-.52,1.17Z"/><path class="cls-20" d="M324.26,104.57h-.85v-3.13c0-1.17-.41-1.76-1.23-1.76a1.33,1.33,0,0,0-1.05.5,1.87,1.87,0,0,0-.41,1.26v3.13h-.85v-5.5h.85V100h0a1.89,1.89,0,0,1,1.73-1,1.6,1.6,0,0,1,1.33.59,2.63,2.63,0,0,1,.46,1.68Z"/><path class="cls-20" d="M326.45,97.68a.54.54,0,0,1-.39-.17.52.52,0,0,1-.16-.4.53.53,0,0,1,.16-.41.54.54,0,0,1,.39-.17.52.52,0,0,1,.39.17.53.53,0,0,1,.17.41.56.56,0,0,1-.17.4A.52.52,0,0,1,326.45,97.68Zm.41,6.89H326v-5.5h.85Z"/><path class="cls-20" d="M333,102h-3.74a2.11,2.11,0,0,0,.48,1.42,1.61,1.61,0,0,0,1.25.5,2.53,2.53,0,0,0,1.64-.61v.82a2.91,2.91,0,0,1-1.84.53A2.21,2.21,0,0,1,329,104a3.18,3.18,0,0,1-.64-2.11,3.12,3.12,0,0,1,.7-2.09,2.22,2.22,0,0,1,1.74-.81,2,2,0,0,1,1.61.7,3,3,0,0,1,.57,1.94Zm-.87-.74a1.83,1.83,0,0,0-.35-1.19,1.22,1.22,0,0,0-1-.43,1.34,1.34,0,0,0-1,.45,2.11,2.11,0,0,0-.52,1.17Z"/><path class="cls-20" d="M337.19,100a1.12,1.12,0,0,0-1.55.36,2.55,2.55,0,0,0-.36,1.45v2.8h-.85v-5.5h.85v1.14h0a1.92,1.92,0,0,1,.55-.91,1.2,1.2,0,0,1,.83-.32,1.39,1.39,0,0,1,.51.07Z"/><path class="cls-20" d="M340.48,104.7a2.43,2.43,0,0,1-1.88-.77,2.94,2.94,0,0,1-.7-2,3.08,3.08,0,0,1,.73-2.17,2.57,2.57,0,0,1,2-.78,2.36,2.36,0,0,1,1.85.76,3.11,3.11,0,0,1,.66,2.1,3.06,3.06,0,0,1-.71,2.11A2.46,2.46,0,0,1,340.48,104.7Zm.06-5a1.58,1.58,0,0,0-1.29.58,2.43,2.43,0,0,0-.48,1.59,2.32,2.32,0,0,0,.48,1.55,1.62,1.62,0,0,0,1.29.56,1.5,1.5,0,0,0,1.26-.55,2.46,2.46,0,0,0,.44-1.58,2.51,2.51,0,0,0-.44-1.59A1.51,1.51,0,0,0,340.54,99.68Z"/><path class="cls-20" d="M344.3,104.37v-.94a2.47,2.47,0,0,0,1.53.53c.74,0,1.11-.26,1.11-.77a.76.76,0,0,0-.09-.38,1.1,1.1,0,0,0-.26-.27,2,2,0,0,0-.38-.21l-.48-.2a4.36,4.36,0,0,1-.61-.29,2,2,0,0,1-.45-.33,1.37,1.37,0,0,1-.27-.42,1.6,1.6,0,0,1-.09-.56,1.4,1.4,0,0,1,.17-.68,1.57,1.57,0,0,1,.46-.5,1.76,1.76,0,0,1,.65-.3,2.67,2.67,0,0,1,.75-.11,3,3,0,0,1,1.23.25v.89a2.38,2.38,0,0,0-1.35-.4,1.37,1.37,0,0,0-.42.06,1,1,0,0,0-.33.16.79.79,0,0,0-.21.24.69.69,0,0,0-.08.32.8.8,0,0,0,.08.36.87.87,0,0,0,.22.26,1.62,1.62,0,0,0,.35.2l.47.2a6.21,6.21,0,0,1,.63.29,2.07,2.07,0,0,1,.47.33,1.35,1.35,0,0,1,.31.43,1.42,1.42,0,0,1,.1.57,1.46,1.46,0,0,1-.17.71,1.57,1.57,0,0,1-.46.5,2.13,2.13,0,0,1-.67.29,3,3,0,0,1-.79.1A2.89,2.89,0,0,1,344.3,104.37Z"/><path class="cls-20" d="M298,117.57h-.84v-.93h0a2.1,2.1,0,0,1-3.42.32,3.14,3.14,0,0,1-.59-2,3.36,3.36,0,0,1,.66-2.18,2.15,2.15,0,0,1,1.76-.83,1.69,1.69,0,0,1,1.59.89h0v-3.4H298Zm-.84-2.48v-.82a1.57,1.57,0,0,0-.43-1.12,1.39,1.39,0,0,0-1.07-.47,1.44,1.44,0,0,0-1.22.6,2.61,2.61,0,0,0-.44,1.63,2.43,2.43,0,0,0,.42,1.5,1.38,1.38,0,0,0,1.15.55,1.45,1.45,0,0,0,1.15-.53A2.06,2.06,0,0,0,297.15,115.09Z"/><path class="cls-20" d="M304.12,115h-3.74a2.16,2.16,0,0,0,.48,1.42,1.61,1.61,0,0,0,1.25.5,2.51,2.51,0,0,0,1.64-.61v.82a2.91,2.91,0,0,1-1.84.53,2.18,2.18,0,0,1-1.76-.75,3.13,3.13,0,0,1-.64-2.11,3.07,3.07,0,0,1,.7-2.09,2.19,2.19,0,0,1,1.74-.81,2,2,0,0,1,1.6.7,3,3,0,0,1,.57,1.94Zm-.87-.74a1.83,1.83,0,0,0-.35-1.19,1.2,1.2,0,0,0-1-.43,1.34,1.34,0,0,0-1,.45,2,2,0,0,0-.51,1.17Z"/><path class="cls-20" d="M316.28,117.57h-.86v-5.16c0-.41,0-.91.07-1.5h0a4.32,4.32,0,0,1-.22.74l-2.53,5.92h-.42l-2.53-5.87a4.81,4.81,0,0,1-.22-.79h0c0,.3,0,.81,0,1.51v5.15h-.84v-7.7h1.15l2.27,5.37a5.94,5.94,0,0,1,.34.93h0c.15-.43.27-.74.36-1l2.32-5.35h1.08Z"/><path class="cls-20" d="M318.71,110.68a.54.54,0,0,1-.39-.17.56.56,0,0,1-.16-.4.57.57,0,0,1,.16-.41.54.54,0,0,1,.39-.17.54.54,0,0,1,.4.17.57.57,0,0,1,.16.41.59.59,0,0,1-.16.4A.54.54,0,0,1,318.71,110.68Zm.41,6.89h-.84v-5.5h.84Z"/><path class="cls-20" d="M324.6,117.32a2.66,2.66,0,0,1-1.44.38,2.34,2.34,0,0,1-1.83-.76,2.87,2.87,0,0,1-.69-2,3.12,3.12,0,0,1,.75-2.18,2.54,2.54,0,0,1,2-.83,2.65,2.65,0,0,1,1.23.27v.9a2.13,2.13,0,0,0-1.26-.43,1.69,1.69,0,0,0-1.33.61,2.38,2.38,0,0,0-.52,1.59,2.26,2.26,0,0,0,.49,1.52,1.66,1.66,0,0,0,1.31.56,2.05,2.05,0,0,0,1.3-.48Z"/><path class="cls-20" d="M328.8,113a1.11,1.11,0,0,0-1.54.36,2.47,2.47,0,0,0-.37,1.45v2.8H326v-5.5h.85v1.14h0a2,2,0,0,1,.55-.91,1.23,1.23,0,0,1,.84-.32,1.29,1.29,0,0,1,.5.07Z"/><path class="cls-20" d="M332.09,117.7a2.42,2.42,0,0,1-1.87-.77,2.89,2.89,0,0,1-.7-2,3,3,0,0,1,.73-2.17,2.55,2.55,0,0,1,2-.78,2.32,2.32,0,0,1,1.84.76,3.06,3.06,0,0,1,.67,2.1,3,3,0,0,1-.72,2.11A2.43,2.43,0,0,1,332.09,117.7Zm.07-5a1.61,1.61,0,0,0-1.3.58,2.49,2.49,0,0,0-.47,1.59,2.32,2.32,0,0,0,.48,1.55,1.62,1.62,0,0,0,1.29.56,1.53,1.53,0,0,0,1.26-.55,2.52,2.52,0,0,0,.44-1.58,2.57,2.57,0,0,0-.44-1.59A1.53,1.53,0,0,0,332.16,112.68Z"/><path class="cls-20" d="M335.92,117.37v-.94a2.47,2.47,0,0,0,1.52.53c.75,0,1.12-.26,1.12-.77a.67.67,0,0,0-.1-.38,1.06,1.06,0,0,0-.25-.27,1.79,1.79,0,0,0-.39-.21l-.47-.2a5.16,5.16,0,0,1-.62-.29,2.2,2.2,0,0,1-.44-.33,1.37,1.37,0,0,1-.27-.42,1.57,1.57,0,0,1-.09-.56,1.4,1.4,0,0,1,.17-.68,1.54,1.54,0,0,1,.45-.5,1.84,1.84,0,0,1,.65-.3,2.79,2.79,0,0,1,.76-.11,3,3,0,0,1,1.22.25v.89a2.35,2.35,0,0,0-1.34-.4,1.44,1.44,0,0,0-.43.06,1.26,1.26,0,0,0-.33.16.79.79,0,0,0-.21.24.68.68,0,0,0-.07.32.8.8,0,0,0,.07.36.9.9,0,0,0,.22.26,2.3,2.3,0,0,0,.35.2l.47.2a4.68,4.68,0,0,1,.63.29,1.93,1.93,0,0,1,.48.33,1.28,1.28,0,0,1,.3.43,1.41,1.41,0,0,1,.11.57,1.36,1.36,0,0,1-.18.71,1.47,1.47,0,0,1-.46.5,2,2,0,0,1-.66.29,3,3,0,0,1-.8.1A2.88,2.88,0,0,1,335.92,117.37Z"/><path class="cls-20" d="M343.1,117.7a2.41,2.41,0,0,1-1.87-.77,2.89,2.89,0,0,1-.7-2,3.07,3.07,0,0,1,.72-2.17,2.58,2.58,0,0,1,2-.78,2.35,2.35,0,0,1,1.85.76,3.11,3.11,0,0,1,.66,2.1,3,3,0,0,1-.71,2.11A2.46,2.46,0,0,1,343.1,117.7Zm.06-5a1.61,1.61,0,0,0-1.29.58,2.43,2.43,0,0,0-.48,1.59,2.27,2.27,0,0,0,.49,1.55,1.6,1.6,0,0,0,1.28.56,1.5,1.5,0,0,0,1.26-.55,2.46,2.46,0,0,0,.45-1.58,2.51,2.51,0,0,0-.45-1.59A1.51,1.51,0,0,0,343.16,112.68Z"/><path class="cls-20" d="M349.86,110.2a1.16,1.16,0,0,0-.56-.14c-.6,0-.89.39-.89,1.16v.85h1.24v.75h-1.24v4.75h-.84v-4.75h-.91v-.75h.91v-.89a1.91,1.91,0,0,1,.48-1.37,1.61,1.61,0,0,1,1.2-.5,1.49,1.49,0,0,1,.61.1Z"/><path class="cls-20" d="M353.17,117.52a1.62,1.62,0,0,1-.79.17c-.93,0-1.39-.54-1.39-1.61v-3.26h-.91v-.75H351v-1.34l.85-.29v1.63h1.33v.75h-1.33v3.1a1.31,1.31,0,0,0,.18.79.7.7,0,0,0,.6.24.89.89,0,0,0,.55-.18Z"/><path class="cls-20" d="M69.32,104.25a4.23,4.23,0,0,1-2,.45,3.22,3.22,0,0,1-2.53-1.06,4,4,0,0,1-.95-2.77,4.15,4.15,0,0,1,1.07-3,3.54,3.54,0,0,1,2.71-1.14,4.28,4.28,0,0,1,1.75.32v1a3.43,3.43,0,0,0-1.76-.46,2.65,2.65,0,0,0-2.07.88,3.41,3.41,0,0,0-.79,2.37,3.21,3.21,0,0,0,.74,2.24,2.46,2.46,0,0,0,1.94.84,3.52,3.52,0,0,0,1.94-.52Z"/><path class="cls-20" d="M71.72,104.57h-.85V96.43h.85Z"/><path class="cls-20" d="M74,97.68a.5.5,0,0,1-.38-.17.52.52,0,0,1-.16-.4.53.53,0,0,1,.16-.41.5.5,0,0,1,.38-.17.54.54,0,0,1,.4.17.53.53,0,0,1,.16.41.55.55,0,0,1-.16.4A.54.54,0,0,1,74,97.68Zm.42,6.89h-.85v-5.5h.85Z"/><path class="cls-20" d="M80.56,102H76.83a2.11,2.11,0,0,0,.47,1.42,1.63,1.63,0,0,0,1.25.5,2.54,2.54,0,0,0,1.65-.61v.82a3,3,0,0,1-1.85.53,2.19,2.19,0,0,1-1.76-.75,3.13,3.13,0,0,1-.64-2.11,3.07,3.07,0,0,1,.7-2.09,2.22,2.22,0,0,1,1.74-.81,2,2,0,0,1,1.61.7,3,3,0,0,1,.56,1.94Zm-.86-.74a1.9,1.9,0,0,0-.36-1.19,1.19,1.19,0,0,0-1-.43,1.31,1.31,0,0,0-1,.45,2,2,0,0,0-.52,1.17Z"/><path class="cls-20" d="M86.39,104.57h-.84v-3.13c0-1.17-.41-1.76-1.23-1.76a1.3,1.3,0,0,0-1,.5,1.88,1.88,0,0,0-.42,1.26v3.13H82v-5.5h.85V100h0a1.9,1.9,0,0,1,1.74-1,1.57,1.57,0,0,1,1.32.59,2.63,2.63,0,0,1,.46,1.68Z"/><path class="cls-20" d="M90.6,104.52a1.62,1.62,0,0,1-.79.17c-.92,0-1.39-.54-1.39-1.61V99.82h-.91v-.75h.91V97.73l.85-.29v1.63H90.6v.75H89.27v3.1a1.31,1.31,0,0,0,.18.79.7.7,0,0,0,.6.24.87.87,0,0,0,.55-.18Z"/><path class="cls-20" d="M96.14,102H92.41a2.11,2.11,0,0,0,.47,1.42,1.63,1.63,0,0,0,1.25.5,2.54,2.54,0,0,0,1.65-.61v.82a3,3,0,0,1-1.85.53,2.2,2.2,0,0,1-1.76-.75,3.18,3.18,0,0,1-.64-2.11,3.07,3.07,0,0,1,.7-2.09A2.22,2.22,0,0,1,94,98.94a2,2,0,0,1,1.61.7,3,3,0,0,1,.56,1.94Zm-.86-.74a1.84,1.84,0,0,0-.36-1.19,1.19,1.19,0,0,0-1-.43,1.31,1.31,0,0,0-1,.45,2.11,2.11,0,0,0-.52,1.17Z"/><path class="cls-20" d="M97.26,104.37v-.94a2.49,2.49,0,0,0,1.53.53c.74,0,1.12-.26,1.12-.77a.77.77,0,0,0-.1-.38,1,1,0,0,0-.26-.27,1.71,1.71,0,0,0-.38-.21l-.47-.2a4.52,4.52,0,0,1-.62-.29,2,2,0,0,1-.45-.33,1.54,1.54,0,0,1-.26-.42,1.6,1.6,0,0,1-.09-.56,1.3,1.3,0,0,1,.17-.68,1.44,1.44,0,0,1,.45-.5,1.84,1.84,0,0,1,.65-.3,2.67,2.67,0,0,1,.75-.11,3,3,0,0,1,1.23.25v.89a2.38,2.38,0,0,0-1.34-.4,1.44,1.44,0,0,0-.43.06,1,1,0,0,0-.33.16.79.79,0,0,0-.21.24.69.69,0,0,0-.08.32.8.8,0,0,0,.08.36.87.87,0,0,0,.22.26,1.62,1.62,0,0,0,.35.2l.47.2a6.21,6.21,0,0,1,.63.29,1.87,1.87,0,0,1,.47.33,1.1,1.1,0,0,1,.31.43,1.42,1.42,0,0,1,.1.57,1.46,1.46,0,0,1-.17.71,1.57,1.57,0,0,1-.46.5,2.13,2.13,0,0,1-.67.29,3.2,3.2,0,0,1-2.21-.23Z"/><path class="cls-20" d="M66.34,117.57h-.85v-.93h0a2.09,2.09,0,0,1-3.41.32,3.09,3.09,0,0,1-.6-2,3.36,3.36,0,0,1,.67-2.18,2.14,2.14,0,0,1,1.76-.83,1.69,1.69,0,0,1,1.58.89h0v-3.4h.85Zm-.85-2.48v-.82a1.61,1.61,0,0,0-.42-1.12,1.39,1.39,0,0,0-1.07-.47,1.42,1.42,0,0,0-1.22.6,2.61,2.61,0,0,0-.45,1.63,2.37,2.37,0,0,0,.43,1.5,1.35,1.35,0,0,0,1.14.55,1.42,1.42,0,0,0,1.15-.53A2,2,0,0,0,65.49,115.09Z"/><path class="cls-20" d="M72.47,115H68.73a2.16,2.16,0,0,0,.48,1.42,1.61,1.61,0,0,0,1.25.5,2.53,2.53,0,0,0,1.64-.61v.82a2.91,2.91,0,0,1-1.84.53A2.18,2.18,0,0,1,68.5,117a3.6,3.6,0,0,1,0-4.2,2.22,2.22,0,0,1,1.74-.81,2,2,0,0,1,1.61.7,3,3,0,0,1,.57,1.94Zm-.87-.74a1.83,1.83,0,0,0-.35-1.19,1.22,1.22,0,0,0-1-.43,1.34,1.34,0,0,0-1,.45,2.11,2.11,0,0,0-.52,1.17Z"/><path class="cls-20" d="M82.81,117.57h-1l-.78-2.16H77.93l-.74,2.16h-1l2.84-7.7H80Zm-2-3-1.16-3.28a2.49,2.49,0,0,1-.11-.52h0a4.15,4.15,0,0,1-.12.52l-1.16,3.28Z"/><path class="cls-20" d="M87.64,112.33l-3.13,4.49h3.1v.75H83.26v-.27l3.13-4.48H83.55v-.75h4.09Z"/><path class="cls-20" d="M93.17,117.57h-.85v-.87h0a1.72,1.72,0,0,1-1.63,1q-1.89,0-1.89-2.34v-3.29h.84v3.15c0,1.16.43,1.74,1.28,1.74a1.28,1.28,0,0,0,1-.48,1.83,1.83,0,0,0,.4-1.24v-3.17h.85Z"/><path class="cls-20" d="M97.79,113a1.11,1.11,0,0,0-1.54.36,2.47,2.47,0,0,0-.37,1.45v2.8H95v-5.5h.84v1.14h0a1.94,1.94,0,0,1,.56-.91,1.2,1.2,0,0,1,.83-.32,1.29,1.29,0,0,1,.5.07Z"/><path class="cls-20" d="M103.13,115H99.39a2.06,2.06,0,0,0,.48,1.42,1.61,1.61,0,0,0,1.25.5,2.53,2.53,0,0,0,1.64-.61v.82a2.93,2.93,0,0,1-1.84.53,2.21,2.21,0,0,1-1.77-.75,3.18,3.18,0,0,1-.64-2.11,3.12,3.12,0,0,1,.7-2.09,2.22,2.22,0,0,1,1.74-.81,2,2,0,0,1,1.61.7,3,3,0,0,1,.57,1.94Zm-.87-.74a1.84,1.84,0,0,0-.36-1.19,1.18,1.18,0,0,0-1-.43,1.34,1.34,0,0,0-1,.45,2.11,2.11,0,0,0-.52,1.17Z"/><path class="cls-20" d="M74.18,184.12v-1.07a1.49,1.49,0,0,0,.42.29,2.91,2.91,0,0,0,.51.22,5.54,5.54,0,0,0,.55.14,3.08,3.08,0,0,0,.51,0,2,2,0,0,0,1.19-.3,1.06,1.06,0,0,0,.4-.89,1.21,1.21,0,0,0-.13-.55,1.6,1.6,0,0,0-.37-.42,3.49,3.49,0,0,0-.55-.36l-.68-.37c-.26-.14-.5-.27-.73-.41a3.05,3.05,0,0,1-.58-.47,1.61,1.61,0,0,1-.39-.57,1.73,1.73,0,0,1-.14-.75,1.78,1.78,0,0,1,.22-.91,2,2,0,0,1,.58-.65,2.73,2.73,0,0,1,.83-.37,3.73,3.73,0,0,1,.94-.12,3.57,3.57,0,0,1,1.6.27v1a2.86,2.86,0,0,0-1.69-.47,2.76,2.76,0,0,0-.57.06,1.59,1.59,0,0,0-.5.2,1.16,1.16,0,0,0-.36.37.89.89,0,0,0-.14.53,1.13,1.13,0,0,0,.1.51,1.16,1.16,0,0,0,.31.39,3,3,0,0,0,.51.35l.68.36c.27.14.52.28.76.43a3.47,3.47,0,0,1,.62.5,2.33,2.33,0,0,1,.43.61,1.84,1.84,0,0,1,.16.76,2.07,2.07,0,0,1-.22,1,1.78,1.78,0,0,1-.58.64,2.67,2.67,0,0,1-.84.36,4.57,4.57,0,0,1-1,.11l-.43,0-.53-.09a3.8,3.8,0,0,1-.51-.14A1.5,1.5,0,0,1,74.18,184.12Z"/><path class="cls-20" d="M84.47,184.43h-.85v-.87h0a1.74,1.74,0,0,1-1.63,1c-1.26,0-1.89-.79-1.89-2.35v-3.28h.84v3.14c0,1.16.42,1.74,1.28,1.74a1.27,1.27,0,0,0,1-.47,1.85,1.85,0,0,0,.4-1.24v-3.17h.85Z"/><path class="cls-20" d="M86,184.23v-.95a2.43,2.43,0,0,0,1.53.53c.74,0,1.12-.25,1.12-.77a.7.7,0,0,0-.1-.37.83.83,0,0,0-.26-.27,2.24,2.24,0,0,0-.38-.22l-.47-.19c-.24-.1-.44-.2-.62-.29a1.77,1.77,0,0,1-.45-.34,1.29,1.29,0,0,1-.26-.42,1.55,1.55,0,0,1-.09-.55,1.31,1.31,0,0,1,.17-.69,1.53,1.53,0,0,1,.45-.5,2.28,2.28,0,0,1,.65-.3,2.66,2.66,0,0,1,.75-.1,3,3,0,0,1,1.23.24v.9a2.3,2.3,0,0,0-1.34-.4,1.44,1.44,0,0,0-.43.06,1,1,0,0,0-.33.15A.72.72,0,0,0,87,180a.65.65,0,0,0-.08.31.74.74,0,0,0,.08.36.77.77,0,0,0,.22.26,1.62,1.62,0,0,0,.35.2c.14.07.29.13.47.2s.44.19.63.29a2.17,2.17,0,0,1,.47.33,1.27,1.27,0,0,1,.31.43,1.61,1.61,0,0,1-.07,1.28,1.57,1.57,0,0,1-.46.5,2.15,2.15,0,0,1-.67.3,3.35,3.35,0,0,1-.79.1A2.92,2.92,0,0,1,86,184.23Z"/><path class="cls-20" d="M68.1,197.17a2.64,2.64,0,0,1-1.45.39,2.38,2.38,0,0,1-1.83-.77,2.84,2.84,0,0,1-.69-2,3.13,3.13,0,0,1,.75-2.19,2.56,2.56,0,0,1,2-.82,2.71,2.71,0,0,1,1.23.27v.9a2.11,2.11,0,0,0-1.26-.43,1.67,1.67,0,0,0-1.33.6,2.36,2.36,0,0,0-.52,1.59,2.23,2.23,0,0,0,.49,1.53,1.64,1.64,0,0,0,1.3.55,2.07,2.07,0,0,0,1.31-.47Z"/><path class="cls-20" d="M70.38,197.43h-.84v-8.15h.84Z"/><path class="cls-20" d="M72.69,190.53a.53.53,0,0,1-.39-.16.58.58,0,0,1-.16-.41.6.6,0,0,1,.16-.41.53.53,0,0,1,.39-.16.54.54,0,0,1,.4.16.56.56,0,0,1,.16.41.54.54,0,0,1-.16.4A.54.54,0,0,1,72.69,190.53Zm.42,6.9h-.85v-5.5h.85Z"/><path class="cls-20" d="M79.23,194.9H75.5a2.12,2.12,0,0,0,.47,1.42,1.61,1.61,0,0,0,1.25.49,2.49,2.49,0,0,0,1.64-.61V197a3,3,0,0,1-1.84.53,2.19,2.19,0,0,1-1.76-.75,3.15,3.15,0,0,1-.64-2.11,3,3,0,0,1,.7-2.09,2.2,2.2,0,0,1,1.74-.81,1.93,1.93,0,0,1,1.6.7,3,3,0,0,1,.57,1.93Zm-.87-.75A1.85,1.85,0,0,0,78,193a1.19,1.19,0,0,0-1-.42,1.37,1.37,0,0,0-1,.44,2,2,0,0,0-.51,1.17Z"/><path class="cls-20" d="M85.06,197.43h-.85v-3.14c0-1.17-.4-1.75-1.22-1.75a1.3,1.3,0,0,0-1.06.5,1.92,1.92,0,0,0-.41,1.25v3.14h-.85v-5.5h.85v.91h0a1.89,1.89,0,0,1,1.73-1,1.58,1.58,0,0,1,1.33.58,2.65,2.65,0,0,1,.46,1.68Z"/><path class="cls-20" d="M89.27,197.37a1.52,1.52,0,0,1-.79.17c-.93,0-1.39-.53-1.39-1.61v-3.25h-.91v-.75h.91v-1.35l.85-.28v1.63h1.33v.75H87.94v3.1a1.33,1.33,0,0,0,.18.79.73.73,0,0,0,.6.23.87.87,0,0,0,.55-.18Z"/><path class="cls-20" d="M94.81,194.9H91.08a2.12,2.12,0,0,0,.47,1.42,1.62,1.62,0,0,0,1.25.49,2.54,2.54,0,0,0,1.65-.61V197a3,3,0,0,1-1.85.53,2.19,2.19,0,0,1-1.76-.75,3.15,3.15,0,0,1-.64-2.11,3,3,0,0,1,.7-2.09,2.22,2.22,0,0,1,1.74-.81,1.92,1.92,0,0,1,1.6.7,3,3,0,0,1,.57,1.93Zm-.87-.75a1.85,1.85,0,0,0-.35-1.19,1.18,1.18,0,0,0-1-.42,1.37,1.37,0,0,0-1,.44,2.1,2.1,0,0,0-.51,1.17Z"/><path class="cls-20" d="M95.93,197.23v-.95a2.41,2.41,0,0,0,1.53.53c.74,0,1.11-.25,1.11-.77a.7.7,0,0,0-.09-.37,1.1,1.1,0,0,0-.26-.27,2.71,2.71,0,0,0-.38-.22l-.48-.19-.61-.29a1.77,1.77,0,0,1-.45-.34,1.17,1.17,0,0,1-.27-.42,1.55,1.55,0,0,1-.09-.55,1.41,1.41,0,0,1,.17-.69,1.69,1.69,0,0,1,.46-.5,2.16,2.16,0,0,1,.65-.3,2.66,2.66,0,0,1,.75-.1,3,3,0,0,1,1.23.24v.9a2.31,2.31,0,0,0-1.35-.4,1.37,1.37,0,0,0-.42.06,1,1,0,0,0-.33.15.72.72,0,0,0-.21.25.65.65,0,0,0-.08.31.74.74,0,0,0,.08.36.77.77,0,0,0,.22.26,1.62,1.62,0,0,0,.35.2,4.43,4.43,0,0,0,.47.2c.23.1.44.19.63.29A2.44,2.44,0,0,1,99,195a1.39,1.39,0,0,1,.3.43,1.28,1.28,0,0,1,.11.58,1.42,1.42,0,0,1-.17.7,1.57,1.57,0,0,1-.46.5,2.15,2.15,0,0,1-.67.3,3.42,3.42,0,0,1-.79.1A2.89,2.89,0,0,1,95.93,197.23Z"/><path class="cls-20" d="M285.84,184V183a1.49,1.49,0,0,0,.42.29,2.91,2.91,0,0,0,.51.22,3.7,3.7,0,0,0,.55.14,3.14,3.14,0,0,0,.51,0,2,2,0,0,0,1.19-.31,1.08,1.08,0,0,0,.4-.89,1,1,0,0,0-.14-.54,1.19,1.19,0,0,0-.36-.42,3.5,3.5,0,0,0-.55-.37l-.68-.37c-.26-.13-.5-.27-.73-.41a3,3,0,0,1-.58-.46,1.76,1.76,0,0,1-.53-1.32,1.79,1.79,0,0,1,.22-.92,2,2,0,0,1,.58-.64,2.52,2.52,0,0,1,.83-.38,3.67,3.67,0,0,1,.94-.12,3.57,3.57,0,0,1,1.6.27v1a3,3,0,0,0-2.26-.41,1.38,1.38,0,0,0-.5.2,1,1,0,0,0-.36.36.91.91,0,0,0-.14.54,1.12,1.12,0,0,0,.1.5,1.31,1.31,0,0,0,.31.4,3,3,0,0,0,.51.34l.68.37a7.9,7.9,0,0,1,.76.43,3.39,3.39,0,0,1,.62.5,2.28,2.28,0,0,1,.43.6,1.86,1.86,0,0,1,.16.77,2,2,0,0,1-.22,1,1.7,1.7,0,0,1-.58.64,2.46,2.46,0,0,1-.84.36,4.57,4.57,0,0,1-1,.11l-.43,0a4.89,4.89,0,0,1-.53-.09,2.73,2.73,0,0,1-.51-.14A1.22,1.22,0,0,1,285.84,184Z"/><path class="cls-20" d="M296.13,184.35h-.85v-.87h0a1.73,1.73,0,0,1-1.63,1q-1.89,0-1.89-2.34v-3.29h.84V182c0,1.16.42,1.74,1.28,1.74a1.28,1.28,0,0,0,1-.48,1.83,1.83,0,0,0,.4-1.24v-3.17h.85Z"/><path class="cls-20" d="M297.67,184.15v-.94a2.49,2.49,0,0,0,1.53.53q1.11,0,1.11-.78a.72.72,0,0,0-.09-.37,1.1,1.1,0,0,0-.26-.27,2,2,0,0,0-.38-.21l-.47-.2a6.13,6.13,0,0,1-.62-.29,2,2,0,0,1-.45-.33,1.3,1.3,0,0,1-.27-.43,1.51,1.51,0,0,1-.09-.55,1.34,1.34,0,0,1,.17-.68,1.57,1.57,0,0,1,.46-.5,2,2,0,0,1,.65-.31,2.66,2.66,0,0,1,.75-.1,2.85,2.85,0,0,1,1.23.25v.89a2.3,2.3,0,0,0-1.34-.4,1.4,1.4,0,0,0-.43.06,1,1,0,0,0-.33.16.69.69,0,0,0-.29.56.72.72,0,0,0,.08.35.68.68,0,0,0,.22.26,1.3,1.3,0,0,0,.35.21l.47.2a6.24,6.24,0,0,1,.63.28,2.1,2.1,0,0,1,.47.34,1.27,1.27,0,0,1,.31.42,1.64,1.64,0,0,1-.07,1.29,1.69,1.69,0,0,1-.46.5,2.13,2.13,0,0,1-.67.29,3.2,3.2,0,0,1-2.21-.23Z"/><path class="cls-20" d="M306.13,177.45a.49.49,0,0,1-.38-.16.54.54,0,0,1-.16-.41.56.56,0,0,1,.16-.41.49.49,0,0,1,.38-.16.54.54,0,0,1,.4.16.61.61,0,0,1,0,.82A.54.54,0,0,1,306.13,177.45Zm.42,6.9h-.85v-5.5h.85Z"/><path class="cls-20" d="M312.81,184.35H312v-3.14c0-1.17-.4-1.75-1.22-1.75a1.33,1.33,0,0,0-1.06.5,1.92,1.92,0,0,0-.41,1.25v3.14h-.85v-5.5h.85v.91h0a1.9,1.9,0,0,1,1.73-1,1.61,1.61,0,0,1,1.33.58,2.66,2.66,0,0,1,.46,1.69Z"/><path class="cls-20" d="M319.08,183.91q0,3-2.79,3a3.6,3.6,0,0,1-1.71-.39v-.88a3.44,3.44,0,0,0,1.7.52q2,0,2-2.16v-.6h0a2,2,0,0,1-1.81,1,2,2,0,0,1-1.59-.73,3,3,0,0,1-.6-2,3.52,3.52,0,0,1,.64-2.23,2.16,2.16,0,0,1,1.78-.83,1.71,1.71,0,0,1,1.58.89h0v-.76h.85Zm-.85-2v-.81a1.61,1.61,0,0,0-.42-1.12,1.4,1.4,0,0,0-1.06-.47,1.43,1.43,0,0,0-1.23.6,2.67,2.67,0,0,0-.45,1.66,2.32,2.32,0,0,0,.43,1.47,1.37,1.37,0,0,0,1.13.55,1.47,1.47,0,0,0,1.16-.53A2,2,0,0,0,318.23,181.86Z"/><path class="cls-20" d="M325.21,181.82h-3.74a2.18,2.18,0,0,0,.48,1.42,1.61,1.61,0,0,0,1.25.5,2.59,2.59,0,0,0,1.64-.61V184a3,3,0,0,1-1.84.53,2.18,2.18,0,0,1-1.76-.75,3.6,3.6,0,0,1,.05-4.2,2.22,2.22,0,0,1,1.74-.81,1.94,1.94,0,0,1,1.61.7,3,3,0,0,1,.57,1.94Zm-.87-.75a1.8,1.8,0,0,0-.35-1.18,1.19,1.19,0,0,0-1-.43,1.34,1.34,0,0,0-1,.45,2.08,2.08,0,0,0-.52,1.16Z"/><path class="cls-20" d="M331,184.35h-.85v-3.14c0-1.17-.41-1.75-1.23-1.75a1.33,1.33,0,0,0-1,.5,1.86,1.86,0,0,0-.41,1.25v3.14h-.85v-5.5h.85v.91h0a1.89,1.89,0,0,1,1.73-1,1.62,1.62,0,0,1,1.33.58A2.66,2.66,0,0,1,331,181Z"/><path class="cls-20" d="M333.23,177.45a.53.53,0,0,1-.39-.16.54.54,0,0,1-.16-.41.56.56,0,0,1,.16-.41.56.56,0,0,1,.78,0,.58.58,0,0,1,0,.82A.53.53,0,0,1,333.23,177.45Zm.41,6.9h-.85v-5.5h.85Z"/><path class="cls-20" d="M339.77,181.82H336a2.08,2.08,0,0,0,.48,1.42,1.61,1.61,0,0,0,1.25.5,2.59,2.59,0,0,0,1.64-.61V184a3,3,0,0,1-1.84.53,2.21,2.21,0,0,1-1.77-.75,3.18,3.18,0,0,1-.64-2.11,3.1,3.1,0,0,1,.7-2.09,2.22,2.22,0,0,1,1.74-.81,2,2,0,0,1,1.61.7,3,3,0,0,1,.57,1.94Zm-.87-.75a1.75,1.75,0,0,0-.36-1.18,1.15,1.15,0,0,0-1-.43,1.34,1.34,0,0,0-1,.45,2.08,2.08,0,0,0-.52,1.16Z"/><path class="cls-20" d="M344,179.74a1,1,0,0,0-.64-.18,1.06,1.06,0,0,0-.91.54,2.53,2.53,0,0,0-.37,1.45v2.8h-.84v-5.5h.84V180h0a1.89,1.89,0,0,1,.55-.9,1.22,1.22,0,0,1,.83-.33,1.36,1.36,0,0,1,.51.08Z"/><path class="cls-20" d="M347.25,184.48a2.42,2.42,0,0,1-1.87-.77,3,3,0,0,1-.7-2.05,3.07,3.07,0,0,1,.73-2.16,2.57,2.57,0,0,1,2-.78,2.33,2.33,0,0,1,1.85.76,3.07,3.07,0,0,1,.66,2.1,3,3,0,0,1-.72,2.11A2.47,2.47,0,0,1,347.25,184.48Zm.07-5A1.55,1.55,0,0,0,346,180a2.41,2.41,0,0,0-.48,1.59,2.29,2.29,0,0,0,.48,1.54,1.6,1.6,0,0,0,1.29.57,1.51,1.51,0,0,0,1.26-.56,2.41,2.41,0,0,0,.44-1.57,2.47,2.47,0,0,0-.44-1.59A1.51,1.51,0,0,0,347.32,179.46Z"/><path class="cls-20" d="M351.08,184.15v-.94a2.47,2.47,0,0,0,1.53.53q1.11,0,1.11-.78a.72.72,0,0,0-.09-.37,1.1,1.1,0,0,0-.26-.27,2,2,0,0,0-.38-.21l-.48-.2a5.89,5.89,0,0,1-.61-.29,2,2,0,0,1-.45-.33,1.3,1.3,0,0,1-.27-.43,1.51,1.51,0,0,1-.09-.55,1.34,1.34,0,0,1,.17-.68,1.57,1.57,0,0,1,.46-.5,2,2,0,0,1,.65-.31,2.66,2.66,0,0,1,.75-.1,2.85,2.85,0,0,1,1.23.25v.89a2.31,2.31,0,0,0-1.35-.4,1.37,1.37,0,0,0-.42.06,1,1,0,0,0-.33.16.6.6,0,0,0-.21.24.69.69,0,0,0-.08.32.72.72,0,0,0,.08.35.66.66,0,0,0,.21.26,1.55,1.55,0,0,0,.36.21l.47.2a6.24,6.24,0,0,1,.63.28,2.1,2.1,0,0,1,.47.34,1.25,1.25,0,0,1,.3.42,1.57,1.57,0,0,1-.06,1.29,1.69,1.69,0,0,1-.46.5,2.13,2.13,0,0,1-.67.29,3,3,0,0,1-.79.1A2.89,2.89,0,0,1,351.08,184.15Z"/><path class="cls-20" d="M356.34,179.92a.56.56,0,0,1-.4-.17.61.61,0,0,1-.17-.43.61.61,0,0,1,.17-.42.56.56,0,0,1,.4-.17.59.59,0,0,1,.42.17.61.61,0,0,1,.17.42.61.61,0,0,1-.17.43A.59.59,0,0,1,356.34,179.92Zm0,4.55a.53.53,0,0,1-.4-.18.61.61,0,0,1-.17-.42.61.61,0,0,1,.17-.43.53.53,0,0,1,.4-.18.56.56,0,0,1,.42.18.61.61,0,0,1,.17.43.61.61,0,0,1-.17.42A.56.56,0,0,1,356.34,184.47Z"/><path class="cls-20" d="M279.4,197.48a2.42,2.42,0,0,1-1.87-.77,2.93,2.93,0,0,1-.7-2.05,3,3,0,0,1,.73-2.16,2.55,2.55,0,0,1,2-.78,2.29,2.29,0,0,1,1.84.76,3.54,3.54,0,0,1-.05,4.21A2.48,2.48,0,0,1,279.4,197.48Zm.06-5a1.58,1.58,0,0,0-1.29.58,2.47,2.47,0,0,0-.47,1.59,2.29,2.29,0,0,0,.48,1.54,1.59,1.59,0,0,0,1.28.57,1.54,1.54,0,0,0,1.27-.56,2.47,2.47,0,0,0,.44-1.57,2.53,2.53,0,0,0-.44-1.59A1.54,1.54,0,0,0,279.46,192.46Z"/><path class="cls-20" d="M284.42,196.55h0v3.33h-.85v-8h.85v1h0a2,2,0,0,1,1.83-1.1,1.9,1.9,0,0,1,1.59.74,3.09,3.09,0,0,1,.58,2,3.5,3.5,0,0,1-.65,2.21,2.13,2.13,0,0,1-1.77.83A1.75,1.75,0,0,1,284.42,196.55Zm0-2.21v.76a1.67,1.67,0,0,0,.42,1.16,1.48,1.48,0,0,0,2.29-.13,2.92,2.92,0,0,0,.44-1.71,2.3,2.3,0,0,0-.41-1.44,1.34,1.34,0,0,0-1.1-.52,1.46,1.46,0,0,0-1.19.54A2,2,0,0,0,284.4,194.34Z"/><path class="cls-20" d="M294.18,194.82h-3.73a2.12,2.12,0,0,0,.47,1.42,1.61,1.61,0,0,0,1.25.5,2.57,2.57,0,0,0,1.64-.61V197a3,3,0,0,1-1.84.53,2.18,2.18,0,0,1-1.76-.75,3.13,3.13,0,0,1-.64-2.11,3.05,3.05,0,0,1,.7-2.09,2.19,2.19,0,0,1,1.74-.81,1.93,1.93,0,0,1,1.6.7,3,3,0,0,1,.57,1.94Zm-.87-.75a1.8,1.8,0,0,0-.35-1.18,1.17,1.17,0,0,0-1-.43,1.34,1.34,0,0,0-1,.45,2,2,0,0,0-.51,1.16Z"/><path class="cls-20" d="M298.38,192.74a1,1,0,0,0-.64-.18,1.09,1.09,0,0,0-.91.54,2.53,2.53,0,0,0-.36,1.45v2.8h-.85v-5.5h.85V193h0a1.89,1.89,0,0,1,.55-.9,1.23,1.23,0,0,1,.83-.33,1.36,1.36,0,0,1,.51.08Z"/><path class="cls-20" d="M303.25,197.35h-.85v-.86h0a1.76,1.76,0,0,1-1.63,1,1.71,1.71,0,0,1-1.24-.44,1.51,1.51,0,0,1-.44-1.15q0-1.54,1.74-1.8l1.59-.23c0-.93-.37-1.4-1.09-1.4a2.57,2.57,0,0,0-1.73.68v-.9a3.14,3.14,0,0,1,1.8-.52c1.24,0,1.87.68,1.87,2.05Zm-.85-2.78-1.28.18a2.15,2.15,0,0,0-.89.3.91.91,0,0,0-.3.77.87.87,0,0,0,.28.66,1,1,0,0,0,.74.26,1.36,1.36,0,0,0,1-.46,1.71,1.71,0,0,0,.41-1.16Z"/><path class="cls-20" d="M309.52,197.35h-.85v-.93h0a2,2,0,0,1-1.82,1.06,1.93,1.93,0,0,1-1.59-.74,3.09,3.09,0,0,1-.6-2,3.4,3.4,0,0,1,.66-2.19,2.14,2.14,0,0,1,1.76-.82,1.69,1.69,0,0,1,1.59.89h0v-3.4h.85Zm-.85-2.49v-.81a1.6,1.6,0,0,0-.43-1.13,1.41,1.41,0,0,0-1.07-.46,1.45,1.45,0,0,0-1.22.59,2.66,2.66,0,0,0-.44,1.64,2.43,2.43,0,0,0,.42,1.5,1.41,1.41,0,0,0,1.15.55,1.45,1.45,0,0,0,1.15-.53A2.09,2.09,0,0,0,308.67,194.86Z"/><path class="cls-20" d="M313.6,197.48a2.41,2.41,0,0,1-1.87-.77,2.93,2.93,0,0,1-.7-2.05,3,3,0,0,1,.73-2.16,2.55,2.55,0,0,1,2-.78,2.31,2.31,0,0,1,1.85.76,3.07,3.07,0,0,1,.66,2.1,3,3,0,0,1-.71,2.11A2.49,2.49,0,0,1,313.6,197.48Zm.06-5a1.58,1.58,0,0,0-1.29.58,2.41,2.41,0,0,0-.47,1.59,2.29,2.29,0,0,0,.48,1.54,1.59,1.59,0,0,0,1.28.57,1.51,1.51,0,0,0,1.26-.56,2.41,2.41,0,0,0,.45-1.57,2.47,2.47,0,0,0-.45-1.59A1.51,1.51,0,0,0,313.66,192.46Z"/><path class="cls-20" d="M320.51,192.74a1,1,0,0,0-.64-.18,1.06,1.06,0,0,0-.91.54,2.53,2.53,0,0,0-.37,1.45v2.8h-.84v-5.5h.84V193h0a1.89,1.89,0,0,1,.55-.9,1.22,1.22,0,0,1,.83-.33,1.36,1.36,0,0,1,.51.08Z"/><path class="cls-20" d="M329.16,197.35h-.85v-.93h0a2.09,2.09,0,0,1-3.41.32,3.09,3.09,0,0,1-.6-2,3.4,3.4,0,0,1,.66-2.19,2.14,2.14,0,0,1,1.76-.82,1.69,1.69,0,0,1,1.59.89h0v-3.4h.85Zm-.85-2.49v-.81a1.63,1.63,0,0,0-.42-1.13,1.43,1.43,0,0,0-1.08-.46,1.45,1.45,0,0,0-1.22.59,2.73,2.73,0,0,0-.44,1.64,2.43,2.43,0,0,0,.42,1.5,1.41,1.41,0,0,0,1.15.55,1.45,1.45,0,0,0,1.15-.53A2.09,2.09,0,0,0,328.31,194.86Z"/><path class="cls-20" d="M335.28,194.82h-3.73a2.12,2.12,0,0,0,.47,1.42,1.63,1.63,0,0,0,1.25.5,2.59,2.59,0,0,0,1.65-.61V197a3,3,0,0,1-1.85.53,2.19,2.19,0,0,1-1.76-.75,3.13,3.13,0,0,1-.64-2.11,3.05,3.05,0,0,1,.7-2.09,2.22,2.22,0,0,1,1.74-.81,1.93,1.93,0,0,1,1.6.7,3,3,0,0,1,.57,1.94Zm-.87-.75a1.8,1.8,0,0,0-.35-1.18,1.17,1.17,0,0,0-1-.43,1.34,1.34,0,0,0-1,.45,2,2,0,0,0-.51,1.16Z"/><path class="cls-20" d="M345.63,197.35h-1l-.79-2.16h-3.14l-.74,2.16h-1l2.84-7.7h.9Zm-2-3-1.17-3.28c0-.11-.07-.28-.11-.52h0a2.36,2.36,0,0,1-.12.52L341,194.38Z"/><path class="cls-20" d="M350.45,192.1l-3.13,4.5h3.1v.75h-4.34v-.27l3.13-4.48h-2.84v-.75h4.08Z"/><path class="cls-20" d="M356,197.35h-.84v-.87h0a1.74,1.74,0,0,1-1.64,1q-1.89,0-1.89-2.34v-3.29h.84V195c0,1.16.43,1.74,1.28,1.74a1.28,1.28,0,0,0,1-.48,1.88,1.88,0,0,0,.4-1.24v-3.17H356Z"/><path class="cls-20" d="M360.61,192.74a1,1,0,0,0-.64-.18,1.09,1.09,0,0,0-.91.54,2.53,2.53,0,0,0-.36,1.45v2.8h-.85v-5.5h.85V193h0a1.89,1.89,0,0,1,.55-.9,1.23,1.23,0,0,1,.83-.33,1.36,1.36,0,0,1,.51.08Z"/><path class="cls-20" d="M365.94,194.82h-3.73a2.12,2.12,0,0,0,.47,1.42,1.61,1.61,0,0,0,1.25.5,2.57,2.57,0,0,0,1.64-.61V197a3,3,0,0,1-1.84.53,2.18,2.18,0,0,1-1.76-.75,3.13,3.13,0,0,1-.64-2.11,3.05,3.05,0,0,1,.7-2.09,2.19,2.19,0,0,1,1.74-.81,1.93,1.93,0,0,1,1.6.7,3,3,0,0,1,.57,1.94Zm-.87-.75a1.8,1.8,0,0,0-.35-1.18,1.17,1.17,0,0,0-1-.43,1.34,1.34,0,0,0-1,.45,2,2,0,0,0-.51,1.16Z"/><path class="cls-20" d="M297.83,210V209a1.84,1.84,0,0,0,.42.29,3.75,3.75,0,0,0,1.07.36,3.13,3.13,0,0,0,.5,0,2,2,0,0,0,1.2-.31,1.07,1.07,0,0,0,.39-.89,1,1,0,0,0-.13-.54,1.62,1.62,0,0,0-.36-.43,5.25,5.25,0,0,0-.55-.36l-.69-.37a8,8,0,0,1-.72-.41,3.46,3.46,0,0,1-.58-.46,1.74,1.74,0,0,1-.39-.58,1.72,1.72,0,0,1-.15-.74,1.79,1.79,0,0,1,.23-.92,1.87,1.87,0,0,1,.58-.64,2.57,2.57,0,0,1,.82-.38,3.81,3.81,0,0,1,.95-.12,3.49,3.49,0,0,1,1.59.27v1a2.76,2.76,0,0,0-1.68-.48,2.22,2.22,0,0,0-.57.07,1.43,1.43,0,0,0-.51.2,1.23,1.23,0,0,0-.36.36,1,1,0,0,0-.14.53,1.13,1.13,0,0,0,.11.51,1.17,1.17,0,0,0,.31.4,4.33,4.33,0,0,0,.5.34l.69.37a5.43,5.43,0,0,1,.75.43,3.15,3.15,0,0,1,.63.5,2.28,2.28,0,0,1,.43.6,1.84,1.84,0,0,1,.15.76,2,2,0,0,1-.21,1,1.88,1.88,0,0,1-.58.64,2.67,2.67,0,0,1-.84.36,4.64,4.64,0,0,1-1,.11l-.44,0-.52-.09a3.8,3.8,0,0,1-.51-.14A1.79,1.79,0,0,1,297.83,210Z"/><path class="cls-20" d="M306,210.29a1.52,1.52,0,0,1-.79.18c-.93,0-1.39-.54-1.39-1.61V205.6h-.91v-.75h.91v-1.34l.85-.29v1.63H306v.75h-1.33v3.1a1.33,1.33,0,0,0,.18.79.7.7,0,0,0,.6.24.84.84,0,0,0,.55-.19Z"/><path class="cls-20" d="M311,210.35h-.85v-.86h0a1.76,1.76,0,0,1-1.63,1,1.71,1.71,0,0,1-1.24-.44,1.51,1.51,0,0,1-.44-1.15q0-1.54,1.74-1.8l1.59-.23c0-.93-.37-1.4-1.09-1.4a2.57,2.57,0,0,0-1.73.68v-.9a3.14,3.14,0,0,1,1.8-.52c1.24,0,1.87.68,1.87,2.05Zm-.85-2.78-1.28.18a2.15,2.15,0,0,0-.89.3.91.91,0,0,0-.3.77.87.87,0,0,0,.28.66,1,1,0,0,0,.74.26,1.36,1.36,0,0,0,1-.46,1.72,1.72,0,0,0,.41-1.17Z"/><path class="cls-20" d="M316.4,210.1a2.72,2.72,0,0,1-1.45.38,2.38,2.38,0,0,1-1.83-.77,2.84,2.84,0,0,1-.69-2,3.13,3.13,0,0,1,.75-2.19,2.59,2.59,0,0,1,2-.82,2.71,2.71,0,0,1,1.23.27v.9a2.11,2.11,0,0,0-1.26-.43,1.65,1.65,0,0,0-1.33.61,2.32,2.32,0,0,0-.52,1.58,2.22,2.22,0,0,0,.49,1.53,1.64,1.64,0,0,0,1.3.56,2.08,2.08,0,0,0,1.31-.48Z"/><path class="cls-20" d="M322.23,210.35H321l-2.34-2.64h0v2.64h-.84v-8.14h.84v5.16h0l2.23-2.52H322l-2.46,2.65Z"/><path class="cls-20" d="M332,210.35h-.86v-3.51h-3.84v3.51h-.87v-7.7h.87V206h3.84v-3.38H332Z"/><path class="cls-20" d="M338.26,210.35h-.85v-.87h0a1.73,1.73,0,0,1-1.63,1q-1.89,0-1.89-2.34v-3.29h.84V208c0,1.16.43,1.74,1.28,1.74a1.26,1.26,0,0,0,1-.48,1.85,1.85,0,0,0,.4-1.24v-3.17h.85Z"/><path class="cls-20" d="M341,209.55h0v.8h-.84v-8.14H341v3.61h0a2,2,0,0,1,1.82-1.1,1.93,1.93,0,0,1,1.6.74,3.15,3.15,0,0,1,.57,2,3.52,3.52,0,0,1-.64,2.21,2.13,2.13,0,0,1-1.77.83A1.71,1.71,0,0,1,341,209.55Zm0-2.21v.76a1.7,1.7,0,0,0,.43,1.16,1.38,1.38,0,0,0,1.08.48,1.4,1.4,0,0,0,1.21-.62,2.87,2.87,0,0,0,.44-1.7,2.3,2.3,0,0,0-.41-1.44,1.32,1.32,0,0,0-1.11-.52,1.48,1.48,0,0,0-1.19.54A2,2,0,0,0,341,207.34Z"/><path class="cls-20" d="M61.4,15V6.6h2.87q4.31,0,4.3,4.09a4.25,4.25,0,0,1-1.17,3.14A4.26,4.26,0,0,1,64.27,15Zm1.82-6.86v5.32h.9A2.4,2.4,0,0,0,66,12.73a2.89,2.89,0,0,0,.67-2A2.62,2.62,0,0,0,66,8.83a2.5,2.5,0,0,0-1.88-.69Z"/><path class="cls-20" d="M75.1,12.53H71.33c.06.87.59,1.3,1.58,1.3a3,3,0,0,0,1.68-.46V14.7a4.22,4.22,0,0,1-2.08.45,2.85,2.85,0,0,1-2.17-.81,3.11,3.11,0,0,1-.77-2.25,3.25,3.25,0,0,1,.83-2.36,2.71,2.71,0,0,1,2-.88,2.49,2.49,0,0,1,2,.78,3.09,3.09,0,0,1,.69,2.12Zm-1.66-1.14c0-.86-.33-1.29-1-1.29a.94.94,0,0,0-.74.37,1.66,1.66,0,0,0-.38.92Z"/><path class="cls-20" d="M81.82,9l-2.14,6h-2L75.6,9h1.91l1,3.7a6,6,0,0,1,.2,1.06h0a6.05,6.05,0,0,1,.21-1L80,9Z"/><path class="cls-20" d="M86.35,15.15A3.7,3.7,0,0,1,83.52,14a4.3,4.3,0,0,1-1.1-3.06,4.58,4.58,0,0,1,1.12-3.22,3.77,3.77,0,0,1,2.94-1.23,3.63,3.63,0,0,1,2.8,1.17,4.48,4.48,0,0,1,1.06,3.11,4.56,4.56,0,0,1-1.1,3.19A3.75,3.75,0,0,1,86.35,15.15Zm.08-7.06a1.81,1.81,0,0,0-1.53.74,3.25,3.25,0,0,0-.56,2,3.21,3.21,0,0,0,.56,2,1.92,1.92,0,0,0,3,0,3.19,3.19,0,0,0,.55-2,3.37,3.37,0,0,0-.54-2A1.72,1.72,0,0,0,86.43,8.09Z"/><path class="cls-20" d="M93.49,14.3h0v3.46H91.68V9h1.78v.9h0a2.07,2.07,0,0,1,1.85-1.05,2,2,0,0,1,1.73.8,3.51,3.51,0,0,1,.62,2.18A3.78,3.78,0,0,1,97,14.24a2.29,2.29,0,0,1-1.89.91A1.76,1.76,0,0,1,93.49,14.3Zm0-2.46v.48a1.59,1.59,0,0,0,.31,1,1,1,0,0,0,.83.39,1.06,1.06,0,0,0,.94-.49,2.4,2.4,0,0,0,.34-1.39c0-1-.4-1.58-1.18-1.58a1.12,1.12,0,0,0-.9.43A1.78,1.78,0,0,0,93.44,11.84Z"/><path class="cls-20" d="M98.64,14.84v-1.5a3.42,3.42,0,0,0,.87.41,2.83,2.83,0,0,0,.83.14,1.68,1.68,0,0,0,.74-.14.42.42,0,0,0,.28-.41.36.36,0,0,0-.13-.29,1.05,1.05,0,0,0-.31-.21,4.31,4.31,0,0,0-.43-.15l-.45-.16a4.81,4.81,0,0,1-.6-.29,2,2,0,0,1-.44-.36,1.42,1.42,0,0,1-.27-.48,2,2,0,0,1-.09-.64,1.69,1.69,0,0,1,.21-.86,1.79,1.79,0,0,1,.56-.6,2.57,2.57,0,0,1,.81-.34,4.21,4.21,0,0,1,1.72,0,7.25,7.25,0,0,1,.78.17v1.43a2.74,2.74,0,0,0-.73-.3,2.91,2.91,0,0,0-.76-.11,1.24,1.24,0,0,0-.33,0,1.07,1.07,0,0,0-.27.09.4.4,0,0,0-.18.16.34.34,0,0,0-.07.22.4.4,0,0,0,.1.28.9.9,0,0,0,.26.2,1.79,1.79,0,0,0,.37.15l.39.14a5.76,5.76,0,0,1,.65.28,2,2,0,0,1,.49.36,1.55,1.55,0,0,1,.32.48,1.82,1.82,0,0,1,.11.66,1.76,1.76,0,0,1-.23.91,1.81,1.81,0,0,1-.59.61,2.5,2.5,0,0,1-.85.35,4.64,4.64,0,0,1-1,.11A5,5,0,0,1,98.64,14.84Z"/><path d="M7.18,32H6.42a7,7,0,0,1-1.6-4.68,7.29,7.29,0,0,1,1.6-4.77h.77a7.38,7.38,0,0,0-1.63,4.75A7.25,7.25,0,0,0,7.18,32Z"/><path d="M14,30.24H12.9L9.09,24.1a3.58,3.58,0,0,1-.24-.48h0a8,8,0,0,1,0,1.06v5.56H8v-7.7H9.12l3.71,6a4.71,4.71,0,0,1,.3.52h0A9.37,9.37,0,0,1,13.1,28V22.54H14Z"/><path d="M17.74,30.37a2.39,2.39,0,0,1-1.87-.77,2.89,2.89,0,0,1-.7-2,3,3,0,0,1,.73-2.17,2.57,2.57,0,0,1,2-.78,2.32,2.32,0,0,1,1.84.76,3.06,3.06,0,0,1,.67,2.1,3,3,0,0,1-.72,2.11A2.43,2.43,0,0,1,17.74,30.37Zm.07-5a1.61,1.61,0,0,0-1.3.57,2.5,2.5,0,0,0-.47,1.6,2.31,2.31,0,0,0,.48,1.54,1.62,1.62,0,0,0,1.29.56,1.53,1.53,0,0,0,1.26-.55,2.52,2.52,0,0,0,.44-1.58,2.57,2.57,0,0,0-.44-1.59A1.53,1.53,0,0,0,17.81,25.36Z"/><path d="M26,30.24h-.84v-.93h0a2.1,2.1,0,0,1-3.42.32,3.14,3.14,0,0,1-.59-2,3.36,3.36,0,0,1,.66-2.18,2.15,2.15,0,0,1,1.76-.83,1.69,1.69,0,0,1,1.59.9h0V22.1H26Zm-.84-2.48V27a1.62,1.62,0,0,0-.43-1.13,1.38,1.38,0,0,0-1.07-.46,1.42,1.42,0,0,0-1.22.59A2.61,2.61,0,0,0,22,27.58a2.43,2.43,0,0,0,.43,1.5,1.36,1.36,0,0,0,1.14.55,1.42,1.42,0,0,0,1.15-.53A2,2,0,0,0,25.14,27.76Z"/><path d="M31.69,27.71H28a2,2,0,0,0,.48,1.42,1.61,1.61,0,0,0,1.25.5A2.53,2.53,0,0,0,31.32,29v.83a3,3,0,0,1-1.85.52,2.2,2.2,0,0,1-1.76-.75,3.18,3.18,0,0,1-.64-2.11,3.12,3.12,0,0,1,.7-2.09,2.22,2.22,0,0,1,1.74-.81,2,2,0,0,1,1.61.7,3,3,0,0,1,.57,1.94ZM30.82,27a1.84,1.84,0,0,0-.36-1.19,1.17,1.17,0,0,0-1-.42,1.33,1.33,0,0,0-1,.44A2.11,2.11,0,0,0,28,27Z"/><path d="M33,30.36a.54.54,0,0,1-.41-.18.59.59,0,0,1-.17-.42.63.63,0,0,1,.17-.43.56.56,0,0,1,.82,0,.63.63,0,0,1,.17.43.59.59,0,0,1-.17.42A.54.54,0,0,1,33,30.36Z"/><path d="M35.58,30a3.56,3.56,0,0,1-.53,2.09,1.72,1.72,0,0,1-1.5.73,1.6,1.6,0,0,1-.7-.17v-.82a1.4,1.4,0,0,0,.72.24c.78,0,1.16-.64,1.16-1.92V24.74h.85Zm-.41-6.66a.53.53,0,0,1-.39-.16.56.56,0,0,1-.16-.41.54.54,0,0,1,.16-.41.51.51,0,0,1,.39-.17.58.58,0,0,1,0,1.15Z"/><path d="M36.71,30V29.1a2.47,2.47,0,0,0,1.52.53c.75,0,1.12-.26,1.12-.77a.67.67,0,0,0-.1-.38,1.06,1.06,0,0,0-.25-.27,1.79,1.79,0,0,0-.39-.21l-.47-.2a5.16,5.16,0,0,1-.62-.29,2.2,2.2,0,0,1-.44-.33,1.17,1.17,0,0,1-.27-.42,1.57,1.57,0,0,1-.09-.56,1.4,1.4,0,0,1,.17-.68,1.54,1.54,0,0,1,.45-.5,2,2,0,0,1,.65-.3,2.78,2.78,0,0,1,.75-.11,3,3,0,0,1,1.23.25v.89a2.34,2.34,0,0,0-1.34-.39,1.45,1.45,0,0,0-.43.05,1.13,1.13,0,0,0-.33.16.79.79,0,0,0-.21.24.68.68,0,0,0-.07.32.8.8,0,0,0,.07.36.9.9,0,0,0,.22.26,2.3,2.3,0,0,0,.35.2l.47.2a4.68,4.68,0,0,1,.63.29,2.24,2.24,0,0,1,.48.33,1.28,1.28,0,0,1,.3.43,1.41,1.41,0,0,1,.11.57,1.36,1.36,0,0,1-.18.71,1.47,1.47,0,0,1-.46.5,2.22,2.22,0,0,1-.66.3,3.5,3.5,0,0,1-.8.09A2.88,2.88,0,0,1,36.71,30Z"/><path d="M47.23,22.54l-3.55,9h-.79l3.54-9Z"/><path d="M50.67,30.36a.53.53,0,0,1-.4-.18.59.59,0,0,1-.17-.42.63.63,0,0,1,.17-.43.53.53,0,0,1,.4-.18.56.56,0,0,1,.42.18.63.63,0,0,1,.17.43.59.59,0,0,1-.17.42A.56.56,0,0,1,50.67,30.36Z"/><path d="M58.5,30.24H57.43L53.62,24.1a2.16,2.16,0,0,1-.24-.48h0a8,8,0,0,1,0,1.06v5.56h-.87v-7.7h1.13l3.71,6c.15.25.25.43.3.52h0a9.37,9.37,0,0,1,0-1.13V22.54h.87Z"/><path d="M64.1,30.24H60.17v-7.7h3.76v.82H61v2.56h2.68v.81H61v2.7H64.1Z"/><path d="M69.64,23.36H67.5v6.88h-.86V23.36H64.5v-.82h5.14Z"/><path d="M76.4,22.54l-3.55,9h-.79l3.54-9Z"/><path d="M79.85,30.36a.54.54,0,0,1-.41-.18.59.59,0,0,1-.17-.42.63.63,0,0,1,.17-.43.56.56,0,0,1,.82,0,.63.63,0,0,1,.17.43.59.59,0,0,1-.17.42A.54.54,0,0,1,79.85,30.36Z"/><path d="M81.88,30.36a.54.54,0,0,1-.41-.18.59.59,0,0,1-.17-.42.63.63,0,0,1,.17-.43.56.56,0,0,1,.82,0,.63.63,0,0,1,.17.43.59.59,0,0,1-.17.42A.54.54,0,0,1,81.88,30.36Z"/><path d="M83.91,30.36a.54.54,0,0,1-.41-.18.59.59,0,0,1-.17-.42.63.63,0,0,1,.17-.43.56.56,0,0,1,.82,0,.63.63,0,0,1,.17.43.59.59,0,0,1-.17.42A.54.54,0,0,1,83.91,30.36Z"/><path d="M88.39,30.24v-7.7h2q3.91,0,3.92,3.76a3.84,3.84,0,0,1-1.09,2.86,3.93,3.93,0,0,1-2.91,1.08Zm.87-6.88v6.07h1.1a3.07,3.07,0,0,0,2.27-.81,3.12,3.12,0,0,0,.81-2.3c0-2-1-3-3-3Z"/><path d="M99.68,27.71H95.94a2.14,2.14,0,0,0,.48,1.42,1.61,1.61,0,0,0,1.25.5A2.51,2.51,0,0,0,99.31,29v.83a3,3,0,0,1-1.84.52,2.18,2.18,0,0,1-1.76-.75,3.13,3.13,0,0,1-.64-2.11,3.07,3.07,0,0,1,.7-2.09,2.19,2.19,0,0,1,1.74-.81,2,2,0,0,1,1.6.7,3,3,0,0,1,.57,1.94ZM98.81,27a1.83,1.83,0,0,0-.35-1.19,1.19,1.19,0,0,0-1-.42,1.33,1.33,0,0,0-1,.44A2,2,0,0,0,96,27Z"/><path d="M100.38,30V29.1a2.47,2.47,0,0,0,1.52.53c.74,0,1.12-.26,1.12-.77a.77.77,0,0,0-.1-.38,1,1,0,0,0-.26-.27,1.71,1.71,0,0,0-.38-.21l-.47-.2a4.52,4.52,0,0,1-.62-.29,1.74,1.74,0,0,1-.44-.33,1.17,1.17,0,0,1-.27-.42,1.57,1.57,0,0,1-.09-.56,1.3,1.3,0,0,1,.17-.68A1.44,1.44,0,0,1,101,25a2,2,0,0,1,.65-.3,2.67,2.67,0,0,1,.75-.11,3,3,0,0,1,1.23.25v.89a2.37,2.37,0,0,0-1.34-.39,1.45,1.45,0,0,0-.43.05,1,1,0,0,0-.33.16.79.79,0,0,0-.21.24.69.69,0,0,0-.08.32.8.8,0,0,0,.08.36.77.77,0,0,0,.22.26,1.9,1.9,0,0,0,.35.2l.47.2a6.21,6.21,0,0,1,.63.29,2.24,2.24,0,0,1,.48.33,1.28,1.28,0,0,1,.3.43,1.42,1.42,0,0,1,.1.57,1.36,1.36,0,0,1-.17.71,1.47,1.47,0,0,1-.46.5,2.28,2.28,0,0,1-.67.3,3.35,3.35,0,0,1-.79.09A2.88,2.88,0,0,1,100.38,30Z"/><path d="M108.71,30.24h-.85v-.86h0a1.76,1.76,0,0,1-1.63,1,1.68,1.68,0,0,1-1.23-.43,1.54,1.54,0,0,1-.45-1.16c0-1,.58-1.62,1.75-1.79l1.58-.23c0-.94-.36-1.4-1.09-1.4a2.52,2.52,0,0,0-1.72.67v-.9a3.21,3.21,0,0,1,1.79-.52c1.25,0,1.87.69,1.87,2.06Zm-.85-2.78-1.27.18a2,2,0,0,0-.89.31.88.88,0,0,0-.3.77.87.87,0,0,0,.27.66,1.05,1.05,0,0,0,.74.25,1.32,1.32,0,0,0,1-.46,1.68,1.68,0,0,0,.41-1.16Z"/><path d="M112.8,25.63a1.06,1.06,0,0,0-.64-.17,1.07,1.07,0,0,0-.91.53,2.55,2.55,0,0,0-.36,1.45v2.8H110v-5.5h.85v1.14h0a1.92,1.92,0,0,1,.55-.91,1.22,1.22,0,0,1,.83-.32,1.39,1.39,0,0,1,.51.07Z"/><path d="M116.21,25.63a1.06,1.06,0,0,0-.64-.17,1,1,0,0,0-.9.53,2.47,2.47,0,0,0-.37,1.45v2.8h-.85v-5.5h.85v1.14h0a1.94,1.94,0,0,1,.56-.91,1.19,1.19,0,0,1,.83-.32,1.29,1.29,0,0,1,.5.07Z"/><path d="M119.08,30.37a2.37,2.37,0,0,1-1.87-.77,2.89,2.89,0,0,1-.7-2,3,3,0,0,1,.73-2.17,2.55,2.55,0,0,1,2-.78,2.35,2.35,0,0,1,1.85.76,3.11,3.11,0,0,1,.66,2.1,3,3,0,0,1-.71,2.11A2.46,2.46,0,0,1,119.08,30.37Zm.06-5a1.6,1.6,0,0,0-1.29.57,2.44,2.44,0,0,0-.48,1.6,2.31,2.31,0,0,0,.48,1.54,1.64,1.64,0,0,0,1.29.56,1.5,1.5,0,0,0,1.26-.55,2.46,2.46,0,0,0,.45-1.58,2.51,2.51,0,0,0-.45-1.59A1.5,1.5,0,0,0,119.14,25.36Z"/><path d="M123.65,30.24h-.85V22.1h.85Z"/><path d="M126,30.24h-.85V22.1H126Z"/><path d="M131.19,30.24h-.85v-.86h0a1.76,1.76,0,0,1-1.63,1,1.7,1.7,0,0,1-1.24-.43,1.58,1.58,0,0,1-.44-1.16c0-1,.58-1.62,1.74-1.79l1.59-.23c0-.94-.36-1.4-1.09-1.4a2.56,2.56,0,0,0-1.73.67v-.9a3.22,3.22,0,0,1,1.8-.52c1.24,0,1.87.69,1.87,2.06Zm-.85-2.78-1.28.18a2,2,0,0,0-.89.31,1,1,0,0,0,0,1.43,1,1,0,0,0,.74.25,1.33,1.33,0,0,0,1-.46,1.68,1.68,0,0,0,.41-1.16Z"/><path d="M137,30.24h-.84v-.93h0a2.1,2.1,0,0,1-3.42.32,3.14,3.14,0,0,1-.59-2,3.36,3.36,0,0,1,.66-2.18,2.15,2.15,0,0,1,1.76-.83,1.69,1.69,0,0,1,1.59.9h0V22.1H137Zm-.84-2.48V27a1.62,1.62,0,0,0-.43-1.13,1.38,1.38,0,0,0-1.07-.46,1.43,1.43,0,0,0-1.22.59,2.61,2.61,0,0,0-.45,1.63,2.43,2.43,0,0,0,.43,1.5,1.37,1.37,0,0,0,1.15.55,1.41,1.41,0,0,0,1.14-.53A2,2,0,0,0,136.19,27.76Z"/><path d="M140.7,30.37a2.39,2.39,0,0,1-1.88-.77,2.94,2.94,0,0,1-.7-2,3.08,3.08,0,0,1,.73-2.17,2.57,2.57,0,0,1,2-.78,2.36,2.36,0,0,1,1.85.76,3.11,3.11,0,0,1,.66,2.1,3,3,0,0,1-.72,2.11A2.42,2.42,0,0,1,140.7,30.37Zm.06-5a1.57,1.57,0,0,0-1.29.57,2.44,2.44,0,0,0-.48,1.6,2.31,2.31,0,0,0,.48,1.54,1.62,1.62,0,0,0,1.29.56,1.51,1.51,0,0,0,1.26-.55,2.52,2.52,0,0,0,.44-1.58,2.57,2.57,0,0,0-.44-1.59A1.51,1.51,0,0,0,140.76,25.36Z"/><path d="M147.18,25.63a1.12,1.12,0,0,0-1.55.36,2.55,2.55,0,0,0-.36,1.45v2.8h-.85v-5.5h.85v1.14h0a1.92,1.92,0,0,1,.55-.91,1.22,1.22,0,0,1,.83-.32,1.39,1.39,0,0,1,.51.07Z"/><path d="M152.08,27.71h-3.73a2,2,0,0,0,.48,1.42,1.6,1.6,0,0,0,1.25.5,2.53,2.53,0,0,0,1.64-.61v.83a3,3,0,0,1-1.85.52,2.2,2.2,0,0,1-1.76-.75,3.18,3.18,0,0,1-.64-2.11,3.12,3.12,0,0,1,.7-2.09,2.22,2.22,0,0,1,1.74-.81,2,2,0,0,1,1.61.7,3,3,0,0,1,.56,1.94Zm-.86-.74a1.84,1.84,0,0,0-.36-1.19,1.18,1.18,0,0,0-1-.42,1.33,1.33,0,0,0-1,.44,2.11,2.11,0,0,0-.52,1.17Z"/><path d="M152.78,30V29.1a2.47,2.47,0,0,0,1.53.53c.74,0,1.11-.26,1.11-.77a.76.76,0,0,0-.09-.38,1.1,1.1,0,0,0-.26-.27,2,2,0,0,0-.38-.21l-.48-.2a4.36,4.36,0,0,1-.61-.29,2,2,0,0,1-.45-.33,1.17,1.17,0,0,1-.27-.42,1.57,1.57,0,0,1-.09-.56,1.4,1.4,0,0,1,.17-.68,1.57,1.57,0,0,1,.46-.5,1.94,1.94,0,0,1,.65-.3,2.67,2.67,0,0,1,.75-.11,3,3,0,0,1,1.23.25v.89a2.38,2.38,0,0,0-1.35-.39,1.45,1.45,0,0,0-.43.05,1.07,1.07,0,0,0-.32.16.71.71,0,0,0-.22.24.68.68,0,0,0-.07.32.8.8,0,0,0,.07.36.9.9,0,0,0,.22.26,2,2,0,0,0,.36.2l.47.2a6.21,6.21,0,0,1,.63.29,2.44,2.44,0,0,1,.47.33,1.28,1.28,0,0,1,.3.43,1.41,1.41,0,0,1,.11.57,1.46,1.46,0,0,1-.17.71,1.5,1.5,0,0,1-.47.5,2.22,2.22,0,0,1-.66.3,3.42,3.42,0,0,1-.79.09A2.89,2.89,0,0,1,152.78,30Z"/><path d="M157.35,32h-.76a7.25,7.25,0,0,0,1.61-4.7,7.43,7.43,0,0,0-1.62-4.75h.77A7.3,7.3,0,0,1,159,27.31,7,7,0,0,1,157.35,32Z"/><path class="cls-13" d="M161.42,148.84h-2.06l-.6-1.87h-3l-.59,1.87h-2l3.06-8.4h2.24Zm-3.09-3.32-.91-2.83a4,4,0,0,1-.14-.75h0a3.06,3.06,0,0,1-.15.73l-.91,2.85Z"/><path class="cls-13" d="M167,148.84h-5.39v-.77l3-3.87H162v-1.36h5v.91l-2.86,3.72H167Z"/><path class="cls-13" d="M173.74,148.84h-1.85v-.92h0A2.09,2.09,0,0,1,170,149c-1.39,0-2.09-.84-2.09-2.52v-3.62h1.85v3.45c0,.85.33,1.28,1,1.28a1,1,0,0,0,.8-.35,1.42,1.42,0,0,0,.3-1v-3.43h1.85Z"/><path class="cls-13" d="M179.21,144.51a1.63,1.63,0,0,0-.78-.18,1.11,1.11,0,0,0-.94.44,1.84,1.84,0,0,0-.34,1.2v2.87h-1.86v-6h1.86V144h0a1.6,1.6,0,0,1,1.58-1.22,1.43,1.43,0,0,1,.46.07Z"/><path class="cls-13" d="M185.41,146.37H181.5c.06.87.61,1.3,1.65,1.3a3.14,3.14,0,0,0,1.74-.47v1.34a4.65,4.65,0,0,1-2.17.44,2.79,2.79,0,0,1-3.05-2.49,4.34,4.34,0,0,1,0-.51,3.29,3.29,0,0,1,.86-2.37,2.91,2.91,0,0,1,2.14-.87,2.63,2.63,0,0,1,2,.78,3,3,0,0,1,.71,2.12Zm-1.71-1.14c0-.86-.33-1.29-1-1.29a1,1,0,0,0-.77.37,1.73,1.73,0,0,0-.39.92Z"/><path class="cls-13" d="M189.62,148.52v-1.88a3.42,3.42,0,0,0,1.11.64,3.59,3.59,0,0,0,1.21.22,2.56,2.56,0,0,0,.62-.07,1.14,1.14,0,0,0,.44-.18.7.7,0,0,0,.27-.27.63.63,0,0,0,.09-.33.77.77,0,0,0-.14-.44,1.48,1.48,0,0,0-.39-.36,4,4,0,0,0-.57-.32l-.72-.31a3.54,3.54,0,0,1-1.47-1,2.23,2.23,0,0,1-.48-1.43,2.34,2.34,0,0,1,.26-1.13,2.13,2.13,0,0,1,.72-.77,2.88,2.88,0,0,1,1.05-.45,5.36,5.36,0,0,1,1.26-.15,7.67,7.67,0,0,1,1.17.08,4.91,4.91,0,0,1,.93.25v1.75a3,3,0,0,0-.46-.26,5.17,5.17,0,0,0-.51-.18,3,3,0,0,0-.52-.11H193a2.88,2.88,0,0,0-.59.06,1.85,1.85,0,0,0-.44.18.77.77,0,0,0-.28.26.62.62,0,0,0-.1.35.73.73,0,0,0,.11.38,1.22,1.22,0,0,0,.32.32,3.5,3.5,0,0,0,.49.29c.2.1.42.19.67.3a9.37,9.37,0,0,1,.9.44,3.29,3.29,0,0,1,.69.54,2.15,2.15,0,0,1,.44.68,2.5,2.5,0,0,1,.15.9,2.41,2.41,0,0,1-.27,1.18,2.05,2.05,0,0,1-.72.77,3.08,3.08,0,0,1-1.06.43,6.28,6.28,0,0,1-1.3.1,7.35,7.35,0,0,1-1.32-.11A4.45,4.45,0,0,1,189.62,148.52Z"/><path class="cls-13" d="M199.88,148.77a2.92,2.92,0,0,1-1.24.21,1.75,1.75,0,0,1-1.95-2V144.2h-1v-1.36h1v-1.3l1.84-.52v1.82h1.35v1.36h-1.35v2.43c0,.62.25.94.75.94a1.39,1.39,0,0,0,.6-.17Z"/><path class="cls-13" d="M205.92,148.84h-1.76V148h0a2,2,0,0,1-1.79,1,1.87,1.87,0,0,1-1.37-.49,1.79,1.79,0,0,1-.5-1.32c0-1.17.69-1.84,2.07-2l1.63-.21c0-.66-.36-1-1.07-1a3.57,3.57,0,0,0-2,.64V143.2a4.91,4.91,0,0,1,1.06-.36,6.26,6.26,0,0,1,1.22-.15,2.27,2.27,0,0,1,2.57,1.93,2.22,2.22,0,0,1,0,.63Zm-1.74-2.44V146l-1.09.14c-.61.07-.91.35-.91.81a.73.73,0,0,0,.22.52.87.87,0,0,0,.6.2,1.11,1.11,0,0,0,.85-.36A1.33,1.33,0,0,0,204.18,146.4Z"/><path class="cls-13" d="M211.93,148.62a3.65,3.65,0,0,1-1.81.36,3,3,0,0,1-2.24-.83A2.89,2.89,0,0,1,207,146a3.18,3.18,0,0,1,.92-2.41,3.45,3.45,0,0,1,2.45-.88,3.25,3.25,0,0,1,1.54.28v1.57a2.16,2.16,0,0,0-1.3-.43,1.65,1.65,0,0,0-1.26.47,2,2,0,0,0,0,2.53,1.59,1.59,0,0,0,1.22.46,2.45,2.45,0,0,0,1.36-.44Z"/><path class="cls-13" d="M219.15,148.84h-2.22l-1.91-3h0v3h-1.85V140H215v5.65h0l1.78-2.77H219l-2.15,2.82Z"/><path class="cls-13" d="M230.61,148.84h-1.9v-3.42h-3.48v3.42h-1.89v-8.4h1.89v3.35h3.48v-3.35h1.9Z"/><path class="cls-13" d="M238.05,148.84h-1.84v-.92h0a2.09,2.09,0,0,1-1.83,1.06c-1.39,0-2.09-.84-2.09-2.52v-3.62h1.85v3.45c0,.85.33,1.28,1,1.28a1,1,0,0,0,.8-.35,1.42,1.42,0,0,0,.3-.95v-3.43h1.84Z"/><path class="cls-13" d="M241.49,148.14h0v.7h-1.85V140h1.85v3.78h0a2.18,2.18,0,0,1,1.95-1.05,2.14,2.14,0,0,1,1.79.8,3.52,3.52,0,0,1,.62,2.18,3.72,3.72,0,0,1-.73,2.41,2.41,2.41,0,0,1-2,.9A1.88,1.88,0,0,1,241.49,148.14Zm-.05-2.53v.61a1.46,1.46,0,0,0,.33,1,1.1,1.1,0,0,0,.86.38,1.16,1.16,0,0,0,1-.49,2.35,2.35,0,0,0,.35-1.39,1.91,1.91,0,0,0-.32-1.16,1.09,1.09,0,0,0-.92-.42,1.18,1.18,0,0,0-.92.42A1.56,1.56,0,0,0,241.44,145.61Z"/><path class="cls-13" d="M191.69,70h-2.06l-.6-1.87h-3L185.45,70h-2l3.06-8.4h2.24Zm-3.09-3.32-.91-2.83a4,4,0,0,1-.14-.75h0a3.06,3.06,0,0,1-.15.73l-.91,2.85Z"/><path class="cls-13" d="M197.31,70h-5.39v-.77l3-3.86H192.2V64h5.07v.91l-2.86,3.72h2.88Z"/><path class="cls-13" d="M204,70h-1.85v-.91h0a2.1,2.1,0,0,1-1.83,1.06c-1.39,0-2.09-.85-2.09-2.53V64h1.85v3.46c0,.84.33,1.27,1,1.27a1,1,0,0,0,.8-.35,1.42,1.42,0,0,0,.3-.95V64H204Z"/><path class="cls-13" d="M209.48,65.67a1.63,1.63,0,0,0-.78-.18,1.11,1.11,0,0,0-.94.44,2,2,0,0,0-.34,1.2V70h-1.86V64h1.86v1.11h0A1.6,1.6,0,0,1,209,63.89a1.43,1.43,0,0,1,.46.07Z"/><path class="cls-13" d="M215.68,67.53h-3.91c.06.87.61,1.3,1.65,1.3a3.22,3.22,0,0,0,1.74-.46V69.7a4.53,4.53,0,0,1-2.17.45,2.79,2.79,0,0,1-3.05-2.5,2.62,2.62,0,0,1,0-.56,3.18,3.18,0,0,1,.86-2.36,2.87,2.87,0,0,1,2.14-.88,2.63,2.63,0,0,1,2,.78,3,3,0,0,1,.71,2.12ZM214,66.39q0-1.29-1.05-1.29a1,1,0,0,0-.77.37,1.65,1.65,0,0,0-.39.92Z"/></g></svg>