<svg xmlns="http://www.w3.org/2000/svg" xmlns:xlink="http://www.w3.org/1999/xlink" viewBox="0 0 395 201.5"><defs><style>.cls-1{fill:#fff;}.cls-2,.cls-8{fill:#3c3c41;}.cls-2,.cls-6{opacity:0.08;}.cls-2,.cls-3,.cls-4,.cls-5,.cls-6,.cls-7,.cls-8,.cls-9{isolation:isolate;}.cls-3,.cls-4,.cls-5{opacity:0.7;}.cls-3{fill:url(#Degradado_sin_nombre);}.cls-4{fill:url(#Degradado_sin_nombre_2);}.cls-5{fill:url(#Degradado_sin_nombre_3);}.cls-6{fill:#0078d4;}.cls-7,.cls-9{fill:none;stroke-miterlimit:10;stroke-width:0.5px;}.cls-7{stroke:#0078d4;opacity:0.6;}.cls-8{opacity:0.15;}.cls-9{stroke:#3c3c41;opacity:0.5;}.cls-10{fill:url(#Degradado_sin_nombre_4);}.cls-11{fill:#f2f2f2;}.cls-12{fill:#1e1e1e;}</style><linearGradient id="Degradado_sin_nombre" x1="62.5" y1="201.89" x2="62.5" y2="26.89" gradientTransform="matrix(1, 0, 0, -1, 0, 201.89)" gradientUnits="userSpaceOnUse"><stop offset="0" stop-color="#5ea0ef"/><stop offset="0.18" stop-color="#559cec"/><stop offset="0.47" stop-color="#3c91e5"/><stop offset="0.84" stop-color="#1380da"/><stop offset="1" stop-color="#0078d4"/></linearGradient><linearGradient id="Degradado_sin_nombre_2" x1="197.5" y1="201.89" x2="197.5" y2="26.89" xlink:href="#Degradado_sin_nombre"/><linearGradient id="Degradado_sin_nombre_3" x1="332.5" y1="201.89" x2="332.5" y2="26.89" xlink:href="#Degradado_sin_nombre"/><linearGradient id="Degradado_sin_nombre_4" x1="146.77" y1="486.39" x2="146.77" y2="509.39" gradientTransform="translate(0 -307.89)" xlink:href="#Degradado_sin_nombre"/></defs><g id="bg"><g id="Shapes"><rect class="cls-1" x="135" width="260" height="195"/><rect class="cls-2" x="135" width="260" height="195"/><rect class="cls-1" width="125" height="175"/><rect class="cls-3" width="125" height="175"/><rect class="cls-1" x="135" width="125" height="175"/><rect class="cls-4" x="135" width="125" height="175"/><rect class="cls-1" x="270" width="125" height="175"/><rect class="cls-5" x="270" width="125" height="175"/><rect class="cls-1" x="5" y="40" width="250" height="40"/><rect class="cls-6" x="5" y="40" width="250" height="40"/><rect class="cls-7" x="5" y="40" width="250" height="40"/><rect class="cls-1" x="140" y="85" width="250" height="40"/><rect class="cls-8" x="140" y="85" width="250" height="40"/><rect class="cls-9" x="140" y="85" width="250" height="40"/><rect class="cls-1" x="5" y="85" width="115" height="50"/><rect class="cls-6" x="5" y="85" width="115" height="50"/><rect class="cls-7" x="5" y="85" width="115" height="50"/><rect class="cls-1" x="5" y="140" width="115" height="25"/><rect class="cls-6" x="5" y="140" width="115" height="25"/><rect class="cls-7" x="5" y="140" width="115" height="25"/><rect class="cls-1" x="140" y="140" width="250" height="25"/><rect class="cls-8" x="140" y="140" width="250" height="25"/><rect class="cls-9" x="140" y="140" width="250" height="25"/><path class="cls-10" d="M153.53,179.27v21.46a.75.75,0,0,1-.74.77h-12a.75.75,0,0,1-.77-.74V179.27a.75.75,0,0,1,.74-.77h12a.75.75,0,0,1,.77.74Z"/><path id="a1bc77ea-5288-41a0-8f9a-2d282cf54a86" class="cls-11" d="M141.8,180.89h2.26a.21.21,0,0,1,.19.19v2.85a.19.19,0,0,1-.19.18H141.8a.18.18,0,0,1-.2-.16v-2.87A.2.2,0,0,1,141.8,180.89Zm3.87,0h2.19a.2.2,0,0,1,.19.19h0v2.85a.18.18,0,0,1-.18.18h-2.2a.18.18,0,0,1-.19-.17h0v-2.85a.2.2,0,0,1,.19-.19Zm3.87,0h2.19a.2.2,0,0,1,.2.19v2.85a.18.18,0,0,1-.18.18h-2.21a.18.18,0,0,1-.19-.17h0v-2.85a.2.2,0,0,1,.19-.19Zm-7.74,5.16h2.26a.2.2,0,0,1,.19.19h0v2.84a.19.19,0,0,1-.18.2H141.8a.2.2,0,0,1-.2-.2v-2.84a.19.19,0,0,1,.19-.19Zm3.87,0h2.19a.18.18,0,0,1,.19.17v0h0v2.84a.19.19,0,0,1-.18.2h-2.2a.19.19,0,0,1-.19-.19h0v-2.84a.18.18,0,0,1,.17-.19Zm3.87,0h2.19a.19.19,0,0,1,.2.18h0v2.84a.2.2,0,0,1-.2.2h-2.19a.19.19,0,0,1-.19-.19h0v-2.84a.18.18,0,0,1,.17-.19Zm-7.74,5.17h2.26a.2.2,0,0,1,.19.19h0v2.84a.21.21,0,0,1-.19.19H141.8a.2.2,0,0,1-.2-.19v-2.9a.2.2,0,0,1,.2-.13Zm3.87,0h2.19a.19.19,0,0,1,.25.1h0v2.84a.2.2,0,0,1-.19.19h-2.26a.18.18,0,0,1-.19-.17v0h0v-2.84a.18.18,0,0,1,.2-.1Zm0,5.15h2.19a.2.2,0,0,1,.19.19h0v4.26a.18.18,0,0,1-.17.19h-2.21a.18.18,0,0,1-.19-.17v-4.28a.2.2,0,0,1,.19-.19Zm3.87-5.15h2.19a.19.19,0,0,1,.2.18h0v2.84a.2.2,0,0,1-.2.19h-2.19a.2.2,0,0,1-.19-.19h0v-2.9a.18.18,0,0,1,.19-.13Z"/></g><path class="cls-12" d="M54.28,17H52.22l-.6-1.87h-3L48,17H46l3.06-8.4H51.3Zm-3.09-3.32-.9-2.83a2.76,2.76,0,0,1-.14-.75h0a3.06,3.06,0,0,1-.15.73l-1,2.85Z"/><path class="cls-12" d="M60.21,17H54.83v-.77l3-3.86h-2.7V11h5.06v.91l-2.86,3.72h2.88Z"/><path class="cls-12" d="M67,17H65.13v-.91h0a2.1,2.1,0,0,1-1.83,1.06c-1.39,0-2.09-.85-2.09-2.53V11H63v3.46c0,.84.33,1.27,1,1.27a1,1,0,0,0,.8-.35,1.43,1.43,0,0,0,.3-1V11H67Z"/><path class="cls-12" d="M72.42,12.67a1.75,1.75,0,0,0-.78-.18,1.14,1.14,0,0,0-1,.44,2,2,0,0,0-.34,1.2V17H68.5V11h1.85v1.11h0A1.6,1.6,0,0,1,72,10.89a1.43,1.43,0,0,1,.46.07Z"/><path class="cls-12" d="M78.74,14.53H74.83c.06.87.61,1.3,1.65,1.3a3.22,3.22,0,0,0,1.74-.46V16.7a4.53,4.53,0,0,1-2.17.45,3,3,0,0,1-2.25-.81,3,3,0,0,1-.8-2.25,3.18,3.18,0,0,1,.86-2.36A2.87,2.87,0,0,1,76,10.85a2.63,2.63,0,0,1,2,.78,3,3,0,0,1,.71,2.12ZM77,13.39c0-.86-.33-1.29-1-1.29a1,1,0,0,0-.77.37,1.65,1.65,0,0,0-.39.92Z"/></g><g id="txt"><path class="cls-12" d="M293.61,16.07h-2.1l-.61-1.93h-3l-.6,1.93h-2.08l3.11-8.65h2.28Zm-3.15-3.42-.92-2.91A4.41,4.41,0,0,1,289.4,9h0a3.3,3.3,0,0,1-.15.76l-.93,2.93Z"/><path class="cls-12" d="M299.32,16.07h-5.48v-.79l3.07-4h-2.76V9.89h5.15v.94l-2.91,3.83h2.93Z"/><path class="cls-12" d="M306.13,16.07h-1.88v-.94h0a2.1,2.1,0,0,1-1.86,1.09c-1.42,0-2.12-.87-2.12-2.6V9.89h1.87v3.56c0,.87.35,1.31,1,1.31a1,1,0,0,0,.81-.36,1.46,1.46,0,0,0,.3-1V9.89h1.88Z"/><path class="cls-12" d="M311.69,11.61a1.65,1.65,0,0,0-.79-.18,1.14,1.14,0,0,0-1,.45,2,2,0,0,0-.34,1.24v3h-1.89V9.89h1.89V11h0a1.62,1.62,0,0,1,1.61-1.25,1.14,1.14,0,0,1,.46.07Z"/><path class="cls-12" d="M318,13.52h-4c.07.9.62,1.35,1.68,1.35a3.26,3.26,0,0,0,1.77-.48v1.37a4.58,4.58,0,0,1-2.2.46,3.1,3.1,0,0,1-2.3-.83,3.16,3.16,0,0,1-.81-2.31,3.32,3.32,0,0,1,.88-2.44,2.92,2.92,0,0,1,2.17-.9,2.64,2.64,0,0,1,2.06.8,3.12,3.12,0,0,1,.73,2.18Zm-1.74-1.17c0-.88-.36-1.32-1.06-1.32a1,1,0,0,0-.79.38,1.75,1.75,0,0,0-.4.94Z"/><path class="cls-12" d="M322.28,15.74V13.81a3.8,3.8,0,0,0,1.13.66,3.7,3.7,0,0,0,1.22.22,2.41,2.41,0,0,0,.64-.07,1.32,1.32,0,0,0,.45-.18.8.8,0,0,0,.27-.28.7.7,0,0,0,.09-.35.77.77,0,0,0-.14-.45,2,2,0,0,0-.39-.37,4,4,0,0,0-.59-.32l-.73-.32a3.7,3.7,0,0,1-1.49-1,2.28,2.28,0,0,1-.5-1.47,2.38,2.38,0,0,1,.27-1.17,2.21,2.21,0,0,1,.73-.79,3.35,3.35,0,0,1,1.07-.47,6,6,0,0,1,1.29-.14,7,7,0,0,1,1.18.08,4.56,4.56,0,0,1,1,.25v1.8a2.37,2.37,0,0,0-.47-.26,3.24,3.24,0,0,0-.52-.19,5,5,0,0,0-.53-.12l-.5,0a2.77,2.77,0,0,0-.6.06,1.32,1.32,0,0,0-.45.18,1,1,0,0,0-.29.27.65.65,0,0,0-.1.36.71.71,0,0,0,.11.39,1.65,1.65,0,0,0,.32.33,3.83,3.83,0,0,0,.51.3c.2.1.42.2.67.3a7.88,7.88,0,0,1,.92.46,3.07,3.07,0,0,1,.7.56,2,2,0,0,1,.45.7,2.56,2.56,0,0,1,.16.92,2.36,2.36,0,0,1-.28,1.21,2.16,2.16,0,0,1-.73.8,3.27,3.27,0,0,1-1.08.44,6.1,6.1,0,0,1-1.3.13,7.18,7.18,0,0,1-1.34-.12A4.06,4.06,0,0,1,322.28,15.74Z"/><path class="cls-12" d="M332.71,16a2.88,2.88,0,0,1-1.25.22c-1.33,0-2-.7-2-2.09V11.3h-1V9.89h1V8.56L331.34,8V9.89h1.37V11.3h-1.37v2.5c0,.64.25,1,.76,1a1.31,1.31,0,0,0,.61-.17Z"/><path class="cls-12" d="M338.85,16.07h-1.78v-.89h0a2,2,0,0,1-1.81,1,1.88,1.88,0,0,1-1.4-.51,1.83,1.83,0,0,1-.51-1.36q0-1.8,2.1-2.07l1.66-.23c0-.67-.36-1-1.09-1a3.68,3.68,0,0,0-2.07.66V10.26A4.23,4.23,0,0,1,335,9.9a5.27,5.27,0,0,1,1.24-.16,2.32,2.32,0,0,1,2.61,2.64Zm-1.77-2.51v-.42l-1.11.15c-.61.08-.92.36-.92.84a.7.7,0,0,0,.23.53.83.83,0,0,0,.6.21,1.16,1.16,0,0,0,.87-.37A1.37,1.37,0,0,0,337.08,13.56Z"/><path class="cls-12" d="M345,15.85a3.78,3.78,0,0,1-1.84.37,3.12,3.12,0,0,1-2.28-.86,3,3,0,0,1-.87-2.23,3.28,3.28,0,0,1,.94-2.48,3.43,3.43,0,0,1,2.49-.91A3.19,3.19,0,0,1,345,10v1.62a2.11,2.11,0,0,0-1.32-.45,1.72,1.72,0,0,0-1.28.48,1.79,1.79,0,0,0-.47,1.33,1.77,1.77,0,0,0,.45,1.28,1.66,1.66,0,0,0,1.24.47,2.46,2.46,0,0,0,1.38-.45Z"/><path class="cls-12" d="M352.31,16.07h-2.26L348.1,13h0v3.06h-1.89V6.93h1.89v5.82h0l1.82-2.86h2.23L350,12.79Z"/><path class="cls-12" d="M364,16.07H362V12.55h-3.54v3.52h-1.92V7.42h1.92v3.45H362V7.42H364Z"/><path class="cls-12" d="M371.52,16.07h-1.87v-.94h0a2.13,2.13,0,0,1-1.87,1.09c-1.41,0-2.12-.87-2.12-2.6V9.89h1.88v3.56c0,.87.34,1.31,1,1.31a1,1,0,0,0,.81-.36,1.41,1.41,0,0,0,.31-1V9.89h1.87Z"/><path class="cls-12" d="M375,15.35h0v.72h-1.88V6.93H375v3.89h0a2.39,2.39,0,0,1,3.8-.26,3.62,3.62,0,0,1,.63,2.25,3.81,3.81,0,0,1-.74,2.47,2.41,2.41,0,0,1-2,.94A1.9,1.9,0,0,1,375,15.35Zm-.06-2.6v.63a1.49,1.49,0,0,0,.34,1,1.11,1.11,0,0,0,.87.39,1.17,1.17,0,0,0,1-.5,2.44,2.44,0,0,0,.35-1.43,1.94,1.94,0,0,0-.32-1.2,1.12,1.12,0,0,0-.93-.43,1.19,1.19,0,0,0-.94.43A1.7,1.7,0,0,0,375,12.75Z"/><path class="cls-12" d="M330.46,30.37h-1.93V26.85H325v3.52h-1.93V21.72H325v3.45h3.54V21.72h1.93Z"/><path class="cls-12" d="M338.54,30.06a5.55,5.55,0,0,1-2.45.46A4.08,4.08,0,0,1,333,29.35a4.32,4.32,0,0,1-1.13-3.12,4.61,4.61,0,0,1,1.27-3.36,4.4,4.4,0,0,1,3.29-1.29,6,6,0,0,1,2.11.32v1.87a3.8,3.8,0,0,0-2-.52,2.58,2.58,0,0,0-1.94.77,2.87,2.87,0,0,0-.74,2.07,2.77,2.77,0,0,0,.7,2,2.43,2.43,0,0,0,1.87.75,4,4,0,0,0,2.07-.56Z"/><path class="cls-12" d="M342,30.37H340V21.72H342Z"/><path class="cls-12" d="M159,17.23h-2.1l-.61-1.92h-3l-.6,1.92h-2.08l3.11-8.65H156Zm-3.15-3.42L155,10.9a4.46,4.46,0,0,1-.14-.77h-.05a3.32,3.32,0,0,1-.15.75l-.92,2.93Z"/><path class="cls-12" d="M164.73,17.23h-5.48v-.79l3.07-4h-2.76V11.05h5.15V12l-2.91,3.82h2.93Z"/><path class="cls-12" d="M171.54,17.23h-1.88v-.94h0a2.1,2.1,0,0,1-1.86,1.09c-1.42,0-2.12-.87-2.12-2.6V11.05h1.87v3.56c0,.88.35,1.31,1,1.31a1,1,0,0,0,.81-.36,1.46,1.46,0,0,0,.3-1V11.05h1.88Z"/><path class="cls-12" d="M177.1,12.77a1.65,1.65,0,0,0-.79-.18,1.14,1.14,0,0,0-1,.45,2,2,0,0,0-.34,1.24v3h-1.89V11.05H175V12.2h0A1.62,1.62,0,0,1,176.64,11a1.14,1.14,0,0,1,.46.07Z"/><path class="cls-12" d="M183.41,14.68h-4c.07.9.62,1.35,1.68,1.35a3.26,3.26,0,0,0,1.77-.48v1.37a4.58,4.58,0,0,1-2.2.46,3.1,3.1,0,0,1-2.3-.83,3.16,3.16,0,0,1-.81-2.31,3.32,3.32,0,0,1,.88-2.44,2.92,2.92,0,0,1,2.17-.9,2.62,2.62,0,0,1,2.06.81,3.08,3.08,0,0,1,.73,2.17Zm-1.74-1.16c0-.89-.36-1.33-1.06-1.33a1,1,0,0,0-.79.38,1.75,1.75,0,0,0-.4.95Z"/><path class="cls-12" d="M187.69,16.9V15a3.8,3.8,0,0,0,1.13.66,3.46,3.46,0,0,0,1.22.22,2.41,2.41,0,0,0,.64-.07,1.32,1.32,0,0,0,.45-.18.8.8,0,0,0,.27-.28.7.7,0,0,0,.09-.35.8.8,0,0,0-.14-.45,2,2,0,0,0-.39-.37,4,4,0,0,0-.59-.32l-.73-.32a3.7,3.7,0,0,1-1.49-1,2.28,2.28,0,0,1-.5-1.47,2.34,2.34,0,0,1,.27-1.16,2.24,2.24,0,0,1,.73-.8,3.35,3.35,0,0,1,1.07-.47A6,6,0,0,1,191,8.44a7,7,0,0,1,1.18.08,4.56,4.56,0,0,1,.95.25v1.8a2.37,2.37,0,0,0-.47-.26,3.24,3.24,0,0,0-.52-.19,3.33,3.33,0,0,0-.53-.11,3,3,0,0,0-.5,0,2.77,2.77,0,0,0-.6.06,1.32,1.32,0,0,0-.45.18,1,1,0,0,0-.29.27.65.65,0,0,0-.1.36.71.71,0,0,0,.11.39,1.42,1.42,0,0,0,.32.33,3.83,3.83,0,0,0,.51.3c.2.1.42.2.67.3a6.56,6.56,0,0,1,.92.47,3.05,3.05,0,0,1,.71.55,2.13,2.13,0,0,1,.44.7,2.56,2.56,0,0,1,.16.92,2.46,2.46,0,0,1-.27,1.21,2.28,2.28,0,0,1-.74.8,3.27,3.27,0,0,1-1.08.44,6.1,6.1,0,0,1-1.3.13,7.18,7.18,0,0,1-1.34-.12A4.06,4.06,0,0,1,187.69,16.9Z"/><path class="cls-12" d="M198.12,17.16a2.76,2.76,0,0,1-1.26.22c-1.32,0-2-.7-2-2.09V12.46h-1V11.05h1V9.72l1.87-.54v1.87h1.37v1.41h-1.37V15c0,.64.25,1,.76,1a1.31,1.31,0,0,0,.61-.17Z"/><path class="cls-12" d="M204.26,17.23h-1.78v-.89h0a2,2,0,0,1-1.81,1,1.88,1.88,0,0,1-1.4-.51,1.83,1.83,0,0,1-.51-1.36q0-1.8,2.1-2.07l1.66-.23c0-.67-.36-1-1.09-1a3.68,3.68,0,0,0-2.07.66V11.42a4.66,4.66,0,0,1,1.08-.36,5.86,5.86,0,0,1,1.24-.16,2.32,2.32,0,0,1,2.61,2.64Zm-1.77-2.51v-.41l-1.11.14c-.61.08-.92.36-.92.84a.69.69,0,0,0,.23.53.83.83,0,0,0,.6.21,1.13,1.13,0,0,0,.87-.37A1.37,1.37,0,0,0,202.49,14.72Z"/><path class="cls-12" d="M210.37,17a3.67,3.67,0,0,1-1.84.37,3.12,3.12,0,0,1-2.28-.86,3,3,0,0,1-.87-2.23,3.32,3.32,0,0,1,.94-2.48,3.43,3.43,0,0,1,2.49-.91,3.19,3.19,0,0,1,1.56.29v1.62a2.11,2.11,0,0,0-1.32-.45,1.72,1.72,0,0,0-1.28.48,1.79,1.79,0,0,0-.47,1.33,1.77,1.77,0,0,0,.45,1.28,1.62,1.62,0,0,0,1.24.47,2.46,2.46,0,0,0,1.38-.45Z"/><path class="cls-12" d="M217.72,17.23h-2.26l-2-3.06h0v3.06H211.6V8.09h1.89v5.82h0l1.82-2.86h2.23L215.38,14Z"/><path class="cls-12" d="M229.37,17.23h-1.93V13.71H223.9v3.52H222V8.58h1.92V12h3.54V8.58h1.93Z"/><path class="cls-12" d="M236.93,17.23h-1.87v-.94h0a2.13,2.13,0,0,1-1.87,1.09c-1.41,0-2.12-.87-2.12-2.6V11.05h1.88v3.56c0,.88.34,1.31,1,1.31a1,1,0,0,0,.81-.36,1.41,1.41,0,0,0,.31-1V11.05h1.87Z"/><path class="cls-12" d="M240.43,16.51h0v.72h-1.88V8.09h1.88V12h0a2.39,2.39,0,0,1,3.8-.26,3.62,3.62,0,0,1,.63,2.25,3.86,3.86,0,0,1-.74,2.48,2.42,2.42,0,0,1-2,.93A1.9,1.9,0,0,1,240.43,16.51Zm-.06-2.6v.63a1.49,1.49,0,0,0,.34,1,1.11,1.11,0,0,0,.87.39,1.17,1.17,0,0,0,1-.5,2.44,2.44,0,0,0,.35-1.43,1.94,1.94,0,0,0-.32-1.2,1.12,1.12,0,0,0-.93-.43,1.19,1.19,0,0,0-.93.43A1.65,1.65,0,0,0,240.37,13.91Z"/><path class="cls-12" d="M23.86,55.76H22.78l-.88-2.35H18.38l-.83,2.35H16.47l3.19-8.4h1Zm-2.28-3.24-1.3-3.58a4.87,4.87,0,0,1-.13-.56h0a3.36,3.36,0,0,1-.13.56l-1.29,3.58Z"/><path class="cls-12" d="M29,50l-3.51,4.9h3.47v.82H24.06v-.3l3.51-4.88H24.39v-.82H29Z"/><path class="cls-12" d="M34.87,55.76h-.95v-.95h0a1.93,1.93,0,0,1-1.82,1.09c-1.42,0-2.12-.85-2.12-2.55V49.76h.94v3.43c0,1.27.48,1.9,1.44,1.9a1.43,1.43,0,0,0,1.14-.52,2,2,0,0,0,.45-1.35V49.76h.95Z"/><path class="cls-12" d="M39.76,50.73a1.16,1.16,0,0,0-.72-.19,1.2,1.2,0,0,0-1,.58,2.72,2.72,0,0,0-.41,1.58v3.06h-1v-6h1V51h0a2.08,2.08,0,0,1,.62-1,1.35,1.35,0,0,1,.93-.35,1.47,1.47,0,0,1,.57.08Z"/><path class="cls-12" d="M45.43,53H41.25a2.25,2.25,0,0,0,.53,1.55,1.82,1.82,0,0,0,1.4.54A2.86,2.86,0,0,0,45,54.42v.91A3.43,3.43,0,0,1,43,55.9a2.48,2.48,0,0,1-2-.82,3.35,3.35,0,0,1-.72-2.3,3.28,3.28,0,0,1,.79-2.28A2.48,2.48,0,0,1,43,49.62a2.2,2.2,0,0,1,1.8.76,3.18,3.18,0,0,1,.64,2.12Zm-1-.81a2,2,0,0,0-.4-1.3A1.33,1.33,0,0,0,43,50.43a1.53,1.53,0,0,0-1.14.48,2.18,2.18,0,0,0-.58,1.28Z"/><path class="cls-12" d="M51,52.58v3.18H50v-8.4h2.28a3,3,0,0,1,2.07.65,2.37,2.37,0,0,1,.73,1.86,2.55,2.55,0,0,1-.81,2,3.1,3.1,0,0,1-2.2.76Zm0-4.33v3.44h1a2.25,2.25,0,0,0,1.54-.46,1.67,1.67,0,0,0,.53-1.32c0-1.11-.65-1.66-1.94-1.66Z"/><path class="cls-12" d="M58.43,55.9a2.72,2.72,0,0,1-2.09-.84,3.1,3.1,0,0,1-.79-2.23,3.24,3.24,0,0,1,.82-2.36,2.89,2.89,0,0,1,2.2-.85,2.63,2.63,0,0,1,2.07.83A3.77,3.77,0,0,1,60.58,55,2.8,2.8,0,0,1,58.43,55.9Zm.07-5.47a1.77,1.77,0,0,0-1.44.63,2.59,2.59,0,0,0-.54,1.74,2.46,2.46,0,0,0,.54,1.68,1.82,1.82,0,0,0,1.44.61,1.73,1.73,0,0,0,1.42-.6,3.28,3.28,0,0,0,0-3.45A1.71,1.71,0,0,0,58.5,50.43Z"/><path class="cls-12" d="M65.88,50.73a1.16,1.16,0,0,0-.72-.19,1.2,1.2,0,0,0-1,.58,2.72,2.72,0,0,0-.41,1.58v3.06h-.95v-6h.95V51h0a2.08,2.08,0,0,1,.62-1,1.35,1.35,0,0,1,.93-.35,1.5,1.5,0,0,1,.57.08Z"/><path class="cls-12" d="M69.54,55.7a1.78,1.78,0,0,1-.89.19c-1,0-1.56-.59-1.56-1.76V50.58h-1v-.82h1V48.3L68,48v1.77h1.5v.82H68V54a1.37,1.37,0,0,0,.21.86.79.79,0,0,0,.67.26,1,1,0,0,0,.62-.2Z"/><path class="cls-12" d="M74.93,55.76H74v-.94h0a2,2,0,0,1-1.83,1.08,1.94,1.94,0,0,1-1.38-.47,1.64,1.64,0,0,1-.5-1.26c0-1.12.65-1.78,2-2L74,52c0-1-.41-1.53-1.22-1.53a2.88,2.88,0,0,0-1.94.74v-1a3.72,3.72,0,0,1,2-.56c1.39,0,2.09.75,2.09,2.24Zm-1-3-1.43.19a2.43,2.43,0,0,0-1,.34,1,1,0,0,0-.33.84.89.89,0,0,0,.31.71,1.15,1.15,0,0,0,.82.28,1.51,1.51,0,0,0,1.17-.5A1.79,1.79,0,0,0,74,53.32Z"/><path class="cls-12" d="M77.55,55.76h-1V46.88h1Z"/><path class="cls-12" d="M80.22,54.42l-.93,2.89h-.67l.67-2.89Z"/><path class="cls-12" d="M91.48,55.76H90.41l-.88-2.35H86l-.83,2.35H84.1l3.18-8.4h1Zm-2.27-3.24-1.3-3.58a2.59,2.59,0,0,1-.13-.56h0a2.59,2.59,0,0,1-.13.56l-1.29,3.58Z"/><path class="cls-12" d="M93.56,52.58v3.18h-1v-8.4h2.28a3,3,0,0,1,2.06.65,2.37,2.37,0,0,1,.73,1.86,2.55,2.55,0,0,1-.81,2,3.08,3.08,0,0,1-2.2.76Zm0-4.33v3.44h1a2.24,2.24,0,0,0,1.53-.46,1.64,1.64,0,0,0,.53-1.32c0-1.11-.65-1.66-1.94-1.66Z"/><path class="cls-12" d="M100.08,55.76h-1v-8.4h1Z"/><path class="cls-12" d="M102.88,54.42,102,57.31h-.68l.68-2.89Z"/><path class="cls-12" d="M108.69,55.76h-1v-8.4h1Z"/><path class="cls-12" d="M114.87,55.76h-1v-.94h0a2.15,2.15,0,0,1-3.21.61,1.68,1.68,0,0,1-.5-1.26c0-1.12.65-1.78,2-2l1.77-.25c0-1-.4-1.53-1.22-1.53a2.85,2.85,0,0,0-1.93.74v-1a3.66,3.66,0,0,1,2-.56c1.4,0,2.09.75,2.09,2.24Zm-1-3-1.43.19a2.32,2.32,0,0,0-1,.34,1,1,0,0,0-.34.84.92.92,0,0,0,.31.71,1.18,1.18,0,0,0,.83.28,1.47,1.47,0,0,0,1.16-.5,1.79,1.79,0,0,0,.46-1.27Z"/><path class="cls-12" d="M120.79,55.76h-1v-.94h0a2.15,2.15,0,0,1-3.21.61,1.68,1.68,0,0,1-.5-1.26c0-1.12.66-1.78,2-2l1.78-.25c0-1-.41-1.53-1.22-1.53a2.88,2.88,0,0,0-1.94.74v-1a3.72,3.72,0,0,1,2-.56c1.39,0,2.09.75,2.09,2.24Zm-1-3-1.43.19a2.43,2.43,0,0,0-1,.34,1,1,0,0,0-.33.84.89.89,0,0,0,.31.71,1.15,1.15,0,0,0,.82.28,1.51,1.51,0,0,0,1.17-.5,1.83,1.83,0,0,0,.46-1.27Z"/><path class="cls-12" d="M122.2,55.42V54.26a2.15,2.15,0,0,0,.47.32,3.34,3.34,0,0,0,.58.23,3.2,3.2,0,0,0,.61.15,2.89,2.89,0,0,0,.56.06,2.22,2.22,0,0,0,1.34-.34,1.15,1.15,0,0,0,.45-1,1.13,1.13,0,0,0-.15-.59,1.6,1.6,0,0,0-.41-.46,4.3,4.3,0,0,0-.61-.4l-.77-.4q-.43-.22-.81-.45a3.85,3.85,0,0,1-.66-.51,2,2,0,0,1-.43-.62,1.91,1.91,0,0,1-.16-.82,1.93,1.93,0,0,1,.25-1,2.17,2.17,0,0,1,.65-.7,3.07,3.07,0,0,1,.92-.41,4.22,4.22,0,0,1,1.06-.13,4,4,0,0,1,1.79.3v1.1a3.24,3.24,0,0,0-1.89-.51,2.85,2.85,0,0,0-.64.07,1.46,1.46,0,0,0-.56.22,1.27,1.27,0,0,0-.41.39,1.06,1.06,0,0,0-.15.58,1.22,1.22,0,0,0,.12.56,1.17,1.17,0,0,0,.35.43,3.2,3.2,0,0,0,.56.37c.22.12.48.26.77.4s.58.31.84.47a3.55,3.55,0,0,1,.7.55,2.38,2.38,0,0,1,.48.66,1.84,1.84,0,0,1,.18.83,2.14,2.14,0,0,1-.24,1,2,2,0,0,1-.65.7,2.83,2.83,0,0,1-.94.39,5.15,5.15,0,0,1-1.13.12l-.48,0c-.2,0-.39,0-.59-.09l-.57-.16A1.74,1.74,0,0,1,122.2,55.42Z"/><path class="cls-12" d="M136.48,49.76l-2.72,7c-.49,1.24-1.17,1.86-2,1.86a2.16,2.16,0,0,1-.62-.07v-.86a1.7,1.7,0,0,0,.56.1,1.17,1.17,0,0,0,1.08-.86l.47-1.14-2.32-6h1.06l1.6,4.62q0,.09.12.45h0l.11-.44,1.69-4.63Z"/><path class="cls-12" d="M141.61,52.58v3.18h-1v-8.4h2.28A3,3,0,0,1,145,48a2.37,2.37,0,0,1,.73,1.86,2.55,2.55,0,0,1-.81,2,3.07,3.07,0,0,1-2.2.76Zm0-4.33v3.44h1a2.28,2.28,0,0,0,1.54-.46,1.67,1.67,0,0,0,.53-1.32c0-1.11-.65-1.66-1.95-1.66Z"/><path class="cls-12" d="M150.87,55.76h-1v-.94h0a2,2,0,0,1-1.83,1.08,1.94,1.94,0,0,1-1.38-.47,1.64,1.64,0,0,1-.5-1.26c0-1.12.65-1.78,1.95-2l1.78-.25c0-1-.41-1.53-1.22-1.53a2.88,2.88,0,0,0-1.94.74v-1a3.72,3.72,0,0,1,2-.56c1.39,0,2.09.75,2.09,2.24Zm-1-3-1.43.19a2.43,2.43,0,0,0-1,.34,1,1,0,0,0-.33.84.89.89,0,0,0,.31.71,1.15,1.15,0,0,0,.82.28,1.51,1.51,0,0,0,1.17-.5,1.79,1.79,0,0,0,.46-1.27Z"/><path class="cls-12" d="M156.78,55.76h-.95v-.94h0a2.15,2.15,0,0,1-3.21.61,1.68,1.68,0,0,1-.5-1.26c0-1.12.65-1.78,2-2l1.77-.25c0-1-.41-1.53-1.22-1.53a2.85,2.85,0,0,0-1.93.74v-1a3.66,3.66,0,0,1,2-.56c1.39,0,2.09.75,2.09,2.24Zm-.95-3-1.43.19a2.32,2.32,0,0,0-1,.34.93.93,0,0,0-.34.84.89.89,0,0,0,.31.71,1.18,1.18,0,0,0,.83.28,1.49,1.49,0,0,0,1.16-.5,1.79,1.79,0,0,0,.46-1.27Z"/><path class="cls-12" d="M158.19,55.42V54.26a2.42,2.42,0,0,0,.47.32,4.12,4.12,0,0,0,.58.23,3.39,3.39,0,0,0,.61.15,3.07,3.07,0,0,0,.57.06,2.24,2.24,0,0,0,1.34-.34,1.17,1.17,0,0,0,.44-1,1.13,1.13,0,0,0-.15-.59,1.56,1.56,0,0,0-.4-.46,4.43,4.43,0,0,0-.62-.4l-.77-.4q-.44-.22-.81-.45a3.41,3.41,0,0,1-.65-.51,1.89,1.89,0,0,1-.6-1.44,2,2,0,0,1,.25-1,2.29,2.29,0,0,1,.65-.7,3.13,3.13,0,0,1,.93-.41,4.14,4.14,0,0,1,1.05-.13,4,4,0,0,1,1.79.3v1.1a3.23,3.23,0,0,0-1.88-.51,2.73,2.73,0,0,0-.64.07,1.58,1.58,0,0,0-.57.22,1.24,1.24,0,0,0-.4.39,1,1,0,0,0-.16.58,1.22,1.22,0,0,0,.12.56,1.41,1.41,0,0,0,.35.43,3.2,3.2,0,0,0,.56.37c.23.12.48.26.77.4s.58.31.85.47a3.87,3.87,0,0,1,.7.55,2.16,2.16,0,0,1,.47.66,1.84,1.84,0,0,1,.18.83,2.14,2.14,0,0,1-.24,1,2,2,0,0,1-.65.7,2.74,2.74,0,0,1-.94.39,5.06,5.06,0,0,1-1.12.12l-.49,0-.59-.09-.57-.16A1.93,1.93,0,0,1,158.19,55.42Z"/><path class="cls-12" d="M172.48,49.76l-2.73,7c-.49,1.24-1.17,1.86-2.05,1.86a2.21,2.21,0,0,1-.62-.07v-.86a1.75,1.75,0,0,0,.56.1,1.17,1.17,0,0,0,1.08-.86l.47-1.14-2.31-6h1.05l1.61,4.62q0,.09.12.45h0c0-.09.06-.24.12-.44l1.68-4.63Z"/><path class="cls-12" d="M181.43,55.76h-1V52.3c0-1.25-.46-1.87-1.38-1.87a1.51,1.51,0,0,0-1.17.54,2,2,0,0,0-.48,1.39v3.4h-.94V46.88h.94v3.88h0a2.14,2.14,0,0,1,1.94-1.14c1.34,0,2,.81,2,2.44Z"/><path class="cls-12" d="M187.86,53h-4.19a2.3,2.3,0,0,0,.54,1.55,1.82,1.82,0,0,0,1.4.54,2.88,2.88,0,0,0,1.84-.67v.91a3.43,3.43,0,0,1-2.07.57,2.47,2.47,0,0,1-2-.82,3.35,3.35,0,0,1-.72-2.3,3.32,3.32,0,0,1,.78-2.28,2.52,2.52,0,0,1,1.95-.88,2.2,2.2,0,0,1,1.8.76,3.18,3.18,0,0,1,.64,2.12Zm-1-.81a2,2,0,0,0-.4-1.3,1.34,1.34,0,0,0-1.09-.46,1.56,1.56,0,0,0-1.14.48,2.23,2.23,0,0,0-.57,1.28Z"/><path class="cls-12" d="M192.27,50.73a1.16,1.16,0,0,0-.72-.19,1.18,1.18,0,0,0-1,.58,2.64,2.64,0,0,0-.41,1.58v3.06h-.95v-6h.95V51h0a2.16,2.16,0,0,1,.62-1,1.38,1.38,0,0,1,.93-.35,1.44,1.44,0,0,1,.57.08Z"/><path class="cls-12" d="M196.27,50.73a1.14,1.14,0,0,0-.72-.19,1.2,1.2,0,0,0-1,.58,2.64,2.64,0,0,0-.41,1.58v3.06h-.95v-6h.95V51h0a2.16,2.16,0,0,1,.62-1,1.38,1.38,0,0,1,.93-.35,1.44,1.44,0,0,1,.57.08Z"/><path class="cls-12" d="M201.43,55.76h-1v-.94h0a2.15,2.15,0,0,1-3.21.61,1.68,1.68,0,0,1-.5-1.26c0-1.12.65-1.78,2-2l1.78-.25q0-1.53-1.23-1.53a2.87,2.87,0,0,0-1.93.74v-1a3.69,3.69,0,0,1,2-.56c1.39,0,2.09.75,2.09,2.24Zm-1-3-1.43.19a2.37,2.37,0,0,0-1,.34,1,1,0,0,0-.34.84.92.92,0,0,0,.31.71,1.19,1.19,0,0,0,.83.28,1.51,1.51,0,0,0,1.17-.5,1.83,1.83,0,0,0,.46-1.27Z"/><path class="cls-12" d="M211.51,55.76h-.95V52.32a2.68,2.68,0,0,0-.3-1.45,1.18,1.18,0,0,0-1-.44,1.28,1.28,0,0,0-1,.56,2.21,2.21,0,0,0-.42,1.35v3.42h-.95V52.2q0-1.77-1.35-1.77a1.25,1.25,0,0,0-1,.53,2.2,2.2,0,0,0-.41,1.38v3.42h-.95v-6H204v1h0a2,2,0,0,1,1.84-1.09A1.7,1.7,0,0,1,207,50a1.79,1.79,0,0,1,.62.9,2.1,2.1,0,0,1,2-1.24c1.31,0,2,.81,2,2.44Z"/><path class="cls-12" d="M213.67,48.24a.58.58,0,0,1-.43-.18.59.59,0,0,1-.18-.44.61.61,0,0,1,.18-.45.58.58,0,0,1,.43-.18.62.62,0,0,1,.63.63.62.62,0,0,1-.18.44A.61.61,0,0,1,213.67,48.24Zm.47,7.52h-.95v-6h.95Z"/><path class="cls-12" d="M220.7,53h-4.18a2.25,2.25,0,0,0,.53,1.55,1.84,1.84,0,0,0,1.4.54,2.86,2.86,0,0,0,1.84-.67v.91a3.42,3.42,0,0,1-2.06.57,2.49,2.49,0,0,1-2-.82,3.85,3.85,0,0,1,.07-4.58,2.49,2.49,0,0,1,2-.88,2.22,2.22,0,0,1,1.8.76,3.23,3.23,0,0,1,.63,2.12Zm-1-.81a2,2,0,0,0-.4-1.3,1.33,1.33,0,0,0-1.08-.46,1.53,1.53,0,0,0-1.14.48,2.24,2.24,0,0,0-.58,1.28Z"/><path class="cls-12" d="M226.94,55.76H226V52.34c0-1.27-.46-1.91-1.38-1.91a1.48,1.48,0,0,0-1.17.54,2,2,0,0,0-.47,1.37v3.42H222v-6H223v1h0a2.14,2.14,0,0,1,1.95-1.14,1.8,1.8,0,0,1,1.49.64,2.85,2.85,0,0,1,.51,1.83Z"/><path class="cls-12" d="M231.36,55.7a1.74,1.74,0,0,1-.88.19c-1,0-1.56-.59-1.56-1.76V50.58h-1v-.82h1V48.3l1-.31v1.77h1.49v.82h-1.49V54a1.38,1.38,0,0,0,.2.86.82.82,0,0,0,.67.26,1,1,0,0,0,.62-.2Z"/><path class="cls-12" d="M236.75,55.76h-.95v-.94h0a2.15,2.15,0,0,1-3.21.61,1.68,1.68,0,0,1-.5-1.26c0-1.12.65-1.78,2-2L235.8,52c0-1-.4-1.53-1.22-1.53a2.85,2.85,0,0,0-1.93.74v-1a3.66,3.66,0,0,1,2-.56c1.4,0,2.09.75,2.09,2.24Zm-.95-3-1.43.19a2.32,2.32,0,0,0-1,.34,1.08,1.08,0,0,0,0,1.55,1.18,1.18,0,0,0,.83.28,1.47,1.47,0,0,0,1.16-.5,1.79,1.79,0,0,0,.46-1.27Z"/><path class="cls-12" d="M238.06,55.54v-1a2.78,2.78,0,0,0,1.71.58c.84,0,1.25-.28,1.25-.84a.76.76,0,0,0-.1-.41,1.14,1.14,0,0,0-.29-.29,2.52,2.52,0,0,0-.43-.24l-.53-.21a6.53,6.53,0,0,1-.69-.32,2.22,2.22,0,0,1-.5-.36,1.22,1.22,0,0,1-.3-.46,1.63,1.63,0,0,1-.1-.61,1.38,1.38,0,0,1,.19-.74,1.57,1.57,0,0,1,.51-.55,2.64,2.64,0,0,1,.72-.33,3.5,3.5,0,0,1,2.22.16v1a2.64,2.64,0,0,0-1.5-.43,1.75,1.75,0,0,0-.48.06,1.15,1.15,0,0,0-.37.17,1,1,0,0,0-.24.27.77.77,0,0,0-.08.34.87.87,0,0,0,.08.39,1,1,0,0,0,.25.29,2.36,2.36,0,0,0,.39.22l.53.22a5.83,5.83,0,0,1,.7.31,2.82,2.82,0,0,1,.54.36,1.57,1.57,0,0,1,.34.47,1.65,1.65,0,0,1,.11.63,1.49,1.49,0,0,1-.19.77,1.58,1.58,0,0,1-.52.54,2.17,2.17,0,0,1-.74.33,3.74,3.74,0,0,1-.89.1A3.33,3.33,0,0,1,238.06,55.54Z"/><path class="cls-12" d="M19.86,70.26h-.95v-1h0a2.19,2.19,0,0,1-2,1.16,2.21,2.21,0,0,1-1.78-.8,3.32,3.32,0,0,1-.67-2.2A3.62,3.62,0,0,1,15.14,65a2.42,2.42,0,0,1,2-.9,1.89,1.89,0,0,1,1.78,1h0V61.38h.95Zm-.95-2.71v-.89a1.77,1.77,0,0,0-.47-1.23,1.74,1.74,0,0,0-2.57.14,2.87,2.87,0,0,0-.5,1.78A2.54,2.54,0,0,0,15.85,69a1.55,1.55,0,0,0,1.28.6A1.61,1.61,0,0,0,18.42,69,2.15,2.15,0,0,0,18.91,67.55Z"/><path class="cls-12" d="M26.43,67.5H22.24a2.3,2.3,0,0,0,.54,1.55,1.82,1.82,0,0,0,1.4.54A2.86,2.86,0,0,0,26,68.92v.91A3.43,3.43,0,0,1,24,70.4a2.47,2.47,0,0,1-2-.82,3.35,3.35,0,0,1-.72-2.3A3.32,3.32,0,0,1,22,65,2.52,2.52,0,0,1,24,64.12a2.2,2.2,0,0,1,1.8.76A3.18,3.18,0,0,1,26.43,67Zm-1-.81a2,2,0,0,0-.4-1.3A1.33,1.33,0,0,0,24,64.93a1.56,1.56,0,0,0-1.15.48,2.23,2.23,0,0,0-.57,1.28Z"/><path class="cls-12" d="M35.12,70.26h-.95v-.94h0a2,2,0,0,1-1.83,1.08,1.94,1.94,0,0,1-1.38-.47,1.64,1.64,0,0,1-.5-1.26c0-1.12.65-1.78,1.95-2l1.78-.25c0-1-.41-1.53-1.22-1.53a2.88,2.88,0,0,0-1.94.74v-1a3.72,3.72,0,0,1,2-.56c1.39,0,2.09.75,2.09,2.24Zm-.95-3-1.43.19a2.43,2.43,0,0,0-1,.34,1,1,0,0,0-.33.84.89.89,0,0,0,.31.71,1.15,1.15,0,0,0,.82.28,1.51,1.51,0,0,0,1.17-.5,1.79,1.79,0,0,0,.46-1.27Z"/><path class="cls-12" d="M41.85,70.26h-1v-1h0a2.19,2.19,0,0,1-2,1.16,2.23,2.23,0,0,1-1.79-.8,3.32,3.32,0,0,1-.67-2.2A3.62,3.62,0,0,1,37.12,65a2.44,2.44,0,0,1,2-.9,1.88,1.88,0,0,1,1.77,1h0V61.38h1Zm-1-2.71v-.89a1.73,1.73,0,0,0-.48-1.23,1.58,1.58,0,0,0-1.2-.5,1.63,1.63,0,0,0-1.37.64,2.87,2.87,0,0,0-.5,1.78A2.54,2.54,0,0,0,37.83,69a1.56,1.56,0,0,0,1.28.6A1.61,1.61,0,0,0,40.4,69,2.16,2.16,0,0,0,40.9,67.55Z"/><path class="cls-12" d="M52.07,70.26h-1V66.82a2.58,2.58,0,0,0-.31-1.45,1.15,1.15,0,0,0-1-.44,1.27,1.27,0,0,0-1,.56,2.16,2.16,0,0,0-.43,1.35v3.42h-.95V66.7q0-1.77-1.35-1.77a1.26,1.26,0,0,0-1,.53,2.2,2.2,0,0,0-.4,1.38v3.42h-1v-6h1v.95h0a2,2,0,0,1,1.84-1.09,1.68,1.68,0,0,1,1.06.34,1.73,1.73,0,0,1,.62.9,2.11,2.11,0,0,1,2-1.24c1.3,0,2,.81,2,2.44Z"/><path class="cls-12" d="M54.23,62.74a.6.6,0,0,1-.44-.18.59.59,0,0,1-.18-.44.61.61,0,0,1,.18-.45.63.63,0,0,1,.88,0,.61.61,0,0,1,.18.45.62.62,0,0,1-.18.44A.6.6,0,0,1,54.23,62.74Zm.46,7.52h-.95v-6h.95Z"/><path class="cls-12" d="M61.41,70.26h-.94V66.84c0-1.27-.46-1.91-1.38-1.91a1.48,1.48,0,0,0-1.18.54,2,2,0,0,0-.47,1.37v3.42h-.95v-6h.95v1h0a2.12,2.12,0,0,1,1.94-1.14,1.79,1.79,0,0,1,1.49.64,2.85,2.85,0,0,1,.51,1.83Z"/><path class="cls-12" d="M63.57,62.74a.58.58,0,0,1-.43-.18.59.59,0,0,1-.18-.44.61.61,0,0,1,.18-.45.58.58,0,0,1,.43-.18.6.6,0,0,1,.44.18.62.62,0,0,1,.19.45.63.63,0,0,1-.19.44A.6.6,0,0,1,63.57,62.74ZM64,70.26h-1v-6h1Z"/><path class="cls-12" d="M65.48,70V69a2.76,2.76,0,0,0,1.71.58c.83,0,1.25-.28,1.25-.84a.76.76,0,0,0-.11-.41,1,1,0,0,0-.29-.29,2.19,2.19,0,0,0-.43-.24l-.53-.21c-.26-.11-.49-.21-.69-.32a2.22,2.22,0,0,1-.5-.36,1.52,1.52,0,0,1-.3-.46,1.63,1.63,0,0,1-.1-.61,1.38,1.38,0,0,1,.19-.74,1.78,1.78,0,0,1,.51-.55,2.57,2.57,0,0,1,.73-.33,3.34,3.34,0,0,1,.84-.11,3.4,3.4,0,0,1,1.38.27v1a2.67,2.67,0,0,0-1.51-.43,1.75,1.75,0,0,0-.48.06,1.4,1.4,0,0,0-.37.17.83.83,0,0,0-.23.27.67.67,0,0,0-.09.34.75.75,0,0,0,.09.39.81.81,0,0,0,.24.29,2.11,2.11,0,0,0,.4.22l.52.22a6.85,6.85,0,0,1,.71.31,2.73,2.73,0,0,1,.53.36,1.41,1.41,0,0,1,.34.47,1.48,1.48,0,0,1,.12.63,1.5,1.5,0,0,1-.2.77,1.65,1.65,0,0,1-.51.54,2.32,2.32,0,0,1-.75.33,3.68,3.68,0,0,1-.89.1A3.29,3.29,0,0,1,65.48,70Z"/><path class="cls-12" d="M73.5,70.2a1.78,1.78,0,0,1-.89.19c-1,0-1.55-.59-1.55-1.76V65.08H70v-.82h1V62.8l.94-.31v1.77h1.5v.82H72v3.38a1.37,1.37,0,0,0,.21.86.8.8,0,0,0,.67.26,1,1,0,0,0,.62-.2Z"/><path class="cls-12" d="M77.74,65.23A1.16,1.16,0,0,0,77,65a1.21,1.21,0,0,0-1,.58,2.72,2.72,0,0,0-.4,1.58v3.06h-.95v-6h.95V65.5h0a2.08,2.08,0,0,1,.62-1,1.38,1.38,0,0,1,.93-.35,1.44,1.44,0,0,1,.57.08Z"/><path class="cls-12" d="M82.89,70.26h-1v-.94h0a2.15,2.15,0,0,1-3.21.61,1.68,1.68,0,0,1-.5-1.26c0-1.12.65-1.78,2-2l1.77-.25c0-1-.4-1.53-1.22-1.53a2.85,2.85,0,0,0-1.93.74v-1a3.66,3.66,0,0,1,2-.56c1.4,0,2.09.75,2.09,2.24Zm-1-3-1.43.19a2.32,2.32,0,0,0-1,.34,1.08,1.08,0,0,0,0,1.55,1.18,1.18,0,0,0,.83.28,1.47,1.47,0,0,0,1.16-.5,1.79,1.79,0,0,0,.46-1.27Z"/><path class="cls-12" d="M89.62,70.26h-1v-1h0a2.38,2.38,0,0,1-3.82.36,3.32,3.32,0,0,1-.67-2.2A3.57,3.57,0,0,1,84.9,65a2.42,2.42,0,0,1,2-.9,1.89,1.89,0,0,1,1.78,1h0V61.38h1Zm-1-2.71v-.89a1.77,1.77,0,0,0-.47-1.23,1.74,1.74,0,0,0-2.57.14,2.87,2.87,0,0,0-.5,1.78A2.54,2.54,0,0,0,85.61,69a1.55,1.55,0,0,0,1.28.6A1.61,1.61,0,0,0,88.18,69,2.15,2.15,0,0,0,88.67,67.55Z"/><path class="cls-12" d="M93.9,70.4a2.76,2.76,0,0,1-2.1-.84A3.14,3.14,0,0,1,91,67.33,3.24,3.24,0,0,1,91.84,65a2.88,2.88,0,0,1,2.2-.85,2.66,2.66,0,0,1,2.07.83,3.81,3.81,0,0,1-.06,4.59A2.8,2.8,0,0,1,93.9,70.4ZM94,64.93a1.81,1.81,0,0,0-1.45.63A2.64,2.64,0,0,0,92,67.3,2.46,2.46,0,0,0,92.53,69a1.82,1.82,0,0,0,1.44.61,1.74,1.74,0,0,0,1.42-.6,3.28,3.28,0,0,0,0-3.45A1.72,1.72,0,0,0,94,64.93Z"/><path class="cls-12" d="M101.34,65.23a1.11,1.11,0,0,0-.71-.19,1.2,1.2,0,0,0-1,.58,2.72,2.72,0,0,0-.41,1.58v3.06h-1v-6h1V65.5h0a2.24,2.24,0,0,1,.62-1,1.39,1.39,0,0,1,.94-.35,1.41,1.41,0,0,1,.56.08Z"/><path class="cls-12" d="M110.44,70.26h-1v-1h0a2.38,2.38,0,0,1-3.82.36,3.32,3.32,0,0,1-.67-2.2,3.62,3.62,0,0,1,.74-2.38,2.42,2.42,0,0,1,2-.9,1.89,1.89,0,0,1,1.78,1h0V61.38h1Zm-1-2.71v-.89a1.77,1.77,0,0,0-.47-1.23,1.74,1.74,0,0,0-2.57.14,2.87,2.87,0,0,0-.5,1.78,2.54,2.54,0,0,0,.48,1.64,1.55,1.55,0,0,0,1.28.6A1.61,1.61,0,0,0,109,69,2.15,2.15,0,0,0,109.49,67.55Z"/><path class="cls-12" d="M117,67.5h-4.19a2.3,2.3,0,0,0,.54,1.55,1.82,1.82,0,0,0,1.4.54,2.86,2.86,0,0,0,1.84-.67v.91a3.43,3.43,0,0,1-2.07.57,2.47,2.47,0,0,1-2-.82,3.35,3.35,0,0,1-.72-2.3,3.32,3.32,0,0,1,.78-2.28,2.52,2.52,0,0,1,1.95-.88,2.2,2.2,0,0,1,1.8.76A3.18,3.18,0,0,1,117,67Zm-1-.81a2,2,0,0,0-.4-1.3,1.33,1.33,0,0,0-1.08-.46,1.56,1.56,0,0,0-1.15.48,2.23,2.23,0,0,0-.57,1.28Z"/><path class="cls-12" d="M122.4,70.26h-1V61.38h1Z"/><path class="cls-12" d="M128.45,70.26h-.95v-.94h0a2,2,0,0,1-1.83,1.08,1.94,1.94,0,0,1-1.38-.47,1.64,1.64,0,0,1-.5-1.26c0-1.12.65-1.78,2-2l1.78-.25c0-1-.41-1.53-1.22-1.53a2.85,2.85,0,0,0-1.93.74v-1a3.66,3.66,0,0,1,2-.56c1.39,0,2.09.75,2.09,2.24Zm-.95-3-1.43.19a2.32,2.32,0,0,0-1,.34.93.93,0,0,0-.34.84.89.89,0,0,0,.31.71,1.17,1.17,0,0,0,.82.28,1.49,1.49,0,0,0,1.17-.5,1.79,1.79,0,0,0,.46-1.27Z"/><path class="cls-12" d="M134.22,69.39h0V73h-.95V64.26h.95v1.06h0a2.24,2.24,0,0,1,2.05-1.2,2.16,2.16,0,0,1,1.79.81,3.32,3.32,0,0,1,.64,2.15A3.79,3.79,0,0,1,138,69.5a2.4,2.4,0,0,1-2,.9A2,2,0,0,1,134.22,69.39Zm0-2.42v.84a1.77,1.77,0,0,0,.48,1.26,1.55,1.55,0,0,0,1.21.52,1.58,1.58,0,0,0,1.35-.67,3,3,0,0,0,.49-1.85,2.41,2.41,0,0,0-.46-1.57,1.5,1.5,0,0,0-1.24-.57,1.67,1.67,0,0,0-1.33.58A2.19,2.19,0,0,0,134.2,67Z"/><path class="cls-12" d="M141.05,70.26h-1V61.38h1Z"/><path class="cls-12" d="M147.09,70.26h-.94v-.94h0a2.15,2.15,0,0,1-3.21.61,1.68,1.68,0,0,1-.5-1.26c0-1.12.65-1.78,2-2l1.78-.25q0-1.53-1.23-1.53a2.87,2.87,0,0,0-1.93.74v-1a3.66,3.66,0,0,1,2-.56c1.4,0,2.09.75,2.09,2.24Zm-.94-3-1.43.19a2.37,2.37,0,0,0-1,.34,1,1,0,0,0-.34.84.92.92,0,0,0,.31.71,1.18,1.18,0,0,0,.83.28,1.51,1.51,0,0,0,1.17-.5,1.83,1.83,0,0,0,.46-1.27Z"/><path class="cls-12" d="M151.51,70.2a1.72,1.72,0,0,1-.88.19c-1,0-1.56-.59-1.56-1.76V65.08h-1v-.82h1V62.8l1-.31v1.77h1.49v.82H150v3.38a1.45,1.45,0,0,0,.2.86.82.82,0,0,0,.67.26,1,1,0,0,0,.62-.2Z"/><path class="cls-12" d="M156.91,70.26H156v-.94h0a2.15,2.15,0,0,1-3.21.61,1.68,1.68,0,0,1-.5-1.26c0-1.12.66-1.78,2-2l1.78-.25c0-1-.41-1.53-1.22-1.53a2.88,2.88,0,0,0-1.94.74v-1a3.69,3.69,0,0,1,2-.56c1.39,0,2.09.75,2.09,2.24Zm-.95-3-1.43.19a2.37,2.37,0,0,0-1,.34,1,1,0,0,0-.33.84.89.89,0,0,0,.31.71,1.15,1.15,0,0,0,.82.28,1.51,1.51,0,0,0,1.17-.5,1.83,1.83,0,0,0,.46-1.27Z"/><path class="cls-12" d="M161.5,62.22a1.28,1.28,0,0,0-.63-.16c-.66,0-1,.43-1,1.27v.93h1.39v.82h-1.39v5.18h-.95V65.08h-1v-.82h1v-1a2,2,0,0,1,.54-1.49,1.8,1.8,0,0,1,1.35-.55,1.84,1.84,0,0,1,.68.1Z"/><path class="cls-12" d="M164.65,70.4a2.73,2.73,0,0,1-2.1-.84,3.1,3.1,0,0,1-.79-2.23,3.24,3.24,0,0,1,.82-2.36,2.89,2.89,0,0,1,2.2-.85,2.63,2.63,0,0,1,2.07.83,3.79,3.79,0,0,1,0,4.59A2.83,2.83,0,0,1,164.65,70.4Zm.06-5.47a1.77,1.77,0,0,0-1.44.63,2.59,2.59,0,0,0-.54,1.74,2.46,2.46,0,0,0,.54,1.68,1.82,1.82,0,0,0,1.44.61,1.73,1.73,0,0,0,1.42-.6,3.28,3.28,0,0,0,0-3.45A1.71,1.71,0,0,0,164.71,64.93Z"/><path class="cls-12" d="M172.09,65.23a1.16,1.16,0,0,0-.72-.19,1.2,1.2,0,0,0-1,.58,2.72,2.72,0,0,0-.41,1.58v3.06H169v-6h.94V65.5h0a2.08,2.08,0,0,1,.62-1,1.37,1.37,0,0,1,.93-.35,1.47,1.47,0,0,1,.57.08Z"/><path class="cls-12" d="M181.41,70.26h-.95V66.82a2.68,2.68,0,0,0-.3-1.45,1.15,1.15,0,0,0-1-.44,1.25,1.25,0,0,0-1,.56,2.16,2.16,0,0,0-.43,1.35v3.42h-1V66.7q0-1.77-1.35-1.77a1.26,1.26,0,0,0-1,.53,2.2,2.2,0,0,0-.4,1.38v3.42H173v-6H174v.95h0a2,2,0,0,1,1.84-1.09,1.68,1.68,0,0,1,1.06.34,1.73,1.73,0,0,1,.62.9,2.1,2.1,0,0,1,2-1.24c1.3,0,1.95.81,1.95,2.44Z"/><path class="cls-12" d="M187.33,70.26h-1v-.94h0a2.15,2.15,0,0,1-3.21.61,1.68,1.68,0,0,1-.5-1.26c0-1.12.65-1.78,2-2l1.77-.25c0-1-.4-1.53-1.22-1.53a2.85,2.85,0,0,0-1.93.74v-1a3.66,3.66,0,0,1,2-.56c1.4,0,2.09.75,2.09,2.24Zm-1-3-1.43.19a2.32,2.32,0,0,0-1,.34,1.08,1.08,0,0,0,0,1.55,1.18,1.18,0,0,0,.83.28,1.47,1.47,0,0,0,1.16-.5,1.79,1.79,0,0,0,.46-1.27Z"/><path class="cls-12" d="M196.89,67.5h-4.18a2.25,2.25,0,0,0,.53,1.55,1.84,1.84,0,0,0,1.4.54,2.86,2.86,0,0,0,1.84-.67v.91a3.42,3.42,0,0,1-2.06.57,2.49,2.49,0,0,1-2-.82,3.89,3.89,0,0,1,.07-4.58,2.49,2.49,0,0,1,2-.88,2.22,2.22,0,0,1,1.8.76,3.23,3.23,0,0,1,.63,2.12Zm-1-.81a2,2,0,0,0-.39-1.3,1.35,1.35,0,0,0-1.09-.46,1.53,1.53,0,0,0-1.14.48,2.24,2.24,0,0,0-.58,1.28Z"/><path class="cls-12" d="M203.13,70.26h-.95V66.84c0-1.27-.46-1.91-1.38-1.91a1.48,1.48,0,0,0-1.17.54,2,2,0,0,0-.47,1.37v3.42h-.95v-6h.95v1h0a2.14,2.14,0,0,1,1.95-1.14,1.8,1.8,0,0,1,1.49.64,2.85,2.85,0,0,1,.51,1.83Z"/><path class="cls-12" d="M208.88,70.26h-.95V61.38h.95Z"/><path class="cls-12" d="M214.93,70.26h-1v-.94h0a2.15,2.15,0,0,1-3.21.61,1.68,1.68,0,0,1-.5-1.26c0-1.12.65-1.78,2-2l1.78-.25q0-1.53-1.23-1.53a2.87,2.87,0,0,0-1.93.74v-1a3.69,3.69,0,0,1,2-.56c1.39,0,2.09.75,2.09,2.24Zm-1-3-1.43.19a2.37,2.37,0,0,0-1,.34,1,1,0,0,0-.34.84.92.92,0,0,0,.31.71,1.19,1.19,0,0,0,.83.28,1.51,1.51,0,0,0,1.17-.5,1.83,1.83,0,0,0,.46-1.27Z"/><path class="cls-12" d="M224.64,70.26h-.95V66.84c0-1.27-.45-1.91-1.37-1.91a1.48,1.48,0,0,0-1.18.54,2,2,0,0,0-.47,1.37v3.42h-.95v-6h.95v1h0a2.12,2.12,0,0,1,1.94-1.14,1.79,1.79,0,0,1,1.49.64,2.85,2.85,0,0,1,.51,1.83Z"/><path class="cls-12" d="M231.11,70.26h-1v-1h0a1.93,1.93,0,0,1-1.82,1.09c-1.42,0-2.12-.85-2.12-2.55V64.26h.94v3.43c0,1.27.48,1.9,1.44,1.9a1.43,1.43,0,0,0,1.14-.52,2,2,0,0,0,.45-1.35V64.26h1Z"/><path class="cls-12" d="M233.88,69.39h0v.87h-.94V61.38h.94v3.94h0a2.23,2.23,0,0,1,2.05-1.2,2.15,2.15,0,0,1,1.78.81,3.32,3.32,0,0,1,.65,2.15,3.73,3.73,0,0,1-.73,2.42,2.4,2.4,0,0,1-2,.9A1.92,1.92,0,0,1,233.88,69.39Zm0-2.42v.84a1.77,1.77,0,0,0,.48,1.26,1.56,1.56,0,0,0,1.21.52,1.59,1.59,0,0,0,1.36-.67,3.11,3.11,0,0,0,.49-1.85,2.47,2.47,0,0,0-.46-1.57,1.51,1.51,0,0,0-1.24-.57,1.66,1.66,0,0,0-1.33.58A2.15,2.15,0,0,0,233.85,67Z"/><path class="cls-12" d="M244.52,67.5h-4.19a2.3,2.3,0,0,0,.54,1.55,1.82,1.82,0,0,0,1.4.54,2.88,2.88,0,0,0,1.84-.67v.91a3.43,3.43,0,0,1-2.07.57,2.47,2.47,0,0,1-2-.82,3.35,3.35,0,0,1-.72-2.3,3.32,3.32,0,0,1,.78-2.28,2.52,2.52,0,0,1,2-.88,2.2,2.2,0,0,1,1.8.76,3.18,3.18,0,0,1,.64,2.12Zm-1-.81a2,2,0,0,0-.4-1.3,1.34,1.34,0,0,0-1.09-.46,1.56,1.56,0,0,0-1.14.48,2.23,2.23,0,0,0-.57,1.28Z"/><path class="cls-12" d="M207.13,101.86H206l-1.39-2.36c-.13-.22-.26-.4-.37-.56a2.15,2.15,0,0,0-.37-.37,1.36,1.36,0,0,0-.41-.22,1.75,1.75,0,0,0-.49-.07h-.79v3.58h-1v-8.4h2.48a3.51,3.51,0,0,1,1,.13,2.43,2.43,0,0,1,.8.42,1.84,1.84,0,0,1,.53.7,2.61,2.61,0,0,1,.06,1.79,2,2,0,0,1-.37.65,2.13,2.13,0,0,1-.58.49,2.76,2.76,0,0,1-.76.32v0a1.88,1.88,0,0,1,.37.21,2.64,2.64,0,0,1,.29.29,4,4,0,0,1,.27.37l.31.48Zm-5-7.51v3h1.31a1.87,1.87,0,0,0,.68-.11,1.42,1.42,0,0,0,.53-.32,1.57,1.57,0,0,0,.36-.51,1.78,1.78,0,0,0,.13-.67,1.35,1.35,0,0,0-.44-1.06,1.82,1.82,0,0,0-1.24-.37Z"/><path class="cls-12" d="M212.44,99.1h-4.18a2.25,2.25,0,0,0,.53,1.55,1.84,1.84,0,0,0,1.4.54,2.86,2.86,0,0,0,1.84-.67v.9A3.35,3.35,0,0,1,210,102a2.49,2.49,0,0,1-2-.82,3.89,3.89,0,0,1,.07-4.58,2.49,2.49,0,0,1,1.95-.88,2.22,2.22,0,0,1,1.8.76,3.22,3.22,0,0,1,.63,2.11Zm-1-.82a2,2,0,0,0-.39-1.29,1.36,1.36,0,0,0-1.09-.46,1.53,1.53,0,0,0-1.14.48,2.24,2.24,0,0,0-.58,1.27Z"/><path class="cls-12" d="M218.82,101.86h-.95v-1h0a2.19,2.19,0,0,1-2,1.16,2.22,2.22,0,0,1-1.79-.81,3.35,3.35,0,0,1-.66-2.19,3.61,3.61,0,0,1,.74-2.39,2.44,2.44,0,0,1,2-.89,1.9,1.9,0,0,1,1.78,1h0V93h.95Zm-.95-2.71v-.89A1.77,1.77,0,0,0,217.4,97a1.58,1.58,0,0,0-1.21-.5,1.61,1.61,0,0,0-1.36.64,2.79,2.79,0,0,0-.5,1.78,2.56,2.56,0,0,0,.48,1.64,1.53,1.53,0,0,0,1.28.6,1.61,1.61,0,0,0,1.29-.58A2.17,2.17,0,0,0,217.87,99.15Z"/><path class="cls-12" d="M225.39,99.1H221.2a2.3,2.3,0,0,0,.54,1.55,1.81,1.81,0,0,0,1.4.54,2.88,2.88,0,0,0,1.84-.67v.9a3.37,3.37,0,0,1-2.07.58,2.47,2.47,0,0,1-2-.82,3.35,3.35,0,0,1-.72-2.3A3.32,3.32,0,0,1,221,96.6a2.5,2.5,0,0,1,1.95-.88,2.2,2.2,0,0,1,1.8.76,3.22,3.22,0,0,1,.64,2.11Zm-1-.82A2,2,0,0,0,224,97a1.34,1.34,0,0,0-1.09-.46,1.56,1.56,0,0,0-1.14.48,2.31,2.31,0,0,0-.58,1.27Z"/><path class="cls-12" d="M226.35,101.64v-1a2.73,2.73,0,0,0,1.7.58c.84,0,1.25-.28,1.25-.84a.76.76,0,0,0-.1-.41,1.17,1.17,0,0,0-.29-.3,2.86,2.86,0,0,0-.43-.23L228,99.2c-.26-.11-.49-.21-.69-.32a2.22,2.22,0,0,1-.5-.36,1.52,1.52,0,0,1-.3-.46,1.66,1.66,0,0,1-.1-.61,1.44,1.44,0,0,1,.19-.75,1.74,1.74,0,0,1,.51-.54,2.16,2.16,0,0,1,.72-.33,3.05,3.05,0,0,1,.85-.11A3.32,3.32,0,0,1,230,96v1a2.62,2.62,0,0,0-1.5-.43,1.75,1.75,0,0,0-.48.06,1.26,1.26,0,0,0-.37.17.78.78,0,0,0-.24.27.74.74,0,0,0-.08.34.87.87,0,0,0,.08.39.83.83,0,0,0,.25.28,1.82,1.82,0,0,0,.39.23l.53.21a6.81,6.81,0,0,1,.71.32,2.59,2.59,0,0,1,.53.36,1.4,1.4,0,0,1,.46,1.09,1.51,1.51,0,0,1-.2.78,1.67,1.67,0,0,1-.52.54,2.16,2.16,0,0,1-.74.32,3.68,3.68,0,0,1-.89.11A3.26,3.26,0,0,1,226.35,101.64Z"/><path class="cls-12" d="M232.48,100.52l-.92,2.88h-.68l.68-2.88Z"/><path class="cls-12" d="M241.44,101.86h-.95v-.94h0a2,2,0,0,1-1.83,1.08,1.9,1.9,0,0,1-1.38-.48,1.61,1.61,0,0,1-.5-1.26q0-1.68,2-2l1.78-.25c0-1-.41-1.53-1.22-1.53a2.91,2.91,0,0,0-1.94.73v-1a3.72,3.72,0,0,1,2-.56c1.39,0,2.09.74,2.09,2.24Zm-.95-3-1.43.2a2.44,2.44,0,0,0-1,.33,1,1,0,0,0-.33.84.9.9,0,0,0,.31.72,1.15,1.15,0,0,0,.82.28,1.54,1.54,0,0,0,1.17-.5,1.79,1.79,0,0,0,.46-1.27Z"/><path class="cls-12" d="M244.06,101.86h-.95V93h.95Z"/><path class="cls-12" d="M254.28,101.86h-.95V98.41A2.57,2.57,0,0,0,253,97a1.13,1.13,0,0,0-1-.44,1.24,1.24,0,0,0-1,.56,2.18,2.18,0,0,0-.43,1.35v3.42h-.95V98.3c0-1.18-.45-1.77-1.34-1.77a1.22,1.22,0,0,0-1,.53,2.2,2.2,0,0,0-.41,1.38v3.42h-.95v-6h.95v1h0a2,2,0,0,1,1.84-1.09,1.68,1.68,0,0,1,1.06.34,1.73,1.73,0,0,1,.62.9,2.11,2.11,0,0,1,2-1.24c1.31,0,2,.81,2,2.44Z"/><path class="cls-12" d="M260.2,101.86h-.95v-.94h0A2,2,0,0,1,257.4,102a1.94,1.94,0,0,1-1.39-.48,1.65,1.65,0,0,1-.5-1.26c0-1.12.66-1.77,2-2l1.78-.25c0-1-.41-1.53-1.22-1.53a2.91,2.91,0,0,0-1.94.73v-1a3.69,3.69,0,0,1,2-.56c1.39,0,2.09.74,2.09,2.24Zm-.95-3-1.43.2a2.38,2.38,0,0,0-1,.33,1,1,0,0,0-.33.84.92.92,0,0,0,.3.72,1.19,1.19,0,0,0,.83.28,1.54,1.54,0,0,0,1.17-.5,1.83,1.83,0,0,0,.46-1.27Z"/><path class="cls-12" d="M265.91,101.58a3.05,3.05,0,0,1-1.62.42,2.66,2.66,0,0,1-2.05-.84,3,3,0,0,1-.78-2.16,3.34,3.34,0,0,1,.84-2.38,2.92,2.92,0,0,1,2.24-.9,3.18,3.18,0,0,1,1.38.29v1a2.41,2.41,0,0,0-1.42-.46,1.91,1.91,0,0,0-1.49.66,2.53,2.53,0,0,0-.58,1.73,2.43,2.43,0,0,0,.55,1.66,1.85,1.85,0,0,0,1.47.61,2.37,2.37,0,0,0,1.46-.52Z"/><path class="cls-12" d="M272,99.1H267.8a2.3,2.3,0,0,0,.53,1.55,1.85,1.85,0,0,0,1.41.54,2.88,2.88,0,0,0,1.84-.67v.9a3.39,3.39,0,0,1-2.07.58,2.45,2.45,0,0,1-2-.82,3.35,3.35,0,0,1-.72-2.3,3.32,3.32,0,0,1,.78-2.28,2.5,2.5,0,0,1,1.95-.88,2.2,2.2,0,0,1,1.8.76,3.22,3.22,0,0,1,.64,2.11Zm-1-.82a2,2,0,0,0-.39-1.29,1.34,1.34,0,0,0-1.09-.46,1.54,1.54,0,0,0-1.14.48,2.31,2.31,0,0,0-.58,1.27Z"/><path class="cls-12" d="M278.22,101.86h-1V98.44c0-1.28-.45-1.91-1.37-1.91a1.48,1.48,0,0,0-1.18.54,2,2,0,0,0-.47,1.37v3.42h-.95v-6h.95v1h0a2.13,2.13,0,0,1,1.94-1.13,1.81,1.81,0,0,1,1.49.63,2.9,2.9,0,0,1,.51,1.84Z"/><path class="cls-12" d="M284.14,101.86h-.95v-.94h0a2,2,0,0,1-1.82,1.08,1.94,1.94,0,0,1-1.39-.48,1.65,1.65,0,0,1-.5-1.26c0-1.12.66-1.77,2-2l1.78-.25c0-1-.41-1.53-1.22-1.53a2.91,2.91,0,0,0-1.94.73v-1a3.72,3.72,0,0,1,2-.56c1.39,0,2.09.74,2.09,2.24Zm-.95-3-1.43.2a2.44,2.44,0,0,0-1,.33,1,1,0,0,0-.33.84.9.9,0,0,0,.31.72,1.15,1.15,0,0,0,.82.28,1.54,1.54,0,0,0,1.17-.5,1.83,1.83,0,0,0,.46-1.27Z"/><path class="cls-12" d="M294.22,101.86h-1V98.41A2.66,2.66,0,0,0,293,97a1.13,1.13,0,0,0-1-.44,1.26,1.26,0,0,0-1,.56,2.17,2.17,0,0,0-.42,1.35v3.42h-.95V98.3q0-1.77-1.35-1.77a1.22,1.22,0,0,0-1,.53,2.2,2.2,0,0,0-.41,1.38v3.42h-.94v-6h.94v1h0a2,2,0,0,1,1.84-1.09,1.7,1.7,0,0,1,1.06.34,1.73,1.73,0,0,1,.62.9,2.1,2.1,0,0,1,2-1.24c1.3,0,2,.81,2,2.44Z"/><path class="cls-12" d="M296.38,94.33a.57.57,0,0,1-.43-.17.61.61,0,0,1-.18-.45.57.57,0,0,1,.18-.44.58.58,0,0,1,.43-.18.61.61,0,0,1,.45.18.57.57,0,0,1,.18.44.59.59,0,0,1-.18.44A.61.61,0,0,1,296.38,94.33Zm.47,7.53h-1v-6h1Z"/><path class="cls-12" d="M303.41,99.1h-4.18a2.3,2.3,0,0,0,.53,1.55,1.84,1.84,0,0,0,1.4.54,2.86,2.86,0,0,0,1.84-.67v.9a3.35,3.35,0,0,1-2.06.58,2.49,2.49,0,0,1-2-.82A3.89,3.89,0,0,1,299,96.6a2.49,2.49,0,0,1,2-.88,2.22,2.22,0,0,1,1.8.76,3.22,3.22,0,0,1,.63,2.11Zm-1-.82a2,2,0,0,0-.39-1.29,1.35,1.35,0,0,0-1.09-.46,1.53,1.53,0,0,0-1.14.48,2.24,2.24,0,0,0-.58,1.27Z"/><path class="cls-12" d="M309.65,101.86h-.95V98.44c0-1.28-.46-1.91-1.38-1.91a1.48,1.48,0,0,0-1.17.54,2,2,0,0,0-.47,1.37v3.42h-.95v-6h.95v1h0a2.15,2.15,0,0,1,1.95-1.13,1.82,1.82,0,0,1,1.49.63,2.9,2.9,0,0,1,.51,1.84Z"/><path class="cls-12" d="M314.07,101.8a1.87,1.87,0,0,1-.89.19c-1,0-1.55-.59-1.55-1.76V96.68h-1v-.82h1V94.39l.95-.31v1.78h1.49v.82h-1.49v3.38a1.38,1.38,0,0,0,.2.86.82.82,0,0,0,.67.26,1,1,0,0,0,.62-.2Z"/><path class="cls-12" d="M317.7,102a2.73,2.73,0,0,1-2.1-.84,3.16,3.16,0,0,1-.79-2.23,3.27,3.27,0,0,1,.82-2.36,2.9,2.9,0,0,1,2.21-.85,2.65,2.65,0,0,1,2.07.82,3.34,3.34,0,0,1,.74,2.29,3.25,3.25,0,0,1-.8,2.3A2.79,2.79,0,0,1,317.7,102Zm.07-5.47a1.79,1.79,0,0,0-1.45.63,2.58,2.58,0,0,0-.53,1.73,2.5,2.5,0,0,0,.54,1.69,1.79,1.79,0,0,0,1.44.61,1.72,1.72,0,0,0,1.41-.6,3.23,3.23,0,0,0,0-3.45A1.7,1.7,0,0,0,317.77,96.53Z"/><path class="cls-12" d="M329.89,95.86l-2.72,7c-.49,1.24-1.17,1.86-2.05,1.86a2.16,2.16,0,0,1-.62-.07v-.87a1.73,1.73,0,0,0,.56.11,1.17,1.17,0,0,0,1.08-.87l.47-1.13-2.31-6h1.05l1.6,4.62s.06.21.12.45h0c0-.09.06-.24.11-.44l1.69-4.63Z"/><path class="cls-12" d="M200.45,115.29h0v3.63h-1v-8.76h1v1h0A2.25,2.25,0,0,1,202.5,110a2.19,2.19,0,0,1,1.79.8,3.43,3.43,0,0,1,.64,2.16,3.74,3.74,0,0,1-.72,2.41,2.4,2.4,0,0,1-2,.91A2,2,0,0,1,200.45,115.29Zm0-2.42v.84a1.78,1.78,0,0,0,.47,1.26,1.69,1.69,0,0,0,2.57-.15A3.12,3.12,0,0,0,204,113a2.49,2.49,0,0,0-.46-1.57,1.54,1.54,0,0,0-1.24-.56,1.67,1.67,0,0,0-1.33.58A2.12,2.12,0,0,0,200.43,112.87Z"/><path class="cls-12" d="M209.42,111.13a1.16,1.16,0,0,0-.72-.19,1.21,1.21,0,0,0-1,.58,2.7,2.7,0,0,0-.4,1.58v3.06h-.95v-6h.95v1.23h0a2,2,0,0,1,.62-1,1.4,1.4,0,0,1,.93-.36,1.65,1.65,0,0,1,.57.08Z"/><path class="cls-12" d="M212.81,116.3a2.73,2.73,0,0,1-2.1-.84,3.16,3.16,0,0,1-.79-2.23,3.27,3.27,0,0,1,.82-2.36A2.92,2.92,0,0,1,213,110a2.65,2.65,0,0,1,2.07.82,3.34,3.34,0,0,1,.74,2.29,3.25,3.25,0,0,1-.8,2.3A2.79,2.79,0,0,1,212.81,116.3Zm.07-5.47a1.79,1.79,0,0,0-1.45.63,2.56,2.56,0,0,0-.53,1.73,2.46,2.46,0,0,0,.54,1.68,1.8,1.8,0,0,0,1.44.62,1.72,1.72,0,0,0,1.41-.6,2.67,2.67,0,0,0,.5-1.72,2.71,2.71,0,0,0-.5-1.74A1.72,1.72,0,0,0,212.88,110.83Z"/><path class="cls-12" d="M221.2,115.88a3.05,3.05,0,0,1-1.62.42,2.66,2.66,0,0,1-2.05-.84,3,3,0,0,1-.78-2.16,3.34,3.34,0,0,1,.84-2.38,2.92,2.92,0,0,1,2.24-.9,3,3,0,0,1,1.38.29v1a2.4,2.4,0,0,0-1.41-.46,1.9,1.9,0,0,0-1.49.65,2.53,2.53,0,0,0-.59,1.74,2.43,2.43,0,0,0,.55,1.66,1.88,1.88,0,0,0,1.47.61,2.35,2.35,0,0,0,1.46-.52Z"/><path class="cls-12" d="M227.28,113.4h-4.19a2.26,2.26,0,0,0,.54,1.54,1.78,1.78,0,0,0,1.4.55,2.88,2.88,0,0,0,1.84-.67v.9a3.37,3.37,0,0,1-2.07.58,2.47,2.47,0,0,1-2-.82,3.35,3.35,0,0,1-.72-2.3,3.32,3.32,0,0,1,.78-2.28,2.52,2.52,0,0,1,2-.88,2.2,2.2,0,0,1,1.8.76,3.17,3.17,0,0,1,.64,2.11Zm-1-.82a2,2,0,0,0-.4-1.29,1.34,1.34,0,0,0-1.09-.46,1.56,1.56,0,0,0-1.14.48,2.31,2.31,0,0,0-.58,1.27Z"/><path class="cls-12" d="M228.24,115.94v-1a2.73,2.73,0,0,0,1.7.58c.84,0,1.25-.28,1.25-.84a.76.76,0,0,0-.1-.41,1.17,1.17,0,0,0-.29-.3,2.86,2.86,0,0,0-.43-.23l-.53-.21c-.26-.11-.49-.21-.69-.32a2,2,0,0,1-.5-.37,1.31,1.31,0,0,1-.3-.46,1.57,1.57,0,0,1-.1-.6,1.44,1.44,0,0,1,.19-.75,1.87,1.87,0,0,1,.51-.54,2.16,2.16,0,0,1,.72-.33,3.05,3.05,0,0,1,.85-.11,3.32,3.32,0,0,1,1.37.27v1a2.62,2.62,0,0,0-1.5-.43,1.75,1.75,0,0,0-.48.06,1.26,1.26,0,0,0-.37.17.78.78,0,0,0-.24.27.74.74,0,0,0-.08.34.87.87,0,0,0,.08.39.83.83,0,0,0,.25.28,1.82,1.82,0,0,0,.39.23l.53.21a6.81,6.81,0,0,1,.71.32,2.25,2.25,0,0,1,.53.36,1.32,1.32,0,0,1,.34.47,1.46,1.46,0,0,1,.12.62,1.51,1.51,0,0,1-.2.78,1.67,1.67,0,0,1-.52.54,2.16,2.16,0,0,1-.74.32,3.68,3.68,0,0,1-.89.11A3.26,3.26,0,0,1,228.24,115.94Z"/><path class="cls-12" d="M236,116.3a2.72,2.72,0,0,1-2.09-.84,3.12,3.12,0,0,1-.79-2.23,3.23,3.23,0,0,1,.82-2.36,2.89,2.89,0,0,1,2.2-.85,2.62,2.62,0,0,1,2.07.82,3.29,3.29,0,0,1,.75,2.29,3.21,3.21,0,0,1-.81,2.3A2.77,2.77,0,0,1,236,116.3Zm.07-5.47a1.77,1.77,0,0,0-1.44.63,2.56,2.56,0,0,0-.54,1.73,2.46,2.46,0,0,0,.54,1.68,1.82,1.82,0,0,0,1.44.62,1.73,1.73,0,0,0,1.42-.6,2.67,2.67,0,0,0,.49-1.72,2.71,2.71,0,0,0-.49-1.74A1.73,1.73,0,0,0,236.05,110.83Z"/><path class="cls-12" d="M248.38,116.16h-.95V112.7c0-1.25-.46-1.87-1.37-1.87a1.48,1.48,0,0,0-1.17.54,2,2,0,0,0-.48,1.39v3.4h-.95v-8.89h.95v3.88h0a2.17,2.17,0,0,1,1.95-1.13c1.33,0,2,.81,2,2.44Z"/><path class="cls-12" d="M250.54,108.63a.6.6,0,0,1-.44-.17.65.65,0,0,1,0-.9.65.65,0,0,1,.88,0,.61.61,0,0,1,.18.45.61.61,0,0,1-.62.62Zm.46,7.53h-.95v-6H251Z"/><path class="cls-12" d="M253.78,115.29h0v3.63h-.95v-8.76h.95v1h0a2.24,2.24,0,0,1,2.05-1.19,2.19,2.19,0,0,1,1.79.8,3.43,3.43,0,0,1,.64,2.16,3.69,3.69,0,0,1-.73,2.41,2.38,2.38,0,0,1-2,.91A2,2,0,0,1,253.78,115.29Zm0-2.42v.84a1.79,1.79,0,0,0,.48,1.26,1.56,1.56,0,0,0,1.21.52,1.59,1.59,0,0,0,1.36-.67,3.12,3.12,0,0,0,.49-1.86,2.49,2.49,0,0,0-.46-1.57,1.54,1.54,0,0,0-1.24-.56,1.66,1.66,0,0,0-1.33.58A2.13,2.13,0,0,0,253.75,112.87Z"/><path class="cls-12" d="M264.42,113.4h-4.19a2.26,2.26,0,0,0,.54,1.54,1.79,1.79,0,0,0,1.4.55,2.88,2.88,0,0,0,1.84-.67v.9a3.37,3.37,0,0,1-2.07.58,2.47,2.47,0,0,1-2-.82,3.35,3.35,0,0,1-.72-2.3,3.32,3.32,0,0,1,.78-2.28,2.52,2.52,0,0,1,2-.88,2.2,2.2,0,0,1,1.8.76,3.17,3.17,0,0,1,.64,2.11Zm-1-.82a2,2,0,0,0-.4-1.29,1.34,1.34,0,0,0-1.09-.46,1.56,1.56,0,0,0-1.14.48,2.23,2.23,0,0,0-.57,1.27Z"/><path class="cls-12" d="M268.83,111.13a1.16,1.16,0,0,0-.72-.19,1.21,1.21,0,0,0-1,.58,2.7,2.7,0,0,0-.4,1.58v3.06h-.95v-6h.95v1.23h0a2,2,0,0,1,.62-1,1.4,1.4,0,0,1,.93-.36,1.65,1.65,0,0,1,.57.08Z"/><path class="cls-12" d="M273.78,115.88a3.05,3.05,0,0,1-1.62.42,2.66,2.66,0,0,1-2.05-.84,3,3,0,0,1-.78-2.16,3.34,3.34,0,0,1,.84-2.38,2.92,2.92,0,0,1,2.24-.9,3,3,0,0,1,1.38.29v1a2.4,2.4,0,0,0-1.41-.46,1.92,1.92,0,0,0-1.49.65,2.52,2.52,0,0,0-.58,1.74,2.42,2.42,0,0,0,.54,1.66,1.88,1.88,0,0,0,1.47.61,2.35,2.35,0,0,0,1.46-.52Z"/><path class="cls-12" d="M277.57,116.3a2.76,2.76,0,0,1-2.1-.84,3.16,3.16,0,0,1-.78-2.23,3.23,3.23,0,0,1,.82-2.36,2.89,2.89,0,0,1,2.2-.85,2.62,2.62,0,0,1,2.07.82,3.29,3.29,0,0,1,.75,2.29,3.21,3.21,0,0,1-.81,2.3A2.77,2.77,0,0,1,277.57,116.3Zm.07-5.47a1.77,1.77,0,0,0-1.44.63,2.56,2.56,0,0,0-.54,1.73,2.46,2.46,0,0,0,.54,1.68,1.82,1.82,0,0,0,1.44.62,1.73,1.73,0,0,0,1.42-.6,2.67,2.67,0,0,0,.49-1.72,2.71,2.71,0,0,0-.49-1.74A1.73,1.73,0,0,0,277.64,110.83Z"/><path class="cls-12" d="M286.84,116.16h-.95v-3.42c0-1.28-.46-1.91-1.37-1.91a1.48,1.48,0,0,0-1.18.54,2,2,0,0,0-.47,1.37v3.42h-.95v-6h.95v1h0a2.13,2.13,0,0,1,1.94-1.13,1.82,1.82,0,0,1,1.49.63,2.9,2.9,0,0,1,.51,1.84Z"/><path class="cls-12" d="M293.17,110.16l-2.36,6h-.93l-2.25-6h1.05l1.5,4.36a4.38,4.38,0,0,1,.21.83h0a3.7,3.7,0,0,1,.19-.81l1.57-4.38Z"/><path class="cls-12" d="M298.84,113.4h-4.19a2.25,2.25,0,0,0,.53,1.54,1.81,1.81,0,0,0,1.4.55,2.89,2.89,0,0,0,1.85-.67v.9a3.37,3.37,0,0,1-2.07.58,2.45,2.45,0,0,1-2-.82,3.35,3.35,0,0,1-.72-2.3,3.32,3.32,0,0,1,.78-2.28,2.49,2.49,0,0,1,1.95-.88,2.2,2.2,0,0,1,1.8.76,3.22,3.22,0,0,1,.64,2.11Zm-1-.82a2,2,0,0,0-.39-1.29,1.34,1.34,0,0,0-1.09-.46,1.53,1.53,0,0,0-1.14.48,2.31,2.31,0,0,0-.58,1.27Z"/><path class="cls-12" d="M303.24,111.13a1.11,1.11,0,0,0-.71-.19,1.2,1.2,0,0,0-1,.58,2.7,2.7,0,0,0-.41,1.58v3.06h-1v-6h1v1.23h0a2,2,0,0,1,.62-1,1.36,1.36,0,0,1,.93-.36,1.62,1.62,0,0,1,.56.08Z"/><path class="cls-12" d="M309.21,115.68q0,3.3-3.12,3.3a4.18,4.18,0,0,1-1.92-.42v-1a3.92,3.92,0,0,0,1.91.56c1.46,0,2.19-.78,2.19-2.35v-.66h0a2.2,2.2,0,0,1-2,1.15,2.25,2.25,0,0,1-1.79-.8,3.27,3.27,0,0,1-.67-2.15,3.73,3.73,0,0,1,.73-2.43,2.4,2.4,0,0,1,2-.9,1.91,1.91,0,0,1,1.77,1h0v-.83h.94Zm-.94-2.24v-.88a1.71,1.71,0,0,0-.48-1.22,1.57,1.57,0,0,0-1.19-.51,1.64,1.64,0,0,0-1.38.64,2.94,2.94,0,0,0-.5,1.82,2.5,2.5,0,0,0,.48,1.6,1.54,1.54,0,0,0,1.27.6,1.63,1.63,0,0,0,1.29-.57A2.16,2.16,0,0,0,308.27,113.44Z"/><path class="cls-12" d="M311.5,108.63a.57.57,0,0,1-.43-.17.62.62,0,0,1,.43-1.07.64.64,0,0,1,.45.17.61.61,0,0,1,.18.45.6.6,0,0,1-.18.44A.61.61,0,0,1,311.5,108.63Zm.47,7.53h-1v-6h1Z"/><path class="cls-12" d="M318.83,116.16h-.95v-1h0a2.19,2.19,0,0,1-2,1.16,2.22,2.22,0,0,1-1.79-.81,3.35,3.35,0,0,1-.66-2.19,3.61,3.61,0,0,1,.74-2.39,2.44,2.44,0,0,1,2-.89,1.9,1.9,0,0,1,1.78,1h0v-3.72h.95Zm-.95-2.72v-.88a1.77,1.77,0,0,0-.47-1.23,1.58,1.58,0,0,0-1.21-.5,1.61,1.61,0,0,0-1.36.64,2.79,2.79,0,0,0-.5,1.78,2.56,2.56,0,0,0,.48,1.64,1.53,1.53,0,0,0,1.28.6,1.61,1.61,0,0,0,1.29-.58A2.19,2.19,0,0,0,317.88,113.44Z"/><path class="cls-12" d="M323.11,116.3a2.74,2.74,0,0,1-2.1-.84,3.16,3.16,0,0,1-.78-2.23,3.27,3.27,0,0,1,.81-2.36,2.92,2.92,0,0,1,2.21-.85,2.65,2.65,0,0,1,2.07.82,3.29,3.29,0,0,1,.74,2.29,3.21,3.21,0,0,1-.8,2.3A2.77,2.77,0,0,1,323.11,116.3Zm.07-5.47a1.81,1.81,0,0,0-1.45.63,2.61,2.61,0,0,0-.53,1.73,2.46,2.46,0,0,0,.54,1.68,1.82,1.82,0,0,0,1.44.62,1.74,1.74,0,0,0,1.42-.6,2.67,2.67,0,0,0,.49-1.72,2.71,2.71,0,0,0-.49-1.74A1.74,1.74,0,0,0,323.18,110.83Z"/><path class="cls-12" d="M327.1,115.94v-1a2.78,2.78,0,0,0,1.71.58c.83,0,1.25-.28,1.25-.84a.76.76,0,0,0-.11-.41,1,1,0,0,0-.29-.3,2.44,2.44,0,0,0-.43-.23l-.52-.21a6.76,6.76,0,0,1-.7-.32,1.91,1.91,0,0,1-.49-.37,1.21,1.21,0,0,1-.31-.46,1.79,1.79,0,0,1-.1-.6,1.55,1.55,0,0,1,.19-.75,1.87,1.87,0,0,1,.51-.54,2.31,2.31,0,0,1,.73-.33,2.94,2.94,0,0,1,.84-.11,3.33,3.33,0,0,1,1.38.27v1a2.66,2.66,0,0,0-1.5-.43,1.88,1.88,0,0,0-.49.06,1.2,1.2,0,0,0-.36.17.69.69,0,0,0-.24.27.63.63,0,0,0-.08.34.75.75,0,0,0,.08.39.83.83,0,0,0,.25.28,1.61,1.61,0,0,0,.39.23l.53.21a6.6,6.6,0,0,1,.7.32,2.12,2.12,0,0,1,.54.36,1.43,1.43,0,0,1,.33.47,1.46,1.46,0,0,1,.12.62,1.5,1.5,0,0,1-.19.78,1.67,1.67,0,0,1-.52.54,2.21,2.21,0,0,1-.75.32,3.6,3.6,0,0,1-.88.11A3.33,3.33,0,0,1,327.1,115.94Z"/><path class="cls-12" d="M53.18,98.64H52l-1.39-2.36a6.05,6.05,0,0,0-.37-.56,2.15,2.15,0,0,0-.37-.37,1.36,1.36,0,0,0-.41-.22,1.75,1.75,0,0,0-.49-.07h-.79v3.58h-1v-8.4h2.48a3.51,3.51,0,0,1,1,.13,2.26,2.26,0,0,1,.8.42,1.84,1.84,0,0,1,.53.7,2.61,2.61,0,0,1,.06,1.79,2,2,0,0,1-.37.65,2.13,2.13,0,0,1-.58.49,2.9,2.9,0,0,1-.76.32v0a1.55,1.55,0,0,1,.36.21,2,2,0,0,1,.3.29,4,4,0,0,1,.27.37l.31.48Zm-5-7.51v3h1.31a1.87,1.87,0,0,0,.68-.11,1.52,1.52,0,0,0,.89-.83,1.78,1.78,0,0,0,.13-.67,1.35,1.35,0,0,0-.44-1.06,1.82,1.82,0,0,0-1.24-.37Z"/><path class="cls-12" d="M58.49,95.88H54.31a2.25,2.25,0,0,0,.53,1.55,1.84,1.84,0,0,0,1.4.54,2.86,2.86,0,0,0,1.84-.67v.9a3.35,3.35,0,0,1-2.06.58A2.49,2.49,0,0,1,54,98a3.89,3.89,0,0,1,.07-4.58,2.49,2.49,0,0,1,2-.88,2.22,2.22,0,0,1,1.8.76,3.22,3.22,0,0,1,.63,2.11Zm-1-.82a2,2,0,0,0-.39-1.29A1.36,1.36,0,0,0,56,93.31a1.53,1.53,0,0,0-1.14.48,2.24,2.24,0,0,0-.58,1.27Z"/><path class="cls-12" d="M64.87,98.64h-1v-1h0a2.19,2.19,0,0,1-2,1.16A2.22,2.22,0,0,1,60.07,98a3.35,3.35,0,0,1-.66-2.19,3.61,3.61,0,0,1,.74-2.39,2.44,2.44,0,0,1,2-.89,1.9,1.9,0,0,1,1.78,1h0V89.76h1Zm-1-2.71V95a1.77,1.77,0,0,0-.47-1.23,1.58,1.58,0,0,0-1.21-.5,1.61,1.61,0,0,0-1.36.64,2.79,2.79,0,0,0-.5,1.78,2.56,2.56,0,0,0,.48,1.64,1.53,1.53,0,0,0,1.28.6,1.61,1.61,0,0,0,1.29-.58A2.17,2.17,0,0,0,63.92,95.93Z"/><path class="cls-12" d="M71.44,95.88H67.25a2.3,2.3,0,0,0,.54,1.55,1.81,1.81,0,0,0,1.4.54A2.88,2.88,0,0,0,71,97.3v.9a3.37,3.37,0,0,1-2.07.58A2.45,2.45,0,0,1,67,98a3.35,3.35,0,0,1-.72-2.3,3.32,3.32,0,0,1,.78-2.28,2.52,2.52,0,0,1,2-.88,2.2,2.2,0,0,1,1.8.76,3.17,3.17,0,0,1,.64,2.11Zm-1-.82a2,2,0,0,0-.4-1.29A1.34,1.34,0,0,0,69,93.31a1.56,1.56,0,0,0-1.14.48,2.31,2.31,0,0,0-.58,1.27Z"/><path class="cls-12" d="M72.4,98.42v-1a2.73,2.73,0,0,0,1.7.58c.84,0,1.25-.28,1.25-.84a.76.76,0,0,0-.1-.41,1.37,1.37,0,0,0-.29-.3,2.86,2.86,0,0,0-.43-.23L74,96c-.26-.11-.49-.21-.69-.32a2.22,2.22,0,0,1-.5-.36,1.52,1.52,0,0,1-.3-.46,1.66,1.66,0,0,1-.1-.61,1.44,1.44,0,0,1,.19-.75,1.87,1.87,0,0,1,.51-.54,2.16,2.16,0,0,1,.72-.33,3.05,3.05,0,0,1,.85-.11,3.32,3.32,0,0,1,1.37.27v1a2.62,2.62,0,0,0-1.5-.43,1.75,1.75,0,0,0-.48.06,1.26,1.26,0,0,0-.37.17.78.78,0,0,0-.24.27.74.74,0,0,0-.08.34.87.87,0,0,0,.08.39.83.83,0,0,0,.25.28,1.82,1.82,0,0,0,.39.23l.53.21a6.81,6.81,0,0,1,.71.32,2.59,2.59,0,0,1,.53.36,1.32,1.32,0,0,1,.34.47,1.46,1.46,0,0,1,.12.62,1.51,1.51,0,0,1-.2.78,1.67,1.67,0,0,1-.52.54,2.16,2.16,0,0,1-.74.32,3.68,3.68,0,0,1-.89.11A3.26,3.26,0,0,1,72.4,98.42Z"/><path class="cls-12" d="M78.53,97.3l-.92,2.88h-.68l.68-2.88Z"/><path class="cls-12" d="M21.05,113.14H20.1v-.94h0a2,2,0,0,1-1.82,1.08,1.94,1.94,0,0,1-1.39-.48,1.65,1.65,0,0,1-.5-1.26c0-1.12.65-1.77,2-2l1.77-.25c0-1-.4-1.53-1.22-1.53a2.91,2.91,0,0,0-1.93.73v-1a3.58,3.58,0,0,1,2-.56c1.4,0,2.09.74,2.09,2.24Zm-.95-3-1.42.2a2.25,2.25,0,0,0-1,.33,1,1,0,0,0-.34.84.93.93,0,0,0,.31.72,1.18,1.18,0,0,0,.83.28,1.54,1.54,0,0,0,1.17-.5,1.83,1.83,0,0,0,.45-1.27Z"/><path class="cls-12" d="M23.67,113.14h-1v-8.88h1Z"/><path class="cls-12" d="M33.89,113.14h-1v-3.45a2.66,2.66,0,0,0-.3-1.44,1.13,1.13,0,0,0-1-.44,1.26,1.26,0,0,0-1,.56,2.17,2.17,0,0,0-.42,1.35v3.42h-.95v-3.56q0-1.77-1.35-1.77a1.22,1.22,0,0,0-1,.53,2.2,2.2,0,0,0-.4,1.38v3.42h-.95v-6h.95v1h0A2,2,0,0,1,28.29,107a1.7,1.7,0,0,1,1.06.34,1.73,1.73,0,0,1,.62.9,2.1,2.1,0,0,1,2-1.24c1.3,0,1.95.81,1.95,2.44Z"/><path class="cls-12" d="M39.81,113.14h-1v-.94h0A2,2,0,0,1,37,113.28a1.92,1.92,0,0,1-1.39-.48,1.65,1.65,0,0,1-.5-1.26c0-1.12.65-1.77,2-2l1.77-.25c0-1-.4-1.53-1.22-1.53a2.89,2.89,0,0,0-1.93.73v-1a3.58,3.58,0,0,1,2-.56c1.4,0,2.09.74,2.09,2.24Zm-1-3-1.43.2a2.2,2.2,0,0,0-1,.33,1,1,0,0,0-.34.84.9.9,0,0,0,.31.72,1.18,1.18,0,0,0,.83.28,1.51,1.51,0,0,0,1.16-.5,1.79,1.79,0,0,0,.46-1.27Z"/><path class="cls-12" d="M45.52,112.86a3,3,0,0,1-1.62.42,2.68,2.68,0,0,1-2-.84,3.05,3.05,0,0,1-.77-2.16,3.34,3.34,0,0,1,.84-2.38,2.91,2.91,0,0,1,2.24-.9,3.1,3.1,0,0,1,1.37.29v1a2.4,2.4,0,0,0-1.41-.46,1.91,1.91,0,0,0-1.49.66,2.48,2.48,0,0,0-.58,1.73,2.38,2.38,0,0,0,.55,1.66,1.85,1.85,0,0,0,1.46.61,2.33,2.33,0,0,0,1.46-.52Z"/><path class="cls-12" d="M51.6,110.38H47.42a2.25,2.25,0,0,0,.53,1.55,1.84,1.84,0,0,0,1.4.54,2.86,2.86,0,0,0,1.84-.67v.9a3.37,3.37,0,0,1-2.07.58,2.48,2.48,0,0,1-2-.82,3.35,3.35,0,0,1-.72-2.3,3.28,3.28,0,0,1,.79-2.28,2.49,2.49,0,0,1,2-.88,2.22,2.22,0,0,1,1.8.76,3.22,3.22,0,0,1,.63,2.11Zm-1-.82a2,2,0,0,0-.4-1.29,1.33,1.33,0,0,0-1.08-.46,1.53,1.53,0,0,0-1.14.48,2.18,2.18,0,0,0-.58,1.27Z"/><path class="cls-12" d="M57.84,113.14h-1v-3.42c0-1.28-.46-1.91-1.38-1.91a1.5,1.5,0,0,0-1.18.54,2,2,0,0,0-.46,1.37v3.42h-.95v-6h.95v1h0a2.15,2.15,0,0,1,2-1.13,1.8,1.8,0,0,1,1.48.63,2.84,2.84,0,0,1,.52,1.84Z"/><path class="cls-12" d="M63.75,113.14h-1v-.94h0A2,2,0,0,1,61,113.28a1.92,1.92,0,0,1-1.39-.48,1.65,1.65,0,0,1-.5-1.26c0-1.12.65-1.77,2-2l1.77-.25c0-1-.4-1.53-1.22-1.53a2.89,2.89,0,0,0-1.93.73v-1a3.58,3.58,0,0,1,2-.56c1.4,0,2.09.74,2.09,2.24Zm-1-3-1.43.2a2.2,2.2,0,0,0-1,.33,1,1,0,0,0-.34.84.93.93,0,0,0,.31.72,1.18,1.18,0,0,0,.83.28,1.51,1.51,0,0,0,1.16-.5,1.79,1.79,0,0,0,.46-1.27Z"/><path class="cls-12" d="M73.84,113.14h-1v-3.45a2.57,2.57,0,0,0-.31-1.44,1.13,1.13,0,0,0-1-.44,1.24,1.24,0,0,0-1,.56,2.18,2.18,0,0,0-.43,1.35v3.42h-.94v-3.56q0-1.77-1.35-1.77a1.22,1.22,0,0,0-1,.53,2.2,2.2,0,0,0-.41,1.38v3.42h-1v-6h1v1h0A2,2,0,0,1,68.23,107a1.71,1.71,0,0,1,1.68,1.24,2.11,2.11,0,0,1,2-1.24c1.31,0,2,.81,2,2.44Z"/><path class="cls-12" d="M76,105.61a.57.57,0,0,1-.43-.17.61.61,0,0,1-.18-.45.57.57,0,0,1,.18-.44.58.58,0,0,1,.43-.18.6.6,0,0,1,.44.18.58.58,0,0,1,.19.44.6.6,0,0,1-.19.44A.6.6,0,0,1,76,105.61Zm.46,7.53h-.95v-6h.95Z"/><path class="cls-12" d="M83,110.38H78.84a2.3,2.3,0,0,0,.54,1.55,1.82,1.82,0,0,0,1.4.54,2.86,2.86,0,0,0,1.84-.67v.9a3.37,3.37,0,0,1-2.07.58,2.47,2.47,0,0,1-2-.82,3.35,3.35,0,0,1-.72-2.3,3.28,3.28,0,0,1,.79-2.28,2.48,2.48,0,0,1,1.94-.88,2.2,2.2,0,0,1,1.8.76,3.17,3.17,0,0,1,.64,2.11Zm-1-.82a2,2,0,0,0-.4-1.29,1.33,1.33,0,0,0-1.08-.46,1.53,1.53,0,0,0-1.14.48,2.18,2.18,0,0,0-.58,1.27Z"/><path class="cls-12" d="M89.27,113.14h-1v-3.42c0-1.28-.46-1.91-1.38-1.91a1.5,1.5,0,0,0-1.18.54,2,2,0,0,0-.46,1.37v3.42h-1v-6h1v1h0A2.15,2.15,0,0,1,87.26,107a1.81,1.81,0,0,1,1.49.63,2.9,2.9,0,0,1,.52,1.84Z"/><path class="cls-12" d="M93.69,113.08a1.9,1.9,0,0,1-.89.19c-1,0-1.56-.59-1.56-1.76V108h-1v-.82h1v-1.47l1-.31v1.78h1.5V108h-1.5v3.38a1.37,1.37,0,0,0,.21.86.79.79,0,0,0,.67.26,1,1,0,0,0,.62-.2Z"/><path class="cls-12" d="M97.31,113.28a2.76,2.76,0,0,1-2.1-.84,3.16,3.16,0,0,1-.78-2.23,3.23,3.23,0,0,1,.82-2.36,2.89,2.89,0,0,1,2.2-.85,2.62,2.62,0,0,1,2.07.82,3.29,3.29,0,0,1,.74,2.29,3.21,3.21,0,0,1-.8,2.3A2.77,2.77,0,0,1,97.31,113.28Zm.07-5.47a1.77,1.77,0,0,0-1.44.63,2.56,2.56,0,0,0-.54,1.73,2.46,2.46,0,0,0,.54,1.68,1.79,1.79,0,0,0,1.44.62,1.73,1.73,0,0,0,1.42-.6,3.28,3.28,0,0,0,0-3.45A1.71,1.71,0,0,0,97.38,107.81Z"/><path class="cls-12" d="M109.51,107.14l-2.73,7c-.48,1.24-1.17,1.86-2,1.86a2.25,2.25,0,0,1-.62-.07V115a1.59,1.59,0,0,0,.57.11,1.17,1.17,0,0,0,1.07-.87l.48-1.13-2.32-6h1l1.61,4.62s.06.21.12.45h0c0-.09.06-.24.12-.44l1.68-4.63Z"/><path class="cls-12" d="M15.74,126.77h0v3.63h-.94v-8.76h.94v1h0a2.24,2.24,0,0,1,2-1.19,2.19,2.19,0,0,1,1.79.8,3.43,3.43,0,0,1,.64,2.16,3.69,3.69,0,0,1-.73,2.41,2.38,2.38,0,0,1-2,.91A2,2,0,0,1,15.74,126.77Zm0-2.42v.84a1.79,1.79,0,0,0,.48,1.26,1.56,1.56,0,0,0,1.21.52,1.59,1.59,0,0,0,1.36-.67,3.12,3.12,0,0,0,.49-1.86,2.49,2.49,0,0,0-.46-1.57,1.54,1.54,0,0,0-1.24-.56,1.66,1.66,0,0,0-1.33.58A2.15,2.15,0,0,0,15.71,124.35Z"/><path class="cls-12" d="M24.71,122.61a1.16,1.16,0,0,0-.72-.19,1.21,1.21,0,0,0-1,.58,2.7,2.7,0,0,0-.41,1.58v3.06h-.94v-6h.94v1.23h0a2,2,0,0,1,.62-1,1.4,1.4,0,0,1,.93-.36,1.65,1.65,0,0,1,.57.08Z"/><path class="cls-12" d="M28.1,127.78a2.73,2.73,0,0,1-2.1-.84,3.12,3.12,0,0,1-.79-2.23,3.23,3.23,0,0,1,.82-2.36,2.89,2.89,0,0,1,2.2-.85,2.62,2.62,0,0,1,2.07.82,3.29,3.29,0,0,1,.75,2.29,3.25,3.25,0,0,1-.8,2.3A2.8,2.8,0,0,1,28.1,127.78Zm.07-5.47a1.79,1.79,0,0,0-1.45.63,2.56,2.56,0,0,0-.53,1.73,2.45,2.45,0,0,0,.53,1.68,1.8,1.8,0,0,0,1.45.62,1.72,1.72,0,0,0,1.41-.6,3.23,3.23,0,0,0,0-3.45A1.7,1.7,0,0,0,28.17,122.31Z"/><path class="cls-12" d="M36.49,127.36a3.05,3.05,0,0,1-1.62.42,2.66,2.66,0,0,1-2-.84,3,3,0,0,1-.78-2.16,3.34,3.34,0,0,1,.84-2.38,2.92,2.92,0,0,1,2.24-.9,3.18,3.18,0,0,1,1.38.29v1a2.4,2.4,0,0,0-1.41-.46,1.91,1.91,0,0,0-1.5.66A2.53,2.53,0,0,0,33,124.7a2.43,2.43,0,0,0,.55,1.66A1.85,1.85,0,0,0,35,127a2.37,2.37,0,0,0,1.46-.52Z"/><path class="cls-12" d="M42.57,124.88H38.38a2.3,2.3,0,0,0,.53,1.55,1.84,1.84,0,0,0,1.4.54,2.89,2.89,0,0,0,1.85-.67v.9a3.39,3.39,0,0,1-2.07.58,2.45,2.45,0,0,1-2-.82,3.35,3.35,0,0,1-.72-2.3,3.32,3.32,0,0,1,.78-2.28,2.49,2.49,0,0,1,2-.88,2.2,2.2,0,0,1,1.8.76,3.22,3.22,0,0,1,.64,2.11Zm-1-.82a2,2,0,0,0-.39-1.29,1.34,1.34,0,0,0-1.09-.46,1.53,1.53,0,0,0-1.14.48,2.31,2.31,0,0,0-.58,1.27Z"/><path class="cls-12" d="M43.52,127.42v-1a2.78,2.78,0,0,0,1.71.58c.84,0,1.25-.28,1.25-.84a.76.76,0,0,0-.1-.41,1.37,1.37,0,0,0-.29-.3,3.45,3.45,0,0,0-.43-.23l-.53-.21a6.53,6.53,0,0,1-.69-.32,2.22,2.22,0,0,1-.5-.36,1.35,1.35,0,0,1-.3-.46,1.66,1.66,0,0,1-.1-.61,1.44,1.44,0,0,1,.19-.75,1.63,1.63,0,0,1,.51-.54,2.16,2.16,0,0,1,.72-.33,3,3,0,0,1,.85-.11,3.32,3.32,0,0,1,1.37.27v1a2.62,2.62,0,0,0-1.5-.43,1.75,1.75,0,0,0-.48.06,1.15,1.15,0,0,0-.37.17.78.78,0,0,0-.24.27.74.74,0,0,0-.08.34.87.87,0,0,0,.08.39.83.83,0,0,0,.25.28,1.82,1.82,0,0,0,.39.23l.53.21a5.79,5.79,0,0,1,.7.32,2.42,2.42,0,0,1,.54.36,1.35,1.35,0,0,1,.45,1.09,1.5,1.5,0,0,1-.19.78,1.67,1.67,0,0,1-.52.54,2.16,2.16,0,0,1-.74.32,3.74,3.74,0,0,1-.89.11A3.33,3.33,0,0,1,43.52,127.42Z"/><path class="cls-12" d="M51.27,127.78a2.76,2.76,0,0,1-2.1-.84,3.16,3.16,0,0,1-.78-2.23,3.23,3.23,0,0,1,.82-2.36,2.88,2.88,0,0,1,2.2-.85,2.65,2.65,0,0,1,2.07.82,3.29,3.29,0,0,1,.74,2.29,3.21,3.21,0,0,1-.8,2.3A2.77,2.77,0,0,1,51.27,127.78Zm.07-5.47a1.81,1.81,0,0,0-1.45.63,2.61,2.61,0,0,0-.53,1.73,2.46,2.46,0,0,0,.54,1.68,1.79,1.79,0,0,0,1.44.62,1.73,1.73,0,0,0,1.42-.6,3.28,3.28,0,0,0,0-3.45A1.71,1.71,0,0,0,51.34,122.31Z"/><path class="cls-12" d="M63.51,124.88H59.33a2.3,2.3,0,0,0,.53,1.55,1.84,1.84,0,0,0,1.4.54,2.86,2.86,0,0,0,1.84-.67v.9a3.35,3.35,0,0,1-2.06.58,2.49,2.49,0,0,1-2-.82,3.89,3.89,0,0,1,.07-4.58,2.49,2.49,0,0,1,1.95-.88,2.22,2.22,0,0,1,1.8.76,3.22,3.22,0,0,1,.63,2.11Zm-1-.82a2,2,0,0,0-.39-1.29,1.35,1.35,0,0,0-1.09-.46,1.53,1.53,0,0,0-1.14.48,2.24,2.24,0,0,0-.58,1.27Z"/><path class="cls-12" d="M69.75,127.64h-1v-3.42c0-1.28-.46-1.91-1.38-1.91a1.48,1.48,0,0,0-1.17.54,2,2,0,0,0-.47,1.37v3.42h-1v-6h1v1h0a2.15,2.15,0,0,1,2-1.13,1.82,1.82,0,0,1,1.49.63,2.9,2.9,0,0,1,.51,1.84Z"/><path class="cls-12" d="M75.5,127.64h-1v-8.88h1Z"/><path class="cls-12" d="M81.55,127.64h-1v-.94h0a2,2,0,0,1-1.82,1.08,1.94,1.94,0,0,1-1.39-.48,1.65,1.65,0,0,1-.5-1.26c0-1.12.65-1.77,2-2l1.78-.25c0-1-.41-1.53-1.22-1.53a2.91,2.91,0,0,0-1.94.73v-1a3.61,3.61,0,0,1,2-.56c1.39,0,2.09.74,2.09,2.24Zm-1-3-1.43.2a2.25,2.25,0,0,0-1,.33,1,1,0,0,0-.34.84.9.9,0,0,0,.32.72A1.15,1.15,0,0,0,79,127a1.54,1.54,0,0,0,1.17-.5,1.83,1.83,0,0,0,.46-1.27Z"/><path class="cls-12" d="M91.26,127.64h-1v-3.42c0-1.28-.45-1.91-1.37-1.91a1.48,1.48,0,0,0-1.18.54,2,2,0,0,0-.47,1.37v3.42h-1v-6h1v1h0a2.13,2.13,0,0,1,1.94-1.13,1.81,1.81,0,0,1,1.49.63,2.9,2.9,0,0,1,.51,1.84Z"/><path class="cls-12" d="M97.73,127.64h-1v-1h0a1.93,1.93,0,0,1-1.83,1.09c-1.41,0-2.11-.85-2.11-2.56v-3.58h.94v3.43c0,1.27.48,1.9,1.44,1.9a1.43,1.43,0,0,0,1.14-.52,2,2,0,0,0,.45-1.35v-3.46h1Z"/><path class="cls-12" d="M100.5,126.77h0v.87h-1v-8.88h1v3.93h0a2.24,2.24,0,0,1,2-1.19,2.17,2.17,0,0,1,1.78.8,3.37,3.37,0,0,1,.65,2.16,3.69,3.69,0,0,1-.73,2.41,2.38,2.38,0,0,1-2,.91A1.94,1.94,0,0,1,100.5,126.77Zm0-2.42v.84a1.79,1.79,0,0,0,.48,1.26,1.56,1.56,0,0,0,1.21.52,1.59,1.59,0,0,0,1.36-.67,3.12,3.12,0,0,0,.48-1.86,2.48,2.48,0,0,0-.45-1.57,1.54,1.54,0,0,0-1.24-.56,1.66,1.66,0,0,0-1.33.58A2.15,2.15,0,0,0,100.47,124.35Z"/><path class="cls-12" d="M111.14,124.88H107a2.3,2.3,0,0,0,.54,1.55,1.82,1.82,0,0,0,1.4.54,2.88,2.88,0,0,0,1.84-.67v.9a3.37,3.37,0,0,1-2.07.58,2.47,2.47,0,0,1-2-.82,3.35,3.35,0,0,1-.72-2.3,3.32,3.32,0,0,1,.78-2.28,2.52,2.52,0,0,1,2-.88,2.2,2.2,0,0,1,1.8.76,3.17,3.17,0,0,1,.64,2.11Zm-1-.82a2,2,0,0,0-.4-1.29,1.34,1.34,0,0,0-1.09-.46,1.56,1.56,0,0,0-1.14.48,2.31,2.31,0,0,0-.58,1.27Z"/><path class="cls-12" d="M163.65,189.12h-4.36v-8.4h1v7.51h3.38Z"/><path class="cls-12" d="M167.26,189.26a2.79,2.79,0,0,1-2.13-.84,3.12,3.12,0,0,1-.79-2.23,3.19,3.19,0,0,1,.83-2.36,3,3,0,0,1,2.23-.85,2.68,2.68,0,0,1,2.09.82,3.25,3.25,0,0,1,.76,2.29,3.21,3.21,0,0,1-.81,2.3A2.85,2.85,0,0,1,167.26,189.26Zm.07-5.47a1.84,1.84,0,0,0-1.47.63,2.56,2.56,0,0,0-.54,1.73,2.46,2.46,0,0,0,.55,1.68,1.85,1.85,0,0,0,1.46.62,1.75,1.75,0,0,0,1.43-.6,2.61,2.61,0,0,0,.5-1.72,2.65,2.65,0,0,0-.5-1.74A1.75,1.75,0,0,0,167.33,183.79Z"/><path class="cls-12" d="M175.82,188.84a3.14,3.14,0,0,1-1.65.42,2.72,2.72,0,0,1-2.07-.84,3,3,0,0,1-.79-2.16,3.35,3.35,0,0,1,.85-2.38,3,3,0,0,1,2.27-.9,3.13,3.13,0,0,1,1.4.29v1a2.48,2.48,0,0,0-1.43-.46,1.94,1.94,0,0,0-1.51.65,2.48,2.48,0,0,0-.59,1.74,2.38,2.38,0,0,0,.55,1.66,1.91,1.91,0,0,0,1.49.61,2.43,2.43,0,0,0,1.48-.52Z"/><path class="cls-12" d="M181.51,189.12h-1v-.94h0a2,2,0,0,1-1.85,1.08,2,2,0,0,1-1.4-.48,1.62,1.62,0,0,1-.51-1.26q0-1.68,2-2l1.8-.26c0-1-.41-1.52-1.23-1.52a3,3,0,0,0-2,.73v-1a3.68,3.68,0,0,1,2-.56c1.41,0,2.12.74,2.12,2.24Zm-1-3-1.44.2a2.25,2.25,0,0,0-1,.33,1,1,0,0,0-.34.84.9.9,0,0,0,.31.72,1.2,1.2,0,0,0,.84.28,1.56,1.56,0,0,0,1.18-.5,1.8,1.8,0,0,0,.46-1.27Z"/><path class="cls-12" d="M184.22,189.12h-1v-8.89h1Z"/><path class="cls-12" d="M200.71,155.86h-1V152H195.5v3.83h-1v-8.4h1v3.68h4.25v-3.68h1Z"/><path class="cls-12" d="M206.81,155.86h-.94v-.94h0A2,2,0,0,1,204,156a1.85,1.85,0,0,1-1.36-.48,1.65,1.65,0,0,1-.5-1.26c0-1.12.65-1.77,1.93-1.95l1.76-.25c0-1-.4-1.53-1.21-1.53a2.86,2.86,0,0,0-1.91.73v-1a3.53,3.53,0,0,1,2-.56c1.38,0,2.07.74,2.07,2.24Zm-.94-3-1.41.2a2.2,2.2,0,0,0-1,.33,1,1,0,0,0-.33.84.9.9,0,0,0,.31.72,1.13,1.13,0,0,0,.81.28,1.48,1.48,0,0,0,1.15-.5,1.8,1.8,0,0,0,.46-1.27Z"/><path class="cls-12" d="M211.51,150.83a1.11,1.11,0,0,0-.71-.19,1.18,1.18,0,0,0-1,.58,2.7,2.7,0,0,0-.41,1.58v3.06h-.93v-6h.93v1.23h0a2,2,0,0,1,.61-1,1.35,1.35,0,0,1,.92-.36,1.62,1.62,0,0,1,.56.08Z"/><path class="cls-12" d="M217.41,155.86h-.94v-1h0a2.33,2.33,0,0,1-3.78.35A3.35,3.35,0,0,1,212,153a3.67,3.67,0,0,1,.73-2.39,2.41,2.41,0,0,1,1.95-.89,1.87,1.87,0,0,1,1.76,1h0V147h.94Zm-.94-2.72v-.88A1.72,1.72,0,0,0,216,151a1.54,1.54,0,0,0-1.19-.5,1.61,1.61,0,0,0-1.35.64A2.92,2.92,0,0,0,213,153a2.62,2.62,0,0,0,.47,1.64,1.54,1.54,0,0,0,1.27.6,1.57,1.57,0,0,0,1.27-.58A2.19,2.19,0,0,0,216.47,153.14Z"/><path class="cls-12" d="M226.57,149.86l-1.76,6h-1l-1.21-4.3a4,4,0,0,1-.09-.55h0a2.44,2.44,0,0,1-.12.54l-1.31,4.31h-.94l-1.77-6h1l1.21,4.51a2.38,2.38,0,0,1,.08.54h0a2.91,2.91,0,0,1,.1-.55l1.35-4.5H223l1.21,4.52a3.36,3.36,0,0,1,.09.54h0a2.61,2.61,0,0,1,.1-.54l1.19-4.52Z"/><path class="cls-12" d="M231.73,155.86h-.94v-.94h0A2,2,0,0,1,229,156a1.87,1.87,0,0,1-1.37-.48,1.65,1.65,0,0,1-.5-1.26c0-1.12.65-1.77,1.94-1.95l1.75-.25c0-1-.4-1.53-1.21-1.53a2.86,2.86,0,0,0-1.91.73v-1a3.53,3.53,0,0,1,2-.56c1.38,0,2.07.74,2.07,2.24Zm-.94-3-1.41.2a2.25,2.25,0,0,0-1,.33,1,1,0,0,0-.33.84.93.93,0,0,0,.31.72,1.13,1.13,0,0,0,.81.28,1.52,1.52,0,0,0,1.16-.5,1.84,1.84,0,0,0,.45-1.27Z"/><path class="cls-12" d="M236.43,150.83a1.11,1.11,0,0,0-.71-.19,1.18,1.18,0,0,0-1,.58,2.7,2.7,0,0,0-.4,1.58v3.06h-.94v-6h.94v1.23h0a2.06,2.06,0,0,1,.61-1,1.35,1.35,0,0,1,.92-.36,1.58,1.58,0,0,1,.56.08Z"/><path class="cls-12" d="M242,153.1h-4.13a2.25,2.25,0,0,0,.52,1.54,1.78,1.78,0,0,0,1.38.55,2.81,2.81,0,0,0,1.82-.67v.9a3.27,3.27,0,0,1-2,.58,2.42,2.42,0,0,1-2-.82,3.4,3.4,0,0,1-.71-2.3,3.32,3.32,0,0,1,.78-2.28,2.44,2.44,0,0,1,1.92-.88,2.17,2.17,0,0,1,1.78.76,3.22,3.22,0,0,1,.63,2.11Zm-1-.82a2,2,0,0,0-.39-1.29,1.32,1.32,0,0,0-1.07-.46,1.5,1.5,0,0,0-1.13.48,2.23,2.23,0,0,0-.57,1.27Z"/><path class="cls-12" d="M251.14,153.1H247a2.25,2.25,0,0,0,.53,1.54,1.78,1.78,0,0,0,1.38.55,2.81,2.81,0,0,0,1.82-.67v.9a3.27,3.27,0,0,1-2,.58,2.42,2.42,0,0,1-1.95-.82,3.4,3.4,0,0,1-.71-2.3,3.32,3.32,0,0,1,.78-2.28,2.43,2.43,0,0,1,1.92-.88,2.17,2.17,0,0,1,1.78.76,3.22,3.22,0,0,1,.63,2.11Zm-1-.82a2.06,2.06,0,0,0-.39-1.29,1.33,1.33,0,0,0-1.08-.46,1.5,1.5,0,0,0-1.12.48,2.31,2.31,0,0,0-.58,1.27Z"/><path class="cls-12" d="M252.08,155.64v-1a2.73,2.73,0,0,0,1.69.58c.82,0,1.24-.28,1.24-.84a.76.76,0,0,0-.11-.41,1.17,1.17,0,0,0-.29-.3,2.73,2.73,0,0,0-.42-.23l-.52-.21c-.26-.11-.49-.21-.69-.32a2.39,2.39,0,0,1-.49-.36,1.32,1.32,0,0,1-.29-.46,1.66,1.66,0,0,1-.1-.61,1.54,1.54,0,0,1,.18-.75,1.87,1.87,0,0,1,.51-.54,2.2,2.2,0,0,1,.71-.33,2.94,2.94,0,0,1,.84-.11,3.3,3.3,0,0,1,1.36.27v1a2.61,2.61,0,0,0-1.49-.43,1.73,1.73,0,0,0-.47.06,1.26,1.26,0,0,0-.37.17.67.67,0,0,0-.23.27.63.63,0,0,0-.08.34.75.75,0,0,0,.08.39.8.8,0,0,0,.24.28,1.82,1.82,0,0,0,.39.23l.52.21a6.6,6.6,0,0,1,.7.32,1.84,1.84,0,0,1,.52.36,1.32,1.32,0,0,1,.34.47,1.46,1.46,0,0,1,.12.62,1.61,1.61,0,0,1-.19.78,1.67,1.67,0,0,1-.52.54,2.19,2.19,0,0,1-.73.32,3.6,3.6,0,0,1-.88.11A3.28,3.28,0,0,1,252.08,155.64Z"/><path class="cls-12" d="M260,155.8a1.85,1.85,0,0,1-.88.19c-1,0-1.54-.59-1.54-1.76v-3.55h-1v-.82h1v-1.47l.94-.31v1.78H260v.82h-1.48v3.38a1.45,1.45,0,0,0,.2.86.82.82,0,0,0,.67.26,1,1,0,0,0,.61-.2Z"/><path class="cls-12" d="M265.33,155.86h-.93v-.94h0a1.94,1.94,0,0,1-1.8,1.08,1.89,1.89,0,0,1-1.37-.48,1.64,1.64,0,0,1-.49-1.26c0-1.12.64-1.77,1.93-1.95l1.76-.25c0-1-.41-1.53-1.21-1.53a2.84,2.84,0,0,0-1.91.73v-1a3.53,3.53,0,0,1,2-.56c1.38,0,2.06.74,2.06,2.24Zm-.93-3L263,153a2.2,2.2,0,0,0-1,.33,1,1,0,0,0-.33.84.92.92,0,0,0,.3.72,1.17,1.17,0,0,0,.82.28,1.5,1.5,0,0,0,1.15-.5,1.8,1.8,0,0,0,.46-1.27Zm.12-6-1.5,1.92h-.72l1.27-1.92Z"/><path class="cls-12" d="M271.84,155.86h-.93v-3.42c0-1.28-.46-1.91-1.36-1.91a1.48,1.48,0,0,0-1.17.54,2.08,2.08,0,0,0-.46,1.37v3.42H267v-6h.94v1h0a2.11,2.11,0,0,1,1.92-1.13,1.78,1.78,0,0,1,1.47.63,2.9,2.9,0,0,1,.5,1.84Z"/><path class="cls-12" d="M278.49,155.86h-.94v-1h0a2.33,2.33,0,0,1-3.78.35,3.35,3.35,0,0,1-.66-2.19,3.67,3.67,0,0,1,.74-2.39,2.39,2.39,0,0,1,1.95-.89,1.85,1.85,0,0,1,1.75,1h0V147h.94Zm-.94-2.72v-.88a1.72,1.72,0,0,0-.47-1.23,1.51,1.51,0,0,0-1.18-.5,1.58,1.58,0,0,0-1.35.64,2.85,2.85,0,0,0-.5,1.78,2.56,2.56,0,0,0,.48,1.64,1.51,1.51,0,0,0,1.26.6,1.59,1.59,0,0,0,1.28-.58A2.24,2.24,0,0,0,277.55,153.14Z"/><path class="cls-12" d="M284.47,155.86h-.94v-.94h0A2,2,0,0,1,281.7,156a1.89,1.89,0,0,1-1.37-.48,1.64,1.64,0,0,1-.49-1.26c0-1.12.64-1.77,1.93-1.95l1.76-.25c0-1-.4-1.53-1.21-1.53a2.86,2.86,0,0,0-1.91.73v-1a3.53,3.53,0,0,1,2-.56c1.38,0,2.07.74,2.07,2.24Zm-.94-3-1.41.2a2.2,2.2,0,0,0-1,.33,1,1,0,0,0-.33.84.9.9,0,0,0,.31.72,1.13,1.13,0,0,0,.81.28,1.48,1.48,0,0,0,1.15-.5,1.8,1.8,0,0,0,.46-1.27Z"/><path class="cls-12" d="M289.17,150.83a1.13,1.13,0,0,0-.71-.19,1.17,1.17,0,0,0-1,.58,2.7,2.7,0,0,0-.41,1.58v3.06h-.93v-6h.93v1.23h0a2,2,0,0,1,.61-1,1.35,1.35,0,0,1,.92-.36,1.62,1.62,0,0,1,.56.08Z"/><path class="cls-12" d="M298.16,155.86h-.94v-1h0a2.33,2.33,0,0,1-3.78.35,3.35,3.35,0,0,1-.66-2.19,3.67,3.67,0,0,1,.73-2.39,2.41,2.41,0,0,1,1.95-.89,1.87,1.87,0,0,1,1.76,1h0V147h.94Zm-.94-2.72v-.88a1.72,1.72,0,0,0-.47-1.23,1.54,1.54,0,0,0-1.19-.5,1.61,1.61,0,0,0-1.35.64,2.92,2.92,0,0,0-.49,1.78,2.62,2.62,0,0,0,.47,1.64,1.54,1.54,0,0,0,1.27.6,1.57,1.57,0,0,0,1.27-.58A2.19,2.19,0,0,0,297.22,153.14Z"/><path class="cls-12" d="M304.65,153.1h-4.14a2.25,2.25,0,0,0,.53,1.54,1.75,1.75,0,0,0,1.38.55,2.81,2.81,0,0,0,1.82-.67v.9a3.27,3.27,0,0,1-2,.58,2.42,2.42,0,0,1-1.95-.82,3.4,3.4,0,0,1-.71-2.3,3.32,3.32,0,0,1,.78-2.28,2.43,2.43,0,0,1,1.92-.88,2.17,2.17,0,0,1,1.78.76,3.22,3.22,0,0,1,.63,2.11Zm-1-.82a2,2,0,0,0-.4-1.29,1.3,1.3,0,0,0-1.07-.46,1.48,1.48,0,0,0-1.12.48,2.31,2.31,0,0,0-.58,1.27Z"/><path class="cls-12" d="M306.89,155.86H306V147h.94Z"/><path class="cls-12" d="M311.4,155.64v-1a2.73,2.73,0,0,0,1.69.58c.82,0,1.24-.28,1.24-.84a.76.76,0,0,0-.11-.41,1.17,1.17,0,0,0-.29-.3,2.73,2.73,0,0,0-.42-.23l-.52-.21c-.26-.11-.49-.21-.69-.32a2.39,2.39,0,0,1-.49-.36,1.52,1.52,0,0,1-.3-.46,1.91,1.91,0,0,1-.09-.61,1.54,1.54,0,0,1,.18-.75,1.87,1.87,0,0,1,.51-.54,2.2,2.2,0,0,1,.71-.33,2.94,2.94,0,0,1,.84-.11A3.3,3.3,0,0,1,315,150v1a2.61,2.61,0,0,0-1.49-.43,1.73,1.73,0,0,0-.47.06,1.26,1.26,0,0,0-.37.17.67.67,0,0,0-.23.27.63.63,0,0,0-.08.34.75.75,0,0,0,.08.39.71.71,0,0,0,.24.28,1.82,1.82,0,0,0,.39.23l.52.21a6.6,6.6,0,0,1,.7.32,2,2,0,0,1,.52.36,1.32,1.32,0,0,1,.34.47,1.46,1.46,0,0,1,.12.62,1.51,1.51,0,0,1-.2.78,1.54,1.54,0,0,1-.51.54,2.16,2.16,0,0,1-.74.32,3.45,3.45,0,0,1-.87.11A3.28,3.28,0,0,1,311.4,155.64Z"/><path class="cls-12" d="M321.32,153.1h-4.14a2.25,2.25,0,0,0,.53,1.54,1.75,1.75,0,0,0,1.38.55,2.81,2.81,0,0,0,1.82-.67v.9a3.27,3.27,0,0,1-2,.58,2.42,2.42,0,0,1-1.95-.82,3.4,3.4,0,0,1-.71-2.3,3.32,3.32,0,0,1,.78-2.28,2.43,2.43,0,0,1,1.92-.88,2.17,2.17,0,0,1,1.78.76,3.22,3.22,0,0,1,.63,2.11Zm-1-.82A2,2,0,0,0,320,151a1.3,1.3,0,0,0-1.07-.46,1.48,1.48,0,0,0-1.12.48,2.31,2.31,0,0,0-.58,1.27Z"/><path class="cls-12" d="M326.61,155.58a3,3,0,0,1-1.6.42,2.6,2.6,0,0,1-2-.84,3,3,0,0,1-.77-2.16,3.34,3.34,0,0,1,.83-2.38,2.86,2.86,0,0,1,2.21-.9,3,3,0,0,1,1.36.29v1a2.34,2.34,0,0,0-1.39-.46,1.91,1.91,0,0,0-1.48.65,2.57,2.57,0,0,0-.57,1.74,2.42,2.42,0,0,0,.54,1.66,1.82,1.82,0,0,0,1.45.61,2.3,2.3,0,0,0,1.44-.52Z"/><path class="cls-12" d="M330.63,155.8a1.85,1.85,0,0,1-.88.19c-1,0-1.54-.59-1.54-1.76v-3.55h-1v-.82h1v-1.47l.94-.31v1.78h1.48v.82h-1.48v3.38a1.45,1.45,0,0,0,.2.86.8.8,0,0,0,.66.26,1,1,0,0,0,.62-.2Z"/><path class="cls-12" d="M334.21,156a2.66,2.66,0,0,1-2.07-.84,3.16,3.16,0,0,1-.78-2.23,3.27,3.27,0,0,1,.81-2.36,2.85,2.85,0,0,1,2.18-.85,2.59,2.59,0,0,1,2,.82,3.34,3.34,0,0,1,.74,2.29,3.25,3.25,0,0,1-.8,2.3A2.71,2.71,0,0,1,334.21,156Zm.07-5.47a1.77,1.77,0,0,0-1.43.63,2.61,2.61,0,0,0-.53,1.73,2.51,2.51,0,0,0,.53,1.68,1.8,1.8,0,0,0,1.43.62,1.72,1.72,0,0,0,1.4-.6,3.28,3.28,0,0,0,0-3.45A1.7,1.7,0,0,0,334.28,150.53Z"/><path class="cls-12" d="M341.56,150.83a1.11,1.11,0,0,0-.71-.19,1.18,1.18,0,0,0-1,.58,2.7,2.7,0,0,0-.41,1.58v3.06h-.93v-6h.93v1.23h0a2,2,0,0,1,.61-1,1.35,1.35,0,0,1,.92-.36,1.62,1.62,0,0,1,.56.08Z"/><path class="cls-12" d="M21.61,155.86h-1V152H16.41v3.83h-1v-8.4h1v3.68h4.24v-3.68h1Z"/><path class="cls-12" d="M27.71,155.86h-.94v-.94h0A2,2,0,0,1,25,156a1.87,1.87,0,0,1-1.37-.48,1.65,1.65,0,0,1-.5-1.26c0-1.12.65-1.77,1.94-1.95l1.75-.25c0-1-.4-1.53-1.21-1.53a2.81,2.81,0,0,0-1.9.73v-1a3.49,3.49,0,0,1,2-.56c1.37,0,2.06.74,2.06,2.24Zm-.94-3-1.41.2a2.2,2.2,0,0,0-1,.33,1,1,0,0,0-.34.84.93.93,0,0,0,.31.72,1.15,1.15,0,0,0,.82.28,1.51,1.51,0,0,0,1.15-.5,1.84,1.84,0,0,0,.45-1.27Z"/><path class="cls-12" d="M32.41,150.83a1.11,1.11,0,0,0-.71-.19,1.18,1.18,0,0,0-1,.58,2.7,2.7,0,0,0-.4,1.58v3.06h-.94v-6h.94v1.23h0a2.06,2.06,0,0,1,.61-1,1.37,1.37,0,0,1,.92-.36,1.58,1.58,0,0,1,.56.08Z"/><path class="cls-12" d="M38.31,155.86h-.94v-1h0a2.33,2.33,0,0,1-3.78.35,3.35,3.35,0,0,1-.66-2.19,3.67,3.67,0,0,1,.74-2.39,2.39,2.39,0,0,1,2-.89,1.86,1.86,0,0,1,1.75,1h0V147h.94Zm-.94-2.72v-.88A1.72,1.72,0,0,0,36.9,151a1.51,1.51,0,0,0-1.18-.5,1.58,1.58,0,0,0-1.35.64,2.85,2.85,0,0,0-.5,1.78,2.56,2.56,0,0,0,.48,1.64,1.51,1.51,0,0,0,1.26.6,1.59,1.59,0,0,0,1.28-.58A2.24,2.24,0,0,0,37.37,153.14Z"/><path class="cls-12" d="M47.47,149.86l-1.75,6h-1l-1.2-4.3a2.26,2.26,0,0,1-.09-.55h0a2.44,2.44,0,0,1-.12.54L42,155.86h-.93l-1.78-6h1l1.21,4.51a3.12,3.12,0,0,1,.08.54h0a3,3,0,0,1,.11-.55l1.35-4.5h.85l1.22,4.52a5.29,5.29,0,0,1,.08.54h0a3.35,3.35,0,0,1,.09-.54l1.19-4.52Z"/><path class="cls-12" d="M52.63,155.86h-.94v-.94h0a2,2,0,0,1-1.8,1.08,1.89,1.89,0,0,1-1.37-.48,1.64,1.64,0,0,1-.49-1.26c0-1.12.64-1.77,1.93-1.95l1.75-.25q0-1.53-1.2-1.53a2.84,2.84,0,0,0-1.91.73v-1a3.51,3.51,0,0,1,2-.56c1.37,0,2.06.74,2.06,2.24Zm-.94-3-1.41.2a2.2,2.2,0,0,0-1,.33,1,1,0,0,0-.33.84.92.92,0,0,0,.3.72,1.17,1.17,0,0,0,.82.28,1.5,1.5,0,0,0,1.15-.5,1.84,1.84,0,0,0,.45-1.27Z"/><path class="cls-12" d="M57.34,150.83a1.13,1.13,0,0,0-.71-.19,1.2,1.2,0,0,0-1,.58,2.7,2.7,0,0,0-.4,1.58v3.06h-.94v-6h.94v1.23h0a2.14,2.14,0,0,1,.61-1,1.39,1.39,0,0,1,.92-.36,1.65,1.65,0,0,1,.57.08Z"/><path class="cls-12" d="M62.94,153.1H58.81a2.25,2.25,0,0,0,.52,1.54,1.79,1.79,0,0,0,1.39.55,2.83,2.83,0,0,0,1.82-.67v.9a3.32,3.32,0,0,1-2,.58,2.45,2.45,0,0,1-2-.82,3.4,3.4,0,0,1-.7-2.3,3.32,3.32,0,0,1,.77-2.28,2.46,2.46,0,0,1,1.92-.88,2.17,2.17,0,0,1,1.78.76,3.22,3.22,0,0,1,.63,2.11Zm-1-.82a2,2,0,0,0-.39-1.29,1.31,1.31,0,0,0-1.07-.46,1.52,1.52,0,0,0-1.13.48,2.23,2.23,0,0,0-.57,1.27Z"/><path class="cls-12" d="M72.33,155.86H71.4v-1h0a2.33,2.33,0,0,1-3.78.35,3.35,3.35,0,0,1-.66-2.19,3.67,3.67,0,0,1,.74-2.39,2.39,2.39,0,0,1,2-.89,1.85,1.85,0,0,1,1.75,1h0V147h.93Zm-.93-2.72v-.88a1.77,1.77,0,0,0-.47-1.23,1.55,1.55,0,0,0-1.19-.5,1.58,1.58,0,0,0-1.35.64A2.85,2.85,0,0,0,67.9,153a2.56,2.56,0,0,0,.47,1.64,1.51,1.51,0,0,0,1.26.6,1.59,1.59,0,0,0,1.28-.58A2.25,2.25,0,0,0,71.4,153.14Z"/><path class="cls-12" d="M78.82,153.1H74.69a2.25,2.25,0,0,0,.52,1.54,1.79,1.79,0,0,0,1.39.55,2.78,2.78,0,0,0,1.81-.67v.9a3.27,3.27,0,0,1-2,.58,2.45,2.45,0,0,1-2-.82,3.4,3.4,0,0,1-.71-2.3,3.32,3.32,0,0,1,.78-2.28,2.46,2.46,0,0,1,1.92-.88,2.17,2.17,0,0,1,1.78.76,3.22,3.22,0,0,1,.63,2.11Zm-1-.82a2,2,0,0,0-.39-1.29,1.32,1.32,0,0,0-1.07-.46,1.5,1.5,0,0,0-1.13.48,2.23,2.23,0,0,0-.57,1.27Z"/><path class="cls-12" d="M89.69,155.86H88.62l-.87-2.36H84.28l-.82,2.36H82.39l3.14-8.4h1Zm-2.25-3.24L86.15,149a3.81,3.81,0,0,1-.12-.57h0a2.7,2.7,0,0,1-.13.57l-1.27,3.58Z"/><path class="cls-12" d="M94.73,150.13,91.27,155H94.7v.82H89.89v-.3l3.46-4.88H90.21v-.82h4.52Z"/><path class="cls-12" d="M100.56,155.86h-.94v-1h0A1.92,1.92,0,0,1,97.79,156c-1.39,0-2.09-.85-2.09-2.56v-3.58h.93v3.43c0,1.27.48,1.9,1.42,1.9a1.4,1.4,0,0,0,1.13-.52,2,2,0,0,0,.44-1.36v-3.45h.94Z"/><path class="cls-12" d="M105.39,150.83a1.11,1.11,0,0,0-.71-.19,1.18,1.18,0,0,0-1,.58,2.7,2.7,0,0,0-.4,1.58v3.06h-.94v-6h.94v1.23h0a2.06,2.06,0,0,1,.61-1,1.37,1.37,0,0,1,.92-.36,1.58,1.58,0,0,1,.56.08Z"/><path class="cls-12" d="M111,153.1h-4.14a2.3,2.3,0,0,0,.53,1.54,1.78,1.78,0,0,0,1.38.55,2.81,2.81,0,0,0,1.82-.67v.9a3.27,3.27,0,0,1-2,.58,2.42,2.42,0,0,1-2-.82,3.4,3.4,0,0,1-.71-2.3,3.32,3.32,0,0,1,.78-2.28,2.43,2.43,0,0,1,1.92-.88,2.17,2.17,0,0,1,1.78.76,3.22,3.22,0,0,1,.63,2.11Zm-1-.82a2.06,2.06,0,0,0-.39-1.29,1.33,1.33,0,0,0-1.08-.46,1.5,1.5,0,0,0-1.12.48,2.23,2.23,0,0,0-.57,1.27Z"/></g></svg>